<svg width="472" height="200" viewBox="0 0 472 200" fill="none" xmlns="http://www.w3.org/2000/svg">
<path d="M223.248 17C222.528 17 222.168 16.538 222.168 15.614V6.902H222.042L218.334 16.334C218.154 16.778 217.902 17 217.578 17C217.242 17 216.984 16.778 216.804 16.334L213.348 6.902H213.222V15.992C213.222 16.34 213.144 16.598 212.988 16.766C212.844 16.922 212.676 17 212.484 17C212.292 17 212.13 16.934 211.998 16.802C211.866 16.67 211.8 16.466 211.8 16.19V5.192C211.8 4.892 211.914 4.658 212.142 4.49C212.37 4.322 212.64 4.238 212.952 4.238C213.216 4.238 213.474 4.31 213.726 4.454C213.99 4.586 214.182 4.802 214.302 5.102L217.758 14.66H217.848L221.61 5.192C221.73 4.856 221.922 4.616 222.186 4.472C222.462 4.316 222.756 4.238 223.068 4.238C223.38 4.238 223.608 4.316 223.752 4.472C223.908 4.628 223.986 4.868 223.986 5.192V16.1C223.986 16.436 223.932 16.67 223.824 16.802C223.716 16.934 223.524 17 223.248 17ZM228.125 16.046C227.981 16.43 227.813 16.688 227.621 16.82C227.441 16.94 227.243 17 227.027 17C226.859 17 226.733 16.958 226.649 16.874C226.577 16.778 226.541 16.658 226.541 16.514C226.541 16.37 226.571 16.22 226.631 16.064L230.861 4.67C230.909 4.538 231.023 4.436 231.203 4.364C231.395 4.28 231.611 4.238 231.851 4.238C232.115 4.238 232.349 4.28 232.553 4.364C232.769 4.448 232.901 4.568 232.949 4.724L237.071 16.136C237.095 16.256 237.107 16.346 237.107 16.406C237.107 16.574 237.047 16.718 236.927 16.838C236.819 16.946 236.645 17 236.405 17C236.153 17 235.895 16.934 235.631 16.802C235.379 16.67 235.187 16.418 235.055 16.046L234.101 13.58H229.043L228.125 16.046ZM231.653 6.362H231.545L229.331 12.644H233.831L231.653 6.362ZM241.676 15.83C241.676 16.25 241.586 16.55 241.406 16.73C241.226 16.91 240.944 17 240.56 17C240.284 17 240.074 16.928 239.93 16.784C239.798 16.64 239.732 16.412 239.732 16.1V5.138C239.732 4.814 239.792 4.586 239.912 4.454C240.032 4.31 240.236 4.238 240.524 4.238H243.53C244.274 4.238 244.988 4.31 245.672 4.454C246.368 4.598 246.998 4.946 247.562 5.498C248.126 6.038 248.408 6.86 248.408 7.964C248.408 8.732 248.228 9.428 247.868 10.052C247.508 10.664 246.962 11.15 246.23 11.51C245.51 11.87 244.616 12.05 243.548 12.05H241.676V15.83ZM241.676 11.096H243.53C244.43 11.096 245.126 10.844 245.618 10.34C246.122 9.824 246.374 9.032 246.374 7.964C246.374 7.076 246.152 6.392 245.708 5.912C245.276 5.432 244.55 5.192 243.53 5.192H241.676V11.096ZM256.215 15.92C256.215 16.328 256.125 16.61 255.945 16.766C255.777 16.922 255.495 17 255.099 17C254.823 17 254.613 16.928 254.469 16.784C254.337 16.64 254.271 16.412 254.271 16.1V5.192H251.571V6.47C251.571 6.89 251.481 7.19 251.301 7.37C251.133 7.55 250.875 7.64 250.527 7.64C250.263 7.64 250.065 7.568 249.933 7.424C249.813 7.28 249.753 7.052 249.753 6.74V4.904C249.753 4.652 249.837 4.478 250.005 4.382C250.185 4.286 250.461 4.238 250.833 4.238H259.653C260.025 4.238 260.295 4.286 260.463 4.382C260.643 4.478 260.733 4.652 260.733 4.904V6.74C260.733 7.052 260.667 7.28 260.535 7.424C260.415 7.568 260.223 7.64 259.959 7.64C259.611 7.64 259.347 7.55 259.167 7.37C258.999 7.19 258.915 6.89 258.915 6.47V5.192H256.215V15.92Z" fill="#064E3B"/>
<path d="M214.595 97.09C214.331 97.09 214.133 97.018 214.001 96.874C213.881 96.73 213.821 96.502 213.821 96.19V95.11C213.821 94.906 213.845 94.756 213.893 94.66C213.953 94.564 214.067 94.462 214.235 94.354C214.847 93.946 215.435 93.658 215.999 93.49C216.575 93.322 217.199 93.238 217.871 93.238C219.059 93.238 219.935 93.544 220.499 94.156C221.075 94.756 221.363 95.518 221.363 96.442C221.363 97.606 220.895 98.866 219.959 100.222C219.035 101.566 217.415 103.174 215.099 105.046H219.797V103.93C219.797 103.51 219.875 103.21 220.031 103.03C220.199 102.85 220.439 102.76 220.751 102.76C221.015 102.76 221.207 102.832 221.327 102.976C221.459 103.12 221.525 103.348 221.525 103.66V105.424C221.525 105.628 221.435 105.778 221.255 105.874C221.075 105.958 220.805 106 220.445 106H214.055C213.911 106 213.797 105.952 213.713 105.856C213.641 105.76 213.605 105.64 213.605 105.496C213.605 105.244 213.695 105.04 213.875 104.884L214.127 104.65C216.203 102.718 217.589 101.11 218.285 99.826C218.981 98.53 219.329 97.492 219.329 96.712C219.329 96.028 219.179 95.434 218.879 94.93C218.591 94.414 218.063 94.156 217.295 94.156C216.719 94.156 216.137 94.312 215.549 94.624V95.92C215.549 96.352 215.477 96.658 215.333 96.838C215.189 97.006 214.943 97.09 214.595 97.09ZM227.089 99.628C227.089 97.72 227.419 96.178 228.079 95.002C228.739 93.826 229.795 93.238 231.247 93.238C232.699 93.238 233.755 93.826 234.415 95.002C235.075 96.178 235.405 97.72 235.405 99.628C235.405 101.596 235.075 103.15 234.415 104.29C233.767 105.43 232.711 106 231.247 106C229.783 106 228.721 105.43 228.061 104.29C227.413 103.15 227.089 101.596 227.089 99.628ZM233.425 99.628C233.425 98.032 233.281 96.724 232.993 95.704C232.705 94.672 232.123 94.156 231.247 94.156C230.371 94.156 229.789 94.672 229.501 95.704C229.213 96.724 229.069 98.032 229.069 99.628C229.069 100.72 229.117 101.656 229.213 102.436C229.309 103.204 229.513 103.84 229.825 104.344C230.149 104.836 230.623 105.082 231.247 105.082C231.871 105.082 232.339 104.836 232.651 104.344C232.975 103.84 233.185 103.204 233.281 102.436C233.377 101.656 233.425 100.72 233.425 99.628ZM241.598 97.09C241.334 97.09 241.136 97.018 241.004 96.874C240.884 96.73 240.824 96.502 240.824 96.19V95.11C240.824 94.906 240.848 94.756 240.896 94.66C240.956 94.564 241.07 94.462 241.238 94.354C241.85 93.946 242.438 93.658 243.002 93.49C243.578 93.322 244.202 93.238 244.874 93.238C246.062 93.238 246.938 93.544 247.502 94.156C248.078 94.756 248.366 95.518 248.366 96.442C248.366 97.606 247.898 98.866 246.962 100.222C246.038 101.566 244.418 103.174 242.102 105.046H246.8V103.93C246.8 103.51 246.878 103.21 247.034 103.03C247.202 102.85 247.442 102.76 247.754 102.76C248.018 102.76 248.21 102.832 248.33 102.976C248.462 103.12 248.528 103.348 248.528 103.66V105.424C248.528 105.628 248.438 105.778 248.258 105.874C248.078 105.958 247.808 106 247.448 106H241.058C240.914 106 240.8 105.952 240.716 105.856C240.644 105.76 240.608 105.64 240.608 105.496C240.608 105.244 240.698 105.04 240.878 104.884L241.13 104.65C243.206 102.718 244.592 101.11 245.288 99.826C245.984 98.53 246.332 97.492 246.332 96.712C246.332 96.028 246.182 95.434 245.882 94.93C245.594 94.414 245.066 94.156 244.298 94.156C243.722 94.156 243.14 94.312 242.552 94.624V95.92C242.552 96.352 242.48 96.658 242.336 96.838C242.192 97.006 241.946 97.09 241.598 97.09ZM254.794 102.166C255.142 102.166 255.388 102.256 255.532 102.436C255.676 102.604 255.748 102.904 255.748 103.336V104.632C256.264 104.932 256.876 105.082 257.584 105.082C258.292 105.082 258.874 104.86 259.33 104.416C259.798 103.96 260.032 103.282 260.032 102.382C260.032 101.434 259.804 100.774 259.348 100.402C258.892 100.03 258.238 99.844 257.386 99.844H256.864C256.78 99.844 256.708 99.796 256.648 99.7C256.6 99.604 256.576 99.49 256.576 99.358C256.576 99.226 256.6 99.112 256.648 99.016C256.708 98.908 256.78 98.854 256.864 98.854H257.386C258.154 98.854 258.724 98.65 259.096 98.242C259.468 97.822 259.654 97.186 259.654 96.334C259.654 95.59 259.468 95.044 259.096 94.696C258.724 94.336 258.226 94.156 257.602 94.156C257.326 94.156 257.038 94.198 256.738 94.282C256.438 94.354 256.168 94.456 255.928 94.588V95.884C255.928 96.316 255.856 96.622 255.712 96.802C255.568 96.97 255.322 97.054 254.974 97.054C254.71 97.054 254.512 96.982 254.38 96.838C254.26 96.694 254.2 96.466 254.2 96.154V95.074C254.2 94.858 254.23 94.696 254.29 94.588C254.35 94.468 254.458 94.36 254.614 94.264C255.178 93.904 255.73 93.646 256.27 93.49C256.822 93.322 257.416 93.238 258.052 93.238C259.264 93.238 260.164 93.52 260.752 94.084C261.34 94.648 261.634 95.398 261.634 96.334C261.634 97.078 261.412 97.702 260.968 98.206C260.536 98.71 260.002 99.028 259.366 99.16V99.322C260.17 99.43 260.818 99.73 261.31 100.222C261.802 100.714 262.048 101.428 262.048 102.364C262.048 103.096 261.868 103.738 261.508 104.29C261.16 104.83 260.662 105.25 260.014 105.55C259.378 105.85 258.64 106 257.8 106C256.612 106 255.49 105.688 254.434 105.064C254.158 104.896 254.02 104.59 254.02 104.146V103.066C254.02 102.754 254.08 102.526 254.2 102.382C254.332 102.238 254.53 102.166 254.794 102.166Z" fill="#064E3B"/>
<path d="M223.75 48.06C223.51 48.16 223.27 48.21 223.03 48.21C222.79 48.21 222.6 48.12 222.46 47.94C222.32 47.76 222.25 47.56 222.25 47.34C222.25 47.04 222.46 46.82 222.88 46.68L227.11 45.03C227.65 44.83 228.19 44.73 228.73 44.73C229.27 44.73 229.66 44.85 229.9 45.09C230.14 45.33 230.26 45.71 230.26 46.23V64.41H232.84C233.3 64.41 233.61 64.49 233.77 64.65C233.95 64.81 234.04 65.02 234.04 65.28C234.04 65.5 233.98 65.68 233.86 65.82C233.74 65.94 233.5 66 233.14 66H224.2C223.84 66 223.6 65.94 223.48 65.82C223.36 65.68 223.3 65.5 223.3 65.28C223.3 65.02 223.38 64.81 223.54 64.65C223.72 64.49 224.04 64.41 224.5 64.41H227.08V46.8L223.75 48.06ZM239.148 60.84C239.728 60.84 240.138 60.98 240.378 61.26C240.618 61.54 240.738 62.02 240.738 62.7V64.17C241.218 64.37 241.868 64.47 242.688 64.47C243.428 64.47 244.128 64.22 244.788 63.72C245.468 63.22 246.018 62.4 246.438 61.26C246.878 60.1 247.098 58.61 247.098 56.79V55.53C246.658 56.45 246.028 57.12 245.208 57.54C244.408 57.96 243.548 58.17 242.628 58.17C240.868 58.17 239.508 57.57 238.548 56.37C237.588 55.17 237.108 53.59 237.108 51.63C237.108 50.21 237.388 48.98 237.948 47.94C238.508 46.9 239.288 46.11 240.288 45.57C241.288 45.01 242.418 44.73 243.678 44.73C245.458 44.73 246.838 45.14 247.818 45.96C248.798 46.78 249.458 47.86 249.798 49.2C250.138 50.52 250.308 52.11 250.308 53.97C250.308 61.99 247.778 66 242.718 66C242.018 66 241.388 65.95 240.828 65.85C240.268 65.73 239.688 65.56 239.088 65.34C238.708 65.2 238.408 65.02 238.188 64.8C237.968 64.58 237.858 64.25 237.858 63.81V62.28C237.858 61.32 238.288 60.84 239.148 60.84ZM243.498 56.25C244.438 56.25 245.228 55.83 245.868 54.99C246.528 54.13 246.858 52.96 246.858 51.48C246.858 50.08 246.638 48.86 246.198 47.82C245.758 46.78 244.948 46.26 243.768 46.26C242.728 46.26 241.898 46.7 241.278 47.58C240.678 48.46 240.378 49.82 240.378 51.66C240.378 54.72 241.418 56.25 243.498 56.25Z" fill="#064E3B"/>
<path d="M50.2968 50.456C50.2968 50.1573 50.3555 49.9493 50.4728 49.832C50.5901 49.7147 50.7928 49.656 51.0808 49.656C51.3901 49.656 51.6195 49.72 51.7688 49.848C51.9181 49.976 51.9928 50.2267 51.9928 50.6V54.776H52.2648L56.3608 49.976C56.5315 49.7627 56.7395 49.656 56.9848 49.656C57.1448 49.656 57.2781 49.7093 57.3848 49.816C57.4915 49.9227 57.5448 50.04 57.5448 50.168C57.5448 50.2427 57.5181 50.3067 57.4648 50.36L53.4968 54.872L57.5928 59.944C57.7421 60.1147 57.8168 60.2693 57.8168 60.408C57.8168 60.568 57.7528 60.7067 57.6248 60.824C57.5075 60.9413 57.3528 61 57.1608 61C56.8941 61 56.6488 60.952 56.4248 60.856C56.2115 60.7493 55.9875 60.536 55.7528 60.216L52.2648 55.64H51.9928V60.04C51.9928 60.4027 51.9181 60.6533 51.7688 60.792C51.6301 60.9307 51.4115 61 51.1128 61C50.8248 61 50.6168 60.936 50.4888 60.808C50.3608 60.68 50.2968 60.4773 50.2968 60.2V55.64H50.0248L46.5368 60.216C46.3021 60.536 46.0728 60.7493 45.8488 60.856C45.6355 60.952 45.3955 61 45.1288 61C44.9368 61 44.7768 60.9413 44.6488 60.824C44.5315 60.7067 44.4728 60.568 44.4728 60.408C44.4728 60.2693 44.5475 60.1147 44.6968 59.944L48.7928 54.872L44.8248 50.36C44.7715 50.3067 44.7448 50.2427 44.7448 50.168C44.7448 50.04 44.7981 49.9227 44.9048 49.816C45.0115 49.7093 45.1448 49.656 45.3048 49.656C45.5501 49.656 45.7581 49.7627 45.9288 49.976L50.0248 54.776H50.2968V50.456ZM68.5808 52.44C68.2715 52.44 68.0368 52.36 67.8768 52.2C67.7275 52.04 67.6528 51.7733 67.6528 51.4V50.504H63.8608V54.696H67.2208C67.3595 54.696 67.4661 54.744 67.5408 54.84C67.6261 54.9253 67.6688 55.0267 67.6688 55.144C67.6688 55.2507 67.6208 55.352 67.5248 55.448C67.4288 55.5333 67.3275 55.576 67.2208 55.576H63.8608V60.152H67.8928V59.256C67.8928 58.8827 67.9675 58.616 68.1168 58.456C68.2768 58.296 68.5115 58.216 68.8208 58.216C69.0555 58.216 69.2261 58.28 69.3328 58.408C69.4501 58.536 69.5088 58.7387 69.5088 59.016V60.408C69.5088 60.632 69.4288 60.7867 69.2688 60.872C69.1195 60.9573 68.8795 61 68.5488 61H62.8688C62.6235 61 62.4368 60.936 62.3088 60.808C62.1915 60.68 62.1328 60.4773 62.1328 60.2V50.456C62.1328 50.1787 62.1915 49.976 62.3088 49.848C62.4368 49.72 62.6235 49.656 62.8688 49.656H68.3088C68.6395 49.656 68.8795 49.6987 69.0288 49.784C69.1888 49.8693 69.2688 50.024 69.2688 50.248V51.64C69.2688 51.9173 69.2101 52.12 69.0928 52.248C68.9861 52.376 68.8155 52.44 68.5808 52.44ZM76.4462 54.776L81.1502 49.976C81.3529 49.7627 81.5662 49.656 81.7902 49.656C81.9502 49.656 82.0835 49.7093 82.1902 49.816C82.3075 49.9227 82.3662 50.04 82.3662 50.168C82.3662 50.2427 82.3395 50.3067 82.2862 50.36L77.7262 54.872L82.3342 59.944C82.4835 60.1147 82.5582 60.2693 82.5582 60.408C82.5582 60.568 82.4942 60.7067 82.3662 60.824C82.2489 60.9413 82.0942 61 81.9022 61C81.6569 61 81.4222 60.9467 81.1982 60.84C80.9849 60.7333 80.7395 60.5253 80.4622 60.216L76.4462 55.656H76.1102V59.96C76.1102 60.3333 76.0302 60.6 75.8702 60.76C75.7102 60.92 75.4595 61 75.1182 61C74.8729 61 74.6862 60.936 74.5582 60.808C74.4409 60.68 74.3822 60.4773 74.3822 60.2V50.456C74.3822 50.168 74.4355 49.9653 74.5422 49.848C74.6489 49.72 74.8302 49.656 75.0862 49.656C75.4169 49.656 75.6675 49.7627 75.8382 49.976C76.0195 50.1787 76.1102 50.4827 76.1102 50.888V54.776H76.4462ZM87.4613 61C87.216 61 87.0293 60.936 86.9013 60.808C86.784 60.68 86.7253 60.4773 86.7253 60.2V50.456C86.7253 50.168 86.7786 49.9653 86.8853 49.848C86.992 49.72 87.1733 49.656 87.4293 49.656C87.76 49.656 88.0106 49.7627 88.1813 49.976C88.3626 50.1787 88.4533 50.4827 88.4533 50.888V60.152H92.3093V50.616C92.3093 50.2533 92.384 50.0027 92.5333 49.864C92.6933 49.7253 92.9493 49.656 93.3013 49.656C93.5466 49.656 93.728 49.72 93.8453 49.848C93.9733 49.976 94.0373 50.1787 94.0373 50.456V60.152H97.8933V50.696C97.8933 50.3227 97.9733 50.056 98.1333 49.896C98.2933 49.736 98.544 49.656 98.8853 49.656C99.1306 49.656 99.312 49.72 99.4293 49.848C99.5573 49.976 99.6213 50.1787 99.6213 50.456V60.2C99.6213 60.4773 99.5573 60.68 99.4293 60.808C99.312 60.936 99.1306 61 98.8853 61H87.4613ZM111.907 52.44C111.598 52.44 111.363 52.36 111.203 52.2C111.054 52.04 110.979 51.7733 110.979 51.4V50.504H107.187V54.696H110.547C110.686 54.696 110.792 54.744 110.867 54.84C110.952 54.9253 110.995 55.0267 110.995 55.144C110.995 55.2507 110.947 55.352 110.851 55.448C110.755 55.5333 110.654 55.576 110.547 55.576H107.187V60.152H111.219V59.256C111.219 58.8827 111.294 58.616 111.443 58.456C111.603 58.296 111.838 58.216 112.147 58.216C112.382 58.216 112.552 58.28 112.659 58.408C112.776 58.536 112.835 58.7387 112.835 59.016V60.408C112.835 60.632 112.755 60.7867 112.595 60.872C112.446 60.9573 112.206 61 111.875 61H106.195C105.95 61 105.763 60.936 105.635 60.808C105.518 60.68 105.459 60.4773 105.459 60.2V50.456C105.459 50.1787 105.518 49.976 105.635 49.848C105.763 49.72 105.95 49.656 106.195 49.656H111.635C111.966 49.656 112.206 49.6987 112.355 49.784C112.515 49.8693 112.595 50.024 112.595 50.248V51.64C112.595 51.9173 112.536 52.12 112.419 52.248C112.312 52.376 112.142 52.44 111.907 52.44ZM127.884 61C127.244 61 126.924 60.5893 126.924 59.768V52.024H126.812L123.516 60.408C123.356 60.8027 123.132 61 122.844 61C122.546 61 122.316 60.8027 122.156 60.408L119.084 52.024H118.972V60.104C118.972 60.4133 118.903 60.6427 118.764 60.792C118.636 60.9307 118.487 61 118.316 61C118.146 61 118.002 60.9413 117.884 60.824C117.767 60.7067 117.708 60.5253 117.708 60.28V50.504C117.708 50.2373 117.81 50.0293 118.012 49.88C118.215 49.7307 118.455 49.656 118.732 49.656C118.967 49.656 119.196 49.72 119.42 49.848C119.655 49.9653 119.826 50.1573 119.932 50.424L123.004 58.92H123.084L126.428 50.504C126.535 50.2053 126.706 49.992 126.94 49.864C127.186 49.7253 127.447 49.656 127.724 49.656C128.002 49.656 128.204 49.7253 128.332 49.864C128.471 50.0027 128.54 50.216 128.54 50.504V60.2C128.54 60.4987 128.492 60.7067 128.396 60.824C128.3 60.9413 128.13 61 127.884 61ZM140.956 52.44C140.646 52.44 140.412 52.36 140.252 52.2C140.102 52.04 140.028 51.7733 140.028 51.4V50.504H136.108V54.344H138.428C139.697 54.344 140.673 54.6 141.356 55.112C142.038 55.624 142.38 56.4613 142.38 57.624C142.38 58.4667 142.161 59.144 141.724 59.656C141.286 60.1573 140.764 60.5093 140.156 60.712C139.548 60.904 138.961 61 138.396 61H135.116C134.87 61 134.684 60.936 134.556 60.808C134.438 60.68 134.38 60.4773 134.38 60.2V50.456C134.38 50.1787 134.438 49.976 134.556 49.848C134.684 49.72 134.87 49.656 135.116 49.656H140.684C141.014 49.656 141.254 49.6987 141.404 49.784C141.564 49.8693 141.644 50.024 141.644 50.248V51.64C141.644 51.9173 141.585 52.12 141.468 52.248C141.361 52.376 141.19 52.44 140.956 52.44ZM136.108 60.152H138.188C138.817 60.152 139.372 59.9493 139.852 59.544C140.332 59.1387 140.572 58.4987 140.572 57.624C140.572 56.0027 139.75 55.192 138.108 55.192H136.108V60.152ZM155.267 49.656C155.513 49.656 155.694 49.72 155.811 49.848C155.939 49.976 156.003 50.1787 156.003 50.456V60.2C156.003 60.488 155.95 60.696 155.843 60.824C155.737 60.9413 155.555 61 155.299 61C154.969 61 154.713 60.8987 154.531 60.696C154.361 60.4827 154.275 60.1733 154.275 59.768V51.88L149.091 60.44C148.995 60.6107 148.878 60.7493 148.739 60.856C148.601 60.952 148.387 61 148.099 61C147.854 61 147.667 60.936 147.539 60.808C147.422 60.68 147.363 60.4773 147.363 60.2V50.456C147.363 50.168 147.417 49.9653 147.523 49.848C147.63 49.72 147.811 49.656 148.067 49.656C148.398 49.656 148.649 49.7627 148.819 49.976C149.001 50.1787 149.091 50.4827 149.091 50.888V58.776L154.275 50.216C154.393 50.024 154.515 49.8853 154.643 49.8C154.771 49.704 154.979 49.656 155.267 49.656Z" fill="#064E3B"/>
<line y1="36" x2="200" y2="36" stroke="#064E3B" stroke-width="2"/>
<line y1="72" x2="200" y2="72" stroke="#064E3B" stroke-width="2"/>
<path d="M351.072 51.432C350.944 51.4853 350.816 51.512 350.688 51.512C350.56 51.512 350.458 51.464 350.384 51.368C350.309 51.272 350.272 51.1653 350.272 51.048C350.272 50.888 350.384 50.7707 350.608 50.696L352.864 49.816C353.152 49.7093 353.44 49.656 353.728 49.656C354.016 49.656 354.224 49.72 354.352 49.848C354.48 49.976 354.544 50.1787 354.544 50.456V60.152H355.92C356.165 60.152 356.33 60.1947 356.416 60.28C356.512 60.3653 356.56 60.4773 356.56 60.616C356.56 60.7333 356.528 60.8293 356.464 60.904C356.4 60.968 356.272 61 356.08 61H351.312C351.12 61 350.992 60.968 350.928 60.904C350.864 60.8293 350.832 60.7333 350.832 60.616C350.832 60.4773 350.874 60.3653 350.96 60.28C351.056 60.1947 351.226 60.152 351.472 60.152H352.848V50.76L351.072 51.432ZM366.948 52.408C366.639 52.408 366.42 52.3333 366.292 52.184C366.164 52.0347 366.1 51.7787 366.1 51.416V50.632C365.844 50.5253 365.513 50.472 365.108 50.472C364.703 50.472 364.319 50.6 363.956 50.856C363.604 51.1013 363.305 51.5333 363.06 52.152C362.825 52.76 362.708 53.5653 362.708 54.568V55.24C362.943 54.7493 363.279 54.392 363.716 54.168C364.153 53.944 364.617 53.832 365.108 53.832C366.047 53.832 366.767 54.1467 367.268 54.776C367.78 55.3947 368.036 56.2267 368.036 57.272C368.036 58.04 367.892 58.7067 367.604 59.272C367.327 59.8267 366.932 60.2533 366.42 60.552C365.908 60.8507 365.316 61 364.644 61C363.268 61 362.313 60.536 361.78 59.608C361.257 58.68 360.996 57.464 360.996 55.96C360.996 53.56 361.364 51.912 362.1 51.016C362.836 50.1093 363.817 49.656 365.044 49.656C365.417 49.656 365.753 49.688 366.052 49.752C366.351 49.8053 366.66 49.8907 366.98 50.008C367.183 50.0827 367.343 50.1787 367.46 50.296C367.577 50.4133 367.636 50.5893 367.636 50.824V51.64C367.636 52.152 367.407 52.408 366.948 52.408ZM364.644 54.856C364.143 54.856 363.716 55.0853 363.364 55.544C363.012 55.992 362.836 56.6107 362.836 57.4C362.836 58.1147 362.969 58.76 363.236 59.336C363.513 59.9013 363.967 60.184 364.596 60.184C365.14 60.184 365.556 59.9493 365.844 59.48C366.143 59 366.292 58.2587 366.292 57.256C366.292 56.4133 366.148 55.8053 365.86 55.432C365.583 55.048 365.177 54.856 364.644 54.856ZM372.28 54.344C372.28 53.9707 372.398 53.6667 372.632 53.432C372.867 53.1973 373.155 53.08 373.496 53.08C373.838 53.08 374.126 53.2027 374.36 53.448C374.595 53.6827 374.712 53.9813 374.712 54.344C374.712 54.696 374.595 54.9893 374.36 55.224C374.126 55.4587 373.838 55.576 373.496 55.576C373.155 55.576 372.867 55.4587 372.632 55.224C372.398 54.9893 372.28 54.696 372.28 54.344ZM372.28 59.768C372.28 59.3947 372.398 59.0907 372.632 58.856C372.867 58.6213 373.155 58.504 373.496 58.504C373.838 58.504 374.126 58.6267 374.36 58.872C374.595 59.1067 374.712 59.4053 374.712 59.768C374.712 60.12 374.595 60.4133 374.36 60.648C374.126 60.8827 373.838 61 373.496 61C373.155 61 372.867 60.8827 372.632 60.648C372.398 60.4133 372.28 60.12 372.28 59.768ZM379.488 57.592C379.797 57.592 380.016 57.672 380.144 57.832C380.272 57.9813 380.336 58.248 380.336 58.632V59.784C380.794 60.0507 381.338 60.184 381.968 60.184C382.597 60.184 383.114 59.9867 383.52 59.592C383.936 59.1867 384.144 58.584 384.144 57.784C384.144 56.9413 383.941 56.3547 383.536 56.024C383.13 55.6933 382.549 55.528 381.792 55.528H381.328C381.253 55.528 381.189 55.4853 381.136 55.4C381.093 55.3147 381.072 55.2133 381.072 55.096C381.072 54.9787 381.093 54.8773 381.136 54.792C381.189 54.696 381.253 54.648 381.328 54.648H381.792C382.474 54.648 382.981 54.4667 383.312 54.104C383.642 53.7307 383.808 53.1653 383.808 52.408C383.808 51.7467 383.642 51.2613 383.312 50.952C382.981 50.632 382.538 50.472 381.984 50.472C381.738 50.472 381.482 50.5093 381.216 50.584C380.949 50.648 380.709 50.7387 380.496 50.856V52.008C380.496 52.392 380.432 52.664 380.304 52.824C380.176 52.9733 379.957 53.048 379.648 53.048C379.413 53.048 379.237 52.984 379.12 52.856C379.013 52.728 378.96 52.5253 378.96 52.248V51.288C378.96 51.096 378.986 50.952 379.04 50.856C379.093 50.7493 379.189 50.6533 379.328 50.568C379.829 50.248 380.32 50.0187 380.8 49.88C381.29 49.7307 381.818 49.656 382.384 49.656C383.461 49.656 384.261 49.9067 384.784 50.408C385.306 50.9093 385.568 51.576 385.568 52.408C385.568 53.0693 385.37 53.624 384.976 54.072C384.592 54.52 384.117 54.8027 383.552 54.92V55.064C384.266 55.16 384.842 55.4267 385.28 55.864C385.717 56.3013 385.936 56.936 385.936 57.768C385.936 58.4187 385.776 58.9893 385.456 59.48C385.146 59.96 384.704 60.3333 384.128 60.6C383.562 60.8667 382.906 61 382.16 61C381.104 61 380.106 60.7227 379.168 60.168C378.922 60.0187 378.8 59.7467 378.8 59.352V58.392C378.8 58.1147 378.853 57.912 378.96 57.784C379.077 57.656 379.253 57.592 379.488 57.592ZM389.988 55.336C389.988 53.64 390.281 52.2693 390.868 51.224C391.455 50.1787 392.393 49.656 393.684 49.656C394.975 49.656 395.913 50.1787 396.5 51.224C397.087 52.2693 397.38 53.64 397.38 55.336C397.38 57.0853 397.087 58.4667 396.5 59.48C395.924 60.4933 394.985 61 393.684 61C392.383 61 391.439 60.4933 390.852 59.48C390.276 58.4667 389.988 57.0853 389.988 55.336ZM395.62 55.336C395.62 53.9173 395.492 52.7547 395.236 51.848C394.98 50.9307 394.463 50.472 393.684 50.472C392.905 50.472 392.388 50.9307 392.132 51.848C391.876 52.7547 391.748 53.9173 391.748 55.336C391.748 56.3067 391.791 57.1387 391.876 57.832C391.961 58.5147 392.143 59.08 392.42 59.528C392.708 59.9653 393.129 60.184 393.684 60.184C394.239 60.184 394.655 59.9653 394.932 59.528C395.22 59.08 395.407 58.5147 395.492 57.832C395.577 57.1387 395.62 56.3067 395.62 55.336Z" fill="#064E3B"/>
<line x1="272" y1="36" x2="472" y2="36" stroke="#064E3B" stroke-width="2"/>
<line x1="272" y1="72" x2="472" y2="72" stroke="#064E3B" stroke-width="2"/>
<path d="M93.8057 140.44C93.4964 140.44 93.2617 140.36 93.1017 140.2C92.9524 140.04 92.8777 139.773 92.8777 139.4V138.504H88.9577V142.344H91.2777C92.547 142.344 93.523 142.6 94.2057 143.112C94.8884 143.624 95.2297 144.461 95.2297 145.624C95.2297 146.467 95.011 147.144 94.5737 147.656C94.1364 148.157 93.6137 148.509 93.0057 148.712C92.3977 148.904 91.811 149 91.2457 149H87.9657C87.7204 149 87.5337 148.936 87.4057 148.808C87.2884 148.68 87.2297 148.477 87.2297 148.2V138.456C87.2297 138.179 87.2884 137.976 87.4057 137.848C87.5337 137.72 87.7204 137.656 87.9657 137.656H93.5337C93.8644 137.656 94.1044 137.699 94.2537 137.784C94.4137 137.869 94.4937 138.024 94.4937 138.248V139.64C94.4937 139.917 94.435 140.12 94.3177 140.248C94.211 140.376 94.0404 140.44 93.8057 140.44ZM88.9577 148.152H91.0377C91.667 148.152 92.2217 147.949 92.7017 147.544C93.1817 147.139 93.4217 146.499 93.4217 145.624C93.4217 144.003 92.6004 143.192 90.9577 143.192H88.9577V148.152ZM107.077 137.656C107.323 137.656 107.504 137.72 107.621 137.848C107.749 137.976 107.813 138.179 107.813 138.456V148.2C107.813 148.488 107.76 148.696 107.653 148.824C107.547 148.941 107.365 149 107.109 149C106.779 149 106.523 148.899 106.341 148.696C106.171 148.483 106.085 148.173 106.085 147.768V139.88L100.901 148.44C100.805 148.611 100.688 148.749 100.549 148.856C100.411 148.952 100.197 149 99.9094 149C99.6641 149 99.4774 148.936 99.3494 148.808C99.2321 148.68 99.1734 148.477 99.1734 148.2V138.456C99.1734 138.168 99.2268 137.965 99.3334 137.848C99.4401 137.72 99.6214 137.656 99.8774 137.656C100.208 137.656 100.459 137.763 100.629 137.976C100.811 138.179 100.901 138.483 100.901 138.888V146.776L106.085 138.216C106.203 138.024 106.325 137.885 106.453 137.8C106.581 137.704 106.789 137.656 107.077 137.656ZM113.353 149C113.108 149 112.921 148.936 112.793 148.808C112.676 148.68 112.617 148.477 112.617 148.2V138.456C112.617 138.168 112.671 137.965 112.777 137.848C112.884 137.72 113.065 137.656 113.321 137.656C113.652 137.656 113.903 137.763 114.073 137.976C114.255 138.179 114.345 138.483 114.345 138.888V148.152H118.201V138.616C118.201 138.253 118.276 138.003 118.425 137.864C118.585 137.725 118.841 137.656 119.193 137.656C119.439 137.656 119.62 137.72 119.737 137.848C119.865 137.976 119.929 138.179 119.929 138.456V148.152H123.785V138.696C123.785 138.323 123.865 138.056 124.025 137.896C124.185 137.736 124.436 137.656 124.777 137.656C125.023 137.656 125.204 137.72 125.321 137.848C125.449 137.976 125.513 138.179 125.513 138.456V148.2C125.513 148.477 125.449 148.68 125.321 148.808C125.204 148.936 125.023 149 124.777 149H113.353ZM132.375 142.776L137.079 137.976C137.282 137.763 137.495 137.656 137.719 137.656C137.879 137.656 138.012 137.709 138.119 137.816C138.236 137.923 138.295 138.04 138.295 138.168C138.295 138.243 138.268 138.307 138.215 138.36L133.655 142.872L138.263 147.944C138.412 148.115 138.487 148.269 138.487 148.408C138.487 148.568 138.423 148.707 138.295 148.824C138.178 148.941 138.023 149 137.831 149C137.586 149 137.351 148.947 137.127 148.84C136.914 148.733 136.668 148.525 136.391 148.216L132.375 143.656H132.039V147.96C132.039 148.333 131.959 148.6 131.799 148.76C131.639 148.92 131.388 149 131.047 149C130.802 149 130.615 148.936 130.487 148.808C130.37 148.68 130.311 148.477 130.311 148.2V138.456C130.311 138.168 130.364 137.965 130.471 137.848C130.578 137.72 130.759 137.656 131.015 137.656C131.346 137.656 131.596 137.763 131.767 137.976C131.948 138.179 132.039 138.483 132.039 138.888V142.776H132.375ZM148.062 140.44C147.753 140.44 147.518 140.36 147.358 140.2C147.209 140.04 147.134 139.773 147.134 139.4V138.504H143.342V142.696H146.702C146.841 142.696 146.947 142.744 147.022 142.84C147.107 142.925 147.15 143.027 147.15 143.144C147.15 143.251 147.102 143.352 147.006 143.448C146.91 143.533 146.809 143.576 146.702 143.576H143.342V148.152H147.374V147.256C147.374 146.883 147.449 146.616 147.598 146.456C147.758 146.296 147.993 146.216 148.302 146.216C148.537 146.216 148.707 146.28 148.814 146.408C148.931 146.536 148.99 146.739 148.99 147.016V148.408C148.99 148.632 148.91 148.787 148.75 148.872C148.601 148.957 148.361 149 148.03 149H142.35C142.105 149 141.918 148.936 141.79 148.808C141.673 148.68 141.614 148.477 141.614 148.2V138.456C141.614 138.179 141.673 137.976 141.79 137.848C141.918 137.72 142.105 137.656 142.35 137.656H147.79C148.121 137.656 148.361 137.699 148.51 137.784C148.67 137.869 148.75 138.024 148.75 138.248V139.64C148.75 139.917 148.691 140.12 148.574 140.248C148.467 140.376 148.297 140.44 148.062 140.44ZM154.887 142.776L159.591 137.976C159.794 137.763 160.007 137.656 160.231 137.656C160.391 137.656 160.525 137.709 160.631 137.816C160.749 137.923 160.807 138.04 160.807 138.168C160.807 138.243 160.781 138.307 160.727 138.36L156.167 142.872L160.775 147.944C160.925 148.115 160.999 148.269 160.999 148.408C160.999 148.568 160.935 148.707 160.807 148.824C160.69 148.941 160.535 149 160.343 149C160.098 149 159.863 148.947 159.639 148.84C159.426 148.733 159.181 148.525 158.903 148.216L154.887 143.656H154.551V147.96C154.551 148.333 154.471 148.6 154.311 148.76C154.151 148.92 153.901 149 153.559 149C153.314 149 153.127 148.936 152.999 148.808C152.882 148.68 152.823 148.477 152.823 148.2V138.456C152.823 138.168 152.877 137.965 152.983 137.848C153.09 137.72 153.271 137.656 153.527 137.656C153.858 137.656 154.109 137.763 154.279 137.976C154.461 138.179 154.551 138.483 154.551 138.888V142.776H154.887ZM171.259 149C171.014 149 170.827 148.936 170.699 148.808C170.582 148.68 170.523 148.477 170.523 148.2V138.456C170.523 138.168 170.577 137.965 170.683 137.848C170.79 137.72 170.971 137.656 171.227 137.656C171.558 137.656 171.809 137.763 171.979 137.976C172.161 138.179 172.251 138.483 172.251 138.888V148.152H176.107V138.616C176.107 138.253 176.182 138.003 176.331 137.864C176.491 137.725 176.747 137.656 177.099 137.656C177.345 137.656 177.526 137.72 177.643 137.848C177.771 137.976 177.835 138.179 177.835 138.456V148.152H181.691V138.696C181.691 138.323 181.771 138.056 181.931 137.896C182.091 137.736 182.342 137.656 182.683 137.656C182.929 137.656 183.11 137.72 183.227 137.848C183.355 137.976 183.419 138.179 183.419 138.456V148.2C183.419 148.477 183.355 148.68 183.227 148.808C183.11 148.936 182.929 149 182.683 149H171.259ZM188.697 148.152C188.569 148.493 188.42 148.723 188.249 148.84C188.089 148.947 187.913 149 187.721 149C187.572 149 187.46 148.963 187.385 148.888C187.321 148.803 187.289 148.696 187.289 148.568C187.289 148.44 187.316 148.307 187.369 148.168L191.129 138.04C191.172 137.923 191.273 137.832 191.433 137.768C191.604 137.693 191.796 137.656 192.009 137.656C192.244 137.656 192.452 137.693 192.633 137.768C192.825 137.843 192.943 137.949 192.985 138.088L196.649 148.232C196.671 148.339 196.681 148.419 196.681 148.472C196.681 148.621 196.628 148.749 196.521 148.856C196.425 148.952 196.271 149 196.057 149C195.833 149 195.604 148.941 195.369 148.824C195.145 148.707 194.975 148.483 194.857 148.152L194.009 145.96H189.513L188.697 148.152ZM191.833 139.544H191.737L189.769 145.128H193.769L191.833 139.544ZM201.094 148.152C200.966 148.493 200.817 148.723 200.646 148.84C200.486 148.947 200.31 149 200.118 149C199.969 149 199.857 148.963 199.782 148.888C199.718 148.803 199.686 148.696 199.686 148.568C199.686 148.44 199.713 148.307 199.766 148.168L203.526 138.04C203.569 137.923 203.67 137.832 203.83 137.768C204.001 137.693 204.193 137.656 204.406 137.656C204.641 137.656 204.849 137.693 205.03 137.768C205.222 137.843 205.339 137.949 205.382 138.088L209.046 148.232C209.067 148.339 209.078 148.419 209.078 148.472C209.078 148.621 209.025 148.749 208.918 148.856C208.822 148.952 208.667 149 208.454 149C208.23 149 208.001 148.941 207.766 148.824C207.542 148.707 207.371 148.483 207.254 148.152L206.406 145.96H201.91L201.094 148.152ZM204.23 139.544H204.134L202.166 145.128H206.166L204.23 139.544ZM214.739 147.96C214.739 148.333 214.659 148.6 214.499 148.76C214.339 148.92 214.088 149 213.747 149C213.502 149 213.315 148.936 213.187 148.808C213.07 148.68 213.011 148.477 213.011 148.2V138.456C213.011 138.168 213.064 137.965 213.171 137.848C213.278 137.72 213.459 137.656 213.715 137.656H216.387C217.048 137.656 217.683 137.72 218.291 137.848C218.91 137.976 219.47 138.285 219.971 138.776C220.472 139.256 220.723 139.987 220.723 140.968C220.723 141.651 220.563 142.269 220.243 142.824C219.923 143.368 219.438 143.8 218.787 144.12C218.147 144.44 217.352 144.6 216.403 144.6H214.739V147.96ZM214.739 143.752H216.387C217.187 143.752 217.806 143.528 218.243 143.08C218.691 142.621 218.915 141.917 218.915 140.968C218.915 140.179 218.718 139.571 218.323 139.144C217.939 138.717 217.294 138.504 216.387 138.504H214.739V143.752ZM227.654 142.648C228.934 142.648 229.91 142.888 230.582 143.368C231.265 143.837 231.606 144.648 231.606 145.8C231.606 147.016 231.19 147.853 230.358 148.312C229.526 148.771 228.614 149 227.622 149H225.222C224.977 149 224.79 148.936 224.662 148.808C224.545 148.68 224.486 148.477 224.486 148.2V138.456C224.486 138.168 224.539 137.965 224.646 137.848C224.753 137.72 224.934 137.656 225.19 137.656C225.521 137.656 225.771 137.763 225.942 137.976C226.123 138.179 226.214 138.483 226.214 138.888V142.648H227.654ZM234.118 137.656C234.363 137.656 234.545 137.72 234.662 137.848C234.79 137.976 234.854 138.179 234.854 138.456V148.2C234.854 148.488 234.801 148.696 234.694 148.824C234.587 148.941 234.406 149 234.15 149C233.819 149 233.563 148.899 233.382 148.696C233.211 148.483 233.126 148.173 233.126 147.768V138.696C233.126 138.323 233.206 138.056 233.366 137.896C233.526 137.736 233.777 137.656 234.118 137.656ZM226.198 148.152H227.414C228.065 148.152 228.625 147.976 229.094 147.624C229.563 147.272 229.798 146.664 229.798 145.8C229.798 144.957 229.585 144.365 229.158 144.024C228.742 143.672 228.134 143.496 227.334 143.496H226.198V148.152ZM252.958 138.504C253.171 137.939 253.48 137.656 253.886 137.656C254.035 137.656 254.152 137.709 254.238 137.816C254.334 137.912 254.382 138.035 254.382 138.184C254.382 138.312 254.355 138.429 254.302 138.536L251.326 145.528C250.92 146.477 250.408 147.293 249.79 147.976C249.182 148.659 248.488 149 247.71 149C247.464 149 247.267 148.931 247.118 148.792C246.979 148.643 246.91 148.419 246.91 148.12C246.91 147.907 246.984 147.757 247.134 147.672C247.283 147.587 247.566 147.517 247.982 147.464C248.462 147.421 248.851 147.272 249.15 147.016C249.448 146.76 249.699 146.381 249.902 145.88L245.95 138.616C245.886 138.499 245.854 138.365 245.854 138.216C245.854 138.056 245.907 137.923 246.014 137.816C246.12 137.709 246.259 137.656 246.43 137.656C246.707 137.656 246.936 137.715 247.118 137.832C247.31 137.949 247.491 138.168 247.662 138.488L250.67 144.12H250.766L252.958 138.504ZM265.729 137.656C265.975 137.656 266.156 137.72 266.273 137.848C266.401 137.976 266.465 138.179 266.465 138.456V148.2C266.465 148.488 266.412 148.696 266.305 148.824C266.199 148.941 266.017 149 265.761 149C265.431 149 265.175 148.899 264.993 148.696C264.823 148.483 264.737 148.173 264.737 147.768V138.504H260.977V140.12C260.977 141.528 260.929 142.723 260.833 143.704C260.737 144.675 260.572 145.523 260.337 146.248C260.209 146.643 260.007 147.053 259.729 147.48C259.463 147.907 259.137 148.269 258.753 148.568C258.38 148.856 257.98 149 257.553 149C257.361 149 257.196 148.915 257.057 148.744C256.929 148.563 256.865 148.36 256.865 148.136C256.865 147.944 256.919 147.805 257.025 147.72C257.132 147.624 257.367 147.517 257.729 147.4C258.433 147.155 258.94 146.584 259.249 145.688C259.463 145.08 259.591 144.381 259.633 143.592C259.687 142.792 259.713 141.651 259.713 140.168V138.456C259.713 138.168 259.767 137.965 259.873 137.848C259.98 137.72 260.161 137.656 260.417 137.656H265.729ZM270.621 147.768C270.621 147.395 270.738 147.091 270.973 146.856C271.208 146.621 271.496 146.504 271.837 146.504C272.178 146.504 272.466 146.627 272.701 146.872C272.936 147.107 273.053 147.405 273.053 147.768C273.053 148.12 272.936 148.413 272.701 148.648C272.466 148.883 272.178 149 271.837 149C271.496 149 271.208 148.883 270.973 148.648C270.738 148.413 270.621 148.12 270.621 147.768ZM284.097 148.152C283.969 148.493 283.82 148.723 283.649 148.84C283.489 148.947 283.313 149 283.121 149C282.972 149 282.86 148.963 282.785 148.888C282.721 148.803 282.689 148.696 282.689 148.568C282.689 148.44 282.716 148.307 282.769 148.168L286.529 138.04C286.572 137.923 286.673 137.832 286.833 137.768C287.004 137.693 287.196 137.656 287.409 137.656C287.644 137.656 287.852 137.693 288.033 137.768C288.225 137.843 288.343 137.949 288.385 138.088L292.049 148.232C292.071 148.339 292.081 148.419 292.081 148.472C292.081 148.621 292.028 148.749 291.921 148.856C291.825 148.952 291.671 149 291.457 149C291.233 149 291.004 148.941 290.769 148.824C290.545 148.707 290.375 148.483 290.257 148.152L289.409 145.96H284.913L284.097 148.152ZM287.233 139.544H287.137L285.169 145.128H289.169L287.233 139.544ZM301.629 138.504C301.843 137.939 302.152 137.656 302.557 137.656C302.707 137.656 302.824 137.709 302.909 137.816C303.005 137.912 303.053 138.035 303.053 138.184C303.053 138.312 303.027 138.429 302.973 138.536L299.997 145.528C299.592 146.477 299.08 147.293 298.461 147.976C297.853 148.659 297.16 149 296.381 149C296.136 149 295.939 148.931 295.789 148.792C295.651 148.643 295.581 148.419 295.581 148.12C295.581 147.907 295.656 147.757 295.805 147.672C295.955 147.587 296.237 147.517 296.653 147.464C297.133 147.421 297.523 147.272 297.821 147.016C298.12 146.76 298.371 146.381 298.573 145.88L294.621 138.616C294.557 138.499 294.525 138.365 294.525 138.216C294.525 138.056 294.579 137.923 294.685 137.816C294.792 137.709 294.931 137.656 295.101 137.656C295.379 137.656 295.608 137.715 295.789 137.832C295.981 137.949 296.163 138.168 296.333 138.488L299.341 144.12H299.437L301.629 138.504ZM307.473 147.864C307.751 147.992 308.012 148.077 308.257 148.12C308.513 148.163 308.817 148.184 309.169 148.184C310.14 148.184 310.908 147.795 311.473 147.016C312.049 146.227 312.359 145.08 312.401 143.576H307.921C307.847 143.576 307.788 143.533 307.745 143.448C307.703 143.363 307.681 143.261 307.681 143.144C307.681 143.027 307.703 142.925 307.745 142.84C307.788 142.744 307.847 142.696 307.921 142.696H312.369C312.284 141.192 311.948 140.115 311.361 139.464C310.785 138.813 310.055 138.483 309.169 138.472C308.657 138.472 308.135 138.531 307.601 138.648V139.544C307.601 139.917 307.521 140.184 307.361 140.344C307.212 140.504 306.983 140.584 306.673 140.584C306.439 140.584 306.263 140.52 306.145 140.392C306.039 140.264 305.985 140.061 305.985 139.784V138.872C305.985 138.637 306.028 138.472 306.113 138.376C306.209 138.269 306.385 138.173 306.641 138.088C307.601 137.8 308.481 137.656 309.281 137.656C312.567 137.656 314.209 139.464 314.209 143.08C314.209 144.851 313.793 146.28 312.961 147.368C312.129 148.456 310.871 149 309.185 149C308.663 149 308.188 148.963 307.761 148.888C307.335 148.813 306.908 148.68 306.481 148.488C306.236 148.381 306.071 148.285 305.985 148.2C305.9 148.104 305.857 147.944 305.857 147.72V146.76C305.857 146.248 306.087 145.992 306.545 145.992C306.855 145.992 307.084 146.072 307.233 146.232C307.393 146.381 307.473 146.637 307.473 147V147.864ZM319.073 147.864C319.415 147.981 319.713 148.067 319.969 148.12C320.236 148.163 320.567 148.184 320.961 148.184C321.559 148.184 322.049 148.061 322.433 147.816C322.828 147.571 323.116 147.261 323.297 146.888C323.489 146.504 323.585 146.104 323.585 145.688C323.585 145.059 323.399 144.552 323.025 144.168C322.652 143.773 321.991 143.576 321.041 143.576H319.553C319.479 143.576 319.42 143.533 319.377 143.448C319.335 143.363 319.313 143.261 319.313 143.144C319.313 143.027 319.335 142.925 319.377 142.84C319.42 142.744 319.479 142.696 319.553 142.696H321.057C322.529 142.696 323.265 141.955 323.265 140.472C323.265 139.875 323.063 139.395 322.657 139.032C322.252 138.659 321.697 138.472 320.993 138.472C320.385 138.472 319.82 138.531 319.297 138.648V139.544C319.297 139.917 319.217 140.184 319.057 140.344C318.908 140.504 318.679 140.584 318.369 140.584C318.135 140.584 317.959 140.52 317.841 140.392C317.735 140.264 317.681 140.061 317.681 139.784V138.872C317.681 138.637 317.724 138.472 317.809 138.376C317.905 138.269 318.081 138.173 318.337 138.088C319.287 137.8 320.279 137.656 321.313 137.656C322.593 137.656 323.532 137.923 324.129 138.456C324.727 138.979 325.025 139.651 325.025 140.472C325.025 141.176 324.839 141.736 324.465 142.152C324.103 142.557 323.628 142.851 323.041 143.032V143.128C324.609 143.373 325.393 144.227 325.393 145.688C325.393 146.243 325.244 146.771 324.945 147.272C324.647 147.773 324.172 148.189 323.521 148.52C322.871 148.84 322.044 149 321.041 149C320.508 149 319.98 148.957 319.457 148.872C318.935 148.776 318.476 148.648 318.081 148.488C317.836 148.381 317.671 148.285 317.585 148.2C317.5 148.104 317.457 147.944 317.457 147.72V146.76C317.457 146.248 317.687 145.992 318.145 145.992C318.455 145.992 318.684 146.072 318.833 146.232C318.993 146.381 319.073 146.637 319.073 147V147.864ZM338.556 143.336C338.556 144.136 338.434 144.957 338.188 145.8C337.954 146.643 337.474 147.389 336.748 148.04C336.023 148.68 334.994 149 333.66 149C332.327 149 331.298 148.68 330.572 148.04C329.858 147.389 329.383 146.643 329.148 145.8C328.914 144.957 328.796 144.136 328.796 143.336C328.796 142.536 328.914 141.715 329.148 140.872C329.383 140.029 329.858 139.283 330.572 138.632C331.298 137.981 332.327 137.656 333.66 137.656C334.994 137.656 336.023 137.981 336.748 138.632C337.474 139.283 337.954 140.035 338.188 140.888C338.434 141.731 338.556 142.547 338.556 143.336ZM336.748 143.336C336.748 142.099 336.54 140.979 336.124 139.976C335.708 138.973 334.887 138.472 333.66 138.472C332.455 138.472 331.644 138.973 331.228 139.976C330.812 140.979 330.604 142.099 330.604 143.336C330.604 144.563 330.812 145.677 331.228 146.68C331.644 147.683 332.455 148.184 333.66 148.184C334.887 148.184 335.708 147.688 336.124 146.696C336.54 145.693 336.748 144.573 336.748 143.336ZM342.602 138.456C342.602 138.179 342.66 137.976 342.778 137.848C342.906 137.72 343.092 137.656 343.338 137.656H346.618C348.986 137.656 350.17 138.605 350.17 140.504C350.17 141.037 350.004 141.539 349.674 142.008C349.354 142.467 348.916 142.765 348.362 142.904V142.984C349.172 143.123 349.775 143.432 350.17 143.912C350.564 144.381 350.762 144.947 350.762 145.608C350.762 146.899 350.34 147.789 349.498 148.28C348.666 148.76 347.732 149 346.698 149H343.338C343.092 149 342.906 148.936 342.778 148.808C342.66 148.68 342.602 148.477 342.602 148.2V138.456ZM344.33 142.632H346.17C346.511 142.632 346.847 142.563 347.178 142.424C347.519 142.275 347.802 142.04 348.026 141.72C348.25 141.389 348.362 140.968 348.362 140.456C348.362 139.763 348.122 139.267 347.642 138.968C347.162 138.659 346.628 138.504 346.042 138.504H344.33V142.632ZM344.33 148.152H346.474C347.103 148.152 347.674 147.971 348.186 147.608C348.698 147.235 348.954 146.621 348.954 145.768C348.954 145.235 348.82 144.797 348.554 144.456C348.287 144.115 347.951 143.869 347.546 143.72C347.14 143.56 346.73 143.48 346.314 143.48H344.33V148.152ZM355.088 148.152C354.96 148.493 354.81 148.723 354.64 148.84C354.48 148.947 354.304 149 354.112 149C353.962 149 353.85 148.963 353.776 148.888C353.712 148.803 353.68 148.696 353.68 148.568C353.68 148.44 353.706 148.307 353.76 148.168L357.52 138.04C357.562 137.923 357.664 137.832 357.824 137.768C357.994 137.693 358.186 137.656 358.4 137.656C358.634 137.656 358.842 137.693 359.024 137.768C359.216 137.843 359.333 137.949 359.376 138.088L363.04 148.232C363.061 148.339 363.072 148.419 363.072 148.472C363.072 148.621 363.018 148.749 362.912 148.856C362.816 148.952 362.661 149 362.448 149C362.224 149 361.994 148.941 361.76 148.824C361.536 148.707 361.365 148.483 361.248 148.152L360.4 145.96H355.904L355.088 148.152ZM358.224 139.544H358.128L356.16 145.128H360.16L358.224 139.544ZM373.242 141.08C373.007 141.08 372.831 141.016 372.714 140.888C372.607 140.76 372.554 140.557 372.554 140.28V139.32C372.554 139.139 372.575 139.005 372.618 138.92C372.671 138.835 372.772 138.744 372.922 138.648C373.466 138.285 373.988 138.029 374.49 137.88C375.002 137.731 375.556 137.656 376.154 137.656C377.21 137.656 377.988 137.928 378.49 138.472C379.002 139.005 379.258 139.683 379.258 140.504C379.258 141.539 378.842 142.659 378.01 143.864C377.188 145.059 375.748 146.488 373.69 148.152H377.866V147.16C377.866 146.787 377.935 146.52 378.074 146.36C378.223 146.2 378.436 146.12 378.714 146.12C378.948 146.12 379.119 146.184 379.226 146.312C379.343 146.44 379.402 146.643 379.402 146.92V148.488C379.402 148.669 379.322 148.803 379.162 148.888C379.002 148.963 378.762 149 378.442 149H372.762C372.634 149 372.532 148.957 372.458 148.872C372.394 148.787 372.362 148.68 372.362 148.552C372.362 148.328 372.442 148.147 372.602 148.008L372.826 147.8C374.671 146.083 375.903 144.653 376.522 143.512C377.14 142.36 377.45 141.437 377.45 140.744C377.45 140.136 377.316 139.608 377.05 139.16C376.794 138.701 376.324 138.472 375.642 138.472C375.13 138.472 374.612 138.611 374.09 138.888V140.04C374.09 140.424 374.026 140.696 373.898 140.856C373.77 141.005 373.551 141.08 373.242 141.08ZM386.878 146.232H382.222C381.923 146.232 381.774 146.104 381.774 145.848C381.774 145.741 381.811 145.613 381.886 145.464L386.638 138.248C386.894 137.853 387.267 137.656 387.758 137.656C388.046 137.656 388.254 137.72 388.382 137.848C388.51 137.976 388.574 138.179 388.574 138.456V145.384H389.566C389.811 145.384 389.977 145.427 390.062 145.512C390.158 145.597 390.206 145.709 390.206 145.848C390.206 145.965 390.174 146.061 390.11 146.136C390.046 146.2 389.918 146.232 389.726 146.232H388.574V148.152H389.486C389.731 148.152 389.897 148.195 389.982 148.28C390.078 148.365 390.126 148.477 390.126 148.616C390.126 148.733 390.094 148.829 390.03 148.904C389.966 148.968 389.838 149 389.646 149H385.486C385.294 149 385.166 148.968 385.102 148.904C385.038 148.829 385.006 148.733 385.006 148.616C385.006 148.477 385.049 148.365 385.134 148.28C385.23 148.195 385.401 148.152 385.646 148.152H386.878V146.232ZM386.878 139.752L383.118 145.384H386.878V139.752ZM127.176 161.592C127.176 161.432 127.261 161.315 127.432 161.24C127.602 161.155 127.832 161.112 128.12 161.112C128.397 161.112 128.626 161.155 128.808 161.24C128.989 161.325 129.08 161.443 129.08 161.592L128.552 164.76C128.541 164.835 128.493 164.893 128.408 164.936C128.322 164.968 128.226 164.984 128.12 164.984C128.013 164.984 127.917 164.963 127.832 164.92C127.746 164.877 127.698 164.824 127.688 164.76L127.176 161.592ZM129.976 161.592C129.976 161.432 130.061 161.315 130.232 161.24C130.413 161.155 130.642 161.112 130.92 161.112C131.197 161.112 131.426 161.155 131.608 161.24C131.789 161.325 131.88 161.443 131.88 161.592L131.352 164.76C131.341 164.835 131.293 164.893 131.208 164.936C131.122 164.968 131.026 164.984 130.92 164.984C130.813 164.984 130.717 164.963 130.632 164.92C130.546 164.877 130.498 164.824 130.488 164.76L129.976 161.592ZM137.769 171.96C137.769 172.333 137.689 172.6 137.529 172.76C137.369 172.92 137.118 173 136.777 173C136.531 173 136.345 172.936 136.217 172.808C136.099 172.68 136.041 172.477 136.041 172.2V162.456C136.041 162.168 136.094 161.965 136.201 161.848C136.307 161.72 136.489 161.656 136.745 161.656H139.417C140.078 161.656 140.713 161.72 141.321 161.848C141.939 161.976 142.499 162.285 143.001 162.776C143.502 163.256 143.753 163.987 143.753 164.968C143.753 165.651 143.593 166.269 143.273 166.824C142.953 167.368 142.467 167.8 141.817 168.12C141.177 168.44 140.382 168.6 139.433 168.6H137.769V171.96ZM137.769 167.752H139.417C140.217 167.752 140.835 167.528 141.273 167.08C141.721 166.621 141.945 165.917 141.945 164.968C141.945 164.179 141.747 163.571 141.353 163.144C140.969 162.717 140.323 162.504 139.417 162.504H137.769V167.752ZM147.516 162.456C147.516 162.168 147.569 161.965 147.676 161.848C147.782 161.72 147.964 161.656 148.22 161.656H151.244C152.47 161.656 153.452 161.885 154.188 162.344C154.924 162.792 155.292 163.592 155.292 164.744C155.292 165.267 155.153 165.747 154.876 166.184C154.609 166.621 154.257 166.979 153.82 167.256C153.393 167.533 152.95 167.709 152.492 167.784L155.148 172.056C155.244 172.195 155.292 172.333 155.292 172.472C155.292 172.632 155.222 172.76 155.084 172.856C154.945 172.952 154.742 173 154.476 173C154.262 173 154.06 172.952 153.868 172.856C153.676 172.76 153.516 172.605 153.388 172.392L150.7 167.896H149.244V171.96C149.244 172.333 149.164 172.6 149.004 172.76C148.844 172.92 148.593 173 148.252 173C148.006 173 147.82 172.936 147.692 172.808C147.574 172.68 147.516 172.477 147.516 172.2V162.456ZM149.244 167.048H150.956C151.617 167.048 152.204 166.856 152.716 166.472C153.228 166.077 153.484 165.469 153.484 164.648C153.484 163.773 153.249 163.197 152.78 162.92C152.31 162.643 151.745 162.504 151.084 162.504H149.244V167.048ZM165.845 164.44C165.536 164.44 165.301 164.36 165.141 164.2C164.992 164.04 164.917 163.773 164.917 163.4V162.504H161.125V166.696H164.485C164.624 166.696 164.73 166.744 164.805 166.84C164.89 166.925 164.933 167.027 164.933 167.144C164.933 167.251 164.885 167.352 164.789 167.448C164.693 167.533 164.592 167.576 164.485 167.576H161.125V172.152H165.157V171.256C165.157 170.883 165.232 170.616 165.381 170.456C165.541 170.296 165.776 170.216 166.085 170.216C166.32 170.216 166.49 170.28 166.597 170.408C166.714 170.536 166.773 170.739 166.773 171.016V172.408C166.773 172.632 166.693 172.787 166.533 172.872C166.384 172.957 166.144 173 165.813 173H160.133C159.888 173 159.701 172.936 159.573 172.808C159.456 172.68 159.397 172.477 159.397 172.2V162.456C159.397 162.179 159.456 161.976 159.573 161.848C159.701 161.72 159.888 161.656 160.133 161.656H165.573C165.904 161.656 166.144 161.699 166.293 161.784C166.453 161.869 166.533 162.024 166.533 162.248V163.64C166.533 163.917 166.474 164.12 166.357 164.248C166.25 164.376 166.08 164.44 165.845 164.44ZM176.718 164.568C176.409 164.568 176.174 164.493 176.014 164.344C175.865 164.184 175.79 163.928 175.79 163.576V162.76C175.748 162.749 175.657 162.723 175.518 162.68C175.028 162.541 174.489 162.472 173.902 162.472C173.433 162.472 173.038 162.573 172.718 162.776C172.398 162.968 172.158 163.219 171.998 163.528C171.849 163.827 171.774 164.136 171.774 164.456C171.774 164.819 171.838 165.117 171.966 165.352C172.105 165.587 172.324 165.789 172.622 165.96C172.921 166.131 173.358 166.323 173.934 166.536C175.076 166.941 175.913 167.272 176.446 167.528C176.98 167.784 177.396 168.099 177.694 168.472C177.993 168.835 178.142 169.309 178.142 169.896C178.142 170.493 177.966 171.027 177.614 171.496C177.273 171.965 176.761 172.333 176.078 172.6C175.406 172.867 174.601 173 173.662 173C173.182 173 172.654 172.952 172.078 172.856C171.513 172.749 171.038 172.621 170.654 172.472C170.409 172.365 170.244 172.269 170.158 172.184C170.073 172.088 170.03 171.928 170.03 171.704V170.744C170.03 170.232 170.26 169.976 170.718 169.976C171.028 169.976 171.257 170.056 171.406 170.216C171.566 170.365 171.646 170.621 171.646 170.984V171.848C172.318 172.072 172.969 172.184 173.598 172.184C174.174 172.184 174.67 172.083 175.086 171.88C175.502 171.677 175.817 171.416 176.03 171.096C176.244 170.776 176.35 170.435 176.35 170.072C176.35 169.72 176.254 169.421 176.062 169.176C175.881 168.931 175.604 168.712 175.23 168.52C174.857 168.328 174.334 168.109 173.662 167.864C172.756 167.523 172.057 167.235 171.566 167C171.086 166.755 170.702 166.44 170.414 166.056C170.126 165.661 169.982 165.16 169.982 164.552C169.982 163.677 170.318 162.979 170.99 162.456C171.662 161.923 172.596 161.656 173.79 161.656C174.345 161.656 174.852 161.699 175.31 161.784C175.769 161.859 176.249 161.971 176.75 162.12C177.006 162.205 177.177 162.296 177.262 162.392C177.358 162.488 177.406 162.648 177.406 162.872V163.8C177.406 164.312 177.177 164.568 176.718 164.568ZM181.5 173C181.308 173 181.18 172.968 181.116 172.904C181.052 172.829 181.02 172.733 181.02 172.616C181.02 172.477 181.063 172.365 181.148 172.28C181.244 172.195 181.415 172.152 181.66 172.152H183.1V162.504H181.66C181.415 162.504 181.244 162.461 181.148 162.376C181.063 162.291 181.02 162.179 181.02 162.04C181.02 161.923 181.052 161.832 181.116 161.768C181.18 161.693 181.308 161.656 181.5 161.656H186.428C186.62 161.656 186.748 161.693 186.812 161.768C186.876 161.832 186.908 161.923 186.908 162.04C186.908 162.179 186.86 162.291 186.764 162.376C186.679 162.461 186.513 162.504 186.268 162.504H184.828V172.152H186.268C186.513 172.152 186.679 172.195 186.764 172.28C186.86 172.365 186.908 172.477 186.908 172.616C186.908 172.733 186.876 172.829 186.812 172.904C186.748 172.968 186.62 173 186.428 173H181.5ZM190.431 162.456C190.431 162.179 190.49 161.976 190.607 161.848C190.735 161.72 190.922 161.656 191.167 161.656H193.455C197.199 161.656 199.071 163.528 199.071 167.272C199.071 168.669 198.778 169.8 198.191 170.664C197.615 171.517 196.906 172.12 196.063 172.472C195.231 172.824 194.389 173 193.535 173H191.167C190.922 173 190.735 172.936 190.607 172.808C190.49 172.68 190.431 172.477 190.431 172.2V162.456ZM192.159 172.152H192.511V172.136H193.263C194.447 172.136 195.407 171.736 196.143 170.936C196.89 170.136 197.263 168.915 197.263 167.272C197.263 165.608 196.895 164.397 196.159 163.64C195.434 162.883 194.469 162.504 193.263 162.504H192.159V172.152ZM209.573 164.44C209.264 164.44 209.029 164.36 208.869 164.2C208.72 164.04 208.645 163.773 208.645 163.4V162.504H204.853V166.696H208.213C208.352 166.696 208.458 166.744 208.533 166.84C208.618 166.925 208.661 167.027 208.661 167.144C208.661 167.251 208.613 167.352 208.517 167.448C208.421 167.533 208.32 167.576 208.213 167.576H204.853V172.152H208.885V171.256C208.885 170.883 208.96 170.616 209.109 170.456C209.269 170.296 209.504 170.216 209.813 170.216C210.048 170.216 210.218 170.28 210.325 170.408C210.442 170.536 210.501 170.739 210.501 171.016V172.408C210.501 172.632 210.421 172.787 210.261 172.872C210.112 172.957 209.872 173 209.541 173H203.861C203.616 173 203.429 172.936 203.301 172.808C203.184 172.68 203.125 172.477 203.125 172.2V162.456C203.125 162.179 203.184 161.976 203.301 161.848C203.429 161.72 203.616 161.656 203.861 161.656H209.301C209.632 161.656 209.872 161.699 210.021 161.784C210.181 161.869 210.261 162.024 210.261 162.248V163.64C210.261 163.917 210.202 164.12 210.085 164.248C209.978 164.376 209.808 164.44 209.573 164.44ZM214.942 173C214.772 173 214.628 172.941 214.51 172.824C214.393 172.707 214.334 172.525 214.334 172.28V162.52C214.334 162.253 214.425 162.045 214.606 161.896C214.798 161.736 215.028 161.656 215.294 161.656C215.529 161.656 215.737 161.704 215.918 161.8C216.11 161.896 216.286 162.072 216.446 162.328L221.678 170.632H221.758V162.552C221.758 162.243 221.822 162.019 221.95 161.88C222.089 161.731 222.244 161.656 222.414 161.656C222.585 161.656 222.729 161.715 222.846 161.832C222.964 161.949 223.022 162.131 223.022 162.376V172.072C223.022 172.371 222.932 172.6 222.75 172.76C222.58 172.92 222.361 173 222.094 173C221.593 173 221.204 172.787 220.926 172.36L215.694 164.024H215.598V172.104C215.598 172.413 215.529 172.643 215.39 172.792C215.262 172.931 215.113 173 214.942 173ZM232.289 172.04C232.289 172.403 232.209 172.653 232.049 172.792C231.9 172.931 231.649 173 231.297 173C231.052 173 230.865 172.936 230.737 172.808C230.62 172.68 230.561 172.477 230.561 172.2V162.504H228.161V163.64C228.161 164.013 228.081 164.28 227.921 164.44C227.772 164.6 227.542 164.68 227.233 164.68C226.998 164.68 226.822 164.616 226.705 164.488C226.598 164.36 226.545 164.157 226.545 163.88V162.248C226.545 162.024 226.62 161.869 226.769 161.784C226.929 161.699 227.174 161.656 227.505 161.656H235.345C235.676 161.656 235.916 161.699 236.065 161.784C236.225 161.869 236.305 162.024 236.305 162.248V163.88C236.305 164.157 236.246 164.36 236.129 164.488C236.022 164.616 235.852 164.68 235.617 164.68C235.308 164.68 235.073 164.6 234.913 164.44C234.764 164.28 234.689 164.013 234.689 163.64V162.504H232.289V172.04ZM252.676 164.536C252.367 164.536 252.132 164.456 251.972 164.296C251.823 164.136 251.748 163.869 251.748 163.496V162.6C251.353 162.515 250.964 162.472 250.58 162.472C249.567 162.472 248.761 162.899 248.164 163.752C247.577 164.595 247.284 165.832 247.284 167.464C247.284 169.203 247.572 170.424 248.148 171.128C248.724 171.821 249.572 172.168 250.692 172.168C251.353 172.168 252.052 172.013 252.788 171.704L253.092 171.576C253.156 171.555 253.199 171.544 253.22 171.544C253.327 171.544 253.417 171.597 253.492 171.704C253.567 171.8 253.604 171.907 253.604 172.024C253.604 172.173 253.535 172.28 253.396 172.344L253.124 172.456C252.687 172.637 252.244 172.776 251.796 172.872C251.359 172.957 250.841 173 250.244 173C248.623 173 247.423 172.52 246.644 171.56C245.865 170.589 245.476 169.213 245.476 167.432C245.476 166.141 245.684 165.064 246.1 164.2C246.527 163.336 247.108 162.696 247.844 162.28C248.58 161.864 249.423 161.656 250.372 161.656C251.225 161.656 252.004 161.768 252.708 161.992C252.964 162.077 253.135 162.173 253.22 162.28C253.316 162.376 253.364 162.541 253.364 162.776V163.736C253.364 164.013 253.305 164.216 253.188 164.344C253.081 164.472 252.911 164.536 252.676 164.536ZM256.325 173C256.133 173 256.005 172.968 255.941 172.904C255.877 172.829 255.845 172.733 255.845 172.616C255.845 172.477 255.888 172.365 255.973 172.28C256.069 172.195 256.24 172.152 256.485 172.152H257.925V162.504H256.485C256.24 162.504 256.069 162.461 255.973 162.376C255.888 162.291 255.845 162.179 255.845 162.04C255.845 161.923 255.877 161.832 255.941 161.768C256.005 161.693 256.133 161.656 256.325 161.656H261.253C261.445 161.656 261.573 161.693 261.637 161.768C261.701 161.832 261.733 161.923 261.733 162.04C261.733 162.179 261.685 162.291 261.589 162.376C261.504 162.461 261.338 162.504 261.093 162.504H259.653V172.152H261.093C261.338 172.152 261.504 172.195 261.589 172.28C261.685 172.365 261.733 172.477 261.733 172.616C261.733 172.733 261.701 172.829 261.637 172.904C261.573 172.968 261.445 173 261.253 173H256.325ZM269.72 172.04C269.72 172.403 269.64 172.653 269.48 172.792C269.331 172.931 269.08 173 268.728 173C268.483 173 268.296 172.936 268.168 172.808C268.051 172.68 267.992 172.477 267.992 172.2V162.504H265.592V163.64C265.592 164.013 265.512 164.28 265.352 164.44C265.203 164.6 264.974 164.68 264.664 164.68C264.43 164.68 264.254 164.616 264.136 164.488C264.03 164.36 263.976 164.157 263.976 163.88V162.248C263.976 162.024 264.051 161.869 264.2 161.784C264.36 161.699 264.606 161.656 264.936 161.656H272.776C273.107 161.656 273.347 161.699 273.496 161.784C273.656 161.869 273.736 162.024 273.736 162.248V163.88C273.736 164.157 273.678 164.36 273.56 164.488C273.454 164.616 273.283 164.68 273.048 164.68C272.739 164.68 272.504 164.6 272.344 164.44C272.195 164.28 272.12 164.013 272.12 163.64V162.504H269.72V172.04ZM280.107 173C279.605 173 279.355 172.733 279.355 172.2V168.712L276.203 162.616C276.139 162.467 276.107 162.333 276.107 162.216C276.107 162.056 276.16 161.923 276.267 161.816C276.373 161.709 276.512 161.656 276.683 161.656C276.96 161.656 277.195 161.715 277.387 161.832C277.579 161.949 277.755 162.168 277.915 162.488L280.459 167.512H280.523L282.923 162.504C283.189 161.939 283.515 161.656 283.899 161.656C284.048 161.656 284.16 161.709 284.235 161.816C284.309 161.912 284.347 162.035 284.347 162.184C284.347 162.312 284.32 162.429 284.267 162.536L281.083 168.712V172.04C281.083 172.413 281.003 172.669 280.843 172.808C280.693 172.936 280.448 173 280.107 173ZM302.102 161.656C302.347 161.656 302.528 161.72 302.646 161.848C302.774 161.976 302.838 162.179 302.838 162.456V172.2C302.838 172.488 302.784 172.696 302.678 172.824C302.571 172.941 302.39 173 302.134 173C301.803 173 301.547 172.899 301.366 172.696C301.195 172.483 301.11 172.173 301.11 171.768V167.576H295.894V171.96C295.894 172.333 295.814 172.6 295.654 172.76C295.494 172.92 295.243 173 294.902 173C294.656 173 294.47 172.936 294.342 172.808C294.224 172.68 294.166 172.477 294.166 172.2V162.456C294.166 162.168 294.219 161.965 294.326 161.848C294.432 161.72 294.614 161.656 294.87 161.656C295.2 161.656 295.451 161.763 295.622 161.976C295.803 162.179 295.894 162.483 295.894 162.888V166.696H301.11V162.696C301.11 162.323 301.19 162.056 301.35 161.896C301.51 161.736 301.76 161.656 302.102 161.656ZM307.689 172.152C307.561 172.493 307.411 172.723 307.241 172.84C307.081 172.947 306.905 173 306.713 173C306.563 173 306.451 172.963 306.377 172.888C306.313 172.803 306.281 172.696 306.281 172.568C306.281 172.44 306.307 172.307 306.361 172.168L310.121 162.04C310.163 161.923 310.265 161.832 310.425 161.768C310.595 161.693 310.787 161.656 311.001 161.656C311.235 161.656 311.443 161.693 311.625 161.768C311.817 161.843 311.934 161.949 311.977 162.088L315.641 172.232C315.662 172.339 315.673 172.419 315.673 172.472C315.673 172.621 315.619 172.749 315.513 172.856C315.417 172.952 315.262 173 315.049 173C314.825 173 314.595 172.941 314.361 172.824C314.137 172.707 313.966 172.483 313.849 172.152L313.001 169.96H308.505L307.689 172.152ZM310.825 163.544H310.729L308.761 169.128H312.761L310.825 163.544ZM325.404 170.008C325.638 170.008 325.809 170.072 325.916 170.2C326.033 170.328 326.092 170.531 326.092 170.808V172.488C326.092 172.669 326.012 172.803 325.852 172.888C325.692 172.963 325.452 173 325.132 173H319.852C319.606 173 319.42 172.936 319.292 172.808C319.174 172.68 319.116 172.477 319.116 172.2V162.456C319.116 162.168 319.169 161.965 319.276 161.848C319.382 161.72 319.564 161.656 319.82 161.656C320.15 161.656 320.401 161.763 320.572 161.976C320.753 162.179 320.844 162.483 320.844 162.888V172.152H324.476V171.048C324.476 170.675 324.55 170.408 324.7 170.248C324.86 170.088 325.094 170.008 325.404 170.008ZM336.144 170.008C336.379 170.008 336.55 170.072 336.656 170.2C336.774 170.328 336.832 170.531 336.832 170.808V172.488C336.832 172.669 336.752 172.803 336.592 172.888C336.432 172.963 336.192 173 335.872 173H330.592C330.347 173 330.16 172.936 330.032 172.808C329.915 172.68 329.856 172.477 329.856 172.2V162.456C329.856 162.168 329.91 161.965 330.016 161.848C330.123 161.72 330.304 161.656 330.56 161.656C330.891 161.656 331.142 161.763 331.312 161.976C331.494 162.179 331.584 162.483 331.584 162.888V172.152H335.216V171.048C335.216 170.675 335.291 170.408 335.44 170.248C335.6 170.088 335.835 170.008 336.144 170.008ZM337.723 161.592C337.723 161.432 337.808 161.315 337.979 161.24C338.149 161.155 338.379 161.112 338.667 161.112C338.944 161.112 339.173 161.155 339.355 161.24C339.536 161.325 339.627 161.443 339.627 161.592L339.099 164.76C339.088 164.835 339.04 164.893 338.955 164.936C338.869 164.968 338.773 164.984 338.667 164.984C338.56 164.984 338.464 164.963 338.379 164.92C338.293 164.877 338.245 164.824 338.235 164.76L337.723 161.592ZM340.523 161.592C340.523 161.432 340.608 161.315 340.779 161.24C340.96 161.155 341.189 161.112 341.467 161.112C341.744 161.112 341.973 161.155 342.155 161.24C342.336 161.325 342.427 161.443 342.427 161.592L341.899 164.76C341.888 164.835 341.84 164.893 341.755 164.936C341.669 164.968 341.573 164.984 341.467 164.984C341.36 164.984 341.264 164.963 341.179 164.92C341.093 164.877 341.045 164.824 341.035 164.76L340.523 161.592ZM186.858 195.96C186.858 196.333 186.778 196.6 186.618 196.76C186.458 196.92 186.207 197 185.866 197C185.62 197 185.434 196.936 185.306 196.808C185.188 196.68 185.13 196.477 185.13 196.2V186.456C185.13 186.168 185.183 185.965 185.29 185.848C185.396 185.72 185.578 185.656 185.834 185.656H188.506C189.167 185.656 189.802 185.72 190.41 185.848C191.028 185.976 191.588 186.285 192.09 186.776C192.591 187.256 192.842 187.987 192.842 188.968C192.842 189.651 192.682 190.269 192.362 190.824C192.042 191.368 191.556 191.8 190.906 192.12C190.266 192.44 189.471 192.6 188.522 192.6H186.858V195.96ZM186.858 191.752H188.506C189.306 191.752 189.924 191.528 190.362 191.08C190.81 190.621 191.034 189.917 191.034 188.968C191.034 188.179 190.836 187.571 190.442 187.144C190.058 186.717 189.412 186.504 188.506 186.504H186.858V191.752ZM203.053 188.44C202.743 188.44 202.509 188.36 202.349 188.2C202.199 188.04 202.125 187.773 202.125 187.4V186.504H198.333V190.696H201.693C201.831 190.696 201.938 190.744 202.013 190.84C202.098 190.925 202.141 191.027 202.141 191.144C202.141 191.251 202.093 191.352 201.997 191.448C201.901 191.533 201.799 191.576 201.693 191.576H198.333V196.152H202.365V195.256C202.365 194.883 202.439 194.616 202.589 194.456C202.749 194.296 202.983 194.216 203.293 194.216C203.527 194.216 203.698 194.28 203.805 194.408C203.922 194.536 203.981 194.739 203.981 195.016V196.408C203.981 196.632 203.901 196.787 203.741 196.872C203.591 196.957 203.351 197 203.021 197H197.341C197.095 197 196.909 196.936 196.781 196.808C196.663 196.68 196.605 196.477 196.605 196.2V186.456C196.605 186.179 196.663 185.976 196.781 185.848C196.909 185.72 197.095 185.656 197.341 185.656H202.781C203.111 185.656 203.351 185.699 203.501 185.784C203.661 185.869 203.741 186.024 203.741 186.248V187.64C203.741 187.917 203.682 188.12 203.565 188.248C203.458 188.376 203.287 188.44 203.053 188.44ZM214.262 188.536C213.953 188.536 213.718 188.456 213.558 188.296C213.409 188.136 213.334 187.869 213.334 187.496V186.6C212.939 186.515 212.55 186.472 212.166 186.472C211.153 186.472 210.347 186.899 209.75 187.752C209.163 188.595 208.87 189.832 208.87 191.464C208.87 193.203 209.158 194.424 209.734 195.128C210.31 195.821 211.158 196.168 212.278 196.168C212.939 196.168 213.638 196.013 214.374 195.704L214.678 195.576C214.742 195.555 214.785 195.544 214.806 195.544C214.913 195.544 215.003 195.597 215.078 195.704C215.153 195.8 215.19 195.907 215.19 196.024C215.19 196.173 215.121 196.28 214.982 196.344L214.71 196.456C214.273 196.637 213.83 196.776 213.382 196.872C212.945 196.957 212.427 197 211.83 197C210.209 197 209.009 196.52 208.23 195.56C207.451 194.589 207.062 193.213 207.062 191.432C207.062 190.141 207.27 189.064 207.686 188.2C208.113 187.336 208.694 186.696 209.43 186.28C210.166 185.864 211.009 185.656 211.958 185.656C212.811 185.656 213.59 185.768 214.294 185.992C214.55 186.077 214.721 186.173 214.806 186.28C214.902 186.376 214.95 186.541 214.95 186.776V187.736C214.95 188.013 214.891 188.216 214.774 188.344C214.667 188.472 214.497 188.536 214.262 188.536ZM223.175 196.04C223.175 196.403 223.095 196.653 222.935 196.792C222.786 196.931 222.535 197 222.183 197C221.938 197 221.751 196.936 221.623 196.808C221.506 196.68 221.447 196.477 221.447 196.2V186.504H219.047V187.64C219.047 188.013 218.967 188.28 218.807 188.44C218.658 188.6 218.428 188.68 218.119 188.68C217.884 188.68 217.708 188.616 217.591 188.488C217.484 188.36 217.431 188.157 217.431 187.88V186.248C217.431 186.024 217.506 185.869 217.655 185.784C217.815 185.699 218.06 185.656 218.391 185.656H226.231C226.562 185.656 226.802 185.699 226.951 185.784C227.111 185.869 227.191 186.024 227.191 186.248V187.88C227.191 188.157 227.132 188.36 227.015 188.488C226.908 188.616 226.738 188.68 226.503 188.68C226.194 188.68 225.959 188.6 225.799 188.44C225.65 188.28 225.575 188.013 225.575 187.64V186.504H223.175V196.04ZM239.413 191.336C239.413 192.136 239.29 192.957 239.045 193.8C238.81 194.643 238.33 195.389 237.605 196.04C236.879 196.68 235.85 197 234.517 197C233.183 197 232.154 196.68 231.429 196.04C230.714 195.389 230.239 194.643 230.005 193.8C229.77 192.957 229.653 192.136 229.653 191.336C229.653 190.536 229.77 189.715 230.005 188.872C230.239 188.029 230.714 187.283 231.429 186.632C232.154 185.981 233.183 185.656 234.517 185.656C235.85 185.656 236.879 185.981 237.605 186.632C238.33 187.283 238.81 188.035 239.045 188.888C239.29 189.731 239.413 190.547 239.413 191.336ZM237.605 191.336C237.605 190.099 237.397 188.979 236.981 187.976C236.565 186.973 235.743 186.472 234.517 186.472C233.311 186.472 232.501 186.973 232.085 187.976C231.669 188.979 231.461 190.099 231.461 191.336C231.461 192.563 231.669 193.677 232.085 194.68C232.501 195.683 233.311 196.184 234.517 196.184C235.743 196.184 236.565 195.688 236.981 194.696C237.397 193.693 237.605 192.573 237.605 191.336ZM245.186 195.96C245.186 196.333 245.106 196.6 244.946 196.76C244.786 196.92 244.535 197 244.194 197C243.948 197 243.762 196.936 243.634 196.808C243.516 196.68 243.458 196.477 243.458 196.2V186.456C243.458 186.168 243.511 185.965 243.618 185.848C243.724 185.72 243.906 185.656 244.162 185.656H246.834C247.495 185.656 248.13 185.72 248.738 185.848C249.356 185.976 249.916 186.285 250.418 186.776C250.919 187.256 251.17 187.987 251.17 188.968C251.17 189.651 251.01 190.269 250.69 190.824C250.37 191.368 249.884 191.8 249.234 192.12C248.594 192.44 247.799 192.6 246.85 192.6H245.186V195.96ZM245.186 191.752H246.834C247.634 191.752 248.252 191.528 248.69 191.08C249.138 190.621 249.362 189.917 249.362 188.968C249.362 188.179 249.164 187.571 248.77 187.144C248.386 186.717 247.74 186.504 246.834 186.504H245.186V191.752ZM254.46 196.152C254.332 196.493 254.182 196.723 254.012 196.84C253.852 196.947 253.676 197 253.484 197C253.334 197 253.222 196.963 253.148 196.888C253.084 196.803 253.052 196.696 253.052 196.568C253.052 196.44 253.078 196.307 253.132 196.168L256.892 186.04C256.934 185.923 257.036 185.832 257.196 185.768C257.366 185.693 257.558 185.656 257.772 185.656C258.006 185.656 258.214 185.693 258.396 185.768C258.588 185.843 258.705 185.949 258.748 186.088L262.412 196.232C262.433 196.339 262.444 196.419 262.444 196.472C262.444 196.621 262.39 196.749 262.284 196.856C262.188 196.952 262.033 197 261.82 197C261.596 197 261.366 196.941 261.132 196.824C260.908 196.707 260.737 196.483 260.62 196.152L259.772 193.96H255.276L254.46 196.152ZM257.596 187.544H257.5L255.532 193.128H259.532L257.596 187.544ZM274.313 185.656C274.558 185.656 274.739 185.72 274.857 185.848C274.985 185.976 275.049 186.179 275.049 186.456V196.2C275.049 196.488 274.995 196.696 274.889 196.824C274.782 196.941 274.601 197 274.345 197C274.014 197 273.758 196.899 273.577 196.696C273.406 196.483 273.321 196.173 273.321 195.768V191.576H268.105V195.96C268.105 196.333 268.025 196.6 267.865 196.76C267.705 196.92 267.454 197 267.113 197C266.867 197 266.681 196.936 266.553 196.808C266.435 196.68 266.377 196.477 266.377 196.2V186.456C266.377 186.168 266.43 185.965 266.537 185.848C266.643 185.72 266.825 185.656 267.081 185.656C267.411 185.656 267.662 185.763 267.833 185.976C268.014 186.179 268.105 186.483 268.105 186.888V190.696H273.321V186.696C273.321 186.323 273.401 186.056 273.561 185.896C273.721 185.736 273.971 185.656 274.313 185.656ZM283.02 190.648C284.3 190.648 285.276 190.888 285.948 191.368C286.63 191.837 286.972 192.648 286.972 193.8C286.972 195.016 286.556 195.853 285.724 196.312C284.892 196.771 283.98 197 282.988 197H280.588C280.342 197 280.156 196.936 280.028 196.808C279.91 196.68 279.852 196.477 279.852 196.2V186.456C279.852 186.168 279.905 185.965 280.012 185.848C280.118 185.72 280.3 185.656 280.556 185.656C280.886 185.656 281.137 185.763 281.308 185.976C281.489 186.179 281.58 186.483 281.58 186.888V190.648H283.02ZM289.484 185.656C289.729 185.656 289.91 185.72 290.028 185.848C290.156 185.976 290.22 186.179 290.22 186.456V196.2C290.22 196.488 290.166 196.696 290.06 196.824C289.953 196.941 289.772 197 289.516 197C289.185 197 288.929 196.899 288.748 196.696C288.577 196.483 288.492 196.173 288.492 195.768V186.696C288.492 186.323 288.572 186.056 288.732 185.896C288.892 185.736 289.142 185.656 289.484 185.656ZM281.564 196.152H282.78C283.43 196.152 283.99 195.976 284.46 195.624C284.929 195.272 285.164 194.664 285.164 193.8C285.164 192.957 284.95 192.365 284.524 192.024C284.108 191.672 283.5 191.496 282.7 191.496H281.564V196.152Z" fill="#064E3B"/>
</svg>
