<svg width="472" height="156" viewBox="0 0 472 156" fill="none" xmlns="http://www.w3.org/2000/svg">
<path d="M223.248 17C222.528 17 222.168 16.538 222.168 15.614V6.902H222.042L218.334 16.334C218.154 16.778 217.902 17 217.578 17C217.242 17 216.984 16.778 216.804 16.334L213.348 6.902H213.222V15.992C213.222 16.34 213.144 16.598 212.988 16.766C212.844 16.922 212.676 17 212.484 17C212.292 17 212.13 16.934 211.998 16.802C211.866 16.67 211.8 16.466 211.8 16.19V5.192C211.8 4.892 211.914 4.658 212.142 4.49C212.37 4.322 212.64 4.238 212.952 4.238C213.216 4.238 213.474 4.31 213.726 4.454C213.99 4.586 214.182 4.802 214.302 5.102L217.758 14.66H217.848L221.61 5.192C221.73 4.856 221.922 4.616 222.186 4.472C222.462 4.316 222.756 4.238 223.068 4.238C223.38 4.238 223.608 4.316 223.752 4.472C223.908 4.628 223.986 4.868 223.986 5.192V16.1C223.986 16.436 223.932 16.67 223.824 16.802C223.716 16.934 223.524 17 223.248 17ZM228.125 16.046C227.981 16.43 227.813 16.688 227.621 16.82C227.441 16.94 227.243 17 227.027 17C226.859 17 226.733 16.958 226.649 16.874C226.577 16.778 226.541 16.658 226.541 16.514C226.541 16.37 226.571 16.22 226.631 16.064L230.861 4.67C230.909 4.538 231.023 4.436 231.203 4.364C231.395 4.28 231.611 4.238 231.851 4.238C232.115 4.238 232.349 4.28 232.553 4.364C232.769 4.448 232.901 4.568 232.949 4.724L237.071 16.136C237.095 16.256 237.107 16.346 237.107 16.406C237.107 16.574 237.047 16.718 236.927 16.838C236.819 16.946 236.645 17 236.405 17C236.153 17 235.895 16.934 235.631 16.802C235.379 16.67 235.187 16.418 235.055 16.046L234.101 13.58H229.043L228.125 16.046ZM231.653 6.362H231.545L229.331 12.644H233.831L231.653 6.362ZM241.676 15.83C241.676 16.25 241.586 16.55 241.406 16.73C241.226 16.91 240.944 17 240.56 17C240.284 17 240.074 16.928 239.93 16.784C239.798 16.64 239.732 16.412 239.732 16.1V5.138C239.732 4.814 239.792 4.586 239.912 4.454C240.032 4.31 240.236 4.238 240.524 4.238H243.53C244.274 4.238 244.988 4.31 245.672 4.454C246.368 4.598 246.998 4.946 247.562 5.498C248.126 6.038 248.408 6.86 248.408 7.964C248.408 8.732 248.228 9.428 247.868 10.052C247.508 10.664 246.962 11.15 246.23 11.51C245.51 11.87 244.616 12.05 243.548 12.05H241.676V15.83ZM241.676 11.096H243.53C244.43 11.096 245.126 10.844 245.618 10.34C246.122 9.824 246.374 9.032 246.374 7.964C246.374 7.076 246.152 6.392 245.708 5.912C245.276 5.432 244.55 5.192 243.53 5.192H241.676V11.096ZM256.215 15.92C256.215 16.328 256.125 16.61 255.945 16.766C255.777 16.922 255.495 17 255.099 17C254.823 17 254.613 16.928 254.469 16.784C254.337 16.64 254.271 16.412 254.271 16.1V5.192H251.571V6.47C251.571 6.89 251.481 7.19 251.301 7.37C251.133 7.55 250.875 7.64 250.527 7.64C250.263 7.64 250.065 7.568 249.933 7.424C249.813 7.28 249.753 7.052 249.753 6.74V4.904C249.753 4.652 249.837 4.478 250.005 4.382C250.185 4.286 250.461 4.238 250.833 4.238H259.653C260.025 4.238 260.295 4.286 260.463 4.382C260.643 4.478 260.733 4.652 260.733 4.904V6.74C260.733 7.052 260.667 7.28 260.535 7.424C260.415 7.568 260.223 7.64 259.959 7.64C259.611 7.64 259.347 7.55 259.167 7.37C258.999 7.19 258.915 6.89 258.915 6.47V5.192H256.215V15.92Z" fill="#064E3B"/>
<path d="M142.121 113.166C142.121 112.986 142.217 112.854 142.409 112.77C142.601 112.674 142.859 112.626 143.183 112.626C143.495 112.626 143.753 112.674 143.957 112.77C144.161 112.866 144.263 112.998 144.263 113.166L143.669 116.73C143.657 116.814 143.603 116.88 143.507 116.928C143.411 116.964 143.303 116.982 143.183 116.982C143.063 116.982 142.955 116.958 142.859 116.91C142.763 116.862 142.709 116.802 142.697 116.73L142.121 113.166ZM145.271 113.166C145.271 112.986 145.367 112.854 145.559 112.77C145.763 112.674 146.021 112.626 146.333 112.626C146.645 112.626 146.903 112.674 147.107 112.77C147.311 112.866 147.413 112.998 147.413 113.166L146.819 116.73C146.807 116.814 146.753 116.88 146.657 116.928C146.561 116.964 146.453 116.982 146.333 116.982C146.213 116.982 146.105 116.958 146.009 116.91C145.913 116.862 145.859 116.802 145.847 116.73L145.271 113.166ZM151.518 124.83C151.518 125.25 151.428 125.55 151.248 125.73C151.068 125.91 150.786 126 150.402 126C150.126 126 149.916 125.928 149.772 125.784C149.64 125.64 149.574 125.412 149.574 125.1V114.138C149.574 113.814 149.634 113.586 149.754 113.454C149.874 113.31 150.078 113.238 150.366 113.238H153.372C154.116 113.238 154.83 113.31 155.514 113.454C156.21 113.598 156.84 113.946 157.404 114.498C157.968 115.038 158.25 115.86 158.25 116.964C158.25 117.732 158.07 118.428 157.71 119.052C157.35 119.664 156.804 120.15 156.072 120.51C155.352 120.87 154.458 121.05 153.39 121.05H151.518V124.83ZM151.518 120.096H153.372C154.272 120.096 154.968 119.844 155.46 119.34C155.964 118.824 156.216 118.032 156.216 116.964C156.216 116.076 155.994 115.392 155.55 114.912C155.118 114.432 154.392 114.192 153.372 114.192H151.518V120.096ZM159.963 114.138C159.963 113.814 160.023 113.586 160.143 113.454C160.263 113.31 160.467 113.238 160.755 113.238H164.157C165.537 113.238 166.641 113.496 167.469 114.012C168.297 114.516 168.711 115.416 168.711 116.712C168.711 117.3 168.555 117.84 168.243 118.332C167.943 118.824 167.547 119.226 167.055 119.538C166.575 119.85 166.077 120.048 165.561 120.132L168.549 124.938C168.657 125.094 168.711 125.25 168.711 125.406C168.711 125.586 168.633 125.73 168.477 125.838C168.321 125.946 168.093 126 167.793 126C167.553 126 167.325 125.946 167.109 125.838C166.893 125.73 166.713 125.556 166.569 125.316L163.545 120.258H161.907V124.83C161.907 125.25 161.817 125.55 161.637 125.73C161.457 125.91 161.175 126 160.791 126C160.515 126 160.305 125.928 160.161 125.784C160.029 125.64 159.963 125.412 159.963 125.1V114.138ZM161.907 119.304H163.833C164.577 119.304 165.237 119.088 165.813 118.656C166.389 118.212 166.677 117.528 166.677 116.604C166.677 115.62 166.413 114.972 165.885 114.66C165.357 114.348 164.721 114.192 163.977 114.192H161.907V119.304ZM178.064 116.37C177.716 116.37 177.452 116.28 177.272 116.1C177.104 115.92 177.02 115.62 177.02 115.2V114.192H172.754V118.908H176.534C176.69 118.908 176.81 118.962 176.894 119.07C176.99 119.166 177.038 119.28 177.038 119.412C177.038 119.532 176.984 119.646 176.876 119.754C176.768 119.85 176.654 119.898 176.534 119.898H172.754V125.046H177.29V124.038C177.29 123.618 177.374 123.318 177.542 123.138C177.722 122.958 177.986 122.868 178.334 122.868C178.598 122.868 178.79 122.94 178.91 123.084C179.042 123.228 179.108 123.456 179.108 123.768V125.334C179.108 125.586 179.018 125.76 178.838 125.856C178.67 125.952 178.4 126 178.028 126H171.638C171.362 126 171.152 125.928 171.008 125.784C170.876 125.64 170.81 125.412 170.81 125.1V114.138C170.81 113.826 170.876 113.598 171.008 113.454C171.152 113.31 171.362 113.238 171.638 113.238H177.758C178.13 113.238 178.4 113.286 178.568 113.382C178.748 113.478 178.838 113.652 178.838 113.904V115.47C178.838 115.782 178.772 116.01 178.64 116.154C178.52 116.298 178.328 116.37 178.064 116.37ZM187.776 116.514C187.428 116.514 187.164 116.43 186.984 116.262C186.816 116.082 186.732 115.794 186.732 115.398V114.48C186.684 114.468 186.582 114.438 186.426 114.39C185.874 114.234 185.268 114.156 184.608 114.156C184.08 114.156 183.636 114.27 183.276 114.498C182.916 114.714 182.646 114.996 182.466 115.344C182.298 115.68 182.214 116.028 182.214 116.388C182.214 116.796 182.286 117.132 182.43 117.396C182.586 117.66 182.832 117.888 183.168 118.08C183.504 118.272 183.996 118.488 184.644 118.728C185.928 119.184 186.87 119.556 187.47 119.844C188.07 120.132 188.538 120.486 188.874 120.906C189.21 121.314 189.378 121.848 189.378 122.508C189.378 123.18 189.18 123.78 188.784 124.308C188.4 124.836 187.824 125.25 187.056 125.55C186.3 125.85 185.394 126 184.338 126C183.798 126 183.204 125.946 182.556 125.838C181.92 125.718 181.386 125.574 180.954 125.406C180.678 125.286 180.492 125.178 180.396 125.082C180.3 124.974 180.252 124.794 180.252 124.542V123.462C180.252 122.886 180.51 122.598 181.026 122.598C181.374 122.598 181.632 122.688 181.8 122.868C181.98 123.036 182.07 123.324 182.07 123.732V124.704C182.826 124.956 183.558 125.082 184.266 125.082C184.914 125.082 185.472 124.968 185.94 124.74C186.408 124.512 186.762 124.218 187.002 123.858C187.242 123.498 187.362 123.114 187.362 122.706C187.362 122.31 187.254 121.974 187.038 121.698C186.834 121.422 186.522 121.176 186.102 120.96C185.682 120.744 185.094 120.498 184.338 120.222C183.318 119.838 182.532 119.514 181.98 119.25C181.44 118.974 181.008 118.62 180.684 118.188C180.36 117.744 180.198 117.18 180.198 116.496C180.198 115.512 180.576 114.726 181.332 114.138C182.088 113.538 183.138 113.238 184.482 113.238C185.106 113.238 185.676 113.286 186.192 113.382C186.708 113.466 187.248 113.592 187.812 113.76C188.1 113.856 188.292 113.958 188.388 114.066C188.496 114.174 188.55 114.354 188.55 114.606V115.65C188.55 116.226 188.292 116.514 187.776 116.514ZM190.636 126C190.42 126 190.276 125.964 190.204 125.892C190.132 125.808 190.096 125.7 190.096 125.568C190.096 125.412 190.144 125.286 190.24 125.19C190.348 125.094 190.54 125.046 190.816 125.046H192.436V114.192H190.816C190.54 114.192 190.348 114.144 190.24 114.048C190.144 113.952 190.096 113.826 190.096 113.67C190.096 113.538 190.132 113.436 190.204 113.364C190.276 113.28 190.42 113.238 190.636 113.238H196.18C196.396 113.238 196.54 113.28 196.612 113.364C196.684 113.436 196.72 113.538 196.72 113.67C196.72 113.826 196.666 113.952 196.558 114.048C196.462 114.144 196.276 114.192 196 114.192H194.38V125.046H196C196.276 125.046 196.462 125.094 196.558 125.19C196.666 125.286 196.72 125.412 196.72 125.568C196.72 125.7 196.684 125.808 196.612 125.892C196.54 125.964 196.396 126 196.18 126H190.636ZM198.163 114.138C198.163 113.826 198.229 113.598 198.361 113.454C198.505 113.31 198.715 113.238 198.991 113.238H201.565C205.777 113.238 207.883 115.344 207.883 119.556C207.883 121.128 207.553 122.4 206.893 123.372C206.245 124.332 205.447 125.01 204.499 125.406C203.563 125.802 202.615 126 201.655 126H198.991C198.715 126 198.505 125.928 198.361 125.784C198.229 125.64 198.163 125.412 198.163 125.1V114.138ZM200.107 125.046H200.503V125.028H201.349C202.681 125.028 203.761 124.578 204.589 123.678C205.429 122.778 205.849 121.404 205.849 119.556C205.849 117.684 205.435 116.322 204.607 115.47C203.791 114.618 202.705 114.192 201.349 114.192H200.107V125.046ZM217.178 116.37C216.83 116.37 216.566 116.28 216.386 116.1C216.218 115.92 216.134 115.62 216.134 115.2V114.192H211.868V118.908H215.648C215.804 118.908 215.924 118.962 216.008 119.07C216.104 119.166 216.152 119.28 216.152 119.412C216.152 119.532 216.098 119.646 215.99 119.754C215.882 119.85 215.768 119.898 215.648 119.898H211.868V125.046H216.404V124.038C216.404 123.618 216.488 123.318 216.656 123.138C216.836 122.958 217.1 122.868 217.448 122.868C217.712 122.868 217.904 122.94 218.024 123.084C218.156 123.228 218.222 123.456 218.222 123.768V125.334C218.222 125.586 218.132 125.76 217.952 125.856C217.784 125.952 217.514 126 217.142 126H210.752C210.476 126 210.266 125.928 210.122 125.784C209.99 125.64 209.924 125.412 209.924 125.1V114.138C209.924 113.826 209.99 113.598 210.122 113.454C210.266 113.31 210.476 113.238 210.752 113.238H216.872C217.244 113.238 217.514 113.286 217.682 113.382C217.862 113.478 217.952 113.652 217.952 113.904V115.47C217.952 115.782 217.886 116.01 217.754 116.154C217.634 116.298 217.442 116.37 217.178 116.37ZM220.698 126C220.506 126 220.344 125.934 220.212 125.802C220.08 125.67 220.014 125.466 220.014 125.19V114.21C220.014 113.91 220.116 113.676 220.32 113.508C220.536 113.328 220.794 113.238 221.094 113.238C221.358 113.238 221.592 113.292 221.796 113.4C222.012 113.508 222.21 113.706 222.39 113.994L228.276 123.336H228.366V114.246C228.366 113.898 228.438 113.646 228.582 113.49C228.738 113.322 228.912 113.238 229.104 113.238C229.296 113.238 229.458 113.304 229.59 113.436C229.722 113.568 229.788 113.772 229.788 114.048V124.956C229.788 125.292 229.686 125.55 229.482 125.73C229.29 125.91 229.044 126 228.744 126C228.18 126 227.742 125.76 227.43 125.28L221.544 115.902H221.436V124.992C221.436 125.34 221.358 125.598 221.202 125.766C221.058 125.922 220.89 126 220.698 126ZM237.693 124.92C237.693 125.328 237.603 125.61 237.423 125.766C237.255 125.922 236.973 126 236.577 126C236.301 126 236.091 125.928 235.947 125.784C235.815 125.64 235.749 125.412 235.749 125.1V114.192H233.049V115.47C233.049 115.89 232.959 116.19 232.779 116.37C232.611 116.55 232.353 116.64 232.005 116.64C231.741 116.64 231.543 116.568 231.411 116.424C231.291 116.28 231.231 116.052 231.231 115.74V113.904C231.231 113.652 231.315 113.478 231.483 113.382C231.663 113.286 231.939 113.238 232.311 113.238H241.131C241.503 113.238 241.773 113.286 241.941 113.382C242.121 113.478 242.211 113.652 242.211 113.904V115.74C242.211 116.052 242.145 116.28 242.013 116.424C241.893 116.568 241.701 116.64 241.437 116.64C241.089 116.64 240.825 116.55 240.645 116.37C240.477 116.19 240.393 115.89 240.393 115.47V114.192H237.693V124.92ZM255.589 116.478C255.241 116.478 254.977 116.388 254.797 116.208C254.629 116.028 254.545 115.728 254.545 115.308V114.3C254.101 114.204 253.663 114.156 253.231 114.156C252.091 114.156 251.185 114.636 250.513 115.596C249.853 116.544 249.523 117.936 249.523 119.772C249.523 121.728 249.847 123.102 250.495 123.894C251.143 124.674 252.097 125.064 253.357 125.064C254.101 125.064 254.887 124.89 255.715 124.542L256.057 124.398C256.129 124.374 256.177 124.362 256.201 124.362C256.321 124.362 256.423 124.422 256.507 124.542C256.591 124.65 256.633 124.77 256.633 124.902C256.633 125.07 256.555 125.19 256.399 125.262L256.093 125.388C255.601 125.592 255.103 125.748 254.599 125.856C254.107 125.952 253.525 126 252.853 126C251.029 126 249.679 125.46 248.803 124.38C247.927 123.288 247.489 121.74 247.489 119.736C247.489 118.284 247.723 117.072 248.191 116.1C248.671 115.128 249.325 114.408 250.153 113.94C250.981 113.472 251.929 113.238 252.997 113.238C253.957 113.238 254.833 113.364 255.625 113.616C255.913 113.712 256.105 113.82 256.201 113.94C256.309 114.048 256.363 114.234 256.363 114.498V115.578C256.363 115.89 256.297 116.118 256.165 116.262C256.045 116.406 255.853 116.478 255.589 116.478ZM257.174 126C256.958 126 256.814 125.964 256.742 125.892C256.67 125.808 256.634 125.7 256.634 125.568C256.634 125.412 256.682 125.286 256.778 125.19C256.886 125.094 257.078 125.046 257.354 125.046H258.974V114.192H257.354C257.078 114.192 256.886 114.144 256.778 114.048C256.682 113.952 256.634 113.826 256.634 113.67C256.634 113.538 256.67 113.436 256.742 113.364C256.814 113.28 256.958 113.238 257.174 113.238H262.718C262.934 113.238 263.078 113.28 263.15 113.364C263.222 113.436 263.258 113.538 263.258 113.67C263.258 113.826 263.204 113.952 263.096 114.048C263 114.144 262.814 114.192 262.538 114.192H260.918V125.046H262.538C262.814 125.046 263 125.094 263.096 125.19C263.204 125.286 263.258 125.412 263.258 125.568C263.258 125.7 263.222 125.808 263.15 125.892C263.078 125.964 262.934 126 262.718 126H257.174ZM269.724 124.92C269.724 125.328 269.634 125.61 269.454 125.766C269.286 125.922 269.004 126 268.608 126C268.332 126 268.122 125.928 267.978 125.784C267.846 125.64 267.78 125.412 267.78 125.1V114.192H265.08V115.47C265.08 115.89 264.99 116.19 264.81 116.37C264.642 116.55 264.384 116.64 264.036 116.64C263.772 116.64 263.574 116.568 263.442 116.424C263.322 116.28 263.262 116.052 263.262 115.74V113.904C263.262 113.652 263.346 113.478 263.514 113.382C263.694 113.286 263.97 113.238 264.342 113.238H273.162C273.534 113.238 273.804 113.286 273.972 113.382C274.152 113.478 274.242 113.652 274.242 113.904V115.74C274.242 116.052 274.176 116.28 274.044 116.424C273.924 116.568 273.732 116.64 273.468 116.64C273.12 116.64 272.856 116.55 272.676 116.37C272.508 116.19 272.424 115.89 272.424 115.47V114.192H269.724V124.92ZM278.888 126C278.324 126 278.042 125.7 278.042 125.1V121.176L274.496 114.318C274.424 114.15 274.388 114 274.388 113.868C274.388 113.688 274.448 113.538 274.568 113.418C274.688 113.298 274.844 113.238 275.036 113.238C275.348 113.238 275.612 113.304 275.828 113.436C276.044 113.568 276.242 113.814 276.422 114.174L279.284 119.826H279.356L282.056 114.192C282.356 113.556 282.722 113.238 283.154 113.238C283.322 113.238 283.448 113.298 283.532 113.418C283.616 113.526 283.658 113.664 283.658 113.832C283.658 113.976 283.628 114.108 283.568 114.228L279.986 121.176V124.92C279.986 125.34 279.896 125.628 279.716 125.784C279.548 125.928 279.272 126 278.888 126ZM298.593 113.238C298.869 113.238 299.073 113.31 299.205 113.454C299.349 113.598 299.421 113.826 299.421 114.138V125.1C299.421 125.424 299.361 125.658 299.241 125.802C299.121 125.934 298.917 126 298.629 126C298.257 126 297.969 125.886 297.765 125.658C297.573 125.418 297.477 125.07 297.477 124.614V119.898H291.609V124.83C291.609 125.25 291.519 125.55 291.339 125.73C291.159 125.91 290.877 126 290.493 126C290.217 126 290.007 125.928 289.863 125.784C289.731 125.64 289.665 125.412 289.665 125.1V114.138C289.665 113.814 289.725 113.586 289.845 113.454C289.965 113.31 290.169 113.238 290.457 113.238C290.829 113.238 291.111 113.358 291.303 113.598C291.507 113.826 291.609 114.168 291.609 114.624V118.908H297.477V114.408C297.477 113.988 297.567 113.688 297.747 113.508C297.927 113.328 298.209 113.238 298.593 113.238ZM302.358 125.046C302.214 125.43 302.046 125.688 301.854 125.82C301.674 125.94 301.476 126 301.26 126C301.092 126 300.966 125.958 300.882 125.874C300.81 125.778 300.774 125.658 300.774 125.514C300.774 125.37 300.804 125.22 300.864 125.064L305.094 113.67C305.142 113.538 305.256 113.436 305.436 113.364C305.628 113.28 305.844 113.238 306.084 113.238C306.348 113.238 306.582 113.28 306.786 113.364C307.002 113.448 307.134 113.568 307.182 113.724L311.304 125.136C311.328 125.256 311.34 125.346 311.34 125.406C311.34 125.574 311.28 125.718 311.16 125.838C311.052 125.946 310.878 126 310.638 126C310.386 126 310.128 125.934 309.864 125.802C309.612 125.67 309.42 125.418 309.288 125.046L308.334 122.58H303.276L302.358 125.046ZM305.886 115.362H305.778L303.564 121.644H308.064L305.886 115.362ZM319.767 122.634C320.031 122.634 320.223 122.706 320.343 122.85C320.475 122.994 320.541 123.222 320.541 123.534V125.424C320.541 125.628 320.451 125.778 320.271 125.874C320.091 125.958 319.821 126 319.461 126H313.521C313.245 126 313.035 125.928 312.891 125.784C312.759 125.64 312.693 125.412 312.693 125.1V114.138C312.693 113.814 312.753 113.586 312.873 113.454C312.993 113.31 313.197 113.238 313.485 113.238C313.857 113.238 314.139 113.358 314.331 113.598C314.535 113.826 314.637 114.168 314.637 114.624V125.046H318.723V123.804C318.723 123.384 318.807 123.084 318.975 122.904C319.155 122.724 319.419 122.634 319.767 122.634ZM329.331 122.634C329.595 122.634 329.787 122.706 329.907 122.85C330.039 122.994 330.105 123.222 330.105 123.534V125.424C330.105 125.628 330.015 125.778 329.835 125.874C329.655 125.958 329.385 126 329.025 126H323.085C322.809 126 322.599 125.928 322.455 125.784C322.323 125.64 322.257 125.412 322.257 125.1V114.138C322.257 113.814 322.317 113.586 322.437 113.454C322.557 113.31 322.761 113.238 323.049 113.238C323.421 113.238 323.703 113.358 323.895 113.598C324.099 113.826 324.201 114.168 324.201 114.624V125.046H328.287V123.804C328.287 123.384 328.371 123.084 328.539 122.904C328.719 122.724 328.983 122.634 329.331 122.634ZM328.586 113.166C328.586 112.986 328.682 112.854 328.874 112.77C329.066 112.674 329.324 112.626 329.648 112.626C329.96 112.626 330.218 112.674 330.422 112.77C330.626 112.866 330.728 112.998 330.728 113.166L330.134 116.73C330.122 116.814 330.068 116.88 329.972 116.928C329.876 116.964 329.768 116.982 329.648 116.982C329.528 116.982 329.42 116.958 329.324 116.91C329.228 116.862 329.174 116.802 329.162 116.73L328.586 113.166ZM331.736 113.166C331.736 112.986 331.832 112.854 332.024 112.77C332.228 112.674 332.486 112.626 332.798 112.626C333.11 112.626 333.368 112.674 333.572 112.77C333.776 112.866 333.878 112.998 333.878 113.166L333.284 116.73C333.272 116.814 333.218 116.88 333.122 116.928C333.026 116.964 332.918 116.982 332.798 116.982C332.678 116.982 332.57 116.958 332.474 116.91C332.378 116.862 332.324 116.802 332.312 116.73L331.736 113.166ZM181.504 140.192C181.744 139.556 182.092 139.238 182.548 139.238C182.716 139.238 182.848 139.298 182.944 139.418C183.052 139.526 183.106 139.664 183.106 139.832C183.106 139.976 183.076 140.108 183.016 140.228L179.668 148.094C179.212 149.162 178.636 150.08 177.94 150.848C177.256 151.616 176.476 152 175.6 152C175.324 152 175.102 151.922 174.934 151.766C174.778 151.598 174.7 151.346 174.7 151.01C174.7 150.77 174.784 150.602 174.952 150.506C175.12 150.41 175.438 150.332 175.906 150.272C176.446 150.224 176.884 150.056 177.22 149.768C177.556 149.48 177.838 149.054 178.066 148.49L173.62 140.318C173.548 140.186 173.512 140.036 173.512 139.868C173.512 139.688 173.572 139.538 173.692 139.418C173.812 139.298 173.968 139.238 174.16 139.238C174.472 139.238 174.73 139.304 174.934 139.436C175.15 139.568 175.354 139.814 175.546 140.174L178.93 146.51H179.038L181.504 140.192ZM193.353 139.238C193.629 139.238 193.833 139.31 193.965 139.454C194.109 139.598 194.181 139.826 194.181 140.138V151.1C194.181 151.424 194.121 151.658 194.001 151.802C193.881 151.934 193.677 152 193.389 152C193.017 152 192.729 151.886 192.525 151.658C192.333 151.418 192.237 151.07 192.237 150.614V140.192H188.007V142.01C188.007 143.594 187.953 144.938 187.845 146.042C187.737 147.134 187.551 148.088 187.287 148.904C187.143 149.348 186.915 149.81 186.603 150.29C186.303 150.77 185.937 151.178 185.505 151.514C185.085 151.838 184.635 152 184.155 152C183.939 152 183.753 151.904 183.597 151.712C183.453 151.508 183.381 151.28 183.381 151.028C183.381 150.812 183.441 150.656 183.561 150.56C183.681 150.452 183.945 150.332 184.353 150.2C185.145 149.924 185.715 149.282 186.063 148.274C186.303 147.59 186.447 146.804 186.495 145.916C186.555 145.016 186.585 143.732 186.585 142.064V140.138C186.585 139.814 186.645 139.586 186.765 139.454C186.885 139.31 187.089 139.238 187.377 139.238H193.353ZM196.336 150.614C196.336 150.194 196.468 149.852 196.732 149.588C196.996 149.324 197.32 149.192 197.704 149.192C198.088 149.192 198.412 149.33 198.676 149.606C198.94 149.87 199.072 150.206 199.072 150.614C199.072 151.01 198.94 151.34 198.676 151.604C198.412 151.868 198.088 152 197.704 152C197.32 152 196.996 151.868 196.732 151.604C196.468 151.34 196.336 151.01 196.336 150.614ZM206.456 151.046C206.312 151.43 206.144 151.688 205.952 151.82C205.772 151.94 205.574 152 205.358 152C205.19 152 205.064 151.958 204.98 151.874C204.908 151.778 204.872 151.658 204.872 151.514C204.872 151.37 204.902 151.22 204.962 151.064L209.192 139.67C209.24 139.538 209.354 139.436 209.534 139.364C209.726 139.28 209.942 139.238 210.182 139.238C210.446 139.238 210.68 139.28 210.884 139.364C211.1 139.448 211.232 139.568 211.28 139.724L215.402 151.136C215.426 151.256 215.438 151.346 215.438 151.406C215.438 151.574 215.378 151.718 215.258 151.838C215.15 151.946 214.976 152 214.736 152C214.484 152 214.226 151.934 213.962 151.802C213.71 151.67 213.518 151.418 213.386 151.046L212.432 148.58H207.374L206.456 151.046ZM209.984 141.362H209.876L207.662 147.644H212.162L209.984 141.362ZM223.66 140.192C223.9 139.556 224.248 139.238 224.704 139.238C224.872 139.238 225.004 139.298 225.1 139.418C225.208 139.526 225.262 139.664 225.262 139.832C225.262 139.976 225.232 140.108 225.172 140.228L221.824 148.094C221.368 149.162 220.792 150.08 220.096 150.848C219.412 151.616 218.632 152 217.756 152C217.48 152 217.258 151.922 217.09 151.766C216.934 151.598 216.856 151.346 216.856 151.01C216.856 150.77 216.94 150.602 217.108 150.506C217.276 150.41 217.594 150.332 218.062 150.272C218.602 150.224 219.04 150.056 219.376 149.768C219.712 149.48 219.994 149.054 220.222 148.49L215.776 140.318C215.704 140.186 215.668 140.036 215.668 139.868C215.668 139.688 215.728 139.538 215.848 139.418C215.968 139.298 216.124 139.238 216.316 139.238C216.628 139.238 216.886 139.304 217.09 139.436C217.306 139.568 217.51 139.814 217.702 140.174L221.086 146.51H221.194L223.66 140.192ZM227.714 150.722C228.026 150.866 228.32 150.962 228.596 151.01C228.884 151.058 229.226 151.082 229.622 151.082C230.714 151.082 231.578 150.644 232.214 149.768C232.862 148.88 233.21 147.59 233.258 145.898H228.218C228.134 145.898 228.068 145.85 228.02 145.754C227.972 145.658 227.948 145.544 227.948 145.412C227.948 145.28 227.972 145.166 228.02 145.07C228.068 144.962 228.134 144.908 228.218 144.908H233.222C233.126 143.216 232.748 142.004 232.088 141.272C231.44 140.54 230.618 140.168 229.622 140.156C229.046 140.156 228.458 140.222 227.858 140.354V141.362C227.858 141.782 227.768 142.082 227.588 142.262C227.42 142.442 227.162 142.532 226.814 142.532C226.55 142.532 226.352 142.46 226.22 142.316C226.1 142.172 226.04 141.944 226.04 141.632V140.606C226.04 140.342 226.088 140.156 226.184 140.048C226.292 139.928 226.49 139.82 226.778 139.724C227.858 139.4 228.848 139.238 229.748 139.238C233.444 139.238 235.292 141.272 235.292 145.34C235.292 147.332 234.824 148.94 233.888 150.164C232.952 151.388 231.536 152 229.64 152C229.052 152 228.518 151.958 228.038 151.874C227.558 151.79 227.078 151.64 226.598 151.424C226.322 151.304 226.136 151.196 226.04 151.1C225.944 150.992 225.896 150.812 225.896 150.56V149.48C225.896 148.904 226.154 148.616 226.67 148.616C227.018 148.616 227.276 148.706 227.444 148.886C227.624 149.054 227.714 149.342 227.714 149.75V150.722ZM238.244 150.722C238.628 150.854 238.964 150.95 239.252 151.01C239.552 151.058 239.924 151.082 240.368 151.082C241.04 151.082 241.592 150.944 242.024 150.668C242.468 150.392 242.792 150.044 242.996 149.624C243.212 149.192 243.32 148.742 243.32 148.274C243.32 147.566 243.11 146.996 242.69 146.564C242.27 146.12 241.526 145.898 240.458 145.898H238.784C238.7 145.898 238.634 145.85 238.586 145.754C238.538 145.658 238.514 145.544 238.514 145.412C238.514 145.28 238.538 145.166 238.586 145.07C238.634 144.962 238.7 144.908 238.784 144.908H240.476C242.132 144.908 242.96 144.074 242.96 142.406C242.96 141.734 242.732 141.194 242.276 140.786C241.82 140.366 241.196 140.156 240.404 140.156C239.72 140.156 239.084 140.222 238.496 140.354V141.362C238.496 141.782 238.406 142.082 238.226 142.262C238.058 142.442 237.8 142.532 237.452 142.532C237.188 142.532 236.99 142.46 236.858 142.316C236.738 142.172 236.678 141.944 236.678 141.632V140.606C236.678 140.342 236.726 140.156 236.822 140.048C236.93 139.928 237.128 139.82 237.416 139.724C238.484 139.4 239.6 139.238 240.764 139.238C242.204 139.238 243.26 139.538 243.932 140.138C244.604 140.726 244.94 141.482 244.94 142.406C244.94 143.198 244.73 143.828 244.31 144.296C243.902 144.752 243.368 145.082 242.708 145.286V145.394C244.472 145.67 245.354 146.63 245.354 148.274C245.354 148.898 245.186 149.492 244.85 150.056C244.514 150.62 243.98 151.088 243.248 151.46C242.516 151.82 241.586 152 240.458 152C239.858 152 239.264 151.952 238.676 151.856C238.088 151.748 237.572 151.604 237.128 151.424C236.852 151.304 236.666 151.196 236.57 151.1C236.474 150.992 236.426 150.812 236.426 150.56V149.48C236.426 148.904 236.684 148.616 237.2 148.616C237.548 148.616 237.806 148.706 237.974 148.886C238.154 149.054 238.244 149.342 238.244 149.75V150.722ZM257.643 145.628C257.643 146.528 257.505 147.452 257.229 148.4C256.965 149.348 256.425 150.188 255.609 150.92C254.793 151.64 253.635 152 252.135 152C250.635 152 249.477 151.64 248.661 150.92C247.857 150.188 247.323 149.348 247.059 148.4C246.795 147.452 246.663 146.528 246.663 145.628C246.663 144.728 246.795 143.804 247.059 142.856C247.323 141.908 247.857 141.068 248.661 140.336C249.477 139.604 250.635 139.238 252.135 139.238C253.635 139.238 254.793 139.604 255.609 140.336C256.425 141.068 256.965 141.914 257.229 142.874C257.505 143.822 257.643 144.74 257.643 145.628ZM255.609 145.628C255.609 144.236 255.375 142.976 254.907 141.848C254.439 140.72 253.515 140.156 252.135 140.156C250.779 140.156 249.867 140.72 249.399 141.848C248.931 142.976 248.697 144.236 248.697 145.628C248.697 147.008 248.931 148.262 249.399 149.39C249.867 150.518 250.779 151.082 252.135 151.082C253.515 151.082 254.439 150.524 254.907 149.408C255.375 148.28 255.609 147.02 255.609 145.628ZM259.674 140.138C259.674 139.826 259.74 139.598 259.872 139.454C260.016 139.31 260.226 139.238 260.502 139.238H264.192C266.856 139.238 268.188 140.306 268.188 142.442C268.188 143.042 268.002 143.606 267.63 144.134C267.27 144.65 266.778 144.986 266.154 145.142V145.232C267.066 145.388 267.744 145.736 268.188 146.276C268.632 146.804 268.854 147.44 268.854 148.184C268.854 149.636 268.38 150.638 267.432 151.19C266.496 151.73 265.446 152 264.282 152H260.502C260.226 152 260.016 151.928 259.872 151.784C259.74 151.64 259.674 151.412 259.674 151.1V140.138ZM261.618 144.836H263.688C264.072 144.836 264.45 144.758 264.822 144.602C265.206 144.434 265.524 144.17 265.776 143.81C266.028 143.438 266.154 142.964 266.154 142.388C266.154 141.608 265.884 141.05 265.344 140.714C264.804 140.366 264.204 140.192 263.544 140.192H261.618V144.836ZM261.618 151.046H264.03C264.738 151.046 265.38 150.842 265.956 150.434C266.532 150.014 266.82 149.324 266.82 148.364C266.82 147.764 266.67 147.272 266.37 146.888C266.07 146.504 265.692 146.228 265.236 146.06C264.78 145.88 264.318 145.79 263.85 145.79H261.618V151.046ZM271.201 151.046C271.057 151.43 270.889 151.688 270.697 151.82C270.517 151.94 270.319 152 270.103 152C269.935 152 269.809 151.958 269.725 151.874C269.653 151.778 269.617 151.658 269.617 151.514C269.617 151.37 269.647 151.22 269.707 151.064L273.937 139.67C273.985 139.538 274.099 139.436 274.279 139.364C274.471 139.28 274.687 139.238 274.927 139.238C275.191 139.238 275.425 139.28 275.629 139.364C275.845 139.448 275.977 139.568 276.025 139.724L280.147 151.136C280.171 151.256 280.183 151.346 280.183 151.406C280.183 151.574 280.123 151.718 280.003 151.838C279.895 151.946 279.721 152 279.481 152C279.229 152 278.971 151.934 278.707 151.802C278.455 151.67 278.263 151.418 278.131 151.046L277.177 148.58H272.119L271.201 151.046ZM274.729 141.362H274.621L272.407 147.644H276.907L274.729 141.362ZM286.584 143.09C286.32 143.09 286.122 143.018 285.99 142.874C285.87 142.73 285.81 142.502 285.81 142.19V141.11C285.81 140.906 285.834 140.756 285.882 140.66C285.942 140.564 286.056 140.462 286.224 140.354C286.836 139.946 287.424 139.658 287.988 139.49C288.564 139.322 289.188 139.238 289.86 139.238C291.048 139.238 291.924 139.544 292.488 140.156C293.064 140.756 293.352 141.518 293.352 142.442C293.352 143.606 292.884 144.866 291.948 146.222C291.024 147.566 289.404 149.174 287.088 151.046H291.786V149.93C291.786 149.51 291.864 149.21 292.02 149.03C292.188 148.85 292.428 148.76 292.74 148.76C293.004 148.76 293.196 148.832 293.316 148.976C293.448 149.12 293.514 149.348 293.514 149.66V151.424C293.514 151.628 293.424 151.778 293.244 151.874C293.064 151.958 292.794 152 292.434 152H286.044C285.9 152 285.786 151.952 285.702 151.856C285.63 151.76 285.594 151.64 285.594 151.496C285.594 151.244 285.684 151.04 285.864 150.884L286.116 150.65C288.192 148.718 289.578 147.11 290.274 145.826C290.97 144.53 291.318 143.492 291.318 142.712C291.318 142.028 291.168 141.434 290.868 140.93C290.58 140.414 290.052 140.156 289.284 140.156C288.708 140.156 288.126 140.312 287.538 140.624V141.92C287.538 142.352 287.466 142.658 287.322 142.838C287.178 143.006 286.932 143.09 286.584 143.09ZM299.405 148.886H294.167C293.831 148.886 293.663 148.742 293.663 148.454C293.663 148.334 293.705 148.19 293.789 148.022L299.135 139.904C299.423 139.46 299.843 139.238 300.395 139.238C300.719 139.238 300.953 139.31 301.097 139.454C301.241 139.598 301.313 139.826 301.313 140.138V147.932H302.429C302.705 147.932 302.891 147.98 302.987 148.076C303.095 148.172 303.149 148.298 303.149 148.454C303.149 148.586 303.113 148.694 303.041 148.778C302.969 148.85 302.825 148.886 302.609 148.886H301.313V151.046H302.339C302.615 151.046 302.801 151.094 302.897 151.19C303.005 151.286 303.059 151.412 303.059 151.568C303.059 151.7 303.023 151.808 302.951 151.892C302.879 151.964 302.735 152 302.519 152H297.839C297.623 152 297.479 151.964 297.407 151.892C297.335 151.808 297.299 151.7 297.299 151.568C297.299 151.412 297.347 151.286 297.443 151.19C297.551 151.094 297.743 151.046 298.019 151.046H299.405V148.886ZM299.405 141.596L295.175 147.932H299.405V141.596Z" fill="#064E3B"/>
<path d="M223.75 58.06C223.51 58.16 223.27 58.21 223.03 58.21C222.79 58.21 222.6 58.12 222.46 57.94C222.32 57.76 222.25 57.56 222.25 57.34C222.25 57.04 222.46 56.82 222.88 56.68L227.11 55.03C227.65 54.83 228.19 54.73 228.73 54.73C229.27 54.73 229.66 54.85 229.9 55.09C230.14 55.33 230.26 55.71 230.26 56.23V74.41H232.84C233.3 74.41 233.61 74.49 233.77 74.65C233.95 74.81 234.04 75.02 234.04 75.28C234.04 75.5 233.98 75.68 233.86 75.82C233.74 75.94 233.5 76 233.14 76H224.2C223.84 76 223.6 75.94 223.48 75.82C223.36 75.68 223.3 75.5 223.3 75.28C223.3 75.02 223.38 74.81 223.54 74.65C223.72 74.49 224.04 74.41 224.5 74.41H227.08V56.8L223.75 58.06ZM239.148 70.84C239.728 70.84 240.138 70.98 240.378 71.26C240.618 71.54 240.738 72.02 240.738 72.7V74.17C241.218 74.37 241.868 74.47 242.688 74.47C243.428 74.47 244.128 74.22 244.788 73.72C245.468 73.22 246.018 72.4 246.438 71.26C246.878 70.1 247.098 68.61 247.098 66.79V65.53C246.658 66.45 246.028 67.12 245.208 67.54C244.408 67.96 243.548 68.17 242.628 68.17C240.868 68.17 239.508 67.57 238.548 66.37C237.588 65.17 237.108 63.59 237.108 61.63C237.108 60.21 237.388 58.98 237.948 57.94C238.508 56.9 239.288 56.11 240.288 55.57C241.288 55.01 242.418 54.73 243.678 54.73C245.458 54.73 246.838 55.14 247.818 55.96C248.798 56.78 249.458 57.86 249.798 59.2C250.138 60.52 250.308 62.11 250.308 63.97C250.308 71.99 247.778 76 242.718 76C242.018 76 241.388 75.95 240.828 75.85C240.268 75.73 239.688 75.56 239.088 75.34C238.708 75.2 238.408 75.02 238.188 74.8C237.968 74.58 237.858 74.25 237.858 73.81V72.28C237.858 71.32 238.288 70.84 239.148 70.84ZM243.498 66.25C244.438 66.25 245.228 65.83 245.868 64.99C246.528 64.13 246.858 62.96 246.858 61.48C246.858 60.08 246.638 58.86 246.198 57.82C245.758 56.78 244.948 56.26 243.768 56.26C242.728 56.26 241.898 56.7 241.278 57.58C240.678 58.46 240.378 59.82 240.378 61.66C240.378 64.72 241.418 66.25 243.498 66.25Z" fill="#064E3B"/>
<path d="M33.8375 60.456C33.8375 60.1787 33.8962 59.976 34.0135 59.848C34.1415 59.72 34.3282 59.656 34.5735 59.656H37.8535C40.2215 59.656 41.4055 60.6053 41.4055 62.504C41.4055 63.0373 41.2402 63.5387 40.9095 64.008C40.5895 64.4667 40.1522 64.7653 39.5975 64.904V64.984C40.4082 65.1227 41.0108 65.432 41.4055 65.912C41.8002 66.3813 41.9975 66.9467 41.9975 67.608C41.9975 68.8987 41.5762 69.7893 40.7335 70.28C39.9015 70.76 38.9682 71 37.9335 71H34.5735C34.3282 71 34.1415 70.936 34.0135 70.808C33.8962 70.68 33.8375 70.4773 33.8375 70.2V60.456ZM35.5655 64.632H37.4055C37.7468 64.632 38.0828 64.5627 38.4135 64.424C38.7548 64.2747 39.0375 64.04 39.2615 63.72C39.4855 63.3893 39.5975 62.968 39.5975 62.456C39.5975 61.7627 39.3575 61.2667 38.8775 60.968C38.3975 60.6587 37.8642 60.504 37.2775 60.504H35.5655V64.632ZM35.5655 70.152H37.7095C38.3388 70.152 38.9095 69.9707 39.4215 69.608C39.9335 69.2347 40.1895 68.6213 40.1895 67.768C40.1895 67.2347 40.0562 66.7973 39.7895 66.456C39.5228 66.1147 39.1868 65.8693 38.7815 65.72C38.3762 65.56 37.9655 65.48 37.5495 65.48H35.5655V70.152ZM56.2043 65.336C56.2043 66.136 56.0816 66.9573 55.8363 67.8C55.6016 68.6427 55.1216 69.3893 54.3963 70.04C53.6709 70.68 52.6416 71 51.3083 71C49.9749 71 48.9456 70.68 48.2203 70.04C47.5056 69.3893 47.0309 68.6427 46.7963 67.8C46.5616 66.9573 46.4443 66.136 46.4443 65.336C46.4443 64.536 46.5616 63.7147 46.7963 62.872C47.0309 62.0293 47.5056 61.2827 48.2203 60.632C48.9456 59.9813 49.9749 59.656 51.3083 59.656C52.6416 59.656 53.6709 59.9813 54.3963 60.632C55.1216 61.2827 55.6016 62.0347 55.8363 62.888C56.0816 63.7307 56.2043 64.5467 56.2043 65.336ZM54.3963 65.336C54.3963 64.0987 54.1883 62.9787 53.7723 61.976C53.3563 60.9733 52.5349 60.472 51.3083 60.472C50.1029 60.472 49.2923 60.9733 48.8763 61.976C48.4603 62.9787 48.2523 64.0987 48.2523 65.336C48.2523 66.5627 48.4603 67.6773 48.8763 68.68C49.2923 69.6827 50.1029 70.184 51.3083 70.184C52.5349 70.184 53.3563 69.688 53.7723 68.696C54.1883 67.6933 54.3963 66.5733 54.3963 65.336ZM67.7374 62.536C67.428 62.536 67.1934 62.456 67.0334 62.296C66.884 62.136 66.8094 61.8693 66.8094 61.496V60.6C66.4147 60.5147 66.0254 60.472 65.6414 60.472C64.628 60.472 63.8227 60.8987 63.2254 61.752C62.6387 62.5947 62.3454 63.832 62.3454 65.464C62.3454 67.2027 62.6334 68.424 63.2094 69.128C63.7854 69.8213 64.6334 70.168 65.7534 70.168C66.4147 70.168 67.1134 70.0133 67.8494 69.704L68.1534 69.576C68.2174 69.5547 68.26 69.544 68.2814 69.544C68.388 69.544 68.4787 69.5973 68.5534 69.704C68.628 69.8 68.6654 69.9067 68.6654 70.024C68.6654 70.1733 68.596 70.28 68.4574 70.344L68.1854 70.456C67.748 70.6373 67.3054 70.776 66.8574 70.872C66.42 70.9573 65.9027 71 65.3054 71C63.684 71 62.484 70.52 61.7054 69.56C60.9267 68.5893 60.5374 67.2133 60.5374 65.432C60.5374 64.1413 60.7454 63.064 61.1614 62.2C61.588 61.336 62.1694 60.696 62.9054 60.28C63.6414 59.864 64.484 59.656 65.4334 59.656C66.2867 59.656 67.0654 59.768 67.7694 59.992C68.0254 60.0773 68.196 60.1733 68.2814 60.28C68.3774 60.376 68.4254 60.5413 68.4254 60.776V61.736C68.4254 62.0133 68.3667 62.216 68.2494 62.344C68.1427 62.472 67.972 62.536 67.7374 62.536ZM75.2903 64.776L79.9943 59.976C80.1969 59.7627 80.4103 59.656 80.6343 59.656C80.7943 59.656 80.9276 59.7093 81.0343 59.816C81.1516 59.9227 81.2103 60.04 81.2103 60.168C81.2103 60.2427 81.1836 60.3067 81.1303 60.36L76.5703 64.872L81.1783 69.944C81.3276 70.1147 81.4023 70.2693 81.4023 70.408C81.4023 70.568 81.3383 70.7067 81.2103 70.824C81.0929 70.9413 80.9383 71 80.7463 71C80.5009 71 80.2663 70.9467 80.0423 70.84C79.8289 70.7333 79.5836 70.5253 79.3063 70.216L75.2903 65.656H74.9543V69.96C74.9543 70.3333 74.8743 70.6 74.7143 70.76C74.5543 70.92 74.3036 71 73.9623 71C73.7169 71 73.5303 70.936 73.4023 70.808C73.2849 70.68 73.2263 70.4773 73.2263 70.2V60.456C73.2263 60.168 73.2796 59.9653 73.3863 59.848C73.4929 59.72 73.6743 59.656 73.9303 59.656C74.2609 59.656 74.5116 59.7627 74.6823 59.976C74.8636 60.1787 74.9543 60.4827 74.9543 60.888V64.776H75.2903ZM87.2974 69.96C87.2974 70.3333 87.2174 70.6 87.0574 70.76C86.8974 70.92 86.6467 71 86.3054 71C86.06 71 85.8734 70.936 85.7454 70.808C85.628 70.68 85.5694 70.4773 85.5694 70.2V60.456C85.5694 60.168 85.6227 59.9653 85.7294 59.848C85.836 59.72 86.0174 59.656 86.2734 59.656H88.9454C89.6067 59.656 90.2414 59.72 90.8494 59.848C91.468 59.976 92.028 60.2853 92.5294 60.776C93.0307 61.256 93.2814 61.9867 93.2814 62.968C93.2814 63.6507 93.1214 64.2693 92.8014 64.824C92.4814 65.368 91.996 65.8 91.3454 66.12C90.7054 66.44 89.9107 66.6 88.9614 66.6H87.2974V69.96ZM87.2974 65.752H88.9454C89.7454 65.752 90.364 65.528 90.8014 65.08C91.2494 64.6213 91.4734 63.9173 91.4734 62.968C91.4734 62.1787 91.276 61.5707 90.8814 61.144C90.4974 60.7173 89.852 60.504 88.9454 60.504H87.2974V65.752ZM104.532 62.44C104.223 62.44 103.988 62.36 103.828 62.2C103.679 62.04 103.604 61.7733 103.604 61.4V60.504H99.8124V64.696H103.172C103.311 64.696 103.418 64.744 103.492 64.84C103.578 64.9253 103.62 65.0267 103.62 65.144C103.62 65.2507 103.572 65.352 103.476 65.448C103.38 65.5333 103.279 65.576 103.172 65.576H99.8124V70.152H103.844V69.256C103.844 68.8827 103.919 68.616 104.068 68.456C104.228 68.296 104.463 68.216 104.772 68.216C105.007 68.216 105.178 68.28 105.284 68.408C105.402 68.536 105.46 68.7387 105.46 69.016V70.408C105.46 70.632 105.38 70.7867 105.22 70.872C105.071 70.9573 104.831 71 104.5 71H98.8204C98.575 71 98.3884 70.936 98.2604 70.808C98.143 70.68 98.0844 70.4773 98.0844 70.2V60.456C98.0844 60.1787 98.143 59.976 98.2604 59.848C98.3884 59.72 98.575 59.656 98.8204 59.656H104.26C104.591 59.656 104.831 59.6987 104.98 59.784C105.14 59.8693 105.22 60.024 105.22 60.248V61.64C105.22 61.9173 105.162 62.12 105.044 62.248C104.938 62.376 104.767 62.44 104.532 62.44ZM116.782 62.536C116.472 62.536 116.238 62.456 116.078 62.296C115.928 62.136 115.854 61.8693 115.854 61.496V60.6C115.459 60.5147 115.07 60.472 114.686 60.472C113.672 60.472 112.867 60.8987 112.27 61.752C111.683 62.5947 111.39 63.832 111.39 65.464C111.39 67.2027 111.678 68.424 112.254 69.128C112.83 69.8213 113.678 70.168 114.798 70.168C115.459 70.168 116.158 70.0133 116.894 69.704L117.198 69.576C117.262 69.5547 117.304 69.544 117.326 69.544C117.432 69.544 117.523 69.5973 117.598 69.704C117.672 69.8 117.71 69.9067 117.71 70.024C117.71 70.1733 117.64 70.28 117.502 70.344L117.23 70.456C116.792 70.6373 116.35 70.776 115.902 70.872C115.464 70.9573 114.947 71 114.35 71C112.728 71 111.528 70.52 110.75 69.56C109.971 68.5893 109.582 67.2133 109.582 65.432C109.582 64.1413 109.79 63.064 110.206 62.2C110.632 61.336 111.214 60.696 111.95 60.28C112.686 59.864 113.528 59.656 114.478 59.656C115.331 59.656 116.11 59.768 116.814 59.992C117.07 60.0773 117.24 60.1733 117.326 60.28C117.422 60.376 117.47 60.5413 117.47 60.776V61.736C117.47 62.0133 117.411 62.216 117.294 62.344C117.187 62.472 117.016 62.536 116.782 62.536ZM128.719 62.44C128.409 62.44 128.175 62.36 128.015 62.2C127.865 62.04 127.791 61.7733 127.791 61.4V60.504H123.999V64.696H127.359C127.497 64.696 127.604 64.744 127.679 64.84C127.764 64.9253 127.807 65.0267 127.807 65.144C127.807 65.2507 127.759 65.352 127.663 65.448C127.567 65.5333 127.465 65.576 127.359 65.576H123.999V70.152H128.031V69.256C128.031 68.8827 128.105 68.616 128.255 68.456C128.415 68.296 128.649 68.216 128.959 68.216C129.193 68.216 129.364 68.28 129.471 68.408C129.588 68.536 129.647 68.7387 129.647 69.016V70.408C129.647 70.632 129.567 70.7867 129.407 70.872C129.257 70.9573 129.017 71 128.687 71H123.007C122.761 71 122.575 70.936 122.447 70.808C122.329 70.68 122.271 70.4773 122.271 70.2V60.456C122.271 60.1787 122.329 59.976 122.447 59.848C122.575 59.72 122.761 59.656 123.007 59.656H128.447C128.777 59.656 129.017 59.6987 129.167 59.784C129.327 59.8693 129.407 60.024 129.407 60.248V61.64C129.407 61.9173 129.348 62.12 129.231 62.248C129.124 62.376 128.953 62.44 128.719 62.44ZM142.456 59.656C142.701 59.656 142.883 59.72 143 59.848C143.128 59.976 143.192 60.1787 143.192 60.456V70.2C143.192 70.488 143.139 70.696 143.032 70.824C142.925 70.9413 142.744 71 142.488 71C142.157 71 141.901 70.8987 141.72 70.696C141.549 70.4827 141.464 70.1733 141.464 69.768V65.576H136.248V69.96C136.248 70.3333 136.168 70.6 136.008 70.76C135.848 70.92 135.597 71 135.256 71C135.011 71 134.824 70.936 134.696 70.808C134.579 70.68 134.52 70.4773 134.52 70.2V60.456C134.52 60.168 134.573 59.9653 134.68 59.848C134.787 59.72 134.968 59.656 135.224 59.656C135.555 59.656 135.805 59.7627 135.976 59.976C136.157 60.1787 136.248 60.4827 136.248 60.888V64.696H141.464V60.696C141.464 60.3227 141.544 60.056 141.704 59.896C141.864 59.736 142.115 59.656 142.456 59.656ZM152.683 64.168C153.963 64.168 154.939 64.424 155.611 64.936C156.294 65.4373 156.635 66.312 156.635 67.56C156.635 68.8613 156.219 69.7627 155.387 70.264C154.555 70.7547 153.643 71 152.651 71H149.771C149.526 71 149.339 70.936 149.211 70.808C149.094 70.68 149.035 70.4773 149.035 70.2V60.456C149.035 60.168 149.088 59.9653 149.195 59.848C149.302 59.72 149.483 59.656 149.739 59.656C150.07 59.656 150.32 59.7627 150.491 59.976C150.672 60.1787 150.763 60.4827 150.763 60.888V64.168H152.683ZM150.747 70.152H152.443C153.094 70.152 153.654 69.96 154.123 69.576C154.592 69.1813 154.827 68.5093 154.827 67.56C154.827 66.6213 154.614 65.9653 154.187 65.592C153.771 65.208 153.163 65.016 152.363 65.016H150.747V70.152ZM168.201 62.44C167.892 62.44 167.657 62.36 167.497 62.2C167.348 62.04 167.273 61.7733 167.273 61.4V60.504H163.481V64.696H166.841C166.98 64.696 167.086 64.744 167.161 64.84C167.246 64.9253 167.289 65.0267 167.289 65.144C167.289 65.2507 167.241 65.352 167.145 65.448C167.049 65.5333 166.948 65.576 166.841 65.576H163.481V70.152H167.513V69.256C167.513 68.8827 167.588 68.616 167.737 68.456C167.897 68.296 168.132 68.216 168.441 68.216C168.676 68.216 168.846 68.28 168.953 68.408C169.07 68.536 169.129 68.7387 169.129 69.016V70.408C169.129 70.632 169.049 70.7867 168.889 70.872C168.74 70.9573 168.5 71 168.169 71H162.489C162.244 71 162.057 70.936 161.929 70.808C161.812 70.68 161.753 70.4773 161.753 70.2V60.456C161.753 60.1787 161.812 59.976 161.929 59.848C162.057 59.72 162.244 59.656 162.489 59.656H167.929C168.26 59.656 168.5 59.6987 168.649 59.784C168.809 59.8693 168.889 60.024 168.889 60.248V61.64C168.889 61.9173 168.83 62.12 168.713 62.248C168.606 62.376 168.436 62.44 168.201 62.44Z" fill="#064E3B"/>
<line y1="46" x2="200" y2="46" stroke="#064E3B" stroke-width="2"/>
<line y1="82" x2="200" y2="82" stroke="#064E3B" stroke-width="2"/>
<path d="M347.433 62.536C347.123 62.536 346.889 62.456 346.729 62.296C346.579 62.136 346.505 61.8693 346.505 61.496V60.6C346.11 60.5147 345.721 60.472 345.337 60.472C344.323 60.472 343.518 60.8987 342.921 61.752C342.334 62.5947 342.041 63.832 342.041 65.464C342.041 67.2027 342.329 68.424 342.905 69.128C343.481 69.8213 344.329 70.168 345.449 70.168C346.11 70.168 346.809 70.0133 347.545 69.704L347.849 69.576C347.913 69.5547 347.955 69.544 347.977 69.544C348.083 69.544 348.174 69.5973 348.249 69.704C348.323 69.8 348.361 69.9067 348.361 70.024C348.361 70.1733 348.291 70.28 348.153 70.344L347.881 70.456C347.443 70.6373 347.001 70.776 346.553 70.872C346.115 70.9573 345.598 71 345.001 71C343.379 71 342.179 70.52 341.401 69.56C340.622 68.5893 340.233 67.2133 340.233 65.432C340.233 64.1413 340.441 63.064 340.857 62.2C341.283 61.336 341.865 60.696 342.601 60.28C343.337 59.864 344.179 59.656 345.129 59.656C345.982 59.656 346.761 59.768 347.465 59.992C347.721 60.0773 347.891 60.1733 347.977 60.28C348.073 60.376 348.121 60.5413 348.121 60.776V61.736C348.121 62.0133 348.062 62.216 347.945 62.344C347.838 62.472 347.667 62.536 347.433 62.536ZM360.758 61.432C360.63 61.4853 360.502 61.512 360.374 61.512C360.246 61.512 360.145 61.464 360.07 61.368C359.996 61.272 359.958 61.1653 359.958 61.048C359.958 60.888 360.07 60.7707 360.294 60.696L362.55 59.816C362.838 59.7093 363.126 59.656 363.414 59.656C363.702 59.656 363.91 59.72 364.038 59.848C364.166 59.976 364.23 60.1787 364.23 60.456V70.152H365.606C365.852 70.152 366.017 70.1947 366.102 70.28C366.198 70.3653 366.246 70.4773 366.246 70.616C366.246 70.7333 366.214 70.8293 366.15 70.904C366.086 70.968 365.958 71 365.766 71H360.998C360.806 71 360.678 70.968 360.614 70.904C360.55 70.8293 360.518 70.7333 360.518 70.616C360.518 70.4773 360.561 70.3653 360.646 70.28C360.742 70.1947 360.913 70.152 361.158 70.152H362.534V60.76L360.758 61.432ZM375.755 64.92C376.416 65.0693 376.917 65.3947 377.259 65.896C377.6 66.3973 377.771 66.984 377.771 67.656C377.771 68.712 377.44 69.5333 376.779 70.12C376.128 70.7067 375.243 71 374.123 71C373.003 71 372.112 70.7067 371.451 70.12C370.8 69.5333 370.475 68.712 370.475 67.656C370.475 66.9947 370.645 66.4187 370.987 65.928C371.328 65.4373 371.829 65.1013 372.491 64.92V64.792C371.968 64.664 371.531 64.392 371.179 63.976C370.837 63.5493 370.667 63.0533 370.667 62.488C370.667 62.008 370.779 61.5547 371.003 61.128C371.227 60.7013 371.595 60.3493 372.107 60.072C372.619 59.7947 373.291 59.656 374.123 59.656C374.955 59.656 375.627 59.7947 376.139 60.072C376.651 60.3493 377.019 60.7013 377.243 61.128C377.467 61.544 377.579 61.992 377.579 62.472C377.579 63.0373 377.403 63.5387 377.051 63.976C376.699 64.4027 376.267 64.6747 375.755 64.792V64.92ZM374.123 64.488C374.624 64.488 375.04 64.3227 375.371 63.992C375.701 63.6507 375.867 63.1333 375.867 62.44C375.867 61.7467 375.691 61.2453 375.339 60.936C374.987 60.6267 374.581 60.472 374.123 60.472C373.664 60.472 373.259 60.6267 372.907 60.936C372.555 61.2453 372.379 61.7467 372.379 62.44C372.379 63.1333 372.544 63.6507 372.875 63.992C373.205 64.3227 373.621 64.488 374.123 64.488ZM372.251 67.688C372.251 68.5093 372.427 69.1333 372.779 69.56C373.141 69.976 373.589 70.184 374.123 70.184C374.656 70.184 375.099 69.976 375.451 69.56C375.813 69.1333 375.995 68.5093 375.995 67.688C375.995 66.8453 375.813 66.232 375.451 65.848C375.088 65.4533 374.645 65.256 374.123 65.256C373.6 65.256 373.157 65.4533 372.795 65.848C372.432 66.232 372.251 66.8453 372.251 67.688ZM381.967 64.344C381.967 63.9707 382.085 63.6667 382.319 63.432C382.554 63.1973 382.842 63.08 383.183 63.08C383.525 63.08 383.813 63.2027 384.047 63.448C384.282 63.6827 384.399 63.9813 384.399 64.344C384.399 64.696 384.282 64.9893 384.047 65.224C383.813 65.4587 383.525 65.576 383.183 65.576C382.842 65.576 382.554 65.4587 382.319 65.224C382.085 64.9893 381.967 64.696 381.967 64.344ZM381.967 69.768C381.967 69.3947 382.085 69.0907 382.319 68.856C382.554 68.6213 382.842 68.504 383.183 68.504C383.525 68.504 383.813 68.6267 384.047 68.872C384.282 69.1067 384.399 69.4053 384.399 69.768C384.399 70.12 384.282 70.4133 384.047 70.648C383.813 70.8827 383.525 71 383.183 71C382.842 71 382.554 70.8827 382.319 70.648C382.085 70.4133 381.967 70.12 381.967 69.768ZM388.551 65.336C388.551 63.64 388.844 62.2693 389.431 61.224C390.017 60.1787 390.956 59.656 392.247 59.656C393.537 59.656 394.476 60.1787 395.063 61.224C395.649 62.2693 395.943 63.64 395.943 65.336C395.943 67.0853 395.649 68.4667 395.063 69.48C394.487 70.4933 393.548 71 392.247 71C390.945 71 390.001 70.4933 389.415 69.48C388.839 68.4667 388.551 67.0853 388.551 65.336ZM394.183 65.336C394.183 63.9173 394.055 62.7547 393.799 61.848C393.543 60.9307 393.025 60.472 392.247 60.472C391.468 60.472 390.951 60.9307 390.695 61.848C390.439 62.7547 390.311 63.9173 390.311 65.336C390.311 66.3067 390.353 67.1387 390.439 67.832C390.524 68.5147 390.705 69.08 390.983 69.528C391.271 69.9653 391.692 70.184 392.247 70.184C392.801 70.184 393.217 69.9653 393.495 69.528C393.783 69.08 393.969 68.5147 394.055 67.832C394.14 67.1387 394.183 66.3067 394.183 65.336ZM399.675 65.336C399.675 63.64 399.968 62.2693 400.555 61.224C401.142 60.1787 402.08 59.656 403.371 59.656C404.662 59.656 405.6 60.1787 406.187 61.224C406.774 62.2693 407.067 63.64 407.067 65.336C407.067 67.0853 406.774 68.4667 406.187 69.48C405.611 70.4933 404.672 71 403.371 71C402.07 71 401.126 70.4933 400.539 69.48C399.963 68.4667 399.675 67.0853 399.675 65.336ZM405.307 65.336C405.307 63.9173 405.179 62.7547 404.923 61.848C404.667 60.9307 404.15 60.472 403.371 60.472C402.592 60.472 402.075 60.9307 401.819 61.848C401.563 62.7547 401.435 63.9173 401.435 65.336C401.435 66.3067 401.478 67.1387 401.563 67.832C401.648 68.5147 401.83 69.08 402.107 69.528C402.395 69.9653 402.816 70.184 403.371 70.184C403.926 70.184 404.342 69.9653 404.619 69.528C404.907 69.08 405.094 68.5147 405.179 67.832C405.264 67.1387 405.307 66.3067 405.307 65.336Z" fill="#064E3B"/>
<line x1="272" y1="46" x2="472" y2="46" stroke="#064E3B" stroke-width="2"/>
<line x1="272" y1="82" x2="472" y2="82" stroke="#064E3B" stroke-width="2"/>
</svg>
