<svg width="472" height="200" viewBox="0 0 472 200" fill="none" xmlns="http://www.w3.org/2000/svg">
<path d="M223.248 17C222.528 17 222.168 16.538 222.168 15.614V6.902H222.042L218.334 16.334C218.154 16.778 217.902 17 217.578 17C217.242 17 216.984 16.778 216.804 16.334L213.348 6.902H213.222V15.992C213.222 16.34 213.144 16.598 212.988 16.766C212.844 16.922 212.676 17 212.484 17C212.292 17 212.13 16.934 211.998 16.802C211.866 16.67 211.8 16.466 211.8 16.19V5.192C211.8 4.892 211.914 4.658 212.142 4.49C212.37 4.322 212.64 4.238 212.952 4.238C213.216 4.238 213.474 4.31 213.726 4.454C213.99 4.586 214.182 4.802 214.302 5.102L217.758 14.66H217.848L221.61 5.192C221.73 4.856 221.922 4.616 222.186 4.472C222.462 4.316 222.756 4.238 223.068 4.238C223.38 4.238 223.608 4.316 223.752 4.472C223.908 4.628 223.986 4.868 223.986 5.192V16.1C223.986 16.436 223.932 16.67 223.824 16.802C223.716 16.934 223.524 17 223.248 17ZM228.125 16.046C227.981 16.43 227.813 16.688 227.621 16.82C227.441 16.94 227.243 17 227.027 17C226.859 17 226.733 16.958 226.649 16.874C226.577 16.778 226.541 16.658 226.541 16.514C226.541 16.37 226.571 16.22 226.631 16.064L230.861 4.67C230.909 4.538 231.023 4.436 231.203 4.364C231.395 4.28 231.611 4.238 231.851 4.238C232.115 4.238 232.349 4.28 232.553 4.364C232.769 4.448 232.901 4.568 232.949 4.724L237.071 16.136C237.095 16.256 237.107 16.346 237.107 16.406C237.107 16.574 237.047 16.718 236.927 16.838C236.819 16.946 236.645 17 236.405 17C236.153 17 235.895 16.934 235.631 16.802C235.379 16.67 235.187 16.418 235.055 16.046L234.101 13.58H229.043L228.125 16.046ZM231.653 6.362H231.545L229.331 12.644H233.831L231.653 6.362ZM241.676 15.83C241.676 16.25 241.586 16.55 241.406 16.73C241.226 16.91 240.944 17 240.56 17C240.284 17 240.074 16.928 239.93 16.784C239.798 16.64 239.732 16.412 239.732 16.1V5.138C239.732 4.814 239.792 4.586 239.912 4.454C240.032 4.31 240.236 4.238 240.524 4.238H243.53C244.274 4.238 244.988 4.31 245.672 4.454C246.368 4.598 246.998 4.946 247.562 5.498C248.126 6.038 248.408 6.86 248.408 7.964C248.408 8.732 248.228 9.428 247.868 10.052C247.508 10.664 246.962 11.15 246.23 11.51C245.51 11.87 244.616 12.05 243.548 12.05H241.676V15.83ZM241.676 11.096H243.53C244.43 11.096 245.126 10.844 245.618 10.34C246.122 9.824 246.374 9.032 246.374 7.964C246.374 7.076 246.152 6.392 245.708 5.912C245.276 5.432 244.55 5.192 243.53 5.192H241.676V11.096ZM256.215 15.92C256.215 16.328 256.125 16.61 255.945 16.766C255.777 16.922 255.495 17 255.099 17C254.823 17 254.613 16.928 254.469 16.784C254.337 16.64 254.271 16.412 254.271 16.1V5.192H251.571V6.47C251.571 6.89 251.481 7.19 251.301 7.37C251.133 7.55 250.875 7.64 250.527 7.64C250.263 7.64 250.065 7.568 249.933 7.424C249.813 7.28 249.753 7.052 249.753 6.74V4.904C249.753 4.652 249.837 4.478 250.005 4.382C250.185 4.286 250.461 4.238 250.833 4.238H259.653C260.025 4.238 260.295 4.286 260.463 4.382C260.643 4.478 260.733 4.652 260.733 4.904V6.74C260.733 7.052 260.667 7.28 260.535 7.424C260.415 7.568 260.223 7.64 259.959 7.64C259.611 7.64 259.347 7.55 259.167 7.37C258.999 7.19 258.915 6.89 258.915 6.47V5.192H256.215V15.92Z" fill="#064E3B"/>
<path d="M214.595 97.09C214.331 97.09 214.133 97.018 214.001 96.874C213.881 96.73 213.821 96.502 213.821 96.19V95.11C213.821 94.906 213.845 94.756 213.893 94.66C213.953 94.564 214.067 94.462 214.235 94.354C214.847 93.946 215.435 93.658 215.999 93.49C216.575 93.322 217.199 93.238 217.871 93.238C219.059 93.238 219.935 93.544 220.499 94.156C221.075 94.756 221.363 95.518 221.363 96.442C221.363 97.606 220.895 98.866 219.959 100.222C219.035 101.566 217.415 103.174 215.099 105.046H219.797V103.93C219.797 103.51 219.875 103.21 220.031 103.03C220.199 102.85 220.439 102.76 220.751 102.76C221.015 102.76 221.207 102.832 221.327 102.976C221.459 103.12 221.525 103.348 221.525 103.66V105.424C221.525 105.628 221.435 105.778 221.255 105.874C221.075 105.958 220.805 106 220.445 106H214.055C213.911 106 213.797 105.952 213.713 105.856C213.641 105.76 213.605 105.64 213.605 105.496C213.605 105.244 213.695 105.04 213.875 104.884L214.127 104.65C216.203 102.718 217.589 101.11 218.285 99.826C218.981 98.53 219.329 97.492 219.329 96.712C219.329 96.028 219.179 95.434 218.879 94.93C218.591 94.414 218.063 94.156 217.295 94.156C216.719 94.156 216.137 94.312 215.549 94.624V95.92C215.549 96.352 215.477 96.658 215.333 96.838C215.189 97.006 214.943 97.09 214.595 97.09ZM227.089 99.628C227.089 97.72 227.419 96.178 228.079 95.002C228.739 93.826 229.795 93.238 231.247 93.238C232.699 93.238 233.755 93.826 234.415 95.002C235.075 96.178 235.405 97.72 235.405 99.628C235.405 101.596 235.075 103.15 234.415 104.29C233.767 105.43 232.711 106 231.247 106C229.783 106 228.721 105.43 228.061 104.29C227.413 103.15 227.089 101.596 227.089 99.628ZM233.425 99.628C233.425 98.032 233.281 96.724 232.993 95.704C232.705 94.672 232.123 94.156 231.247 94.156C230.371 94.156 229.789 94.672 229.501 95.704C229.213 96.724 229.069 98.032 229.069 99.628C229.069 100.72 229.117 101.656 229.213 102.436C229.309 103.204 229.513 103.84 229.825 104.344C230.149 104.836 230.623 105.082 231.247 105.082C231.871 105.082 232.339 104.836 232.651 104.344C232.975 103.84 233.185 103.204 233.281 102.436C233.377 101.656 233.425 100.72 233.425 99.628ZM241.598 97.09C241.334 97.09 241.136 97.018 241.004 96.874C240.884 96.73 240.824 96.502 240.824 96.19V95.11C240.824 94.906 240.848 94.756 240.896 94.66C240.956 94.564 241.07 94.462 241.238 94.354C241.85 93.946 242.438 93.658 243.002 93.49C243.578 93.322 244.202 93.238 244.874 93.238C246.062 93.238 246.938 93.544 247.502 94.156C248.078 94.756 248.366 95.518 248.366 96.442C248.366 97.606 247.898 98.866 246.962 100.222C246.038 101.566 244.418 103.174 242.102 105.046H246.8V103.93C246.8 103.51 246.878 103.21 247.034 103.03C247.202 102.85 247.442 102.76 247.754 102.76C248.018 102.76 248.21 102.832 248.33 102.976C248.462 103.12 248.528 103.348 248.528 103.66V105.424C248.528 105.628 248.438 105.778 248.258 105.874C248.078 105.958 247.808 106 247.448 106H241.058C240.914 106 240.8 105.952 240.716 105.856C240.644 105.76 240.608 105.64 240.608 105.496C240.608 105.244 240.698 105.04 240.878 104.884L241.13 104.65C243.206 102.718 244.592 101.11 245.288 99.826C245.984 98.53 246.332 97.492 246.332 96.712C246.332 96.028 246.182 95.434 245.882 94.93C245.594 94.414 245.066 94.156 244.298 94.156C243.722 94.156 243.14 94.312 242.552 94.624V95.92C242.552 96.352 242.48 96.658 242.336 96.838C242.192 97.006 241.946 97.09 241.598 97.09ZM254.794 102.166C255.142 102.166 255.388 102.256 255.532 102.436C255.676 102.604 255.748 102.904 255.748 103.336V104.632C256.264 104.932 256.876 105.082 257.584 105.082C258.292 105.082 258.874 104.86 259.33 104.416C259.798 103.96 260.032 103.282 260.032 102.382C260.032 101.434 259.804 100.774 259.348 100.402C258.892 100.03 258.238 99.844 257.386 99.844H256.864C256.78 99.844 256.708 99.796 256.648 99.7C256.6 99.604 256.576 99.49 256.576 99.358C256.576 99.226 256.6 99.112 256.648 99.016C256.708 98.908 256.78 98.854 256.864 98.854H257.386C258.154 98.854 258.724 98.65 259.096 98.242C259.468 97.822 259.654 97.186 259.654 96.334C259.654 95.59 259.468 95.044 259.096 94.696C258.724 94.336 258.226 94.156 257.602 94.156C257.326 94.156 257.038 94.198 256.738 94.282C256.438 94.354 256.168 94.456 255.928 94.588V95.884C255.928 96.316 255.856 96.622 255.712 96.802C255.568 96.97 255.322 97.054 254.974 97.054C254.71 97.054 254.512 96.982 254.38 96.838C254.26 96.694 254.2 96.466 254.2 96.154V95.074C254.2 94.858 254.23 94.696 254.29 94.588C254.35 94.468 254.458 94.36 254.614 94.264C255.178 93.904 255.73 93.646 256.27 93.49C256.822 93.322 257.416 93.238 258.052 93.238C259.264 93.238 260.164 93.52 260.752 94.084C261.34 94.648 261.634 95.398 261.634 96.334C261.634 97.078 261.412 97.702 260.968 98.206C260.536 98.71 260.002 99.028 259.366 99.16V99.322C260.17 99.43 260.818 99.73 261.31 100.222C261.802 100.714 262.048 101.428 262.048 102.364C262.048 103.096 261.868 103.738 261.508 104.29C261.16 104.83 260.662 105.25 260.014 105.55C259.378 105.85 258.64 106 257.8 106C256.612 106 255.49 105.688 254.434 105.064C254.158 104.896 254.02 104.59 254.02 104.146V103.066C254.02 102.754 254.08 102.526 254.2 102.382C254.332 102.238 254.53 102.166 254.794 102.166Z" fill="#064E3B"/>
<path d="M223.75 48.06C223.51 48.16 223.27 48.21 223.03 48.21C222.79 48.21 222.6 48.12 222.46 47.94C222.32 47.76 222.25 47.56 222.25 47.34C222.25 47.04 222.46 46.82 222.88 46.68L227.11 45.03C227.65 44.83 228.19 44.73 228.73 44.73C229.27 44.73 229.66 44.85 229.9 45.09C230.14 45.33 230.26 45.71 230.26 46.23V64.41H232.84C233.3 64.41 233.61 64.49 233.77 64.65C233.95 64.81 234.04 65.02 234.04 65.28C234.04 65.5 233.98 65.68 233.86 65.82C233.74 65.94 233.5 66 233.14 66H224.2C223.84 66 223.6 65.94 223.48 65.82C223.36 65.68 223.3 65.5 223.3 65.28C223.3 65.02 223.38 64.81 223.54 64.65C223.72 64.49 224.04 64.41 224.5 64.41H227.08V46.8L223.75 48.06ZM239.148 60.84C239.728 60.84 240.138 60.98 240.378 61.26C240.618 61.54 240.738 62.02 240.738 62.7V64.17C241.218 64.37 241.868 64.47 242.688 64.47C243.428 64.47 244.128 64.22 244.788 63.72C245.468 63.22 246.018 62.4 246.438 61.26C246.878 60.1 247.098 58.61 247.098 56.79V55.53C246.658 56.45 246.028 57.12 245.208 57.54C244.408 57.96 243.548 58.17 242.628 58.17C240.868 58.17 239.508 57.57 238.548 56.37C237.588 55.17 237.108 53.59 237.108 51.63C237.108 50.21 237.388 48.98 237.948 47.94C238.508 46.9 239.288 46.11 240.288 45.57C241.288 45.01 242.418 44.73 243.678 44.73C245.458 44.73 246.838 45.14 247.818 45.96C248.798 46.78 249.458 47.86 249.798 49.2C250.138 50.52 250.308 52.11 250.308 53.97C250.308 61.99 247.778 66 242.718 66C242.018 66 241.388 65.95 240.828 65.85C240.268 65.73 239.688 65.56 239.088 65.34C238.708 65.2 238.408 65.02 238.188 64.8C237.968 64.58 237.858 64.25 237.858 63.81V62.28C237.858 61.32 238.288 60.84 239.148 60.84ZM243.498 56.25C244.438 56.25 245.228 55.83 245.868 54.99C246.528 54.13 246.858 52.96 246.858 51.48C246.858 50.08 246.638 48.86 246.198 47.82C245.758 46.78 244.948 46.26 243.768 46.26C242.728 46.26 241.898 46.7 241.278 47.58C240.678 48.46 240.378 49.82 240.378 51.66C240.378 54.72 241.418 56.25 243.498 56.25Z" fill="#064E3B"/>
<path d="M33.8375 50.456C33.8375 50.1787 33.8962 49.976 34.0135 49.848C34.1415 49.72 34.3282 49.656 34.5735 49.656H37.8535C40.2215 49.656 41.4055 50.6053 41.4055 52.504C41.4055 53.0373 41.2402 53.5387 40.9095 54.008C40.5895 54.4667 40.1522 54.7653 39.5975 54.904V54.984C40.4082 55.1227 41.0108 55.432 41.4055 55.912C41.8002 56.3813 41.9975 56.9467 41.9975 57.608C41.9975 58.8987 41.5762 59.7893 40.7335 60.28C39.9015 60.76 38.9682 61 37.9335 61H34.5735C34.3282 61 34.1415 60.936 34.0135 60.808C33.8962 60.68 33.8375 60.4773 33.8375 60.2V50.456ZM35.5655 54.632H37.4055C37.7468 54.632 38.0828 54.5627 38.4135 54.424C38.7548 54.2747 39.0375 54.04 39.2615 53.72C39.4855 53.3893 39.5975 52.968 39.5975 52.456C39.5975 51.7627 39.3575 51.2667 38.8775 50.968C38.3975 50.6587 37.8642 50.504 37.2775 50.504H35.5655V54.632ZM35.5655 60.152H37.7095C38.3388 60.152 38.9095 59.9707 39.4215 59.608C39.9335 59.2347 40.1895 58.6213 40.1895 57.768C40.1895 57.2347 40.0562 56.7973 39.7895 56.456C39.5228 56.1147 39.1868 55.8693 38.7815 55.72C38.3762 55.56 37.9655 55.48 37.5495 55.48H35.5655V60.152ZM56.2043 55.336C56.2043 56.136 56.0816 56.9573 55.8363 57.8C55.6016 58.6427 55.1216 59.3893 54.3963 60.04C53.6709 60.68 52.6416 61 51.3083 61C49.9749 61 48.9456 60.68 48.2203 60.04C47.5056 59.3893 47.0309 58.6427 46.7963 57.8C46.5616 56.9573 46.4443 56.136 46.4443 55.336C46.4443 54.536 46.5616 53.7147 46.7963 52.872C47.0309 52.0293 47.5056 51.2827 48.2203 50.632C48.9456 49.9813 49.9749 49.656 51.3083 49.656C52.6416 49.656 53.6709 49.9813 54.3963 50.632C55.1216 51.2827 55.6016 52.0347 55.8363 52.888C56.0816 53.7307 56.2043 54.5467 56.2043 55.336ZM54.3963 55.336C54.3963 54.0987 54.1883 52.9787 53.7723 51.976C53.3563 50.9733 52.5349 50.472 51.3083 50.472C50.1029 50.472 49.2923 50.9733 48.8763 51.976C48.4603 52.9787 48.2523 54.0987 48.2523 55.336C48.2523 56.5627 48.4603 57.6773 48.8763 58.68C49.2923 59.6827 50.1029 60.184 51.3083 60.184C52.5349 60.184 53.3563 59.688 53.7723 58.696C54.1883 57.6933 54.3963 56.5733 54.3963 55.336ZM67.7374 52.536C67.428 52.536 67.1934 52.456 67.0334 52.296C66.884 52.136 66.8094 51.8693 66.8094 51.496V50.6C66.4147 50.5147 66.0254 50.472 65.6414 50.472C64.628 50.472 63.8227 50.8987 63.2254 51.752C62.6387 52.5947 62.3454 53.832 62.3454 55.464C62.3454 57.2027 62.6334 58.424 63.2094 59.128C63.7854 59.8213 64.6334 60.168 65.7534 60.168C66.4147 60.168 67.1134 60.0133 67.8494 59.704L68.1534 59.576C68.2174 59.5547 68.26 59.544 68.2814 59.544C68.388 59.544 68.4787 59.5973 68.5534 59.704C68.628 59.8 68.6654 59.9067 68.6654 60.024C68.6654 60.1733 68.596 60.28 68.4574 60.344L68.1854 60.456C67.748 60.6373 67.3054 60.776 66.8574 60.872C66.42 60.9573 65.9027 61 65.3054 61C63.684 61 62.484 60.52 61.7054 59.56C60.9267 58.5893 60.5374 57.2133 60.5374 55.432C60.5374 54.1413 60.7454 53.064 61.1614 52.2C61.588 51.336 62.1694 50.696 62.9054 50.28C63.6414 49.864 64.484 49.656 65.4334 49.656C66.2867 49.656 67.0654 49.768 67.7694 49.992C68.0254 50.0773 68.196 50.1733 68.2814 50.28C68.3774 50.376 68.4254 50.5413 68.4254 50.776V51.736C68.4254 52.0133 68.3667 52.216 68.2494 52.344C68.1427 52.472 67.972 52.536 67.7374 52.536ZM75.2903 54.776L79.9943 49.976C80.1969 49.7627 80.4103 49.656 80.6343 49.656C80.7943 49.656 80.9276 49.7093 81.0343 49.816C81.1516 49.9227 81.2103 50.04 81.2103 50.168C81.2103 50.2427 81.1836 50.3067 81.1303 50.36L76.5703 54.872L81.1783 59.944C81.3276 60.1147 81.4023 60.2693 81.4023 60.408C81.4023 60.568 81.3383 60.7067 81.2103 60.824C81.0929 60.9413 80.9383 61 80.7463 61C80.5009 61 80.2663 60.9467 80.0423 60.84C79.8289 60.7333 79.5836 60.5253 79.3063 60.216L75.2903 55.656H74.9543V59.96C74.9543 60.3333 74.8743 60.6 74.7143 60.76C74.5543 60.92 74.3036 61 73.9623 61C73.7169 61 73.5303 60.936 73.4023 60.808C73.2849 60.68 73.2263 60.4773 73.2263 60.2V50.456C73.2263 50.168 73.2796 49.9653 73.3863 49.848C73.4929 49.72 73.6743 49.656 73.9303 49.656C74.2609 49.656 74.5116 49.7627 74.6823 49.976C74.8636 50.1787 74.9543 50.4827 74.9543 50.888V54.776H75.2903ZM87.2974 59.96C87.2974 60.3333 87.2174 60.6 87.0574 60.76C86.8974 60.92 86.6467 61 86.3054 61C86.06 61 85.8734 60.936 85.7454 60.808C85.628 60.68 85.5694 60.4773 85.5694 60.2V50.456C85.5694 50.168 85.6227 49.9653 85.7294 49.848C85.836 49.72 86.0174 49.656 86.2734 49.656H88.9454C89.6067 49.656 90.2414 49.72 90.8494 49.848C91.468 49.976 92.028 50.2853 92.5294 50.776C93.0307 51.256 93.2814 51.9867 93.2814 52.968C93.2814 53.6507 93.1214 54.2693 92.8014 54.824C92.4814 55.368 91.996 55.8 91.3454 56.12C90.7054 56.44 89.9107 56.6 88.9614 56.6H87.2974V59.96ZM87.2974 55.752H88.9454C89.7454 55.752 90.364 55.528 90.8014 55.08C91.2494 54.6213 91.4734 53.9173 91.4734 52.968C91.4734 52.1787 91.276 51.5707 90.8814 51.144C90.4974 50.7173 89.852 50.504 88.9454 50.504H87.2974V55.752ZM104.532 52.44C104.223 52.44 103.988 52.36 103.828 52.2C103.679 52.04 103.604 51.7733 103.604 51.4V50.504H99.8124V54.696H103.172C103.311 54.696 103.418 54.744 103.492 54.84C103.578 54.9253 103.62 55.0267 103.62 55.144C103.62 55.2507 103.572 55.352 103.476 55.448C103.38 55.5333 103.279 55.576 103.172 55.576H99.8124V60.152H103.844V59.256C103.844 58.8827 103.919 58.616 104.068 58.456C104.228 58.296 104.463 58.216 104.772 58.216C105.007 58.216 105.178 58.28 105.284 58.408C105.402 58.536 105.46 58.7387 105.46 59.016V60.408C105.46 60.632 105.38 60.7867 105.22 60.872C105.071 60.9573 104.831 61 104.5 61H98.8204C98.575 61 98.3884 60.936 98.2604 60.808C98.143 60.68 98.0844 60.4773 98.0844 60.2V50.456C98.0844 50.1787 98.143 49.976 98.2604 49.848C98.3884 49.72 98.575 49.656 98.8204 49.656H104.26C104.591 49.656 104.831 49.6987 104.98 49.784C105.14 49.8693 105.22 50.024 105.22 50.248V51.64C105.22 51.9173 105.162 52.12 105.044 52.248C104.938 52.376 104.767 52.44 104.532 52.44ZM116.782 52.536C116.472 52.536 116.238 52.456 116.078 52.296C115.928 52.136 115.854 51.8693 115.854 51.496V50.6C115.459 50.5147 115.07 50.472 114.686 50.472C113.672 50.472 112.867 50.8987 112.27 51.752C111.683 52.5947 111.39 53.832 111.39 55.464C111.39 57.2027 111.678 58.424 112.254 59.128C112.83 59.8213 113.678 60.168 114.798 60.168C115.459 60.168 116.158 60.0133 116.894 59.704L117.198 59.576C117.262 59.5547 117.304 59.544 117.326 59.544C117.432 59.544 117.523 59.5973 117.598 59.704C117.672 59.8 117.71 59.9067 117.71 60.024C117.71 60.1733 117.64 60.28 117.502 60.344L117.23 60.456C116.792 60.6373 116.35 60.776 115.902 60.872C115.464 60.9573 114.947 61 114.35 61C112.728 61 111.528 60.52 110.75 59.56C109.971 58.5893 109.582 57.2133 109.582 55.432C109.582 54.1413 109.79 53.064 110.206 52.2C110.632 51.336 111.214 50.696 111.95 50.28C112.686 49.864 113.528 49.656 114.478 49.656C115.331 49.656 116.11 49.768 116.814 49.992C117.07 50.0773 117.24 50.1733 117.326 50.28C117.422 50.376 117.47 50.5413 117.47 50.776V51.736C117.47 52.0133 117.411 52.216 117.294 52.344C117.187 52.472 117.016 52.536 116.782 52.536ZM128.719 52.44C128.409 52.44 128.175 52.36 128.015 52.2C127.865 52.04 127.791 51.7733 127.791 51.4V50.504H123.999V54.696H127.359C127.497 54.696 127.604 54.744 127.679 54.84C127.764 54.9253 127.807 55.0267 127.807 55.144C127.807 55.2507 127.759 55.352 127.663 55.448C127.567 55.5333 127.465 55.576 127.359 55.576H123.999V60.152H128.031V59.256C128.031 58.8827 128.105 58.616 128.255 58.456C128.415 58.296 128.649 58.216 128.959 58.216C129.193 58.216 129.364 58.28 129.471 58.408C129.588 58.536 129.647 58.7387 129.647 59.016V60.408C129.647 60.632 129.567 60.7867 129.407 60.872C129.257 60.9573 129.017 61 128.687 61H123.007C122.761 61 122.575 60.936 122.447 60.808C122.329 60.68 122.271 60.4773 122.271 60.2V50.456C122.271 50.1787 122.329 49.976 122.447 49.848C122.575 49.72 122.761 49.656 123.007 49.656H128.447C128.777 49.656 129.017 49.6987 129.167 49.784C129.327 49.8693 129.407 50.024 129.407 50.248V51.64C129.407 51.9173 129.348 52.12 129.231 52.248C129.124 52.376 128.953 52.44 128.719 52.44ZM142.456 49.656C142.701 49.656 142.883 49.72 143 49.848C143.128 49.976 143.192 50.1787 143.192 50.456V60.2C143.192 60.488 143.139 60.696 143.032 60.824C142.925 60.9413 142.744 61 142.488 61C142.157 61 141.901 60.8987 141.72 60.696C141.549 60.4827 141.464 60.1733 141.464 59.768V55.576H136.248V59.96C136.248 60.3333 136.168 60.6 136.008 60.76C135.848 60.92 135.597 61 135.256 61C135.011 61 134.824 60.936 134.696 60.808C134.579 60.68 134.52 60.4773 134.52 60.2V50.456C134.52 50.168 134.573 49.9653 134.68 49.848C134.787 49.72 134.968 49.656 135.224 49.656C135.555 49.656 135.805 49.7627 135.976 49.976C136.157 50.1787 136.248 50.4827 136.248 50.888V54.696H141.464V50.696C141.464 50.3227 141.544 50.056 141.704 49.896C141.864 49.736 142.115 49.656 142.456 49.656ZM152.683 54.168C153.963 54.168 154.939 54.424 155.611 54.936C156.294 55.4373 156.635 56.312 156.635 57.56C156.635 58.8613 156.219 59.7627 155.387 60.264C154.555 60.7547 153.643 61 152.651 61H149.771C149.526 61 149.339 60.936 149.211 60.808C149.094 60.68 149.035 60.4773 149.035 60.2V50.456C149.035 50.168 149.088 49.9653 149.195 49.848C149.302 49.72 149.483 49.656 149.739 49.656C150.07 49.656 150.32 49.7627 150.491 49.976C150.672 50.1787 150.763 50.4827 150.763 50.888V54.168H152.683ZM150.747 60.152H152.443C153.094 60.152 153.654 59.96 154.123 59.576C154.592 59.1813 154.827 58.5093 154.827 57.56C154.827 56.6213 154.614 55.9653 154.187 55.592C153.771 55.208 153.163 55.016 152.363 55.016H150.747V60.152ZM168.201 52.44C167.892 52.44 167.657 52.36 167.497 52.2C167.348 52.04 167.273 51.7733 167.273 51.4V50.504H163.481V54.696H166.841C166.98 54.696 167.086 54.744 167.161 54.84C167.246 54.9253 167.289 55.0267 167.289 55.144C167.289 55.2507 167.241 55.352 167.145 55.448C167.049 55.5333 166.948 55.576 166.841 55.576H163.481V60.152H167.513V59.256C167.513 58.8827 167.588 58.616 167.737 58.456C167.897 58.296 168.132 58.216 168.441 58.216C168.676 58.216 168.846 58.28 168.953 58.408C169.07 58.536 169.129 58.7387 169.129 59.016V60.408C169.129 60.632 169.049 60.7867 168.889 60.872C168.74 60.9573 168.5 61 168.169 61H162.489C162.244 61 162.057 60.936 161.929 60.808C161.812 60.68 161.753 60.4773 161.753 60.2V50.456C161.753 50.1787 161.812 49.976 161.929 49.848C162.057 49.72 162.244 49.656 162.489 49.656H167.929C168.26 49.656 168.5 49.6987 168.649 49.784C168.809 49.8693 168.889 50.024 168.889 50.248V51.64C168.889 51.9173 168.83 52.12 168.713 52.248C168.606 52.376 168.436 52.44 168.201 52.44Z" fill="#064E3B"/>
<line y1="36" x2="200" y2="36" stroke="#064E3B" stroke-width="2"/>
<line y1="72" x2="200" y2="72" stroke="#064E3B" stroke-width="2"/>
<path d="M351.048 51.432C350.92 51.4853 350.792 51.512 350.664 51.512C350.536 51.512 350.435 51.464 350.36 51.368C350.285 51.272 350.248 51.1653 350.248 51.048C350.248 50.888 350.36 50.7707 350.584 50.696L352.84 49.816C353.128 49.7093 353.416 49.656 353.704 49.656C353.992 49.656 354.2 49.72 354.328 49.848C354.456 49.976 354.52 50.1787 354.52 50.456V60.152H355.896C356.141 60.152 356.307 60.1947 356.392 60.28C356.488 60.3653 356.536 60.4773 356.536 60.616C356.536 60.7333 356.504 60.8293 356.44 60.904C356.376 60.968 356.248 61 356.056 61H351.288C351.096 61 350.968 60.968 350.904 60.904C350.84 60.8293 350.808 60.7333 350.808 60.616C350.808 60.4773 350.851 60.3653 350.936 60.28C351.032 60.1947 351.203 60.152 351.448 60.152H352.824V50.76L351.048 51.432ZM359.859 50.248C359.859 50.024 359.934 49.8693 360.083 49.784C360.243 49.6987 360.489 49.656 360.819 49.656H366.371C366.574 49.656 366.723 49.7093 366.819 49.816C366.915 49.9227 366.963 50.056 366.963 50.216C366.963 50.44 366.905 50.648 366.787 50.84C365.838 52.344 365.123 53.816 364.643 55.256C364.174 56.696 363.806 58.2533 363.539 59.928C363.529 60.0027 363.507 60.1573 363.475 60.392C363.443 60.616 363.353 60.776 363.203 60.872C363.065 60.9573 362.846 61 362.547 61C362.206 61 361.966 60.9627 361.827 60.888C361.689 60.8027 361.619 60.68 361.619 60.52C361.619 60.3173 361.689 59.9493 361.827 59.416C362.297 57.6667 362.862 56.0187 363.523 54.472C364.185 52.9147 364.899 51.592 365.667 50.504H361.395V51.416C361.395 51.8 361.331 52.072 361.203 52.232C361.075 52.3813 360.857 52.456 360.547 52.456C360.313 52.456 360.137 52.392 360.019 52.264C359.913 52.136 359.859 51.9333 359.859 51.656V50.248ZM371.304 54.344C371.304 53.9707 371.421 53.6667 371.656 53.432C371.89 53.1973 372.178 53.08 372.52 53.08C372.861 53.08 373.149 53.2027 373.384 53.448C373.618 53.6827 373.736 53.9813 373.736 54.344C373.736 54.696 373.618 54.9893 373.384 55.224C373.149 55.4587 372.861 55.576 372.52 55.576C372.178 55.576 371.89 55.4587 371.656 55.224C371.421 54.9893 371.304 54.696 371.304 54.344ZM371.304 59.768C371.304 59.3947 371.421 59.0907 371.656 58.856C371.89 58.6213 372.178 58.504 372.52 58.504C372.861 58.504 373.149 58.6267 373.384 58.872C373.618 59.1067 373.736 59.4053 373.736 59.768C373.736 60.12 373.618 60.4133 373.384 60.648C373.149 60.8827 372.861 61 372.52 61C372.178 61 371.89 60.8827 371.656 60.648C371.421 60.4133 371.304 60.12 371.304 59.768ZM377.887 55.336C377.887 53.64 378.18 52.2693 378.767 51.224C379.354 50.1787 380.292 49.656 381.583 49.656C382.874 49.656 383.812 50.1787 384.399 51.224C384.986 52.2693 385.279 53.64 385.279 55.336C385.279 57.0853 384.986 58.4667 384.399 59.48C383.823 60.4933 382.884 61 381.583 61C380.282 61 379.338 60.4933 378.751 59.48C378.175 58.4667 377.887 57.0853 377.887 55.336ZM383.519 55.336C383.519 53.9173 383.391 52.7547 383.135 51.848C382.879 50.9307 382.362 50.472 381.583 50.472C380.804 50.472 380.287 50.9307 380.031 51.848C379.775 52.7547 379.647 53.9173 379.647 55.336C379.647 56.3067 379.69 57.1387 379.775 57.832C379.86 58.5147 380.042 59.08 380.319 59.528C380.607 59.9653 381.028 60.184 381.583 60.184C382.138 60.184 382.554 59.9653 382.831 59.528C383.119 59.08 383.306 58.5147 383.391 57.832C383.476 57.1387 383.519 56.3067 383.519 55.336ZM389.011 55.336C389.011 53.64 389.305 52.2693 389.891 51.224C390.478 50.1787 391.417 49.656 392.707 49.656C393.998 49.656 394.937 50.1787 395.523 51.224C396.11 52.2693 396.403 53.64 396.403 55.336C396.403 57.0853 396.11 58.4667 395.523 59.48C394.947 60.4933 394.009 61 392.707 61C391.406 61 390.462 60.4933 389.875 59.48C389.299 58.4667 389.011 57.0853 389.011 55.336ZM394.643 55.336C394.643 53.9173 394.515 52.7547 394.259 51.848C394.003 50.9307 393.486 50.472 392.707 50.472C391.929 50.472 391.411 50.9307 391.155 51.848C390.899 52.7547 390.771 53.9173 390.771 55.336C390.771 56.3067 390.814 57.1387 390.899 57.832C390.985 58.5147 391.166 59.08 391.443 59.528C391.731 59.9653 392.153 60.184 392.707 60.184C393.262 60.184 393.678 59.9653 393.955 59.528C394.243 59.08 394.43 58.5147 394.515 57.832C394.601 57.1387 394.643 56.3067 394.643 55.336Z" fill="#064E3B"/>
<line x1="272" y1="36" x2="472" y2="36" stroke="#064E3B" stroke-width="2"/>
<line x1="272" y1="72" x2="472" y2="72" stroke="#064E3B" stroke-width="2"/>
<path d="M84.8733 147.96C84.8733 148.333 84.7933 148.6 84.6333 148.76C84.4733 148.92 84.2227 149 83.8813 149C83.636 149 83.4493 148.936 83.3213 148.808C83.204 148.68 83.1453 148.477 83.1453 148.2V138.456C83.1453 138.179 83.204 137.976 83.3213 137.848C83.4493 137.72 83.636 137.656 83.8813 137.656H89.1613C89.492 137.656 89.732 137.699 89.8813 137.784C90.0413 137.869 90.1213 138.024 90.1213 138.248V139.96C90.1213 140.237 90.0627 140.44 89.9453 140.568C89.8387 140.696 89.668 140.76 89.4333 140.76C89.124 140.76 88.8893 140.68 88.7293 140.52C88.58 140.36 88.5053 140.093 88.5053 139.72V138.504H84.8733V147.96ZM102.566 143.336C102.566 144.136 102.443 144.957 102.198 145.8C101.963 146.643 101.483 147.389 100.758 148.04C100.032 148.68 99.0032 149 97.6698 149C96.3365 149 95.3072 148.68 94.5818 148.04C93.8672 147.389 93.3925 146.643 93.1578 145.8C92.9232 144.957 92.8058 144.136 92.8058 143.336C92.8058 142.536 92.9232 141.715 93.1578 140.872C93.3925 140.029 93.8672 139.283 94.5818 138.632C95.3072 137.981 96.3365 137.656 97.6698 137.656C99.0032 137.656 100.032 137.981 100.758 138.632C101.483 139.283 101.963 140.035 102.198 140.888C102.443 141.731 102.566 142.547 102.566 143.336ZM100.758 143.336C100.758 142.099 100.55 140.979 100.134 139.976C99.7178 138.973 98.8965 138.472 97.6698 138.472C96.4645 138.472 95.6538 138.973 95.2378 139.976C94.8218 140.979 94.6138 142.099 94.6138 143.336C94.6138 144.563 94.8218 145.677 95.2378 146.68C95.6538 147.683 96.4645 148.184 97.6698 148.184C98.8965 148.184 99.7178 147.688 100.134 146.696C100.55 145.693 100.758 144.573 100.758 143.336ZM108.339 147.96C108.339 148.333 108.259 148.6 108.099 148.76C107.939 148.92 107.688 149 107.347 149C107.102 149 106.915 148.936 106.787 148.808C106.67 148.68 106.611 148.477 106.611 148.2V138.456C106.611 138.168 106.664 137.965 106.771 137.848C106.878 137.72 107.059 137.656 107.315 137.656H109.987C110.648 137.656 111.283 137.72 111.891 137.848C112.51 137.976 113.07 138.285 113.571 138.776C114.072 139.256 114.323 139.987 114.323 140.968C114.323 141.651 114.163 142.269 113.843 142.824C113.523 143.368 113.038 143.8 112.387 144.12C111.747 144.44 110.952 144.6 110.003 144.6H108.339V147.96ZM108.339 143.752H109.987C110.787 143.752 111.406 143.528 111.843 143.08C112.291 142.621 112.515 141.917 112.515 140.968C112.515 140.179 112.318 139.571 111.923 139.144C111.539 138.717 110.894 138.504 109.987 138.504H108.339V143.752ZM127.094 143.336C127.094 144.136 126.971 144.957 126.726 145.8C126.491 146.643 126.011 147.389 125.286 148.04C124.561 148.68 123.531 149 122.198 149C120.865 149 119.835 148.68 119.11 148.04C118.395 147.389 117.921 146.643 117.686 145.8C117.451 144.957 117.334 144.136 117.334 143.336C117.334 142.536 117.451 141.715 117.686 140.872C117.921 140.029 118.395 139.283 119.11 138.632C119.835 137.981 120.865 137.656 122.198 137.656C123.531 137.656 124.561 137.981 125.286 138.632C126.011 139.283 126.491 140.035 126.726 140.888C126.971 141.731 127.094 142.547 127.094 143.336ZM125.286 143.336C125.286 142.099 125.078 140.979 124.662 139.976C124.246 138.973 123.425 138.472 122.198 138.472C120.993 138.472 120.182 138.973 119.766 139.976C119.35 140.979 119.142 142.099 119.142 143.336C119.142 144.563 119.35 145.677 119.766 146.68C120.182 147.683 120.993 148.184 122.198 148.184C123.425 148.184 124.246 147.688 124.662 146.696C125.078 145.693 125.286 144.573 125.286 143.336ZM130.843 150.632C130.843 151.005 130.763 151.272 130.603 151.432C130.453 151.592 130.224 151.672 129.915 151.672C129.68 151.672 129.504 151.608 129.387 151.48C129.28 151.352 129.227 151.149 129.227 150.872V148.744C129.227 148.52 129.296 148.371 129.435 148.296C129.584 148.211 129.819 148.163 130.139 148.152H130.299C130.939 147.523 131.371 146.595 131.595 145.368C131.819 144.131 131.931 142.397 131.931 140.168V138.456C131.931 138.168 131.984 137.965 132.091 137.848C132.197 137.72 132.379 137.656 132.635 137.656H137.947C138.192 137.656 138.373 137.72 138.491 137.848C138.619 137.976 138.683 138.179 138.683 138.456V148.152H139.163C139.493 148.152 139.733 148.195 139.883 148.28C140.043 148.365 140.123 148.52 140.123 148.744V150.872C140.123 151.149 140.064 151.352 139.947 151.48C139.84 151.608 139.669 151.672 139.435 151.672C139.125 151.672 138.891 151.592 138.731 151.432C138.581 151.272 138.507 151.005 138.507 150.632V149H130.843V150.632ZM133.195 140.12C133.195 142.04 133.099 143.64 132.907 144.92C132.715 146.189 132.341 147.267 131.787 148.152H136.955V138.504H133.195V140.12ZM156.712 140.44C156.403 140.44 156.168 140.36 156.008 140.2C155.859 140.04 155.784 139.773 155.784 139.4V138.504H151.864V142.344H154.184C155.453 142.344 156.429 142.6 157.112 143.112C157.795 143.624 158.136 144.461 158.136 145.624C158.136 146.467 157.917 147.144 157.48 147.656C157.043 148.157 156.52 148.509 155.912 148.712C155.304 148.904 154.717 149 154.152 149H150.872C150.627 149 150.44 148.936 150.312 148.808C150.195 148.68 150.136 148.477 150.136 148.2V138.456C150.136 138.179 150.195 137.976 150.312 137.848C150.44 137.72 150.627 137.656 150.872 137.656H156.44C156.771 137.656 157.011 137.699 157.16 137.784C157.32 137.869 157.4 138.024 157.4 138.248V139.64C157.4 139.917 157.341 140.12 157.224 140.248C157.117 140.376 156.947 140.44 156.712 140.44ZM151.864 148.152H153.944C154.573 148.152 155.128 147.949 155.608 147.544C156.088 147.139 156.328 146.499 156.328 145.624C156.328 144.003 155.507 143.192 153.864 143.192H151.864V148.152ZM169.984 137.656C170.229 137.656 170.41 137.72 170.528 137.848C170.656 137.976 170.72 138.179 170.72 138.456V148.2C170.72 148.488 170.666 148.696 170.56 148.824C170.453 148.941 170.272 149 170.016 149C169.685 149 169.429 148.899 169.248 148.696C169.077 148.483 168.992 148.173 168.992 147.768V139.88L163.808 148.44C163.712 148.611 163.594 148.749 163.456 148.856C163.317 148.952 163.104 149 162.816 149C162.57 149 162.384 148.936 162.256 148.808C162.138 148.68 162.08 148.477 162.08 148.2V138.456C162.08 138.168 162.133 137.965 162.24 137.848C162.346 137.72 162.528 137.656 162.784 137.656C163.114 137.656 163.365 137.763 163.536 137.976C163.717 138.179 163.808 138.483 163.808 138.888V146.776L168.992 138.216C169.109 138.024 169.232 137.885 169.36 137.8C169.488 137.704 169.696 137.656 169.984 137.656ZM176.259 149C176.014 149 175.827 148.936 175.699 148.808C175.582 148.68 175.523 148.477 175.523 148.2V138.456C175.523 138.168 175.577 137.965 175.683 137.848C175.79 137.72 175.971 137.656 176.227 137.656C176.558 137.656 176.809 137.763 176.979 137.976C177.161 138.179 177.251 138.483 177.251 138.888V148.152H181.107V138.616C181.107 138.253 181.182 138.003 181.331 137.864C181.491 137.725 181.747 137.656 182.099 137.656C182.345 137.656 182.526 137.72 182.643 137.848C182.771 137.976 182.835 138.179 182.835 138.456V148.152H186.691V138.696C186.691 138.323 186.771 138.056 186.931 137.896C187.091 137.736 187.342 137.656 187.683 137.656C187.929 137.656 188.11 137.72 188.227 137.848C188.355 137.976 188.419 138.179 188.419 138.456V148.2C188.419 148.477 188.355 148.68 188.227 148.808C188.11 148.936 187.929 149 187.683 149H176.259ZM195.281 142.776L199.985 137.976C200.188 137.763 200.401 137.656 200.625 137.656C200.785 137.656 200.919 137.709 201.025 137.816C201.143 137.923 201.201 138.04 201.201 138.168C201.201 138.243 201.175 138.307 201.121 138.36L196.561 142.872L201.169 147.944C201.319 148.115 201.393 148.269 201.393 148.408C201.393 148.568 201.329 148.707 201.201 148.824C201.084 148.941 200.929 149 200.737 149C200.492 149 200.257 148.947 200.033 148.84C199.82 148.733 199.575 148.525 199.297 148.216L195.281 143.656H194.945V147.96C194.945 148.333 194.865 148.6 194.705 148.76C194.545 148.92 194.295 149 193.953 149C193.708 149 193.521 148.936 193.393 148.808C193.276 148.68 193.217 148.477 193.217 148.2V138.456C193.217 138.168 193.271 137.965 193.377 137.848C193.484 137.72 193.665 137.656 193.921 137.656C194.252 137.656 194.503 137.763 194.673 137.976C194.855 138.179 194.945 138.483 194.945 138.888V142.776H195.281ZM210.968 140.44C210.659 140.44 210.424 140.36 210.264 140.2C210.115 140.04 210.04 139.773 210.04 139.4V138.504H206.248V142.696H209.608C209.747 142.696 209.854 142.744 209.928 142.84C210.014 142.925 210.056 143.027 210.056 143.144C210.056 143.251 210.008 143.352 209.912 143.448C209.816 143.533 209.715 143.576 209.608 143.576H206.248V148.152H210.28V147.256C210.28 146.883 210.355 146.616 210.504 146.456C210.664 146.296 210.899 146.216 211.208 146.216C211.443 146.216 211.614 146.28 211.72 146.408C211.838 146.536 211.896 146.739 211.896 147.016V148.408C211.896 148.632 211.816 148.787 211.656 148.872C211.507 148.957 211.267 149 210.936 149H205.256C205.011 149 204.824 148.936 204.696 148.808C204.579 148.68 204.52 148.477 204.52 148.2V138.456C204.52 138.179 204.579 137.976 204.696 137.848C204.824 137.72 205.011 137.656 205.256 137.656H210.696C211.027 137.656 211.267 137.699 211.416 137.784C211.576 137.869 211.656 138.024 211.656 138.248V139.64C211.656 139.917 211.598 140.12 211.48 140.248C211.374 140.376 211.203 140.44 210.968 140.44ZM217.794 142.776L222.498 137.976C222.7 137.763 222.914 137.656 223.138 137.656C223.298 137.656 223.431 137.709 223.538 137.816C223.655 137.923 223.714 138.04 223.714 138.168C223.714 138.243 223.687 138.307 223.634 138.36L219.074 142.872L223.682 147.944C223.831 148.115 223.906 148.269 223.906 148.408C223.906 148.568 223.842 148.707 223.714 148.824C223.596 148.941 223.442 149 223.25 149C223.004 149 222.77 148.947 222.546 148.84C222.332 148.733 222.087 148.525 221.81 148.216L217.794 143.656H217.458V147.96C217.458 148.333 217.378 148.6 217.218 148.76C217.058 148.92 216.807 149 216.466 149C216.22 149 216.034 148.936 215.906 148.808C215.788 148.68 215.73 148.477 215.73 148.2V138.456C215.73 138.168 215.783 137.965 215.89 137.848C215.996 137.72 216.178 137.656 216.434 137.656C216.764 137.656 217.015 137.763 217.186 137.976C217.367 138.179 217.458 138.483 217.458 138.888V142.776H217.794ZM227.385 148.808C227.011 148.744 226.75 148.6 226.601 148.376C226.462 148.152 226.393 147.912 226.393 147.656C226.393 147.283 226.521 147 226.777 146.808C227.043 146.605 227.337 146.504 227.657 146.504C227.955 146.504 228.222 146.6 228.457 146.792C228.702 146.973 228.825 147.235 228.825 147.576C228.825 147.779 228.798 147.965 228.745 148.136C228.702 148.307 228.617 148.525 228.489 148.792L227.817 150.216C227.689 150.504 227.491 150.648 227.225 150.648C227.086 150.648 226.969 150.605 226.873 150.52C226.787 150.445 226.745 150.349 226.745 150.232C226.745 150.2 226.755 150.152 226.777 150.088L227.385 148.808ZM252.042 138.504C252.255 137.939 252.565 137.656 252.97 137.656C253.119 137.656 253.237 137.709 253.322 137.816C253.418 137.912 253.466 138.035 253.466 138.184C253.466 138.312 253.439 138.429 253.386 138.536L250.41 145.528C250.005 146.477 249.493 147.293 248.874 147.976C248.266 148.659 247.573 149 246.794 149C246.549 149 246.351 148.931 246.202 148.792C246.063 148.643 245.994 148.419 245.994 148.12C245.994 147.907 246.069 147.757 246.218 147.672C246.367 147.587 246.65 147.517 247.066 147.464C247.546 147.421 247.935 147.272 248.234 147.016C248.533 146.76 248.783 146.381 248.986 145.88L245.034 138.616C244.97 138.499 244.938 138.365 244.938 138.216C244.938 138.056 244.991 137.923 245.098 137.816C245.205 137.709 245.343 137.656 245.514 137.656C245.791 137.656 246.021 137.715 246.202 137.832C246.394 137.949 246.575 138.168 246.746 138.488L249.754 144.12H249.85L252.042 138.504ZM264.814 137.656C265.059 137.656 265.24 137.72 265.358 137.848C265.486 137.976 265.55 138.179 265.55 138.456V148.2C265.55 148.488 265.496 148.696 265.39 148.824C265.283 148.941 265.102 149 264.846 149C264.515 149 264.259 148.899 264.078 148.696C263.907 148.483 263.822 148.173 263.822 147.768V138.504H260.062V140.12C260.062 141.528 260.014 142.723 259.918 143.704C259.822 144.675 259.656 145.523 259.422 146.248C259.294 146.643 259.091 147.053 258.814 147.48C258.547 147.907 258.222 148.269 257.838 148.568C257.464 148.856 257.064 149 256.638 149C256.446 149 256.28 148.915 256.142 148.744C256.014 148.563 255.95 148.36 255.95 148.136C255.95 147.944 256.003 147.805 256.11 147.72C256.216 147.624 256.451 147.517 256.814 147.4C257.518 147.155 258.024 146.584 258.334 145.688C258.547 145.08 258.675 144.381 258.718 143.592C258.771 142.792 258.798 141.651 258.798 140.168V138.456C258.798 138.168 258.851 137.965 258.958 137.848C259.064 137.72 259.246 137.656 259.502 137.656H264.814ZM269.705 147.768C269.705 147.395 269.823 147.091 270.057 146.856C270.292 146.621 270.58 146.504 270.921 146.504C271.263 146.504 271.551 146.627 271.785 146.872C272.02 147.107 272.137 147.405 272.137 147.768C272.137 148.12 272.02 148.413 271.785 148.648C271.551 148.883 271.263 149 270.921 149C270.58 149 270.292 148.883 270.057 148.648C269.823 148.413 269.705 148.12 269.705 147.768ZM283.182 148.152C283.054 148.493 282.904 148.723 282.734 148.84C282.574 148.947 282.398 149 282.206 149C282.056 149 281.944 148.963 281.87 148.888C281.806 148.803 281.774 148.696 281.774 148.568C281.774 148.44 281.8 148.307 281.854 148.168L285.614 138.04C285.656 137.923 285.758 137.832 285.918 137.768C286.088 137.693 286.28 137.656 286.494 137.656C286.728 137.656 286.936 137.693 287.118 137.768C287.31 137.843 287.427 137.949 287.47 138.088L291.134 148.232C291.155 148.339 291.166 148.419 291.166 148.472C291.166 148.621 291.112 148.749 291.006 148.856C290.91 148.952 290.755 149 290.542 149C290.318 149 290.088 148.941 289.854 148.824C289.63 148.707 289.459 148.483 289.342 148.152L288.494 145.96H283.998L283.182 148.152ZM286.318 139.544H286.222L284.254 145.128H288.254L286.318 139.544ZM300.714 138.504C300.927 137.939 301.236 137.656 301.642 137.656C301.791 137.656 301.908 137.709 301.994 137.816C302.09 137.912 302.138 138.035 302.138 138.184C302.138 138.312 302.111 138.429 302.058 138.536L299.082 145.528C298.676 146.477 298.164 147.293 297.546 147.976C296.938 148.659 296.244 149 295.466 149C295.22 149 295.023 148.931 294.874 148.792C294.735 148.643 294.666 148.419 294.666 148.12C294.666 147.907 294.74 147.757 294.89 147.672C295.039 147.587 295.322 147.517 295.738 147.464C296.218 147.421 296.607 147.272 296.906 147.016C297.204 146.76 297.455 146.381 297.658 145.88L293.706 138.616C293.642 138.499 293.61 138.365 293.61 138.216C293.61 138.056 293.663 137.923 293.77 137.816C293.876 137.709 294.015 137.656 294.186 137.656C294.463 137.656 294.692 137.715 294.874 137.832C295.066 137.949 295.247 138.168 295.418 138.488L298.426 144.12H298.522L300.714 138.504ZM306.558 147.864C306.835 147.992 307.096 148.077 307.342 148.12C307.598 148.163 307.902 148.184 308.254 148.184C309.224 148.184 309.992 147.795 310.558 147.016C311.134 146.227 311.443 145.08 311.486 143.576H307.006C306.931 143.576 306.872 143.533 306.83 143.448C306.787 143.363 306.766 143.261 306.766 143.144C306.766 143.027 306.787 142.925 306.83 142.84C306.872 142.744 306.931 142.696 307.006 142.696H311.454C311.368 141.192 311.032 140.115 310.446 139.464C309.87 138.813 309.139 138.483 308.254 138.472C307.742 138.472 307.219 138.531 306.686 138.648V139.544C306.686 139.917 306.606 140.184 306.446 140.344C306.296 140.504 306.067 140.584 305.758 140.584C305.523 140.584 305.347 140.52 305.23 140.392C305.123 140.264 305.07 140.061 305.07 139.784V138.872C305.07 138.637 305.112 138.472 305.198 138.376C305.294 138.269 305.47 138.173 305.726 138.088C306.686 137.8 307.566 137.656 308.366 137.656C311.651 137.656 313.294 139.464 313.294 143.08C313.294 144.851 312.878 146.28 312.046 147.368C311.214 148.456 309.955 149 308.27 149C307.747 149 307.272 148.963 306.846 148.888C306.419 148.813 305.992 148.68 305.566 148.488C305.32 148.381 305.155 148.285 305.07 148.2C304.984 148.104 304.942 147.944 304.942 147.72V146.76C304.942 146.248 305.171 145.992 305.63 145.992C305.939 145.992 306.168 146.072 306.318 146.232C306.478 146.381 306.558 146.637 306.558 147V147.864ZM318.158 147.864C318.499 147.981 318.798 148.067 319.054 148.12C319.32 148.163 319.651 148.184 320.046 148.184C320.643 148.184 321.134 148.061 321.518 147.816C321.912 147.571 322.2 147.261 322.382 146.888C322.574 146.504 322.67 146.104 322.67 145.688C322.67 145.059 322.483 144.552 322.11 144.168C321.736 143.773 321.075 143.576 320.126 143.576H318.638C318.563 143.576 318.504 143.533 318.462 143.448C318.419 143.363 318.398 143.261 318.398 143.144C318.398 143.027 318.419 142.925 318.462 142.84C318.504 142.744 318.563 142.696 318.638 142.696H320.142C321.614 142.696 322.35 141.955 322.35 140.472C322.35 139.875 322.147 139.395 321.742 139.032C321.336 138.659 320.782 138.472 320.078 138.472C319.47 138.472 318.904 138.531 318.382 138.648V139.544C318.382 139.917 318.302 140.184 318.142 140.344C317.992 140.504 317.763 140.584 317.454 140.584C317.219 140.584 317.043 140.52 316.926 140.392C316.819 140.264 316.766 140.061 316.766 139.784V138.872C316.766 138.637 316.808 138.472 316.894 138.376C316.99 138.269 317.166 138.173 317.422 138.088C318.371 137.8 319.363 137.656 320.398 137.656C321.678 137.656 322.616 137.923 323.214 138.456C323.811 138.979 324.11 139.651 324.11 140.472C324.11 141.176 323.923 141.736 323.55 142.152C323.187 142.557 322.712 142.851 322.126 143.032V143.128C323.694 143.373 324.478 144.227 324.478 145.688C324.478 146.243 324.328 146.771 324.03 147.272C323.731 147.773 323.256 148.189 322.606 148.52C321.955 148.84 321.128 149 320.126 149C319.592 149 319.064 148.957 318.542 148.872C318.019 148.776 317.56 148.648 317.166 148.488C316.92 148.381 316.755 148.285 316.67 148.2C316.584 148.104 316.542 147.944 316.542 147.72V146.76C316.542 146.248 316.771 145.992 317.23 145.992C317.539 145.992 317.768 146.072 317.918 146.232C318.078 146.381 318.158 146.637 318.158 147V147.864ZM337.641 143.336C337.641 144.136 337.518 144.957 337.273 145.8C337.038 146.643 336.558 147.389 335.833 148.04C335.108 148.68 334.078 149 332.745 149C331.412 149 330.382 148.68 329.657 148.04C328.942 147.389 328.468 146.643 328.233 145.8C327.998 144.957 327.881 144.136 327.881 143.336C327.881 142.536 327.998 141.715 328.233 140.872C328.468 140.029 328.942 139.283 329.657 138.632C330.382 137.981 331.412 137.656 332.745 137.656C334.078 137.656 335.108 137.981 335.833 138.632C336.558 139.283 337.038 140.035 337.273 140.888C337.518 141.731 337.641 142.547 337.641 143.336ZM335.833 143.336C335.833 142.099 335.625 140.979 335.209 139.976C334.793 138.973 333.972 138.472 332.745 138.472C331.54 138.472 330.729 138.973 330.313 139.976C329.897 140.979 329.689 142.099 329.689 143.336C329.689 144.563 329.897 145.677 330.313 146.68C330.729 147.683 331.54 148.184 332.745 148.184C333.972 148.184 334.793 147.688 335.209 146.696C335.625 145.693 335.833 144.573 335.833 143.336ZM341.686 138.456C341.686 138.179 341.745 137.976 341.862 137.848C341.99 137.72 342.177 137.656 342.422 137.656H345.702C348.07 137.656 349.254 138.605 349.254 140.504C349.254 141.037 349.089 141.539 348.758 142.008C348.438 142.467 348.001 142.765 347.446 142.904V142.984C348.257 143.123 348.859 143.432 349.254 143.912C349.649 144.381 349.846 144.947 349.846 145.608C349.846 146.899 349.425 147.789 348.582 148.28C347.75 148.76 346.817 149 345.782 149H342.422C342.177 149 341.99 148.936 341.862 148.808C341.745 148.68 341.686 148.477 341.686 148.2V138.456ZM343.414 142.632H345.254C345.595 142.632 345.931 142.563 346.262 142.424C346.603 142.275 346.886 142.04 347.11 141.72C347.334 141.389 347.446 140.968 347.446 140.456C347.446 139.763 347.206 139.267 346.726 138.968C346.246 138.659 345.713 138.504 345.126 138.504H343.414V142.632ZM343.414 148.152H345.558C346.187 148.152 346.758 147.971 347.27 147.608C347.782 147.235 348.038 146.621 348.038 145.768C348.038 145.235 347.905 144.797 347.638 144.456C347.371 144.115 347.035 143.869 346.63 143.72C346.225 143.56 345.814 143.48 345.398 143.48H343.414V148.152ZM354.172 148.152C354.044 148.493 353.895 148.723 353.724 148.84C353.564 148.947 353.388 149 353.196 149C353.047 149 352.935 148.963 352.86 148.888C352.796 148.803 352.764 148.696 352.764 148.568C352.764 148.44 352.791 148.307 352.844 148.168L356.604 138.04C356.647 137.923 356.748 137.832 356.908 137.768C357.079 137.693 357.271 137.656 357.484 137.656C357.719 137.656 357.927 137.693 358.108 137.768C358.3 137.843 358.418 137.949 358.46 138.088L362.124 148.232C362.146 148.339 362.156 148.419 362.156 148.472C362.156 148.621 362.103 148.749 361.996 148.856C361.9 148.952 361.746 149 361.532 149C361.308 149 361.079 148.941 360.844 148.824C360.62 148.707 360.45 148.483 360.332 148.152L359.484 145.96H354.988L354.172 148.152ZM357.308 139.544H357.212L355.244 145.128H359.244L357.308 139.544ZM372.326 141.08C372.091 141.08 371.915 141.016 371.798 140.888C371.691 140.76 371.638 140.557 371.638 140.28V139.32C371.638 139.139 371.659 139.005 371.702 138.92C371.755 138.835 371.857 138.744 372.006 138.648C372.55 138.285 373.073 138.029 373.574 137.88C374.086 137.731 374.641 137.656 375.238 137.656C376.294 137.656 377.073 137.928 377.574 138.472C378.086 139.005 378.342 139.683 378.342 140.504C378.342 141.539 377.926 142.659 377.094 143.864C376.273 145.059 374.833 146.488 372.774 148.152H376.95V147.16C376.95 146.787 377.019 146.52 377.158 146.36C377.307 146.2 377.521 146.12 377.798 146.12C378.033 146.12 378.203 146.184 378.31 146.312C378.427 146.44 378.486 146.643 378.486 146.92V148.488C378.486 148.669 378.406 148.803 378.246 148.888C378.086 148.963 377.846 149 377.526 149H371.846C371.718 149 371.617 148.957 371.542 148.872C371.478 148.787 371.446 148.68 371.446 148.552C371.446 148.328 371.526 148.147 371.686 148.008L371.91 147.8C373.755 146.083 374.987 144.653 375.606 143.512C376.225 142.36 376.534 141.437 376.534 140.744C376.534 140.136 376.401 139.608 376.134 139.16C375.878 138.701 375.409 138.472 374.726 138.472C374.214 138.472 373.697 138.611 373.174 138.888V140.04C373.174 140.424 373.11 140.696 372.982 140.856C372.854 141.005 372.635 141.08 372.326 141.08ZM385.962 146.232H381.306C381.008 146.232 380.858 146.104 380.858 145.848C380.858 145.741 380.896 145.613 380.97 145.464L385.722 138.248C385.978 137.853 386.352 137.656 386.842 137.656C387.13 137.656 387.338 137.72 387.466 137.848C387.594 137.976 387.658 138.179 387.658 138.456V145.384H388.65C388.896 145.384 389.061 145.427 389.146 145.512C389.242 145.597 389.29 145.709 389.29 145.848C389.29 145.965 389.258 146.061 389.194 146.136C389.13 146.2 389.002 146.232 388.81 146.232H387.658V148.152H388.57C388.816 148.152 388.981 148.195 389.066 148.28C389.162 148.365 389.21 148.477 389.21 148.616C389.21 148.733 389.178 148.829 389.114 148.904C389.05 148.968 388.922 149 388.73 149H384.57C384.378 149 384.25 148.968 384.186 148.904C384.122 148.829 384.09 148.733 384.09 148.616C384.09 148.477 384.133 148.365 384.218 148.28C384.314 148.195 384.485 148.152 384.73 148.152H385.962V146.232ZM385.962 139.752L382.202 145.384H385.962V139.752ZM192.267 171.96C192.267 172.333 192.187 172.6 192.027 172.76C191.867 172.92 191.616 173 191.275 173C191.03 173 190.843 172.936 190.715 172.808C190.598 172.68 190.539 172.477 190.539 172.2V162.456C190.539 162.168 190.592 161.965 190.699 161.848C190.806 161.72 190.987 161.656 191.243 161.656H193.915C194.576 161.656 195.211 161.72 195.819 161.848C196.438 161.976 196.998 162.285 197.499 162.776C198 163.256 198.251 163.987 198.251 164.968C198.251 165.651 198.091 166.269 197.771 166.824C197.451 167.368 196.966 167.8 196.315 168.12C195.675 168.44 194.88 168.6 193.931 168.6H192.267V171.96ZM192.267 167.752H193.915C194.715 167.752 195.334 167.528 195.771 167.08C196.219 166.621 196.443 165.917 196.443 164.968C196.443 164.179 196.246 163.571 195.851 163.144C195.467 162.717 194.822 162.504 193.915 162.504H192.267V167.752ZM208.462 164.44C208.153 164.44 207.918 164.36 207.758 164.2C207.609 164.04 207.534 163.773 207.534 163.4V162.504H203.742V166.696H207.102C207.241 166.696 207.347 166.744 207.422 166.84C207.507 166.925 207.55 167.027 207.55 167.144C207.55 167.251 207.502 167.352 207.406 167.448C207.31 167.533 207.209 167.576 207.102 167.576H203.742V172.152H207.774V171.256C207.774 170.883 207.849 170.616 207.998 170.456C208.158 170.296 208.393 170.216 208.702 170.216C208.937 170.216 209.107 170.28 209.214 170.408C209.331 170.536 209.39 170.739 209.39 171.016V172.408C209.39 172.632 209.31 172.787 209.15 172.872C209.001 172.957 208.761 173 208.43 173H202.75C202.505 173 202.318 172.936 202.19 172.808C202.073 172.68 202.014 172.477 202.014 172.2V162.456C202.014 162.179 202.073 161.976 202.19 161.848C202.318 161.72 202.505 161.656 202.75 161.656H208.19C208.521 161.656 208.761 161.699 208.91 161.784C209.07 161.869 209.15 162.024 209.15 162.248V163.64C209.15 163.917 209.091 164.12 208.974 164.248C208.867 164.376 208.697 164.44 208.462 164.44ZM219.671 164.536C219.362 164.536 219.127 164.456 218.967 164.296C218.818 164.136 218.743 163.869 218.743 163.496V162.6C218.349 162.515 217.959 162.472 217.575 162.472C216.562 162.472 215.757 162.899 215.159 163.752C214.573 164.595 214.279 165.832 214.279 167.464C214.279 169.203 214.567 170.424 215.143 171.128C215.719 171.821 216.567 172.168 217.687 172.168C218.349 172.168 219.047 172.013 219.783 171.704L220.087 171.576C220.151 171.555 220.194 171.544 220.215 171.544C220.322 171.544 220.413 171.597 220.487 171.704C220.562 171.8 220.599 171.907 220.599 172.024C220.599 172.173 220.53 172.28 220.391 172.344L220.119 172.456C219.682 172.637 219.239 172.776 218.791 172.872C218.354 172.957 217.837 173 217.239 173C215.618 173 214.418 172.52 213.639 171.56C212.861 170.589 212.471 169.213 212.471 167.432C212.471 166.141 212.679 165.064 213.095 164.2C213.522 163.336 214.103 162.696 214.839 162.28C215.575 161.864 216.418 161.656 217.367 161.656C218.221 161.656 218.999 161.768 219.703 161.992C219.959 162.077 220.13 162.173 220.215 162.28C220.311 162.376 220.359 162.541 220.359 162.776V163.736C220.359 164.013 220.301 164.216 220.183 164.344C220.077 164.472 219.906 164.536 219.671 164.536ZM228.584 172.04C228.584 172.403 228.504 172.653 228.344 172.792C228.195 172.931 227.944 173 227.592 173C227.347 173 227.16 172.936 227.032 172.808C226.915 172.68 226.856 172.477 226.856 172.2V162.504H224.456V163.64C224.456 164.013 224.376 164.28 224.216 164.44C224.067 164.6 223.838 164.68 223.528 164.68C223.294 164.68 223.118 164.616 223 164.488C222.894 164.36 222.84 164.157 222.84 163.88V162.248C222.84 162.024 222.915 161.869 223.064 161.784C223.224 161.699 223.47 161.656 223.8 161.656H231.64C231.971 161.656 232.211 161.699 232.36 161.784C232.52 161.869 232.6 162.024 232.6 162.248V163.88C232.6 164.157 232.542 164.36 232.424 164.488C232.318 164.616 232.147 164.68 231.912 164.68C231.603 164.68 231.368 164.6 231.208 164.44C231.059 164.28 230.984 164.013 230.984 163.64V162.504H228.584V172.04ZM244.822 167.336C244.822 168.136 244.699 168.957 244.454 169.8C244.219 170.643 243.739 171.389 243.014 172.04C242.289 172.68 241.259 173 239.926 173C238.593 173 237.563 172.68 236.838 172.04C236.123 171.389 235.649 170.643 235.414 169.8C235.179 168.957 235.062 168.136 235.062 167.336C235.062 166.536 235.179 165.715 235.414 164.872C235.649 164.029 236.123 163.283 236.838 162.632C237.563 161.981 238.593 161.656 239.926 161.656C241.259 161.656 242.289 161.981 243.014 162.632C243.739 163.283 244.219 164.035 244.454 164.888C244.699 165.731 244.822 166.547 244.822 167.336ZM243.014 167.336C243.014 166.099 242.806 164.979 242.39 163.976C241.974 162.973 241.153 162.472 239.926 162.472C238.721 162.472 237.91 162.973 237.494 163.976C237.078 164.979 236.87 166.099 236.87 167.336C236.87 168.563 237.078 169.677 237.494 170.68C237.91 171.683 238.721 172.184 239.926 172.184C241.153 172.184 241.974 171.688 242.39 170.696C242.806 169.693 243.014 168.573 243.014 167.336ZM250.595 171.96C250.595 172.333 250.515 172.6 250.355 172.76C250.195 172.92 249.945 173 249.603 173C249.358 173 249.171 172.936 249.043 172.808C248.926 172.68 248.867 172.477 248.867 172.2V162.456C248.867 162.168 248.921 161.965 249.027 161.848C249.134 161.72 249.315 161.656 249.571 161.656H252.243C252.905 161.656 253.539 161.72 254.147 161.848C254.766 161.976 255.326 162.285 255.827 162.776C256.329 163.256 256.579 163.987 256.579 164.968C256.579 165.651 256.419 166.269 256.099 166.824C255.779 167.368 255.294 167.8 254.643 168.12C254.003 168.44 253.209 168.6 252.259 168.6H250.595V171.96ZM250.595 167.752H252.243C253.043 167.752 253.662 167.528 254.099 167.08C254.547 166.621 254.771 165.917 254.771 164.968C254.771 164.179 254.574 163.571 254.179 163.144C253.795 162.717 253.15 162.504 252.243 162.504H250.595V167.752ZM259.869 172.152C259.741 172.493 259.592 172.723 259.421 172.84C259.261 172.947 259.085 173 258.893 173C258.744 173 258.632 172.963 258.557 172.888C258.493 172.803 258.461 172.696 258.461 172.568C258.461 172.44 258.488 172.307 258.541 172.168L262.301 162.04C262.344 161.923 262.445 161.832 262.605 161.768C262.776 161.693 262.968 161.656 263.181 161.656C263.416 161.656 263.624 161.693 263.805 161.768C263.997 161.843 264.114 161.949 264.157 162.088L267.821 172.232C267.842 172.339 267.853 172.419 267.853 172.472C267.853 172.621 267.8 172.749 267.693 172.856C267.597 172.952 267.442 173 267.229 173C267.005 173 266.776 172.941 266.541 172.824C266.317 172.707 266.146 172.483 266.029 172.152L265.181 169.96H260.685L259.869 172.152ZM263.005 163.544H262.909L260.941 169.128H264.941L263.005 163.544ZM279.722 161.656C279.967 161.656 280.149 161.72 280.266 161.848C280.394 161.976 280.458 162.179 280.458 162.456V172.2C280.458 172.488 280.405 172.696 280.298 172.824C280.191 172.941 280.01 173 279.754 173C279.423 173 279.167 172.899 278.986 172.696C278.815 172.483 278.73 172.173 278.73 171.768V167.576H273.514V171.96C273.514 172.333 273.434 172.6 273.274 172.76C273.114 172.92 272.863 173 272.522 173C272.277 173 272.09 172.936 271.962 172.808C271.845 172.68 271.786 172.477 271.786 172.2V162.456C271.786 162.168 271.839 161.965 271.946 161.848C272.053 161.72 272.234 161.656 272.49 161.656C272.821 161.656 273.071 161.763 273.242 161.976C273.423 162.179 273.514 162.483 273.514 162.888V166.696H278.73V162.696C278.73 162.323 278.81 162.056 278.97 161.896C279.13 161.736 279.381 161.656 279.722 161.656ZM127.074 185.592C127.074 185.432 127.159 185.315 127.33 185.24C127.501 185.155 127.73 185.112 128.018 185.112C128.295 185.112 128.525 185.155 128.706 185.24C128.887 185.325 128.978 185.443 128.978 185.592L128.45 188.76C128.439 188.835 128.391 188.893 128.306 188.936C128.221 188.968 128.125 188.984 128.018 188.984C127.911 188.984 127.815 188.963 127.73 188.92C127.645 188.877 127.597 188.824 127.586 188.76L127.074 185.592ZM129.874 185.592C129.874 185.432 129.959 185.315 130.13 185.24C130.311 185.155 130.541 185.112 130.818 185.112C131.095 185.112 131.325 185.155 131.506 185.24C131.687 185.325 131.778 185.443 131.778 185.592L131.25 188.76C131.239 188.835 131.191 188.893 131.106 188.936C131.021 188.968 130.925 188.984 130.818 188.984C130.711 188.984 130.615 188.963 130.53 188.92C130.445 188.877 130.397 188.824 130.386 188.76L129.874 185.592ZM137.667 195.96C137.667 196.333 137.587 196.6 137.427 196.76C137.267 196.92 137.016 197 136.675 197C136.43 197 136.243 196.936 136.115 196.808C135.998 196.68 135.939 196.477 135.939 196.2V186.456C135.939 186.168 135.992 185.965 136.099 185.848C136.206 185.72 136.387 185.656 136.643 185.656H139.315C139.976 185.656 140.611 185.72 141.219 185.848C141.838 185.976 142.398 186.285 142.899 186.776C143.4 187.256 143.651 187.987 143.651 188.968C143.651 189.651 143.491 190.269 143.171 190.824C142.851 191.368 142.366 191.8 141.715 192.12C141.075 192.44 140.28 192.6 139.331 192.6H137.667V195.96ZM137.667 191.752H139.315C140.115 191.752 140.734 191.528 141.171 191.08C141.619 190.621 141.843 189.917 141.843 188.968C141.843 188.179 141.646 187.571 141.251 187.144C140.867 186.717 140.222 186.504 139.315 186.504H137.667V191.752ZM147.414 186.456C147.414 186.168 147.467 185.965 147.574 185.848C147.681 185.72 147.862 185.656 148.118 185.656H151.142C152.369 185.656 153.35 185.885 154.086 186.344C154.822 186.792 155.19 187.592 155.19 188.744C155.19 189.267 155.051 189.747 154.774 190.184C154.507 190.621 154.155 190.979 153.718 191.256C153.291 191.533 152.849 191.709 152.39 191.784L155.046 196.056C155.142 196.195 155.19 196.333 155.19 196.472C155.19 196.632 155.121 196.76 154.982 196.856C154.843 196.952 154.641 197 154.374 197C154.161 197 153.958 196.952 153.766 196.856C153.574 196.76 153.414 196.605 153.286 196.392L150.598 191.896H149.142V195.96C149.142 196.333 149.062 196.6 148.902 196.76C148.742 196.92 148.491 197 148.15 197C147.905 197 147.718 196.936 147.59 196.808C147.473 196.68 147.414 196.477 147.414 196.2V186.456ZM149.142 191.048H150.854C151.515 191.048 152.102 190.856 152.614 190.472C153.126 190.077 153.382 189.469 153.382 188.648C153.382 187.773 153.147 187.197 152.678 186.92C152.209 186.643 151.643 186.504 150.982 186.504H149.142V191.048ZM165.743 188.44C165.434 188.44 165.199 188.36 165.039 188.2C164.89 188.04 164.815 187.773 164.815 187.4V186.504H161.023V190.696H164.383C164.522 190.696 164.629 190.744 164.703 190.84C164.789 190.925 164.831 191.027 164.831 191.144C164.831 191.251 164.783 191.352 164.687 191.448C164.591 191.533 164.49 191.576 164.383 191.576H161.023V196.152H165.055V195.256C165.055 194.883 165.13 194.616 165.279 194.456C165.439 194.296 165.674 194.216 165.983 194.216C166.218 194.216 166.389 194.28 166.495 194.408C166.613 194.536 166.671 194.739 166.671 195.016V196.408C166.671 196.632 166.591 196.787 166.431 196.872C166.282 196.957 166.042 197 165.711 197H160.031C159.786 197 159.599 196.936 159.471 196.808C159.354 196.68 159.295 196.477 159.295 196.2V186.456C159.295 186.179 159.354 185.976 159.471 185.848C159.599 185.72 159.786 185.656 160.031 185.656H165.471C165.802 185.656 166.042 185.699 166.191 185.784C166.351 185.869 166.431 186.024 166.431 186.248V187.64C166.431 187.917 166.373 188.12 166.255 188.248C166.149 188.376 165.978 188.44 165.743 188.44ZM176.617 188.568C176.307 188.568 176.073 188.493 175.913 188.344C175.763 188.184 175.689 187.928 175.689 187.576V186.76C175.646 186.749 175.555 186.723 175.417 186.68C174.926 186.541 174.387 186.472 173.801 186.472C173.331 186.472 172.937 186.573 172.617 186.776C172.297 186.968 172.057 187.219 171.897 187.528C171.747 187.827 171.673 188.136 171.673 188.456C171.673 188.819 171.737 189.117 171.865 189.352C172.003 189.587 172.222 189.789 172.521 189.96C172.819 190.131 173.257 190.323 173.833 190.536C174.974 190.941 175.811 191.272 176.345 191.528C176.878 191.784 177.294 192.099 177.593 192.472C177.891 192.835 178.041 193.309 178.041 193.896C178.041 194.493 177.865 195.027 177.513 195.496C177.171 195.965 176.659 196.333 175.977 196.6C175.305 196.867 174.499 197 173.561 197C173.081 197 172.553 196.952 171.977 196.856C171.411 196.749 170.937 196.621 170.553 196.472C170.307 196.365 170.142 196.269 170.057 196.184C169.971 196.088 169.929 195.928 169.929 195.704V194.744C169.929 194.232 170.158 193.976 170.617 193.976C170.926 193.976 171.155 194.056 171.305 194.216C171.465 194.365 171.545 194.621 171.545 194.984V195.848C172.217 196.072 172.867 196.184 173.497 196.184C174.073 196.184 174.569 196.083 174.985 195.88C175.401 195.677 175.715 195.416 175.929 195.096C176.142 194.776 176.249 194.435 176.249 194.072C176.249 193.72 176.153 193.421 175.961 193.176C175.779 192.931 175.502 192.712 175.129 192.52C174.755 192.328 174.233 192.109 173.561 191.864C172.654 191.523 171.955 191.235 171.465 191C170.985 190.755 170.601 190.44 170.313 190.056C170.025 189.661 169.881 189.16 169.881 188.552C169.881 187.677 170.217 186.979 170.889 186.456C171.561 185.923 172.494 185.656 173.689 185.656C174.243 185.656 174.75 185.699 175.209 185.784C175.667 185.859 176.147 185.971 176.649 186.12C176.905 186.205 177.075 186.296 177.161 186.392C177.257 186.488 177.305 186.648 177.305 186.872V187.8C177.305 188.312 177.075 188.568 176.617 188.568ZM181.398 197C181.206 197 181.078 196.968 181.014 196.904C180.95 196.829 180.918 196.733 180.918 196.616C180.918 196.477 180.961 196.365 181.046 196.28C181.142 196.195 181.313 196.152 181.558 196.152H182.998V186.504H181.558C181.313 186.504 181.142 186.461 181.046 186.376C180.961 186.291 180.918 186.179 180.918 186.04C180.918 185.923 180.95 185.832 181.014 185.768C181.078 185.693 181.206 185.656 181.398 185.656H186.326C186.518 185.656 186.646 185.693 186.71 185.768C186.774 185.832 186.806 185.923 186.806 186.04C186.806 186.179 186.758 186.291 186.662 186.376C186.577 186.461 186.412 186.504 186.166 186.504H184.726V196.152H186.166C186.412 196.152 186.577 196.195 186.662 196.28C186.758 196.365 186.806 196.477 186.806 196.616C186.806 196.733 186.774 196.829 186.71 196.904C186.646 196.968 186.518 197 186.326 197H181.398ZM190.33 186.456C190.33 186.179 190.388 185.976 190.506 185.848C190.634 185.72 190.82 185.656 191.066 185.656H193.354C197.098 185.656 198.97 187.528 198.97 191.272C198.97 192.669 198.676 193.8 198.09 194.664C197.514 195.517 196.804 196.12 195.962 196.472C195.13 196.824 194.287 197 193.434 197H191.066C190.82 197 190.634 196.936 190.506 196.808C190.388 196.68 190.33 196.477 190.33 196.2V186.456ZM192.058 196.152H192.41V196.136H193.162C194.346 196.136 195.306 195.736 196.042 194.936C196.788 194.136 197.162 192.915 197.162 191.272C197.162 189.608 196.794 188.397 196.058 187.64C195.332 186.883 194.367 186.504 193.162 186.504H192.058V196.152ZM209.471 188.44C209.162 188.44 208.927 188.36 208.767 188.2C208.618 188.04 208.543 187.773 208.543 187.4V186.504H204.751V190.696H208.111C208.25 190.696 208.357 190.744 208.431 190.84C208.517 190.925 208.559 191.027 208.559 191.144C208.559 191.251 208.511 191.352 208.415 191.448C208.319 191.533 208.218 191.576 208.111 191.576H204.751V196.152H208.783V195.256C208.783 194.883 208.858 194.616 209.007 194.456C209.167 194.296 209.402 194.216 209.711 194.216C209.946 194.216 210.117 194.28 210.223 194.408C210.341 194.536 210.399 194.739 210.399 195.016V196.408C210.399 196.632 210.319 196.787 210.159 196.872C210.01 196.957 209.77 197 209.439 197H203.759C203.514 197 203.327 196.936 203.199 196.808C203.082 196.68 203.023 196.477 203.023 196.2V186.456C203.023 186.179 203.082 185.976 203.199 185.848C203.327 185.72 203.514 185.656 203.759 185.656H209.199C209.53 185.656 209.77 185.699 209.919 185.784C210.079 185.869 210.159 186.024 210.159 186.248V187.64C210.159 187.917 210.101 188.12 209.983 188.248C209.877 188.376 209.706 188.44 209.471 188.44ZM214.841 197C214.67 197 214.526 196.941 214.409 196.824C214.291 196.707 214.233 196.525 214.233 196.28V186.52C214.233 186.253 214.323 186.045 214.505 185.896C214.697 185.736 214.926 185.656 215.193 185.656C215.427 185.656 215.635 185.704 215.817 185.8C216.009 185.896 216.185 186.072 216.345 186.328L221.577 194.632H221.657V186.552C221.657 186.243 221.721 186.019 221.849 185.88C221.987 185.731 222.142 185.656 222.313 185.656C222.483 185.656 222.627 185.715 222.745 185.832C222.862 185.949 222.921 186.131 222.921 186.376V196.072C222.921 196.371 222.83 196.6 222.649 196.76C222.478 196.92 222.259 197 221.993 197C221.491 197 221.102 196.787 220.825 196.36L215.593 188.024H215.497V196.104C215.497 196.413 215.427 196.643 215.289 196.792C215.161 196.931 215.011 197 214.841 197ZM232.187 196.04C232.187 196.403 232.107 196.653 231.947 196.792C231.798 196.931 231.547 197 231.195 197C230.95 197 230.763 196.936 230.635 196.808C230.518 196.68 230.459 196.477 230.459 196.2V186.504H228.059V187.64C228.059 188.013 227.979 188.28 227.819 188.44C227.67 188.6 227.441 188.68 227.131 188.68C226.897 188.68 226.721 188.616 226.603 188.488C226.497 188.36 226.443 188.157 226.443 187.88V186.248C226.443 186.024 226.518 185.869 226.667 185.784C226.827 185.699 227.073 185.656 227.403 185.656H235.243C235.574 185.656 235.814 185.699 235.963 185.784C236.123 185.869 236.203 186.024 236.203 186.248V187.88C236.203 188.157 236.145 188.36 236.027 188.488C235.921 188.616 235.75 188.68 235.515 188.68C235.206 188.68 234.971 188.6 234.811 188.44C234.662 188.28 234.587 188.013 234.587 187.64V186.504H232.187V196.04ZM252.575 188.536C252.265 188.536 252.031 188.456 251.871 188.296C251.721 188.136 251.647 187.869 251.647 187.496V186.6C251.252 186.515 250.863 186.472 250.479 186.472C249.465 186.472 248.66 186.899 248.063 187.752C247.476 188.595 247.183 189.832 247.183 191.464C247.183 193.203 247.471 194.424 248.047 195.128C248.623 195.821 249.471 196.168 250.591 196.168C251.252 196.168 251.951 196.013 252.687 195.704L252.991 195.576C253.055 195.555 253.097 195.544 253.119 195.544C253.225 195.544 253.316 195.597 253.391 195.704C253.465 195.8 253.503 195.907 253.503 196.024C253.503 196.173 253.433 196.28 253.295 196.344L253.023 196.456C252.585 196.637 252.143 196.776 251.695 196.872C251.257 196.957 250.74 197 250.143 197C248.521 197 247.321 196.52 246.543 195.56C245.764 194.589 245.375 193.213 245.375 191.432C245.375 190.141 245.583 189.064 245.999 188.2C246.425 187.336 247.007 186.696 247.743 186.28C248.479 185.864 249.321 185.656 250.271 185.656C251.124 185.656 251.903 185.768 252.607 185.992C252.863 186.077 253.033 186.173 253.119 186.28C253.215 186.376 253.263 186.541 253.263 186.776V187.736C253.263 188.013 253.204 188.216 253.087 188.344C252.98 188.472 252.809 188.536 252.575 188.536ZM256.223 197C256.031 197 255.903 196.968 255.839 196.904C255.775 196.829 255.743 196.733 255.743 196.616C255.743 196.477 255.786 196.365 255.871 196.28C255.967 196.195 256.138 196.152 256.383 196.152H257.823V186.504H256.383C256.138 186.504 255.967 186.461 255.871 186.376C255.786 186.291 255.743 186.179 255.743 186.04C255.743 185.923 255.775 185.832 255.839 185.768C255.903 185.693 256.031 185.656 256.223 185.656H261.151C261.343 185.656 261.471 185.693 261.535 185.768C261.599 185.832 261.631 185.923 261.631 186.04C261.631 186.179 261.583 186.291 261.487 186.376C261.402 186.461 261.237 186.504 260.991 186.504H259.551V196.152H260.991C261.237 196.152 261.402 196.195 261.487 196.28C261.583 196.365 261.631 196.477 261.631 196.616C261.631 196.733 261.599 196.829 261.535 196.904C261.471 196.968 261.343 197 261.151 197H256.223ZM269.619 196.04C269.619 196.403 269.539 196.653 269.379 196.792C269.229 196.931 268.979 197 268.627 197C268.381 197 268.195 196.936 268.067 196.808C267.949 196.68 267.891 196.477 267.891 196.2V186.504H265.491V187.64C265.491 188.013 265.411 188.28 265.251 188.44C265.101 188.6 264.872 188.68 264.563 188.68C264.328 188.68 264.152 188.616 264.035 188.488C263.928 188.36 263.875 188.157 263.875 187.88V186.248C263.875 186.024 263.949 185.869 264.099 185.784C264.259 185.699 264.504 185.656 264.835 185.656H272.675C273.005 185.656 273.245 185.699 273.395 185.784C273.555 185.869 273.635 186.024 273.635 186.248V187.88C273.635 188.157 273.576 188.36 273.459 188.488C273.352 188.616 273.181 188.68 272.947 188.68C272.637 188.68 272.403 188.6 272.243 188.44C272.093 188.28 272.019 188.013 272.019 187.64V186.504H269.619V196.04ZM280.005 197C279.504 197 279.253 196.733 279.253 196.2V192.712L276.101 186.616C276.037 186.467 276.005 186.333 276.005 186.216C276.005 186.056 276.059 185.923 276.165 185.816C276.272 185.709 276.411 185.656 276.581 185.656C276.859 185.656 277.093 185.715 277.285 185.832C277.477 185.949 277.653 186.168 277.813 186.488L280.357 191.512H280.421L282.821 186.504C283.088 185.939 283.413 185.656 283.797 185.656C283.947 185.656 284.059 185.709 284.133 185.816C284.208 185.912 284.245 186.035 284.245 186.184C284.245 186.312 284.219 186.429 284.165 186.536L280.981 192.712V196.04C280.981 196.413 280.901 196.669 280.741 196.808C280.592 196.936 280.347 197 280.005 197ZM302 185.656C302.245 185.656 302.427 185.72 302.544 185.848C302.672 185.976 302.736 186.179 302.736 186.456V196.2C302.736 196.488 302.683 196.696 302.576 196.824C302.469 196.941 302.288 197 302.032 197C301.701 197 301.445 196.899 301.264 196.696C301.093 196.483 301.008 196.173 301.008 195.768V191.576H295.792V195.96C295.792 196.333 295.712 196.6 295.552 196.76C295.392 196.92 295.141 197 294.8 197C294.555 197 294.368 196.936 294.24 196.808C294.123 196.68 294.064 196.477 294.064 196.2V186.456C294.064 186.168 294.117 185.965 294.224 185.848C294.331 185.72 294.512 185.656 294.768 185.656C295.099 185.656 295.349 185.763 295.52 185.976C295.701 186.179 295.792 186.483 295.792 186.888V190.696H301.008V186.696C301.008 186.323 301.088 186.056 301.248 185.896C301.408 185.736 301.659 185.656 302 185.656ZM307.587 196.152C307.459 196.493 307.31 196.723 307.139 196.84C306.979 196.947 306.803 197 306.611 197C306.462 197 306.35 196.963 306.275 196.888C306.211 196.803 306.179 196.696 306.179 196.568C306.179 196.44 306.206 196.307 306.259 196.168L310.019 186.04C310.062 185.923 310.163 185.832 310.323 185.768C310.494 185.693 310.686 185.656 310.899 185.656C311.134 185.656 311.342 185.693 311.523 185.768C311.715 185.843 311.832 185.949 311.875 186.088L315.539 196.232C315.56 196.339 315.571 196.419 315.571 196.472C315.571 196.621 315.518 196.749 315.411 196.856C315.315 196.952 315.16 197 314.947 197C314.723 197 314.494 196.941 314.259 196.824C314.035 196.707 313.864 196.483 313.747 196.152L312.899 193.96H308.403L307.587 196.152ZM310.723 187.544H310.627L308.659 193.128H312.659L310.723 187.544ZM325.302 194.008C325.537 194.008 325.707 194.072 325.814 194.2C325.931 194.328 325.99 194.531 325.99 194.808V196.488C325.99 196.669 325.91 196.803 325.75 196.888C325.59 196.963 325.35 197 325.03 197H319.75C319.505 197 319.318 196.936 319.19 196.808C319.073 196.68 319.014 196.477 319.014 196.2V186.456C319.014 186.168 319.067 185.965 319.174 185.848C319.281 185.72 319.462 185.656 319.718 185.656C320.049 185.656 320.299 185.763 320.47 185.976C320.651 186.179 320.742 186.483 320.742 186.888V196.152H324.374V195.048C324.374 194.675 324.449 194.408 324.598 194.248C324.758 194.088 324.993 194.008 325.302 194.008ZM336.043 194.008C336.277 194.008 336.448 194.072 336.555 194.2C336.672 194.328 336.731 194.531 336.731 194.808V196.488C336.731 196.669 336.651 196.803 336.491 196.888C336.331 196.963 336.091 197 335.771 197H330.491C330.245 197 330.059 196.936 329.931 196.808C329.813 196.68 329.755 196.477 329.755 196.2V186.456C329.755 186.168 329.808 185.965 329.915 185.848C330.021 185.72 330.203 185.656 330.459 185.656C330.789 185.656 331.04 185.763 331.211 185.976C331.392 186.179 331.483 186.483 331.483 186.888V196.152H335.115V195.048C335.115 194.675 335.189 194.408 335.339 194.248C335.499 194.088 335.733 194.008 336.043 194.008ZM337.621 185.592C337.621 185.432 337.706 185.315 337.877 185.24C338.048 185.155 338.277 185.112 338.565 185.112C338.842 185.112 339.072 185.155 339.253 185.24C339.434 185.325 339.525 185.443 339.525 185.592L338.997 188.76C338.986 188.835 338.938 188.893 338.853 188.936C338.768 188.968 338.672 188.984 338.565 188.984C338.458 188.984 338.362 188.963 338.277 188.92C338.192 188.877 338.144 188.824 338.133 188.76L337.621 185.592ZM340.421 185.592C340.421 185.432 340.506 185.315 340.677 185.24C340.858 185.155 341.088 185.112 341.365 185.112C341.642 185.112 341.872 185.155 342.053 185.24C342.234 185.325 342.325 185.443 342.325 185.592L341.797 188.76C341.786 188.835 341.738 188.893 341.653 188.936C341.568 188.968 341.472 188.984 341.365 188.984C341.258 188.984 341.162 188.963 341.077 188.92C340.992 188.877 340.944 188.824 340.933 188.76L340.421 185.592Z" fill="#064E3B"/>
</svg>
