<svg width="472" height="200" viewBox="0 0 472 200" fill="none" xmlns="http://www.w3.org/2000/svg">
<path d="M223.248 17C222.528 17 222.168 16.538 222.168 15.614V6.902H222.042L218.334 16.334C218.154 16.778 217.902 17 217.578 17C217.242 17 216.984 16.778 216.804 16.334L213.348 6.902H213.222V15.992C213.222 16.34 213.144 16.598 212.988 16.766C212.844 16.922 212.676 17 212.484 17C212.292 17 212.13 16.934 211.998 16.802C211.866 16.67 211.8 16.466 211.8 16.19V5.192C211.8 4.892 211.914 4.658 212.142 4.49C212.37 4.322 212.64 4.238 212.952 4.238C213.216 4.238 213.474 4.31 213.726 4.454C213.99 4.586 214.182 4.802 214.302 5.102L217.758 14.66H217.848L221.61 5.192C221.73 4.856 221.922 4.616 222.186 4.472C222.462 4.316 222.756 4.238 223.068 4.238C223.38 4.238 223.608 4.316 223.752 4.472C223.908 4.628 223.986 4.868 223.986 5.192V16.1C223.986 16.436 223.932 16.67 223.824 16.802C223.716 16.934 223.524 17 223.248 17ZM228.125 16.046C227.981 16.43 227.813 16.688 227.621 16.82C227.441 16.94 227.243 17 227.027 17C226.859 17 226.733 16.958 226.649 16.874C226.577 16.778 226.541 16.658 226.541 16.514C226.541 16.37 226.571 16.22 226.631 16.064L230.861 4.67C230.909 4.538 231.023 4.436 231.203 4.364C231.395 4.28 231.611 4.238 231.851 4.238C232.115 4.238 232.349 4.28 232.553 4.364C232.769 4.448 232.901 4.568 232.949 4.724L237.071 16.136C237.095 16.256 237.107 16.346 237.107 16.406C237.107 16.574 237.047 16.718 236.927 16.838C236.819 16.946 236.645 17 236.405 17C236.153 17 235.895 16.934 235.631 16.802C235.379 16.67 235.187 16.418 235.055 16.046L234.101 13.58H229.043L228.125 16.046ZM231.653 6.362H231.545L229.331 12.644H233.831L231.653 6.362ZM241.676 15.83C241.676 16.25 241.586 16.55 241.406 16.73C241.226 16.91 240.944 17 240.56 17C240.284 17 240.074 16.928 239.93 16.784C239.798 16.64 239.732 16.412 239.732 16.1V5.138C239.732 4.814 239.792 4.586 239.912 4.454C240.032 4.31 240.236 4.238 240.524 4.238H243.53C244.274 4.238 244.988 4.31 245.672 4.454C246.368 4.598 246.998 4.946 247.562 5.498C248.126 6.038 248.408 6.86 248.408 7.964C248.408 8.732 248.228 9.428 247.868 10.052C247.508 10.664 246.962 11.15 246.23 11.51C245.51 11.87 244.616 12.05 243.548 12.05H241.676V15.83ZM241.676 11.096H243.53C244.43 11.096 245.126 10.844 245.618 10.34C246.122 9.824 246.374 9.032 246.374 7.964C246.374 7.076 246.152 6.392 245.708 5.912C245.276 5.432 244.55 5.192 243.53 5.192H241.676V11.096ZM256.215 15.92C256.215 16.328 256.125 16.61 255.945 16.766C255.777 16.922 255.495 17 255.099 17C254.823 17 254.613 16.928 254.469 16.784C254.337 16.64 254.271 16.412 254.271 16.1V5.192H251.571V6.47C251.571 6.89 251.481 7.19 251.301 7.37C251.133 7.55 250.875 7.64 250.527 7.64C250.263 7.64 250.065 7.568 249.933 7.424C249.813 7.28 249.753 7.052 249.753 6.74V4.904C249.753 4.652 249.837 4.478 250.005 4.382C250.185 4.286 250.461 4.238 250.833 4.238H259.653C260.025 4.238 260.295 4.286 260.463 4.382C260.643 4.478 260.733 4.652 260.733 4.904V6.74C260.733 7.052 260.667 7.28 260.535 7.424C260.415 7.568 260.223 7.64 259.959 7.64C259.611 7.64 259.347 7.55 259.167 7.37C258.999 7.19 258.915 6.89 258.915 6.47V5.192H256.215V15.92Z" fill="#064E3B"/>
<path d="M214.595 97.09C214.331 97.09 214.133 97.018 214.001 96.874C213.881 96.73 213.821 96.502 213.821 96.19V95.11C213.821 94.906 213.845 94.756 213.893 94.66C213.953 94.564 214.067 94.462 214.235 94.354C214.847 93.946 215.435 93.658 215.999 93.49C216.575 93.322 217.199 93.238 217.871 93.238C219.059 93.238 219.935 93.544 220.499 94.156C221.075 94.756 221.363 95.518 221.363 96.442C221.363 97.606 220.895 98.866 219.959 100.222C219.035 101.566 217.415 103.174 215.099 105.046H219.797V103.93C219.797 103.51 219.875 103.21 220.031 103.03C220.199 102.85 220.439 102.76 220.751 102.76C221.015 102.76 221.207 102.832 221.327 102.976C221.459 103.12 221.525 103.348 221.525 103.66V105.424C221.525 105.628 221.435 105.778 221.255 105.874C221.075 105.958 220.805 106 220.445 106H214.055C213.911 106 213.797 105.952 213.713 105.856C213.641 105.76 213.605 105.64 213.605 105.496C213.605 105.244 213.695 105.04 213.875 104.884L214.127 104.65C216.203 102.718 217.589 101.11 218.285 99.826C218.981 98.53 219.329 97.492 219.329 96.712C219.329 96.028 219.179 95.434 218.879 94.93C218.591 94.414 218.063 94.156 217.295 94.156C216.719 94.156 216.137 94.312 215.549 94.624V95.92C215.549 96.352 215.477 96.658 215.333 96.838C215.189 97.006 214.943 97.09 214.595 97.09ZM227.089 99.628C227.089 97.72 227.419 96.178 228.079 95.002C228.739 93.826 229.795 93.238 231.247 93.238C232.699 93.238 233.755 93.826 234.415 95.002C235.075 96.178 235.405 97.72 235.405 99.628C235.405 101.596 235.075 103.15 234.415 104.29C233.767 105.43 232.711 106 231.247 106C229.783 106 228.721 105.43 228.061 104.29C227.413 103.15 227.089 101.596 227.089 99.628ZM233.425 99.628C233.425 98.032 233.281 96.724 232.993 95.704C232.705 94.672 232.123 94.156 231.247 94.156C230.371 94.156 229.789 94.672 229.501 95.704C229.213 96.724 229.069 98.032 229.069 99.628C229.069 100.72 229.117 101.656 229.213 102.436C229.309 103.204 229.513 103.84 229.825 104.344C230.149 104.836 230.623 105.082 231.247 105.082C231.871 105.082 232.339 104.836 232.651 104.344C232.975 103.84 233.185 103.204 233.281 102.436C233.377 101.656 233.425 100.72 233.425 99.628ZM241.598 97.09C241.334 97.09 241.136 97.018 241.004 96.874C240.884 96.73 240.824 96.502 240.824 96.19V95.11C240.824 94.906 240.848 94.756 240.896 94.66C240.956 94.564 241.07 94.462 241.238 94.354C241.85 93.946 242.438 93.658 243.002 93.49C243.578 93.322 244.202 93.238 244.874 93.238C246.062 93.238 246.938 93.544 247.502 94.156C248.078 94.756 248.366 95.518 248.366 96.442C248.366 97.606 247.898 98.866 246.962 100.222C246.038 101.566 244.418 103.174 242.102 105.046H246.8V103.93C246.8 103.51 246.878 103.21 247.034 103.03C247.202 102.85 247.442 102.76 247.754 102.76C248.018 102.76 248.21 102.832 248.33 102.976C248.462 103.12 248.528 103.348 248.528 103.66V105.424C248.528 105.628 248.438 105.778 248.258 105.874C248.078 105.958 247.808 106 247.448 106H241.058C240.914 106 240.8 105.952 240.716 105.856C240.644 105.76 240.608 105.64 240.608 105.496C240.608 105.244 240.698 105.04 240.878 104.884L241.13 104.65C243.206 102.718 244.592 101.11 245.288 99.826C245.984 98.53 246.332 97.492 246.332 96.712C246.332 96.028 246.182 95.434 245.882 94.93C245.594 94.414 245.066 94.156 244.298 94.156C243.722 94.156 243.14 94.312 242.552 94.624V95.92C242.552 96.352 242.48 96.658 242.336 96.838C242.192 97.006 241.946 97.09 241.598 97.09ZM254.794 102.166C255.142 102.166 255.388 102.256 255.532 102.436C255.676 102.604 255.748 102.904 255.748 103.336V104.632C256.264 104.932 256.876 105.082 257.584 105.082C258.292 105.082 258.874 104.86 259.33 104.416C259.798 103.96 260.032 103.282 260.032 102.382C260.032 101.434 259.804 100.774 259.348 100.402C258.892 100.03 258.238 99.844 257.386 99.844H256.864C256.78 99.844 256.708 99.796 256.648 99.7C256.6 99.604 256.576 99.49 256.576 99.358C256.576 99.226 256.6 99.112 256.648 99.016C256.708 98.908 256.78 98.854 256.864 98.854H257.386C258.154 98.854 258.724 98.65 259.096 98.242C259.468 97.822 259.654 97.186 259.654 96.334C259.654 95.59 259.468 95.044 259.096 94.696C258.724 94.336 258.226 94.156 257.602 94.156C257.326 94.156 257.038 94.198 256.738 94.282C256.438 94.354 256.168 94.456 255.928 94.588V95.884C255.928 96.316 255.856 96.622 255.712 96.802C255.568 96.97 255.322 97.054 254.974 97.054C254.71 97.054 254.512 96.982 254.38 96.838C254.26 96.694 254.2 96.466 254.2 96.154V95.074C254.2 94.858 254.23 94.696 254.29 94.588C254.35 94.468 254.458 94.36 254.614 94.264C255.178 93.904 255.73 93.646 256.27 93.49C256.822 93.322 257.416 93.238 258.052 93.238C259.264 93.238 260.164 93.52 260.752 94.084C261.34 94.648 261.634 95.398 261.634 96.334C261.634 97.078 261.412 97.702 260.968 98.206C260.536 98.71 260.002 99.028 259.366 99.16V99.322C260.17 99.43 260.818 99.73 261.31 100.222C261.802 100.714 262.048 101.428 262.048 102.364C262.048 103.096 261.868 103.738 261.508 104.29C261.16 104.83 260.662 105.25 260.014 105.55C259.378 105.85 258.64 106 257.8 106C256.612 106 255.49 105.688 254.434 105.064C254.158 104.896 254.02 104.59 254.02 104.146V103.066C254.02 102.754 254.08 102.526 254.2 102.382C254.332 102.238 254.53 102.166 254.794 102.166Z" fill="#064E3B"/>
<path d="M223.75 48.06C223.51 48.16 223.27 48.21 223.03 48.21C222.79 48.21 222.6 48.12 222.46 47.94C222.32 47.76 222.25 47.56 222.25 47.34C222.25 47.04 222.46 46.82 222.88 46.68L227.11 45.03C227.65 44.83 228.19 44.73 228.73 44.73C229.27 44.73 229.66 44.85 229.9 45.09C230.14 45.33 230.26 45.71 230.26 46.23V64.41H232.84C233.3 64.41 233.61 64.49 233.77 64.65C233.95 64.81 234.04 65.02 234.04 65.28C234.04 65.5 233.98 65.68 233.86 65.82C233.74 65.94 233.5 66 233.14 66H224.2C223.84 66 223.6 65.94 223.48 65.82C223.36 65.68 223.3 65.5 223.3 65.28C223.3 65.02 223.38 64.81 223.54 64.65C223.72 64.49 224.04 64.41 224.5 64.41H227.08V46.8L223.75 48.06ZM239.148 60.84C239.728 60.84 240.138 60.98 240.378 61.26C240.618 61.54 240.738 62.02 240.738 62.7V64.17C241.218 64.37 241.868 64.47 242.688 64.47C243.428 64.47 244.128 64.22 244.788 63.72C245.468 63.22 246.018 62.4 246.438 61.26C246.878 60.1 247.098 58.61 247.098 56.79V55.53C246.658 56.45 246.028 57.12 245.208 57.54C244.408 57.96 243.548 58.17 242.628 58.17C240.868 58.17 239.508 57.57 238.548 56.37C237.588 55.17 237.108 53.59 237.108 51.63C237.108 50.21 237.388 48.98 237.948 47.94C238.508 46.9 239.288 46.11 240.288 45.57C241.288 45.01 242.418 44.73 243.678 44.73C245.458 44.73 246.838 45.14 247.818 45.96C248.798 46.78 249.458 47.86 249.798 49.2C250.138 50.52 250.308 52.11 250.308 53.97C250.308 61.99 247.778 66 242.718 66C242.018 66 241.388 65.95 240.828 65.85C240.268 65.73 239.688 65.56 239.088 65.34C238.708 65.2 238.408 65.02 238.188 64.8C237.968 64.58 237.858 64.25 237.858 63.81V62.28C237.858 61.32 238.288 60.84 239.148 60.84ZM243.498 56.25C244.438 56.25 245.228 55.83 245.868 54.99C246.528 54.13 246.858 52.96 246.858 51.48C246.858 50.08 246.638 48.86 246.198 47.82C245.758 46.78 244.948 46.26 243.768 46.26C242.728 46.26 241.898 46.7 241.278 47.58C240.678 48.46 240.378 49.82 240.378 51.66C240.378 54.72 241.418 56.25 243.498 56.25Z" fill="#064E3B"/>
<path d="M33.8375 50.456C33.8375 50.1787 33.8962 49.976 34.0135 49.848C34.1415 49.72 34.3282 49.656 34.5735 49.656H37.8535C40.2215 49.656 41.4055 50.6053 41.4055 52.504C41.4055 53.0373 41.2402 53.5387 40.9095 54.008C40.5895 54.4667 40.1522 54.7653 39.5975 54.904V54.984C40.4082 55.1227 41.0108 55.432 41.4055 55.912C41.8002 56.3813 41.9975 56.9467 41.9975 57.608C41.9975 58.8987 41.5762 59.7893 40.7335 60.28C39.9015 60.76 38.9682 61 37.9335 61H34.5735C34.3282 61 34.1415 60.936 34.0135 60.808C33.8962 60.68 33.8375 60.4773 33.8375 60.2V50.456ZM35.5655 54.632H37.4055C37.7468 54.632 38.0828 54.5627 38.4135 54.424C38.7548 54.2747 39.0375 54.04 39.2615 53.72C39.4855 53.3893 39.5975 52.968 39.5975 52.456C39.5975 51.7627 39.3575 51.2667 38.8775 50.968C38.3975 50.6587 37.8642 50.504 37.2775 50.504H35.5655V54.632ZM35.5655 60.152H37.7095C38.3388 60.152 38.9095 59.9707 39.4215 59.608C39.9335 59.2347 40.1895 58.6213 40.1895 57.768C40.1895 57.2347 40.0562 56.7973 39.7895 56.456C39.5228 56.1147 39.1868 55.8693 38.7815 55.72C38.3762 55.56 37.9655 55.48 37.5495 55.48H35.5655V60.152ZM56.2043 55.336C56.2043 56.136 56.0816 56.9573 55.8363 57.8C55.6016 58.6427 55.1216 59.3893 54.3963 60.04C53.6709 60.68 52.6416 61 51.3083 61C49.9749 61 48.9456 60.68 48.2203 60.04C47.5056 59.3893 47.0309 58.6427 46.7963 57.8C46.5616 56.9573 46.4443 56.136 46.4443 55.336C46.4443 54.536 46.5616 53.7147 46.7963 52.872C47.0309 52.0293 47.5056 51.2827 48.2203 50.632C48.9456 49.9813 49.9749 49.656 51.3083 49.656C52.6416 49.656 53.6709 49.9813 54.3963 50.632C55.1216 51.2827 55.6016 52.0347 55.8363 52.888C56.0816 53.7307 56.2043 54.5467 56.2043 55.336ZM54.3963 55.336C54.3963 54.0987 54.1883 52.9787 53.7723 51.976C53.3563 50.9733 52.5349 50.472 51.3083 50.472C50.1029 50.472 49.2923 50.9733 48.8763 51.976C48.4603 52.9787 48.2523 54.0987 48.2523 55.336C48.2523 56.5627 48.4603 57.6773 48.8763 58.68C49.2923 59.6827 50.1029 60.184 51.3083 60.184C52.5349 60.184 53.3563 59.688 53.7723 58.696C54.1883 57.6933 54.3963 56.5733 54.3963 55.336ZM67.7374 52.536C67.428 52.536 67.1934 52.456 67.0334 52.296C66.884 52.136 66.8094 51.8693 66.8094 51.496V50.6C66.4147 50.5147 66.0254 50.472 65.6414 50.472C64.628 50.472 63.8227 50.8987 63.2254 51.752C62.6387 52.5947 62.3454 53.832 62.3454 55.464C62.3454 57.2027 62.6334 58.424 63.2094 59.128C63.7854 59.8213 64.6334 60.168 65.7534 60.168C66.4147 60.168 67.1134 60.0133 67.8494 59.704L68.1534 59.576C68.2174 59.5547 68.26 59.544 68.2814 59.544C68.388 59.544 68.4787 59.5973 68.5534 59.704C68.628 59.8 68.6654 59.9067 68.6654 60.024C68.6654 60.1733 68.596 60.28 68.4574 60.344L68.1854 60.456C67.748 60.6373 67.3054 60.776 66.8574 60.872C66.42 60.9573 65.9027 61 65.3054 61C63.684 61 62.484 60.52 61.7054 59.56C60.9267 58.5893 60.5374 57.2133 60.5374 55.432C60.5374 54.1413 60.7454 53.064 61.1614 52.2C61.588 51.336 62.1694 50.696 62.9054 50.28C63.6414 49.864 64.484 49.656 65.4334 49.656C66.2867 49.656 67.0654 49.768 67.7694 49.992C68.0254 50.0773 68.196 50.1733 68.2814 50.28C68.3774 50.376 68.4254 50.5413 68.4254 50.776V51.736C68.4254 52.0133 68.3667 52.216 68.2494 52.344C68.1427 52.472 67.972 52.536 67.7374 52.536ZM75.2903 54.776L79.9943 49.976C80.1969 49.7627 80.4103 49.656 80.6343 49.656C80.7943 49.656 80.9276 49.7093 81.0343 49.816C81.1516 49.9227 81.2103 50.04 81.2103 50.168C81.2103 50.2427 81.1836 50.3067 81.1303 50.36L76.5703 54.872L81.1783 59.944C81.3276 60.1147 81.4023 60.2693 81.4023 60.408C81.4023 60.568 81.3383 60.7067 81.2103 60.824C81.0929 60.9413 80.9383 61 80.7463 61C80.5009 61 80.2663 60.9467 80.0423 60.84C79.8289 60.7333 79.5836 60.5253 79.3063 60.216L75.2903 55.656H74.9543V59.96C74.9543 60.3333 74.8743 60.6 74.7143 60.76C74.5543 60.92 74.3036 61 73.9623 61C73.7169 61 73.5303 60.936 73.4023 60.808C73.2849 60.68 73.2263 60.4773 73.2263 60.2V50.456C73.2263 50.168 73.2796 49.9653 73.3863 49.848C73.4929 49.72 73.6743 49.656 73.9303 49.656C74.2609 49.656 74.5116 49.7627 74.6823 49.976C74.8636 50.1787 74.9543 50.4827 74.9543 50.888V54.776H75.2903ZM87.2974 59.96C87.2974 60.3333 87.2174 60.6 87.0574 60.76C86.8974 60.92 86.6467 61 86.3054 61C86.06 61 85.8734 60.936 85.7454 60.808C85.628 60.68 85.5694 60.4773 85.5694 60.2V50.456C85.5694 50.168 85.6227 49.9653 85.7294 49.848C85.836 49.72 86.0174 49.656 86.2734 49.656H88.9454C89.6067 49.656 90.2414 49.72 90.8494 49.848C91.468 49.976 92.028 50.2853 92.5294 50.776C93.0307 51.256 93.2814 51.9867 93.2814 52.968C93.2814 53.6507 93.1214 54.2693 92.8014 54.824C92.4814 55.368 91.996 55.8 91.3454 56.12C90.7054 56.44 89.9107 56.6 88.9614 56.6H87.2974V59.96ZM87.2974 55.752H88.9454C89.7454 55.752 90.364 55.528 90.8014 55.08C91.2494 54.6213 91.4734 53.9173 91.4734 52.968C91.4734 52.1787 91.276 51.5707 90.8814 51.144C90.4974 50.7173 89.852 50.504 88.9454 50.504H87.2974V55.752ZM104.532 52.44C104.223 52.44 103.988 52.36 103.828 52.2C103.679 52.04 103.604 51.7733 103.604 51.4V50.504H99.8124V54.696H103.172C103.311 54.696 103.418 54.744 103.492 54.84C103.578 54.9253 103.62 55.0267 103.62 55.144C103.62 55.2507 103.572 55.352 103.476 55.448C103.38 55.5333 103.279 55.576 103.172 55.576H99.8124V60.152H103.844V59.256C103.844 58.8827 103.919 58.616 104.068 58.456C104.228 58.296 104.463 58.216 104.772 58.216C105.007 58.216 105.178 58.28 105.284 58.408C105.402 58.536 105.46 58.7387 105.46 59.016V60.408C105.46 60.632 105.38 60.7867 105.22 60.872C105.071 60.9573 104.831 61 104.5 61H98.8204C98.575 61 98.3884 60.936 98.2604 60.808C98.143 60.68 98.0844 60.4773 98.0844 60.2V50.456C98.0844 50.1787 98.143 49.976 98.2604 49.848C98.3884 49.72 98.575 49.656 98.8204 49.656H104.26C104.591 49.656 104.831 49.6987 104.98 49.784C105.14 49.8693 105.22 50.024 105.22 50.248V51.64C105.22 51.9173 105.162 52.12 105.044 52.248C104.938 52.376 104.767 52.44 104.532 52.44ZM116.782 52.536C116.472 52.536 116.238 52.456 116.078 52.296C115.928 52.136 115.854 51.8693 115.854 51.496V50.6C115.459 50.5147 115.07 50.472 114.686 50.472C113.672 50.472 112.867 50.8987 112.27 51.752C111.683 52.5947 111.39 53.832 111.39 55.464C111.39 57.2027 111.678 58.424 112.254 59.128C112.83 59.8213 113.678 60.168 114.798 60.168C115.459 60.168 116.158 60.0133 116.894 59.704L117.198 59.576C117.262 59.5547 117.304 59.544 117.326 59.544C117.432 59.544 117.523 59.5973 117.598 59.704C117.672 59.8 117.71 59.9067 117.71 60.024C117.71 60.1733 117.64 60.28 117.502 60.344L117.23 60.456C116.792 60.6373 116.35 60.776 115.902 60.872C115.464 60.9573 114.947 61 114.35 61C112.728 61 111.528 60.52 110.75 59.56C109.971 58.5893 109.582 57.2133 109.582 55.432C109.582 54.1413 109.79 53.064 110.206 52.2C110.632 51.336 111.214 50.696 111.95 50.28C112.686 49.864 113.528 49.656 114.478 49.656C115.331 49.656 116.11 49.768 116.814 49.992C117.07 50.0773 117.24 50.1733 117.326 50.28C117.422 50.376 117.47 50.5413 117.47 50.776V51.736C117.47 52.0133 117.411 52.216 117.294 52.344C117.187 52.472 117.016 52.536 116.782 52.536ZM128.719 52.44C128.409 52.44 128.175 52.36 128.015 52.2C127.865 52.04 127.791 51.7733 127.791 51.4V50.504H123.999V54.696H127.359C127.497 54.696 127.604 54.744 127.679 54.84C127.764 54.9253 127.807 55.0267 127.807 55.144C127.807 55.2507 127.759 55.352 127.663 55.448C127.567 55.5333 127.465 55.576 127.359 55.576H123.999V60.152H128.031V59.256C128.031 58.8827 128.105 58.616 128.255 58.456C128.415 58.296 128.649 58.216 128.959 58.216C129.193 58.216 129.364 58.28 129.471 58.408C129.588 58.536 129.647 58.7387 129.647 59.016V60.408C129.647 60.632 129.567 60.7867 129.407 60.872C129.257 60.9573 129.017 61 128.687 61H123.007C122.761 61 122.575 60.936 122.447 60.808C122.329 60.68 122.271 60.4773 122.271 60.2V50.456C122.271 50.1787 122.329 49.976 122.447 49.848C122.575 49.72 122.761 49.656 123.007 49.656H128.447C128.777 49.656 129.017 49.6987 129.167 49.784C129.327 49.8693 129.407 50.024 129.407 50.248V51.64C129.407 51.9173 129.348 52.12 129.231 52.248C129.124 52.376 128.953 52.44 128.719 52.44ZM142.456 49.656C142.701 49.656 142.883 49.72 143 49.848C143.128 49.976 143.192 50.1787 143.192 50.456V60.2C143.192 60.488 143.139 60.696 143.032 60.824C142.925 60.9413 142.744 61 142.488 61C142.157 61 141.901 60.8987 141.72 60.696C141.549 60.4827 141.464 60.1733 141.464 59.768V55.576H136.248V59.96C136.248 60.3333 136.168 60.6 136.008 60.76C135.848 60.92 135.597 61 135.256 61C135.011 61 134.824 60.936 134.696 60.808C134.579 60.68 134.52 60.4773 134.52 60.2V50.456C134.52 50.168 134.573 49.9653 134.68 49.848C134.787 49.72 134.968 49.656 135.224 49.656C135.555 49.656 135.805 49.7627 135.976 49.976C136.157 50.1787 136.248 50.4827 136.248 50.888V54.696H141.464V50.696C141.464 50.3227 141.544 50.056 141.704 49.896C141.864 49.736 142.115 49.656 142.456 49.656ZM152.683 54.168C153.963 54.168 154.939 54.424 155.611 54.936C156.294 55.4373 156.635 56.312 156.635 57.56C156.635 58.8613 156.219 59.7627 155.387 60.264C154.555 60.7547 153.643 61 152.651 61H149.771C149.526 61 149.339 60.936 149.211 60.808C149.094 60.68 149.035 60.4773 149.035 60.2V50.456C149.035 50.168 149.088 49.9653 149.195 49.848C149.302 49.72 149.483 49.656 149.739 49.656C150.07 49.656 150.32 49.7627 150.491 49.976C150.672 50.1787 150.763 50.4827 150.763 50.888V54.168H152.683ZM150.747 60.152H152.443C153.094 60.152 153.654 59.96 154.123 59.576C154.592 59.1813 154.827 58.5093 154.827 57.56C154.827 56.6213 154.614 55.9653 154.187 55.592C153.771 55.208 153.163 55.016 152.363 55.016H150.747V60.152ZM168.201 52.44C167.892 52.44 167.657 52.36 167.497 52.2C167.348 52.04 167.273 51.7733 167.273 51.4V50.504H163.481V54.696H166.841C166.98 54.696 167.086 54.744 167.161 54.84C167.246 54.9253 167.289 55.0267 167.289 55.144C167.289 55.2507 167.241 55.352 167.145 55.448C167.049 55.5333 166.948 55.576 166.841 55.576H163.481V60.152H167.513V59.256C167.513 58.8827 167.588 58.616 167.737 58.456C167.897 58.296 168.132 58.216 168.441 58.216C168.676 58.216 168.846 58.28 168.953 58.408C169.07 58.536 169.129 58.7387 169.129 59.016V60.408C169.129 60.632 169.049 60.7867 168.889 60.872C168.74 60.9573 168.5 61 168.169 61H162.489C162.244 61 162.057 60.936 161.929 60.808C161.812 60.68 161.753 60.4773 161.753 60.2V50.456C161.753 50.1787 161.812 49.976 161.929 49.848C162.057 49.72 162.244 49.656 162.489 49.656H167.929C168.26 49.656 168.5 49.6987 168.649 49.784C168.809 49.8693 168.889 50.024 168.889 50.248V51.64C168.889 51.9173 168.83 52.12 168.713 52.248C168.606 52.376 168.436 52.44 168.201 52.44Z" fill="#064E3B"/>
<line y1="36" x2="200" y2="36" stroke="#064E3B" stroke-width="2"/>
<line y1="72" x2="200" y2="72" stroke="#064E3B" stroke-width="2"/>
<path d="M351.072 51.432C350.944 51.4853 350.816 51.512 350.688 51.512C350.56 51.512 350.458 51.464 350.384 51.368C350.309 51.272 350.272 51.1653 350.272 51.048C350.272 50.888 350.384 50.7707 350.608 50.696L352.864 49.816C353.152 49.7093 353.44 49.656 353.728 49.656C354.016 49.656 354.224 49.72 354.352 49.848C354.48 49.976 354.544 50.1787 354.544 50.456V60.152H355.92C356.165 60.152 356.33 60.1947 356.416 60.28C356.512 60.3653 356.56 60.4773 356.56 60.616C356.56 60.7333 356.528 60.8293 356.464 60.904C356.4 60.968 356.272 61 356.08 61H351.312C351.12 61 350.992 60.968 350.928 60.904C350.864 60.8293 350.832 60.7333 350.832 60.616C350.832 60.4773 350.874 60.3653 350.96 60.28C351.056 60.1947 351.226 60.152 351.472 60.152H352.848V50.76L351.072 51.432ZM366.948 52.408C366.639 52.408 366.42 52.3333 366.292 52.184C366.164 52.0347 366.1 51.7787 366.1 51.416V50.632C365.844 50.5253 365.513 50.472 365.108 50.472C364.703 50.472 364.319 50.6 363.956 50.856C363.604 51.1013 363.305 51.5333 363.06 52.152C362.825 52.76 362.708 53.5653 362.708 54.568V55.24C362.943 54.7493 363.279 54.392 363.716 54.168C364.153 53.944 364.617 53.832 365.108 53.832C366.047 53.832 366.767 54.1467 367.268 54.776C367.78 55.3947 368.036 56.2267 368.036 57.272C368.036 58.04 367.892 58.7067 367.604 59.272C367.327 59.8267 366.932 60.2533 366.42 60.552C365.908 60.8507 365.316 61 364.644 61C363.268 61 362.313 60.536 361.78 59.608C361.257 58.68 360.996 57.464 360.996 55.96C360.996 53.56 361.364 51.912 362.1 51.016C362.836 50.1093 363.817 49.656 365.044 49.656C365.417 49.656 365.753 49.688 366.052 49.752C366.351 49.8053 366.66 49.8907 366.98 50.008C367.183 50.0827 367.343 50.1787 367.46 50.296C367.577 50.4133 367.636 50.5893 367.636 50.824V51.64C367.636 52.152 367.407 52.408 366.948 52.408ZM364.644 54.856C364.143 54.856 363.716 55.0853 363.364 55.544C363.012 55.992 362.836 56.6107 362.836 57.4C362.836 58.1147 362.969 58.76 363.236 59.336C363.513 59.9013 363.967 60.184 364.596 60.184C365.14 60.184 365.556 59.9493 365.844 59.48C366.143 59 366.292 58.2587 366.292 57.256C366.292 56.4133 366.148 55.8053 365.86 55.432C365.583 55.048 365.177 54.856 364.644 54.856ZM372.28 54.344C372.28 53.9707 372.398 53.6667 372.632 53.432C372.867 53.1973 373.155 53.08 373.496 53.08C373.838 53.08 374.126 53.2027 374.36 53.448C374.595 53.6827 374.712 53.9813 374.712 54.344C374.712 54.696 374.595 54.9893 374.36 55.224C374.126 55.4587 373.838 55.576 373.496 55.576C373.155 55.576 372.867 55.4587 372.632 55.224C372.398 54.9893 372.28 54.696 372.28 54.344ZM372.28 59.768C372.28 59.3947 372.398 59.0907 372.632 58.856C372.867 58.6213 373.155 58.504 373.496 58.504C373.838 58.504 374.126 58.6267 374.36 58.872C374.595 59.1067 374.712 59.4053 374.712 59.768C374.712 60.12 374.595 60.4133 374.36 60.648C374.126 60.8827 373.838 61 373.496 61C373.155 61 372.867 60.8827 372.632 60.648C372.398 60.4133 372.28 60.12 372.28 59.768ZM379.488 57.592C379.797 57.592 380.016 57.672 380.144 57.832C380.272 57.9813 380.336 58.248 380.336 58.632V59.784C380.794 60.0507 381.338 60.184 381.968 60.184C382.597 60.184 383.114 59.9867 383.52 59.592C383.936 59.1867 384.144 58.584 384.144 57.784C384.144 56.9413 383.941 56.3547 383.536 56.024C383.13 55.6933 382.549 55.528 381.792 55.528H381.328C381.253 55.528 381.189 55.4853 381.136 55.4C381.093 55.3147 381.072 55.2133 381.072 55.096C381.072 54.9787 381.093 54.8773 381.136 54.792C381.189 54.696 381.253 54.648 381.328 54.648H381.792C382.474 54.648 382.981 54.4667 383.312 54.104C383.642 53.7307 383.808 53.1653 383.808 52.408C383.808 51.7467 383.642 51.2613 383.312 50.952C382.981 50.632 382.538 50.472 381.984 50.472C381.738 50.472 381.482 50.5093 381.216 50.584C380.949 50.648 380.709 50.7387 380.496 50.856V52.008C380.496 52.392 380.432 52.664 380.304 52.824C380.176 52.9733 379.957 53.048 379.648 53.048C379.413 53.048 379.237 52.984 379.12 52.856C379.013 52.728 378.96 52.5253 378.96 52.248V51.288C378.96 51.096 378.986 50.952 379.04 50.856C379.093 50.7493 379.189 50.6533 379.328 50.568C379.829 50.248 380.32 50.0187 380.8 49.88C381.29 49.7307 381.818 49.656 382.384 49.656C383.461 49.656 384.261 49.9067 384.784 50.408C385.306 50.9093 385.568 51.576 385.568 52.408C385.568 53.0693 385.37 53.624 384.976 54.072C384.592 54.52 384.117 54.8027 383.552 54.92V55.064C384.266 55.16 384.842 55.4267 385.28 55.864C385.717 56.3013 385.936 56.936 385.936 57.768C385.936 58.4187 385.776 58.9893 385.456 59.48C385.146 59.96 384.704 60.3333 384.128 60.6C383.562 60.8667 382.906 61 382.16 61C381.104 61 380.106 60.7227 379.168 60.168C378.922 60.0187 378.8 59.7467 378.8 59.352V58.392C378.8 58.1147 378.853 57.912 378.96 57.784C379.077 57.656 379.253 57.592 379.488 57.592ZM389.988 55.336C389.988 53.64 390.281 52.2693 390.868 51.224C391.455 50.1787 392.393 49.656 393.684 49.656C394.975 49.656 395.913 50.1787 396.5 51.224C397.087 52.2693 397.38 53.64 397.38 55.336C397.38 57.0853 397.087 58.4667 396.5 59.48C395.924 60.4933 394.985 61 393.684 61C392.383 61 391.439 60.4933 390.852 59.48C390.276 58.4667 389.988 57.0853 389.988 55.336ZM395.62 55.336C395.62 53.9173 395.492 52.7547 395.236 51.848C394.98 50.9307 394.463 50.472 393.684 50.472C392.905 50.472 392.388 50.9307 392.132 51.848C391.876 52.7547 391.748 53.9173 391.748 55.336C391.748 56.3067 391.791 57.1387 391.876 57.832C391.961 58.5147 392.143 59.08 392.42 59.528C392.708 59.9653 393.129 60.184 393.684 60.184C394.239 60.184 394.655 59.9653 394.932 59.528C395.22 59.08 395.407 58.5147 395.492 57.832C395.577 57.1387 395.62 56.3067 395.62 55.336Z" fill="#064E3B"/>
<line x1="272" y1="36" x2="472" y2="36" stroke="#064E3B" stroke-width="2"/>
<line x1="272" y1="72" x2="472" y2="72" stroke="#064E3B" stroke-width="2"/>
<path d="M90.5717 147.96C90.5717 148.333 90.4917 148.6 90.3317 148.76C90.1717 148.92 89.9211 149 89.5797 149C89.3344 149 89.1477 148.936 89.0197 148.808C88.9024 148.68 88.8437 148.477 88.8437 148.2V138.456C88.8437 138.179 88.9024 137.976 89.0197 137.848C89.1477 137.72 89.3344 137.656 89.5797 137.656H94.8597C95.1904 137.656 95.4304 137.699 95.5797 137.784C95.7397 137.869 95.8197 138.024 95.8197 138.248V139.96C95.8197 140.237 95.7611 140.44 95.6437 140.568C95.5371 140.696 95.3664 140.76 95.1317 140.76C94.8224 140.76 94.5877 140.68 94.4277 140.52C94.2784 140.36 94.2037 140.093 94.2037 139.72V138.504H90.5717V147.96ZM108.264 143.336C108.264 144.136 108.142 144.957 107.896 145.8C107.662 146.643 107.182 147.389 106.456 148.04C105.731 148.68 104.702 149 103.368 149C102.035 149 101.006 148.68 100.28 148.04C99.5656 147.389 99.0909 146.643 98.8562 145.8C98.6216 144.957 98.5042 144.136 98.5042 143.336C98.5042 142.536 98.6216 141.715 98.8562 140.872C99.0909 140.029 99.5656 139.283 100.28 138.632C101.006 137.981 102.035 137.656 103.368 137.656C104.702 137.656 105.731 137.981 106.456 138.632C107.182 139.283 107.662 140.035 107.896 140.888C108.142 141.731 108.264 142.547 108.264 143.336ZM106.456 143.336C106.456 142.099 106.248 140.979 105.832 139.976C105.416 138.973 104.595 138.472 103.368 138.472C102.163 138.472 101.352 138.973 100.936 139.976C100.52 140.979 100.312 142.099 100.312 143.336C100.312 144.563 100.52 145.677 100.936 146.68C101.352 147.683 102.163 148.184 103.368 148.184C104.595 148.184 105.416 147.688 105.832 146.696C106.248 145.693 106.456 144.573 106.456 143.336ZM114.037 147.96C114.037 148.333 113.957 148.6 113.797 148.76C113.637 148.92 113.387 149 113.045 149C112.8 149 112.613 148.936 112.485 148.808C112.368 148.68 112.309 148.477 112.309 148.2V138.456C112.309 138.168 112.363 137.965 112.469 137.848C112.576 137.72 112.757 137.656 113.013 137.656H115.685C116.347 137.656 116.981 137.72 117.589 137.848C118.208 137.976 118.768 138.285 119.269 138.776C119.771 139.256 120.021 139.987 120.021 140.968C120.021 141.651 119.861 142.269 119.541 142.824C119.221 143.368 118.736 143.8 118.085 144.12C117.445 144.44 116.651 144.6 115.701 144.6H114.037V147.96ZM114.037 143.752H115.685C116.485 143.752 117.104 143.528 117.541 143.08C117.989 142.621 118.213 141.917 118.213 140.968C118.213 140.179 118.016 139.571 117.621 139.144C117.237 138.717 116.592 138.504 115.685 138.504H114.037V143.752ZM132.792 143.336C132.792 144.136 132.67 144.957 132.424 145.8C132.19 146.643 131.71 147.389 130.984 148.04C130.259 148.68 129.23 149 127.896 149C126.563 149 125.534 148.68 124.808 148.04C124.094 147.389 123.619 146.643 123.384 145.8C123.15 144.957 123.032 144.136 123.032 143.336C123.032 142.536 123.15 141.715 123.384 140.872C123.619 140.029 124.094 139.283 124.808 138.632C125.534 137.981 126.563 137.656 127.896 137.656C129.23 137.656 130.259 137.981 130.984 138.632C131.71 139.283 132.19 140.035 132.424 140.888C132.67 141.731 132.792 142.547 132.792 143.336ZM130.984 143.336C130.984 142.099 130.776 140.979 130.36 139.976C129.944 138.973 129.123 138.472 127.896 138.472C126.691 138.472 125.88 138.973 125.464 139.976C125.048 140.979 124.84 142.099 124.84 143.336C124.84 144.563 125.048 145.677 125.464 146.68C125.88 147.683 126.691 148.184 127.896 148.184C129.123 148.184 129.944 147.688 130.36 146.696C130.776 145.693 130.984 144.573 130.984 143.336ZM136.541 150.632C136.541 151.005 136.461 151.272 136.301 151.432C136.152 151.592 135.922 151.672 135.613 151.672C135.378 151.672 135.202 151.608 135.085 151.48C134.978 151.352 134.925 151.149 134.925 150.872V148.744C134.925 148.52 134.994 148.371 135.133 148.296C135.282 148.211 135.517 148.163 135.837 148.152H135.997C136.637 147.523 137.069 146.595 137.293 145.368C137.517 144.131 137.629 142.397 137.629 140.168V138.456C137.629 138.168 137.682 137.965 137.789 137.848C137.896 137.72 138.077 137.656 138.333 137.656H143.645C143.89 137.656 144.072 137.72 144.189 137.848C144.317 137.976 144.381 138.179 144.381 138.456V148.152H144.861C145.192 148.152 145.432 148.195 145.581 148.28C145.741 148.365 145.821 148.52 145.821 148.744V150.872C145.821 151.149 145.762 151.352 145.645 151.48C145.538 151.608 145.368 151.672 145.133 151.672C144.824 151.672 144.589 151.592 144.429 151.432C144.28 151.272 144.205 151.005 144.205 150.632V149H136.541V150.632ZM138.893 140.12C138.893 142.04 138.797 143.64 138.605 144.92C138.413 146.189 138.04 147.267 137.485 148.152H142.653V138.504H138.893V140.12ZM162.41 140.44C162.101 140.44 161.866 140.36 161.706 140.2C161.557 140.04 161.482 139.773 161.482 139.4V138.504H157.562V142.344H159.882C161.152 142.344 162.128 142.6 162.81 143.112C163.493 143.624 163.834 144.461 163.834 145.624C163.834 146.467 163.616 147.144 163.178 147.656C162.741 148.157 162.218 148.509 161.61 148.712C161.002 148.904 160.416 149 159.85 149H156.57C156.325 149 156.138 148.936 156.01 148.808C155.893 148.68 155.834 148.477 155.834 148.2V138.456C155.834 138.179 155.893 137.976 156.01 137.848C156.138 137.72 156.325 137.656 156.57 137.656H162.138C162.469 137.656 162.709 137.699 162.858 137.784C163.018 137.869 163.098 138.024 163.098 138.248V139.64C163.098 139.917 163.04 140.12 162.922 140.248C162.816 140.376 162.645 140.44 162.41 140.44ZM157.562 148.152H159.642C160.272 148.152 160.826 147.949 161.306 147.544C161.786 147.139 162.026 146.499 162.026 145.624C162.026 144.003 161.205 143.192 159.562 143.192H157.562V148.152ZM175.682 137.656C175.927 137.656 176.109 137.72 176.226 137.848C176.354 137.976 176.418 138.179 176.418 138.456V148.2C176.418 148.488 176.365 148.696 176.258 148.824C176.151 148.941 175.97 149 175.714 149C175.383 149 175.127 148.899 174.946 148.696C174.775 148.483 174.69 148.173 174.69 147.768V139.88L169.506 148.44C169.41 148.611 169.293 148.749 169.154 148.856C169.015 148.952 168.802 149 168.514 149C168.269 149 168.082 148.936 167.954 148.808C167.837 148.68 167.778 148.477 167.778 148.2V138.456C167.778 138.168 167.831 137.965 167.938 137.848C168.045 137.72 168.226 137.656 168.482 137.656C168.813 137.656 169.063 137.763 169.234 137.976C169.415 138.179 169.506 138.483 169.506 138.888V146.776L174.69 138.216C174.807 138.024 174.93 137.885 175.058 137.8C175.186 137.704 175.394 137.656 175.682 137.656ZM181.958 149C181.713 149 181.526 148.936 181.398 148.808C181.281 148.68 181.222 148.477 181.222 148.2V138.456C181.222 138.168 181.275 137.965 181.382 137.848C181.489 137.72 181.67 137.656 181.926 137.656C182.257 137.656 182.507 137.763 182.678 137.976C182.859 138.179 182.95 138.483 182.95 138.888V148.152H186.806V138.616C186.806 138.253 186.881 138.003 187.03 137.864C187.19 137.725 187.446 137.656 187.798 137.656C188.043 137.656 188.225 137.72 188.342 137.848C188.47 137.976 188.534 138.179 188.534 138.456V148.152H192.39V138.696C192.39 138.323 192.47 138.056 192.63 137.896C192.79 137.736 193.041 137.656 193.382 137.656C193.627 137.656 193.809 137.72 193.926 137.848C194.054 137.976 194.118 138.179 194.118 138.456V148.2C194.118 148.477 194.054 148.68 193.926 148.808C193.809 148.936 193.627 149 193.382 149H181.958ZM200.98 142.776L205.684 137.976C205.886 137.763 206.1 137.656 206.324 137.656C206.484 137.656 206.617 137.709 206.724 137.816C206.841 137.923 206.9 138.04 206.9 138.168C206.9 138.243 206.873 138.307 206.82 138.36L202.26 142.872L206.868 147.944C207.017 148.115 207.092 148.269 207.092 148.408C207.092 148.568 207.028 148.707 206.9 148.824C206.782 148.941 206.628 149 206.436 149C206.19 149 205.956 148.947 205.732 148.84C205.518 148.733 205.273 148.525 204.996 148.216L200.98 143.656H200.644V147.96C200.644 148.333 200.564 148.6 200.404 148.76C200.244 148.92 199.993 149 199.652 149C199.406 149 199.22 148.936 199.092 148.808C198.974 148.68 198.916 148.477 198.916 148.2V138.456C198.916 138.168 198.969 137.965 199.076 137.848C199.182 137.72 199.364 137.656 199.62 137.656C199.95 137.656 200.201 137.763 200.372 137.976C200.553 138.179 200.644 138.483 200.644 138.888V142.776H200.98ZM216.667 140.44C216.357 140.44 216.123 140.36 215.963 140.2C215.813 140.04 215.739 139.773 215.739 139.4V138.504H211.947V142.696H215.307C215.445 142.696 215.552 142.744 215.627 142.84C215.712 142.925 215.755 143.027 215.755 143.144C215.755 143.251 215.707 143.352 215.611 143.448C215.515 143.533 215.413 143.576 215.307 143.576H211.947V148.152H215.979V147.256C215.979 146.883 216.053 146.616 216.203 146.456C216.363 146.296 216.597 146.216 216.907 146.216C217.141 146.216 217.312 146.28 217.419 146.408C217.536 146.536 217.595 146.739 217.595 147.016V148.408C217.595 148.632 217.515 148.787 217.355 148.872C217.205 148.957 216.965 149 216.635 149H210.955C210.709 149 210.523 148.936 210.395 148.808C210.277 148.68 210.219 148.477 210.219 148.2V138.456C210.219 138.179 210.277 137.976 210.395 137.848C210.523 137.72 210.709 137.656 210.955 137.656H216.395C216.725 137.656 216.965 137.699 217.115 137.784C217.275 137.869 217.355 138.024 217.355 138.248V139.64C217.355 139.917 217.296 140.12 217.179 140.248C217.072 140.376 216.901 140.44 216.667 140.44ZM223.492 142.776L228.196 137.976C228.399 137.763 228.612 137.656 228.836 137.656C228.996 137.656 229.129 137.709 229.236 137.816C229.353 137.923 229.412 138.04 229.412 138.168C229.412 138.243 229.385 138.307 229.332 138.36L224.772 142.872L229.38 147.944C229.529 148.115 229.604 148.269 229.604 148.408C229.604 148.568 229.54 148.707 229.412 148.824C229.295 148.941 229.14 149 228.948 149C228.703 149 228.468 148.947 228.244 148.84C228.031 148.733 227.785 148.525 227.508 148.216L223.492 143.656H223.156V147.96C223.156 148.333 223.076 148.6 222.916 148.76C222.756 148.92 222.505 149 222.164 149C221.919 149 221.732 148.936 221.604 148.808C221.487 148.68 221.428 148.477 221.428 148.2V138.456C221.428 138.168 221.481 137.965 221.588 137.848C221.695 137.72 221.876 137.656 222.132 137.656C222.463 137.656 222.713 137.763 222.884 137.976C223.065 138.179 223.156 138.483 223.156 138.888V142.776H223.492ZM233.083 148.808C232.71 148.744 232.449 148.6 232.299 148.376C232.161 148.152 232.091 147.912 232.091 147.656C232.091 147.283 232.219 147 232.475 146.808C232.742 146.605 233.035 146.504 233.355 146.504C233.654 146.504 233.921 146.6 234.155 146.792C234.401 146.973 234.523 147.235 234.523 147.576C234.523 147.779 234.497 147.965 234.443 148.136C234.401 148.307 234.315 148.525 234.187 148.792L233.515 150.216C233.387 150.504 233.19 150.648 232.923 150.648C232.785 150.648 232.667 150.605 232.571 150.52C232.486 150.445 232.443 150.349 232.443 150.232C232.443 150.2 232.454 150.152 232.475 150.088L233.083 148.808ZM251.343 138.504C251.557 137.939 251.866 137.656 252.271 137.656C252.421 137.656 252.538 137.709 252.623 137.816C252.719 137.912 252.767 138.035 252.767 138.184C252.767 138.312 252.741 138.429 252.687 138.536L249.711 145.528C249.306 146.477 248.794 147.293 248.175 147.976C247.567 148.659 246.874 149 246.095 149C245.85 149 245.653 148.931 245.503 148.792C245.365 148.643 245.295 148.419 245.295 148.12C245.295 147.907 245.37 147.757 245.519 147.672C245.669 147.587 245.951 147.517 246.367 147.464C246.847 147.421 247.237 147.272 247.535 147.016C247.834 146.76 248.085 146.381 248.287 145.88L244.335 138.616C244.271 138.499 244.239 138.365 244.239 138.216C244.239 138.056 244.293 137.923 244.399 137.816C244.506 137.709 244.645 137.656 244.815 137.656C245.093 137.656 245.322 137.715 245.503 137.832C245.695 137.949 245.877 138.168 246.047 138.488L249.055 144.12H249.151L251.343 138.504ZM264.115 137.656C264.361 137.656 264.542 137.72 264.659 137.848C264.787 137.976 264.851 138.179 264.851 138.456V148.2C264.851 148.488 264.798 148.696 264.691 148.824C264.585 148.941 264.403 149 264.147 149C263.817 149 263.561 148.899 263.379 148.696C263.209 148.483 263.123 148.173 263.123 147.768V138.504H259.363V140.12C259.363 141.528 259.315 142.723 259.219 143.704C259.123 144.675 258.958 145.523 258.723 146.248C258.595 146.643 258.393 147.053 258.115 147.48C257.849 147.907 257.523 148.269 257.139 148.568C256.766 148.856 256.366 149 255.939 149C255.747 149 255.582 148.915 255.443 148.744C255.315 148.563 255.251 148.36 255.251 148.136C255.251 147.944 255.305 147.805 255.411 147.72C255.518 147.624 255.753 147.517 256.115 147.4C256.819 147.155 257.326 146.584 257.635 145.688C257.849 145.08 257.977 144.381 258.019 143.592C258.073 142.792 258.099 141.651 258.099 140.168V138.456C258.099 138.168 258.153 137.965 258.259 137.848C258.366 137.72 258.547 137.656 258.803 137.656H264.115ZM269.007 147.768C269.007 147.395 269.124 147.091 269.359 146.856C269.594 146.621 269.882 146.504 270.223 146.504C270.564 146.504 270.852 146.627 271.087 146.872C271.322 147.107 271.439 147.405 271.439 147.768C271.439 148.12 271.322 148.413 271.087 148.648C270.852 148.883 270.564 149 270.223 149C269.882 149 269.594 148.883 269.359 148.648C269.124 148.413 269.007 148.12 269.007 147.768ZM282.483 148.152C282.355 148.493 282.206 148.723 282.035 148.84C281.875 148.947 281.699 149 281.507 149C281.358 149 281.246 148.963 281.171 148.888C281.107 148.803 281.075 148.696 281.075 148.568C281.075 148.44 281.102 148.307 281.155 148.168L284.915 138.04C284.958 137.923 285.059 137.832 285.219 137.768C285.39 137.693 285.582 137.656 285.795 137.656C286.03 137.656 286.238 137.693 286.419 137.768C286.611 137.843 286.728 137.949 286.771 138.088L290.435 148.232C290.456 148.339 290.467 148.419 290.467 148.472C290.467 148.621 290.414 148.749 290.307 148.856C290.211 148.952 290.056 149 289.843 149C289.619 149 289.39 148.941 289.155 148.824C288.931 148.707 288.76 148.483 288.643 148.152L287.795 145.96H283.299L282.483 148.152ZM285.619 139.544H285.523L283.555 145.128H287.555L285.619 139.544ZM300.015 138.504C300.229 137.939 300.538 137.656 300.943 137.656C301.093 137.656 301.21 137.709 301.295 137.816C301.391 137.912 301.439 138.035 301.439 138.184C301.439 138.312 301.413 138.429 301.359 138.536L298.383 145.528C297.978 146.477 297.466 147.293 296.847 147.976C296.239 148.659 295.546 149 294.767 149C294.522 149 294.325 148.931 294.175 148.792C294.037 148.643 293.967 148.419 293.967 148.12C293.967 147.907 294.042 147.757 294.191 147.672C294.341 147.587 294.623 147.517 295.039 147.464C295.519 147.421 295.909 147.272 296.207 147.016C296.506 146.76 296.757 146.381 296.959 145.88L293.007 138.616C292.943 138.499 292.911 138.365 292.911 138.216C292.911 138.056 292.965 137.923 293.071 137.816C293.178 137.709 293.317 137.656 293.487 137.656C293.765 137.656 293.994 137.715 294.175 137.832C294.367 137.949 294.549 138.168 294.719 138.488L297.727 144.12H297.823L300.015 138.504ZM305.859 147.864C306.136 147.992 306.398 148.077 306.643 148.12C306.899 148.163 307.203 148.184 307.555 148.184C308.526 148.184 309.294 147.795 309.859 147.016C310.435 146.227 310.744 145.08 310.787 143.576H306.307C306.232 143.576 306.174 143.533 306.131 143.448C306.088 143.363 306.067 143.261 306.067 143.144C306.067 143.027 306.088 142.925 306.131 142.84C306.174 142.744 306.232 142.696 306.307 142.696H310.755C310.67 141.192 310.334 140.115 309.747 139.464C309.171 138.813 308.44 138.483 307.555 138.472C307.043 138.472 306.52 138.531 305.987 138.648V139.544C305.987 139.917 305.907 140.184 305.747 140.344C305.598 140.504 305.368 140.584 305.059 140.584C304.824 140.584 304.648 140.52 304.531 140.392C304.424 140.264 304.371 140.061 304.371 139.784V138.872C304.371 138.637 304.414 138.472 304.499 138.376C304.595 138.269 304.771 138.173 305.027 138.088C305.987 137.8 306.867 137.656 307.667 137.656C310.952 137.656 312.595 139.464 312.595 143.08C312.595 144.851 312.179 146.28 311.347 147.368C310.515 148.456 309.256 149 307.571 149C307.048 149 306.574 148.963 306.147 148.888C305.72 148.813 305.294 148.68 304.867 148.488C304.622 148.381 304.456 148.285 304.371 148.2C304.286 148.104 304.243 147.944 304.243 147.72V146.76C304.243 146.248 304.472 145.992 304.931 145.992C305.24 145.992 305.47 146.072 305.619 146.232C305.779 146.381 305.859 146.637 305.859 147V147.864ZM317.459 147.864C317.8 147.981 318.099 148.067 318.355 148.12C318.622 148.163 318.952 148.184 319.347 148.184C319.944 148.184 320.435 148.061 320.819 147.816C321.214 147.571 321.502 147.261 321.683 146.888C321.875 146.504 321.971 146.104 321.971 145.688C321.971 145.059 321.784 144.552 321.411 144.168C321.038 143.773 320.376 143.576 319.427 143.576H317.939C317.864 143.576 317.806 143.533 317.763 143.448C317.72 143.363 317.699 143.261 317.699 143.144C317.699 143.027 317.72 142.925 317.763 142.84C317.806 142.744 317.864 142.696 317.939 142.696H319.443C320.915 142.696 321.651 141.955 321.651 140.472C321.651 139.875 321.448 139.395 321.043 139.032C320.638 138.659 320.083 138.472 319.379 138.472C318.771 138.472 318.206 138.531 317.683 138.648V139.544C317.683 139.917 317.603 140.184 317.443 140.344C317.294 140.504 317.064 140.584 316.755 140.584C316.52 140.584 316.344 140.52 316.227 140.392C316.12 140.264 316.067 140.061 316.067 139.784V138.872C316.067 138.637 316.11 138.472 316.195 138.376C316.291 138.269 316.467 138.173 316.723 138.088C317.672 137.8 318.664 137.656 319.699 137.656C320.979 137.656 321.918 137.923 322.515 138.456C323.112 138.979 323.411 139.651 323.411 140.472C323.411 141.176 323.224 141.736 322.851 142.152C322.488 142.557 322.014 142.851 321.427 143.032V143.128C322.995 143.373 323.779 144.227 323.779 145.688C323.779 146.243 323.63 146.771 323.331 147.272C323.032 147.773 322.558 148.189 321.907 148.52C321.256 148.84 320.43 149 319.427 149C318.894 149 318.366 148.957 317.843 148.872C317.32 148.776 316.862 148.648 316.467 148.488C316.222 148.381 316.056 148.285 315.971 148.2C315.886 148.104 315.843 147.944 315.843 147.72V146.76C315.843 146.248 316.072 145.992 316.531 145.992C316.84 145.992 317.07 146.072 317.219 146.232C317.379 146.381 317.459 146.637 317.459 147V147.864ZM336.942 143.336C336.942 144.136 336.82 144.957 336.574 145.8C336.34 146.643 335.86 147.389 335.134 148.04C334.409 148.68 333.38 149 332.046 149C330.713 149 329.684 148.68 328.958 148.04C328.244 147.389 327.769 146.643 327.534 145.8C327.3 144.957 327.182 144.136 327.182 143.336C327.182 142.536 327.3 141.715 327.534 140.872C327.769 140.029 328.244 139.283 328.958 138.632C329.684 137.981 330.713 137.656 332.046 137.656C333.38 137.656 334.409 137.981 335.134 138.632C335.86 139.283 336.34 140.035 336.574 140.888C336.82 141.731 336.942 142.547 336.942 143.336ZM335.134 143.336C335.134 142.099 334.926 140.979 334.51 139.976C334.094 138.973 333.273 138.472 332.046 138.472C330.841 138.472 330.03 138.973 329.614 139.976C329.198 140.979 328.99 142.099 328.99 143.336C328.99 144.563 329.198 145.677 329.614 146.68C330.03 147.683 330.841 148.184 332.046 148.184C333.273 148.184 334.094 147.688 334.51 146.696C334.926 145.693 335.134 144.573 335.134 143.336ZM340.988 138.456C340.988 138.179 341.046 137.976 341.164 137.848C341.292 137.72 341.478 137.656 341.724 137.656H345.004C347.372 137.656 348.556 138.605 348.556 140.504C348.556 141.037 348.39 141.539 348.06 142.008C347.74 142.467 347.302 142.765 346.748 142.904V142.984C347.558 143.123 348.161 143.432 348.556 143.912C348.95 144.381 349.148 144.947 349.148 145.608C349.148 146.899 348.726 147.789 347.884 148.28C347.052 148.76 346.118 149 345.084 149H341.724C341.478 149 341.292 148.936 341.164 148.808C341.046 148.68 340.988 148.477 340.988 148.2V138.456ZM342.716 142.632H344.556C344.897 142.632 345.233 142.563 345.564 142.424C345.905 142.275 346.188 142.04 346.412 141.72C346.636 141.389 346.748 140.968 346.748 140.456C346.748 139.763 346.508 139.267 346.028 138.968C345.548 138.659 345.014 138.504 344.428 138.504H342.716V142.632ZM342.716 148.152H344.86C345.489 148.152 346.06 147.971 346.572 147.608C347.084 147.235 347.34 146.621 347.34 145.768C347.34 145.235 347.206 144.797 346.94 144.456C346.673 144.115 346.337 143.869 345.932 143.72C345.526 143.56 345.116 143.48 344.7 143.48H342.716V148.152ZM353.474 148.152C353.346 148.493 353.196 148.723 353.026 148.84C352.866 148.947 352.69 149 352.498 149C352.348 149 352.236 148.963 352.162 148.888C352.098 148.803 352.066 148.696 352.066 148.568C352.066 148.44 352.092 148.307 352.146 148.168L355.906 138.04C355.948 137.923 356.05 137.832 356.21 137.768C356.38 137.693 356.572 137.656 356.786 137.656C357.02 137.656 357.228 137.693 357.41 137.768C357.602 137.843 357.719 137.949 357.762 138.088L361.426 148.232C361.447 148.339 361.458 148.419 361.458 148.472C361.458 148.621 361.404 148.749 361.298 148.856C361.202 148.952 361.047 149 360.834 149C360.61 149 360.38 148.941 360.146 148.824C359.922 148.707 359.751 148.483 359.634 148.152L358.786 145.96H354.29L353.474 148.152ZM356.61 139.544H356.514L354.546 145.128H358.546L356.61 139.544ZM371.628 141.08C371.393 141.08 371.217 141.016 371.1 140.888C370.993 140.76 370.94 140.557 370.94 140.28V139.32C370.94 139.139 370.961 139.005 371.004 138.92C371.057 138.835 371.158 138.744 371.308 138.648C371.852 138.285 372.374 138.029 372.876 137.88C373.388 137.731 373.942 137.656 374.54 137.656C375.596 137.656 376.374 137.928 376.876 138.472C377.388 139.005 377.644 139.683 377.644 140.504C377.644 141.539 377.228 142.659 376.396 143.864C375.574 145.059 374.134 146.488 372.076 148.152H376.252V147.16C376.252 146.787 376.321 146.52 376.46 146.36C376.609 146.2 376.822 146.12 377.1 146.12C377.334 146.12 377.505 146.184 377.612 146.312C377.729 146.44 377.788 146.643 377.788 146.92V148.488C377.788 148.669 377.708 148.803 377.548 148.888C377.388 148.963 377.148 149 376.828 149H371.148C371.02 149 370.918 148.957 370.844 148.872C370.78 148.787 370.748 148.68 370.748 148.552C370.748 148.328 370.828 148.147 370.988 148.008L371.212 147.8C373.057 146.083 374.289 144.653 374.908 143.512C375.526 142.36 375.836 141.437 375.836 140.744C375.836 140.136 375.702 139.608 375.436 139.16C375.18 138.701 374.71 138.472 374.028 138.472C373.516 138.472 372.998 138.611 372.476 138.888V140.04C372.476 140.424 372.412 140.696 372.284 140.856C372.156 141.005 371.937 141.08 371.628 141.08ZM385.264 146.232H380.608C380.309 146.232 380.16 146.104 380.16 145.848C380.16 145.741 380.197 145.613 380.272 145.464L385.024 138.248C385.28 137.853 385.653 137.656 386.144 137.656C386.432 137.656 386.64 137.72 386.768 137.848C386.896 137.976 386.96 138.179 386.96 138.456V145.384H387.952C388.197 145.384 388.363 145.427 388.448 145.512C388.544 145.597 388.592 145.709 388.592 145.848C388.592 145.965 388.56 146.061 388.496 146.136C388.432 146.2 388.304 146.232 388.112 146.232H386.96V148.152H387.872C388.117 148.152 388.283 148.195 388.368 148.28C388.464 148.365 388.512 148.477 388.512 148.616C388.512 148.733 388.48 148.829 388.416 148.904C388.352 148.968 388.224 149 388.032 149H383.872C383.68 149 383.552 148.968 383.488 148.904C383.424 148.829 383.392 148.733 383.392 148.616C383.392 148.477 383.435 148.365 383.52 148.28C383.616 148.195 383.787 148.152 384.032 148.152H385.264V146.232ZM385.264 139.752L381.504 145.384H385.264V139.752ZM191.569 171.96C191.569 172.333 191.489 172.6 191.329 172.76C191.169 172.92 190.918 173 190.577 173C190.331 173 190.145 172.936 190.017 172.808C189.899 172.68 189.841 172.477 189.841 172.2V162.456C189.841 162.168 189.894 161.965 190.001 161.848C190.107 161.72 190.289 161.656 190.545 161.656H193.217C193.878 161.656 194.513 161.72 195.121 161.848C195.739 161.976 196.299 162.285 196.801 162.776C197.302 163.256 197.553 163.987 197.553 164.968C197.553 165.651 197.393 166.269 197.073 166.824C196.753 167.368 196.267 167.8 195.617 168.12C194.977 168.44 194.182 168.6 193.233 168.6H191.569V171.96ZM191.569 167.752H193.217C194.017 167.752 194.635 167.528 195.073 167.08C195.521 166.621 195.745 165.917 195.745 164.968C195.745 164.179 195.547 163.571 195.153 163.144C194.769 162.717 194.123 162.504 193.217 162.504H191.569V167.752ZM207.764 164.44C207.454 164.44 207.22 164.36 207.06 164.2C206.91 164.04 206.836 163.773 206.836 163.4V162.504H203.044V166.696H206.404C206.542 166.696 206.649 166.744 206.724 166.84C206.809 166.925 206.852 167.027 206.852 167.144C206.852 167.251 206.804 167.352 206.708 167.448C206.612 167.533 206.51 167.576 206.404 167.576H203.044V172.152H207.076V171.256C207.076 170.883 207.15 170.616 207.3 170.456C207.46 170.296 207.694 170.216 208.004 170.216C208.238 170.216 208.409 170.28 208.516 170.408C208.633 170.536 208.692 170.739 208.692 171.016V172.408C208.692 172.632 208.612 172.787 208.452 172.872C208.302 172.957 208.062 173 207.732 173H202.052C201.806 173 201.62 172.936 201.492 172.808C201.374 172.68 201.316 172.477 201.316 172.2V162.456C201.316 162.179 201.374 161.976 201.492 161.848C201.62 161.72 201.806 161.656 202.052 161.656H207.492C207.822 161.656 208.062 161.699 208.212 161.784C208.372 161.869 208.452 162.024 208.452 162.248V163.64C208.452 163.917 208.393 164.12 208.276 164.248C208.169 164.376 207.998 164.44 207.764 164.44ZM218.973 164.536C218.664 164.536 218.429 164.456 218.269 164.296C218.12 164.136 218.045 163.869 218.045 163.496V162.6C217.65 162.515 217.261 162.472 216.877 162.472C215.864 162.472 215.058 162.899 214.461 163.752C213.874 164.595 213.581 165.832 213.581 167.464C213.581 169.203 213.869 170.424 214.445 171.128C215.021 171.821 215.869 172.168 216.989 172.168C217.65 172.168 218.349 172.013 219.085 171.704L219.389 171.576C219.453 171.555 219.496 171.544 219.517 171.544C219.624 171.544 219.714 171.597 219.789 171.704C219.864 171.8 219.901 171.907 219.901 172.024C219.901 172.173 219.832 172.28 219.693 172.344L219.421 172.456C218.984 172.637 218.541 172.776 218.093 172.872C217.656 172.957 217.138 173 216.541 173C214.92 173 213.72 172.52 212.941 171.56C212.162 170.589 211.773 169.213 211.773 167.432C211.773 166.141 211.981 165.064 212.397 164.2C212.824 163.336 213.405 162.696 214.141 162.28C214.877 161.864 215.72 161.656 216.669 161.656C217.522 161.656 218.301 161.768 219.005 161.992C219.261 162.077 219.432 162.173 219.517 162.28C219.613 162.376 219.661 162.541 219.661 162.776V163.736C219.661 164.013 219.602 164.216 219.485 164.344C219.378 164.472 219.208 164.536 218.973 164.536ZM227.886 172.04C227.886 172.403 227.806 172.653 227.646 172.792C227.497 172.931 227.246 173 226.894 173C226.649 173 226.462 172.936 226.334 172.808C226.217 172.68 226.158 172.477 226.158 172.2V162.504H223.758V163.64C223.758 164.013 223.678 164.28 223.518 164.44C223.369 164.6 223.139 164.68 222.83 164.68C222.595 164.68 222.419 164.616 222.302 164.488C222.195 164.36 222.142 164.157 222.142 163.88V162.248C222.142 162.024 222.217 161.869 222.366 161.784C222.526 161.699 222.771 161.656 223.102 161.656H230.942C231.273 161.656 231.513 161.699 231.662 161.784C231.822 161.869 231.902 162.024 231.902 162.248V163.88C231.902 164.157 231.843 164.36 231.726 164.488C231.619 164.616 231.449 164.68 231.214 164.68C230.905 164.68 230.67 164.6 230.51 164.44C230.361 164.28 230.286 164.013 230.286 163.64V162.504H227.886V172.04ZM244.124 167.336C244.124 168.136 244.001 168.957 243.756 169.8C243.521 170.643 243.041 171.389 242.316 172.04C241.59 172.68 240.561 173 239.228 173C237.894 173 236.865 172.68 236.14 172.04C235.425 171.389 234.95 170.643 234.716 169.8C234.481 168.957 234.364 168.136 234.364 167.336C234.364 166.536 234.481 165.715 234.716 164.872C234.95 164.029 235.425 163.283 236.14 162.632C236.865 161.981 237.894 161.656 239.228 161.656C240.561 161.656 241.59 161.981 242.316 162.632C243.041 163.283 243.521 164.035 243.756 164.888C244.001 165.731 244.124 166.547 244.124 167.336ZM242.316 167.336C242.316 166.099 242.108 164.979 241.692 163.976C241.276 162.973 240.454 162.472 239.228 162.472C238.022 162.472 237.212 162.973 236.796 163.976C236.38 164.979 236.172 166.099 236.172 167.336C236.172 168.563 236.38 169.677 236.796 170.68C237.212 171.683 238.022 172.184 239.228 172.184C240.454 172.184 241.276 171.688 241.692 170.696C242.108 169.693 242.316 168.573 242.316 167.336ZM249.897 171.96C249.897 172.333 249.817 172.6 249.657 172.76C249.497 172.92 249.246 173 248.905 173C248.659 173 248.473 172.936 248.345 172.808C248.227 172.68 248.169 172.477 248.169 172.2V162.456C248.169 162.168 248.222 161.965 248.329 161.848C248.435 161.72 248.617 161.656 248.873 161.656H251.545C252.206 161.656 252.841 161.72 253.449 161.848C254.067 161.976 254.627 162.285 255.129 162.776C255.63 163.256 255.881 163.987 255.881 164.968C255.881 165.651 255.721 166.269 255.401 166.824C255.081 167.368 254.595 167.8 253.945 168.12C253.305 168.44 252.51 168.6 251.561 168.6H249.897V171.96ZM249.897 167.752H251.545C252.345 167.752 252.963 167.528 253.401 167.08C253.849 166.621 254.073 165.917 254.073 164.968C254.073 164.179 253.875 163.571 253.481 163.144C253.097 162.717 252.451 162.504 251.545 162.504H249.897V167.752ZM259.171 172.152C259.043 172.493 258.893 172.723 258.723 172.84C258.563 172.947 258.387 173 258.195 173C258.045 173 257.933 172.963 257.859 172.888C257.795 172.803 257.763 172.696 257.763 172.568C257.763 172.44 257.789 172.307 257.843 172.168L261.603 162.04C261.645 161.923 261.747 161.832 261.907 161.768C262.077 161.693 262.269 161.656 262.483 161.656C262.717 161.656 262.925 161.693 263.107 161.768C263.299 161.843 263.416 161.949 263.459 162.088L267.123 172.232C267.144 172.339 267.155 172.419 267.155 172.472C267.155 172.621 267.101 172.749 266.995 172.856C266.899 172.952 266.744 173 266.531 173C266.307 173 266.077 172.941 265.843 172.824C265.619 172.707 265.448 172.483 265.331 172.152L264.483 169.96H259.987L259.171 172.152ZM262.307 163.544H262.211L260.243 169.128H264.243L262.307 163.544ZM279.023 161.656C279.269 161.656 279.45 161.72 279.567 161.848C279.695 161.976 279.759 162.179 279.759 162.456V172.2C279.759 172.488 279.706 172.696 279.599 172.824C279.493 172.941 279.311 173 279.055 173C278.725 173 278.469 172.899 278.287 172.696C278.117 172.483 278.031 172.173 278.031 171.768V167.576H272.815V171.96C272.815 172.333 272.735 172.6 272.575 172.76C272.415 172.92 272.165 173 271.823 173C271.578 173 271.391 172.936 271.263 172.808C271.146 172.68 271.087 172.477 271.087 172.2V162.456C271.087 162.168 271.141 161.965 271.247 161.848C271.354 161.72 271.535 161.656 271.791 161.656C272.122 161.656 272.373 161.763 272.543 161.976C272.725 162.179 272.815 162.483 272.815 162.888V166.696H278.031V162.696C278.031 162.323 278.111 162.056 278.271 161.896C278.431 161.736 278.682 161.656 279.023 161.656ZM130.374 185.592C130.374 185.432 130.459 185.315 130.63 185.24C130.801 185.155 131.03 185.112 131.318 185.112C131.595 185.112 131.825 185.155 132.006 185.24C132.187 185.325 132.278 185.443 132.278 185.592L131.75 188.76C131.739 188.835 131.691 188.893 131.606 188.936C131.521 188.968 131.425 188.984 131.318 188.984C131.211 188.984 131.115 188.963 131.03 188.92C130.945 188.877 130.897 188.824 130.886 188.76L130.374 185.592ZM133.174 185.592C133.174 185.432 133.259 185.315 133.43 185.24C133.611 185.155 133.841 185.112 134.118 185.112C134.395 185.112 134.625 185.155 134.806 185.24C134.987 185.325 135.078 185.443 135.078 185.592L134.55 188.76C134.539 188.835 134.491 188.893 134.406 188.936C134.321 188.968 134.225 188.984 134.118 188.984C134.011 188.984 133.915 188.963 133.83 188.92C133.745 188.877 133.697 188.824 133.686 188.76L133.174 185.592ZM140.967 195.96C140.967 196.333 140.887 196.6 140.727 196.76C140.567 196.92 140.316 197 139.975 197C139.73 197 139.543 196.936 139.415 196.808C139.298 196.68 139.239 196.477 139.239 196.2V186.456C139.239 186.168 139.292 185.965 139.399 185.848C139.506 185.72 139.687 185.656 139.943 185.656H142.615C143.276 185.656 143.911 185.72 144.519 185.848C145.138 185.976 145.698 186.285 146.199 186.776C146.7 187.256 146.951 187.987 146.951 188.968C146.951 189.651 146.791 190.269 146.471 190.824C146.151 191.368 145.666 191.8 145.015 192.12C144.375 192.44 143.58 192.6 142.631 192.6H140.967V195.96ZM140.967 191.752H142.615C143.415 191.752 144.034 191.528 144.471 191.08C144.919 190.621 145.143 189.917 145.143 188.968C145.143 188.179 144.946 187.571 144.551 187.144C144.167 186.717 143.522 186.504 142.615 186.504H140.967V191.752ZM150.714 186.456C150.714 186.168 150.767 185.965 150.874 185.848C150.981 185.72 151.162 185.656 151.418 185.656H154.442C155.669 185.656 156.65 185.885 157.386 186.344C158.122 186.792 158.49 187.592 158.49 188.744C158.49 189.267 158.351 189.747 158.074 190.184C157.807 190.621 157.455 190.979 157.018 191.256C156.591 191.533 156.149 191.709 155.69 191.784L158.346 196.056C158.442 196.195 158.49 196.333 158.49 196.472C158.49 196.632 158.421 196.76 158.282 196.856C158.143 196.952 157.941 197 157.674 197C157.461 197 157.258 196.952 157.066 196.856C156.874 196.76 156.714 196.605 156.586 196.392L153.898 191.896H152.442V195.96C152.442 196.333 152.362 196.6 152.202 196.76C152.042 196.92 151.791 197 151.45 197C151.205 197 151.018 196.936 150.89 196.808C150.773 196.68 150.714 196.477 150.714 196.2V186.456ZM152.442 191.048H154.154C154.815 191.048 155.402 190.856 155.914 190.472C156.426 190.077 156.682 189.469 156.682 188.648C156.682 187.773 156.447 187.197 155.978 186.92C155.509 186.643 154.943 186.504 154.282 186.504H152.442V191.048ZM169.043 188.44C168.734 188.44 168.499 188.36 168.339 188.2C168.19 188.04 168.115 187.773 168.115 187.4V186.504H164.323V190.696H167.683C167.822 190.696 167.929 190.744 168.003 190.84C168.089 190.925 168.131 191.027 168.131 191.144C168.131 191.251 168.083 191.352 167.987 191.448C167.891 191.533 167.79 191.576 167.683 191.576H164.323V196.152H168.355V195.256C168.355 194.883 168.43 194.616 168.579 194.456C168.739 194.296 168.974 194.216 169.283 194.216C169.518 194.216 169.689 194.28 169.795 194.408C169.913 194.536 169.971 194.739 169.971 195.016V196.408C169.971 196.632 169.891 196.787 169.731 196.872C169.582 196.957 169.342 197 169.011 197H163.331C163.086 197 162.899 196.936 162.771 196.808C162.654 196.68 162.595 196.477 162.595 196.2V186.456C162.595 186.179 162.654 185.976 162.771 185.848C162.899 185.72 163.086 185.656 163.331 185.656H168.771C169.102 185.656 169.342 185.699 169.491 185.784C169.651 185.869 169.731 186.024 169.731 186.248V187.64C169.731 187.917 169.673 188.12 169.555 188.248C169.449 188.376 169.278 188.44 169.043 188.44ZM179.917 188.568C179.607 188.568 179.373 188.493 179.213 188.344C179.063 188.184 178.989 187.928 178.989 187.576V186.76C178.946 186.749 178.855 186.723 178.717 186.68C178.226 186.541 177.687 186.472 177.101 186.472C176.631 186.472 176.237 186.573 175.917 186.776C175.597 186.968 175.357 187.219 175.197 187.528C175.047 187.827 174.973 188.136 174.973 188.456C174.973 188.819 175.037 189.117 175.165 189.352C175.303 189.587 175.522 189.789 175.821 189.96C176.119 190.131 176.557 190.323 177.133 190.536C178.274 190.941 179.111 191.272 179.645 191.528C180.178 191.784 180.594 192.099 180.893 192.472C181.191 192.835 181.341 193.309 181.341 193.896C181.341 194.493 181.165 195.027 180.813 195.496C180.471 195.965 179.959 196.333 179.277 196.6C178.605 196.867 177.799 197 176.861 197C176.381 197 175.853 196.952 175.277 196.856C174.711 196.749 174.237 196.621 173.853 196.472C173.607 196.365 173.442 196.269 173.357 196.184C173.271 196.088 173.229 195.928 173.229 195.704V194.744C173.229 194.232 173.458 193.976 173.917 193.976C174.226 193.976 174.455 194.056 174.605 194.216C174.765 194.365 174.845 194.621 174.845 194.984V195.848C175.517 196.072 176.167 196.184 176.797 196.184C177.373 196.184 177.869 196.083 178.285 195.88C178.701 195.677 179.015 195.416 179.229 195.096C179.442 194.776 179.549 194.435 179.549 194.072C179.549 193.72 179.453 193.421 179.261 193.176C179.079 192.931 178.802 192.712 178.429 192.52C178.055 192.328 177.533 192.109 176.861 191.864C175.954 191.523 175.255 191.235 174.765 191C174.285 190.755 173.901 190.44 173.613 190.056C173.325 189.661 173.181 189.16 173.181 188.552C173.181 187.677 173.517 186.979 174.189 186.456C174.861 185.923 175.794 185.656 176.989 185.656C177.543 185.656 178.05 185.699 178.509 185.784C178.967 185.859 179.447 185.971 179.949 186.12C180.205 186.205 180.375 186.296 180.461 186.392C180.557 186.488 180.605 186.648 180.605 186.872V187.8C180.605 188.312 180.375 188.568 179.917 188.568ZM184.698 197C184.506 197 184.378 196.968 184.314 196.904C184.25 196.829 184.218 196.733 184.218 196.616C184.218 196.477 184.261 196.365 184.346 196.28C184.442 196.195 184.613 196.152 184.858 196.152H186.298V186.504H184.858C184.613 186.504 184.442 186.461 184.346 186.376C184.261 186.291 184.218 186.179 184.218 186.04C184.218 185.923 184.25 185.832 184.314 185.768C184.378 185.693 184.506 185.656 184.698 185.656H189.626C189.818 185.656 189.946 185.693 190.01 185.768C190.074 185.832 190.106 185.923 190.106 186.04C190.106 186.179 190.058 186.291 189.962 186.376C189.877 186.461 189.712 186.504 189.466 186.504H188.026V196.152H189.466C189.712 196.152 189.877 196.195 189.962 196.28C190.058 196.365 190.106 196.477 190.106 196.616C190.106 196.733 190.074 196.829 190.01 196.904C189.946 196.968 189.818 197 189.626 197H184.698ZM193.63 186.456C193.63 186.179 193.688 185.976 193.806 185.848C193.934 185.72 194.12 185.656 194.366 185.656H196.654C200.398 185.656 202.27 187.528 202.27 191.272C202.27 192.669 201.976 193.8 201.39 194.664C200.814 195.517 200.104 196.12 199.262 196.472C198.43 196.824 197.587 197 196.734 197H194.366C194.12 197 193.934 196.936 193.806 196.808C193.688 196.68 193.63 196.477 193.63 196.2V186.456ZM195.358 196.152H195.71V196.136H196.462C197.646 196.136 198.606 195.736 199.342 194.936C200.088 194.136 200.462 192.915 200.462 191.272C200.462 189.608 200.094 188.397 199.358 187.64C198.632 186.883 197.667 186.504 196.462 186.504H195.358V196.152ZM212.771 188.44C212.462 188.44 212.227 188.36 212.067 188.2C211.918 188.04 211.843 187.773 211.843 187.4V186.504H208.051V190.696H211.411C211.55 190.696 211.657 190.744 211.731 190.84C211.817 190.925 211.859 191.027 211.859 191.144C211.859 191.251 211.811 191.352 211.715 191.448C211.619 191.533 211.518 191.576 211.411 191.576H208.051V196.152H212.083V195.256C212.083 194.883 212.158 194.616 212.307 194.456C212.467 194.296 212.702 194.216 213.011 194.216C213.246 194.216 213.417 194.28 213.523 194.408C213.641 194.536 213.699 194.739 213.699 195.016V196.408C213.699 196.632 213.619 196.787 213.459 196.872C213.31 196.957 213.07 197 212.739 197H207.059C206.814 197 206.627 196.936 206.499 196.808C206.382 196.68 206.323 196.477 206.323 196.2V186.456C206.323 186.179 206.382 185.976 206.499 185.848C206.627 185.72 206.814 185.656 207.059 185.656H212.499C212.83 185.656 213.07 185.699 213.219 185.784C213.379 185.869 213.459 186.024 213.459 186.248V187.64C213.459 187.917 213.401 188.12 213.283 188.248C213.177 188.376 213.006 188.44 212.771 188.44ZM218.141 197C217.97 197 217.826 196.941 217.709 196.824C217.591 196.707 217.533 196.525 217.533 196.28V186.52C217.533 186.253 217.623 186.045 217.805 185.896C217.997 185.736 218.226 185.656 218.493 185.656C218.727 185.656 218.935 185.704 219.117 185.8C219.309 185.896 219.485 186.072 219.645 186.328L224.877 194.632H224.957V186.552C224.957 186.243 225.021 186.019 225.149 185.88C225.287 185.731 225.442 185.656 225.613 185.656C225.783 185.656 225.927 185.715 226.045 185.832C226.162 185.949 226.221 186.131 226.221 186.376V196.072C226.221 196.371 226.13 196.6 225.949 196.76C225.778 196.92 225.559 197 225.293 197C224.791 197 224.402 196.787 224.125 196.36L218.893 188.024H218.797V196.104C218.797 196.413 218.727 196.643 218.589 196.792C218.461 196.931 218.311 197 218.141 197ZM235.487 196.04C235.487 196.403 235.407 196.653 235.247 196.792C235.098 196.931 234.847 197 234.495 197C234.25 197 234.063 196.936 233.935 196.808C233.818 196.68 233.759 196.477 233.759 196.2V186.504H231.359V187.64C231.359 188.013 231.279 188.28 231.119 188.44C230.97 188.6 230.741 188.68 230.431 188.68C230.197 188.68 230.021 188.616 229.903 188.488C229.797 188.36 229.743 188.157 229.743 187.88V186.248C229.743 186.024 229.818 185.869 229.967 185.784C230.127 185.699 230.373 185.656 230.703 185.656H238.543C238.874 185.656 239.114 185.699 239.263 185.784C239.423 185.869 239.503 186.024 239.503 186.248V187.88C239.503 188.157 239.445 188.36 239.327 188.488C239.221 188.616 239.05 188.68 238.815 188.68C238.506 188.68 238.271 188.6 238.111 188.44C237.962 188.28 237.887 188.013 237.887 187.64V186.504H235.487V196.04ZM255.875 188.536C255.565 188.536 255.331 188.456 255.171 188.296C255.021 188.136 254.947 187.869 254.947 187.496V186.6C254.552 186.515 254.163 186.472 253.779 186.472C252.765 186.472 251.96 186.899 251.363 187.752C250.776 188.595 250.483 189.832 250.483 191.464C250.483 193.203 250.771 194.424 251.347 195.128C251.923 195.821 252.771 196.168 253.891 196.168C254.552 196.168 255.251 196.013 255.987 195.704L256.291 195.576C256.355 195.555 256.397 195.544 256.419 195.544C256.525 195.544 256.616 195.597 256.691 195.704C256.765 195.8 256.803 195.907 256.803 196.024C256.803 196.173 256.733 196.28 256.595 196.344L256.323 196.456C255.885 196.637 255.443 196.776 254.995 196.872C254.557 196.957 254.04 197 253.443 197C251.821 197 250.621 196.52 249.843 195.56C249.064 194.589 248.675 193.213 248.675 191.432C248.675 190.141 248.883 189.064 249.299 188.2C249.725 187.336 250.307 186.696 251.043 186.28C251.779 185.864 252.621 185.656 253.571 185.656C254.424 185.656 255.203 185.768 255.907 185.992C256.163 186.077 256.333 186.173 256.419 186.28C256.515 186.376 256.563 186.541 256.563 186.776V187.736C256.563 188.013 256.504 188.216 256.387 188.344C256.28 188.472 256.109 188.536 255.875 188.536ZM259.523 197C259.331 197 259.203 196.968 259.139 196.904C259.075 196.829 259.043 196.733 259.043 196.616C259.043 196.477 259.086 196.365 259.171 196.28C259.267 196.195 259.438 196.152 259.683 196.152H261.123V186.504H259.683C259.438 186.504 259.267 186.461 259.171 186.376C259.086 186.291 259.043 186.179 259.043 186.04C259.043 185.923 259.075 185.832 259.139 185.768C259.203 185.693 259.331 185.656 259.523 185.656H264.451C264.643 185.656 264.771 185.693 264.835 185.768C264.899 185.832 264.931 185.923 264.931 186.04C264.931 186.179 264.883 186.291 264.787 186.376C264.702 186.461 264.537 186.504 264.291 186.504H262.851V196.152H264.291C264.537 196.152 264.702 196.195 264.787 196.28C264.883 196.365 264.931 196.477 264.931 196.616C264.931 196.733 264.899 196.829 264.835 196.904C264.771 196.968 264.643 197 264.451 197H259.523ZM272.919 196.04C272.919 196.403 272.839 196.653 272.679 196.792C272.529 196.931 272.279 197 271.927 197C271.681 197 271.495 196.936 271.367 196.808C271.249 196.68 271.191 196.477 271.191 196.2V186.504H268.791V187.64C268.791 188.013 268.711 188.28 268.551 188.44C268.401 188.6 268.172 188.68 267.863 188.68C267.628 188.68 267.452 188.616 267.335 188.488C267.228 188.36 267.175 188.157 267.175 187.88V186.248C267.175 186.024 267.249 185.869 267.399 185.784C267.559 185.699 267.804 185.656 268.135 185.656H275.975C276.305 185.656 276.545 185.699 276.695 185.784C276.855 185.869 276.935 186.024 276.935 186.248V187.88C276.935 188.157 276.876 188.36 276.759 188.488C276.652 188.616 276.481 188.68 276.247 188.68C275.937 188.68 275.703 188.6 275.543 188.44C275.393 188.28 275.319 188.013 275.319 187.64V186.504H272.919V196.04ZM283.305 197C282.804 197 282.553 196.733 282.553 196.2V192.712L279.401 186.616C279.337 186.467 279.305 186.333 279.305 186.216C279.305 186.056 279.359 185.923 279.465 185.816C279.572 185.709 279.711 185.656 279.881 185.656C280.159 185.656 280.393 185.715 280.585 185.832C280.777 185.949 280.953 186.168 281.113 186.488L283.657 191.512H283.721L286.121 186.504C286.388 185.939 286.713 185.656 287.097 185.656C287.247 185.656 287.359 185.709 287.433 185.816C287.508 185.912 287.545 186.035 287.545 186.184C287.545 186.312 287.519 186.429 287.465 186.536L284.281 192.712V196.04C284.281 196.413 284.201 196.669 284.041 196.808C283.892 196.936 283.647 197 283.305 197ZM305.3 185.656C305.545 185.656 305.727 185.72 305.844 185.848C305.972 185.976 306.036 186.179 306.036 186.456V196.2C306.036 196.488 305.983 196.696 305.876 196.824C305.769 196.941 305.588 197 305.332 197C305.001 197 304.745 196.899 304.564 196.696C304.393 196.483 304.308 196.173 304.308 195.768V191.576H299.092V195.96C299.092 196.333 299.012 196.6 298.852 196.76C298.692 196.92 298.441 197 298.1 197C297.855 197 297.668 196.936 297.54 196.808C297.423 196.68 297.364 196.477 297.364 196.2V186.456C297.364 186.168 297.417 185.965 297.524 185.848C297.631 185.72 297.812 185.656 298.068 185.656C298.399 185.656 298.649 185.763 298.82 185.976C299.001 186.179 299.092 186.483 299.092 186.888V190.696H304.308V186.696C304.308 186.323 304.388 186.056 304.548 185.896C304.708 185.736 304.959 185.656 305.3 185.656ZM310.887 196.152C310.759 196.493 310.61 196.723 310.439 196.84C310.279 196.947 310.103 197 309.911 197C309.762 197 309.65 196.963 309.575 196.888C309.511 196.803 309.479 196.696 309.479 196.568C309.479 196.44 309.506 196.307 309.559 196.168L313.319 186.04C313.362 185.923 313.463 185.832 313.623 185.768C313.794 185.693 313.986 185.656 314.199 185.656C314.434 185.656 314.642 185.693 314.823 185.768C315.015 185.843 315.132 185.949 315.175 186.088L318.839 196.232C318.86 196.339 318.871 196.419 318.871 196.472C318.871 196.621 318.818 196.749 318.711 196.856C318.615 196.952 318.46 197 318.247 197C318.023 197 317.794 196.941 317.559 196.824C317.335 196.707 317.164 196.483 317.047 196.152L316.199 193.96H311.703L310.887 196.152ZM314.023 187.544H313.927L311.959 193.128H315.959L314.023 187.544ZM328.602 194.008C328.837 194.008 329.007 194.072 329.114 194.2C329.231 194.328 329.29 194.531 329.29 194.808V196.488C329.29 196.669 329.21 196.803 329.05 196.888C328.89 196.963 328.65 197 328.33 197H323.05C322.805 197 322.618 196.936 322.49 196.808C322.373 196.68 322.314 196.477 322.314 196.2V186.456C322.314 186.168 322.367 185.965 322.474 185.848C322.581 185.72 322.762 185.656 323.018 185.656C323.349 185.656 323.599 185.763 323.77 185.976C323.951 186.179 324.042 186.483 324.042 186.888V196.152H327.674V195.048C327.674 194.675 327.749 194.408 327.898 194.248C328.058 194.088 328.293 194.008 328.602 194.008ZM339.343 194.008C339.577 194.008 339.748 194.072 339.855 194.2C339.972 194.328 340.031 194.531 340.031 194.808V196.488C340.031 196.669 339.951 196.803 339.791 196.888C339.631 196.963 339.391 197 339.071 197H333.791C333.545 197 333.359 196.936 333.231 196.808C333.113 196.68 333.055 196.477 333.055 196.2V186.456C333.055 186.168 333.108 185.965 333.215 185.848C333.321 185.72 333.503 185.656 333.759 185.656C334.089 185.656 334.34 185.763 334.511 185.976C334.692 186.179 334.783 186.483 334.783 186.888V196.152H338.415V195.048C338.415 194.675 338.489 194.408 338.639 194.248C338.799 194.088 339.033 194.008 339.343 194.008ZM340.921 185.592C340.921 185.432 341.006 185.315 341.177 185.24C341.348 185.155 341.577 185.112 341.865 185.112C342.142 185.112 342.372 185.155 342.553 185.24C342.734 185.325 342.825 185.443 342.825 185.592L342.297 188.76C342.286 188.835 342.238 188.893 342.153 188.936C342.068 188.968 341.972 188.984 341.865 188.984C341.758 188.984 341.662 188.963 341.577 188.92C341.492 188.877 341.444 188.824 341.433 188.76L340.921 185.592ZM343.721 185.592C343.721 185.432 343.806 185.315 343.977 185.24C344.158 185.155 344.388 185.112 344.665 185.112C344.942 185.112 345.172 185.155 345.353 185.24C345.534 185.325 345.625 185.443 345.625 185.592L345.097 188.76C345.086 188.835 345.038 188.893 344.953 188.936C344.868 188.968 344.772 188.984 344.665 188.984C344.558 188.984 344.462 188.963 344.377 188.92C344.292 188.877 344.244 188.824 344.233 188.76L343.721 185.592Z" fill="#064E3B"/>
</svg>
