<svg width="472" height="200" viewBox="0 0 472 200" fill="none" xmlns="http://www.w3.org/2000/svg">
<path d="M223.248 17C222.528 17 222.168 16.538 222.168 15.614V6.902H222.042L218.334 16.334C218.154 16.778 217.902 17 217.578 17C217.242 17 216.984 16.778 216.804 16.334L213.348 6.902H213.222V15.992C213.222 16.34 213.144 16.598 212.988 16.766C212.844 16.922 212.676 17 212.484 17C212.292 17 212.13 16.934 211.998 16.802C211.866 16.67 211.8 16.466 211.8 16.19V5.192C211.8 4.892 211.914 4.658 212.142 4.49C212.37 4.322 212.64 4.238 212.952 4.238C213.216 4.238 213.474 4.31 213.726 4.454C213.99 4.586 214.182 4.802 214.302 5.102L217.758 14.66H217.848L221.61 5.192C221.73 4.856 221.922 4.616 222.186 4.472C222.462 4.316 222.756 4.238 223.068 4.238C223.38 4.238 223.608 4.316 223.752 4.472C223.908 4.628 223.986 4.868 223.986 5.192V16.1C223.986 16.436 223.932 16.67 223.824 16.802C223.716 16.934 223.524 17 223.248 17ZM228.125 16.046C227.981 16.43 227.813 16.688 227.621 16.82C227.441 16.94 227.243 17 227.027 17C226.859 17 226.733 16.958 226.649 16.874C226.577 16.778 226.541 16.658 226.541 16.514C226.541 16.37 226.571 16.22 226.631 16.064L230.861 4.67C230.909 4.538 231.023 4.436 231.203 4.364C231.395 4.28 231.611 4.238 231.851 4.238C232.115 4.238 232.349 4.28 232.553 4.364C232.769 4.448 232.901 4.568 232.949 4.724L237.071 16.136C237.095 16.256 237.107 16.346 237.107 16.406C237.107 16.574 237.047 16.718 236.927 16.838C236.819 16.946 236.645 17 236.405 17C236.153 17 235.895 16.934 235.631 16.802C235.379 16.67 235.187 16.418 235.055 16.046L234.101 13.58H229.043L228.125 16.046ZM231.653 6.362H231.545L229.331 12.644H233.831L231.653 6.362ZM241.676 15.83C241.676 16.25 241.586 16.55 241.406 16.73C241.226 16.91 240.944 17 240.56 17C240.284 17 240.074 16.928 239.93 16.784C239.798 16.64 239.732 16.412 239.732 16.1V5.138C239.732 4.814 239.792 4.586 239.912 4.454C240.032 4.31 240.236 4.238 240.524 4.238H243.53C244.274 4.238 244.988 4.31 245.672 4.454C246.368 4.598 246.998 4.946 247.562 5.498C248.126 6.038 248.408 6.86 248.408 7.964C248.408 8.732 248.228 9.428 247.868 10.052C247.508 10.664 246.962 11.15 246.23 11.51C245.51 11.87 244.616 12.05 243.548 12.05H241.676V15.83ZM241.676 11.096H243.53C244.43 11.096 245.126 10.844 245.618 10.34C246.122 9.824 246.374 9.032 246.374 7.964C246.374 7.076 246.152 6.392 245.708 5.912C245.276 5.432 244.55 5.192 243.53 5.192H241.676V11.096ZM256.215 15.92C256.215 16.328 256.125 16.61 255.945 16.766C255.777 16.922 255.495 17 255.099 17C254.823 17 254.613 16.928 254.469 16.784C254.337 16.64 254.271 16.412 254.271 16.1V5.192H251.571V6.47C251.571 6.89 251.481 7.19 251.301 7.37C251.133 7.55 250.875 7.64 250.527 7.64C250.263 7.64 250.065 7.568 249.933 7.424C249.813 7.28 249.753 7.052 249.753 6.74V4.904C249.753 4.652 249.837 4.478 250.005 4.382C250.185 4.286 250.461 4.238 250.833 4.238H259.653C260.025 4.238 260.295 4.286 260.463 4.382C260.643 4.478 260.733 4.652 260.733 4.904V6.74C260.733 7.052 260.667 7.28 260.535 7.424C260.415 7.568 260.223 7.64 259.959 7.64C259.611 7.64 259.347 7.55 259.167 7.37C258.999 7.19 258.915 6.89 258.915 6.47V5.192H256.215V15.92Z" fill="#064E3B"/>
<path d="M214.595 97.09C214.331 97.09 214.133 97.018 214.001 96.874C213.881 96.73 213.821 96.502 213.821 96.19V95.11C213.821 94.906 213.845 94.756 213.893 94.66C213.953 94.564 214.067 94.462 214.235 94.354C214.847 93.946 215.435 93.658 215.999 93.49C216.575 93.322 217.199 93.238 217.871 93.238C219.059 93.238 219.935 93.544 220.499 94.156C221.075 94.756 221.363 95.518 221.363 96.442C221.363 97.606 220.895 98.866 219.959 100.222C219.035 101.566 217.415 103.174 215.099 105.046H219.797V103.93C219.797 103.51 219.875 103.21 220.031 103.03C220.199 102.85 220.439 102.76 220.751 102.76C221.015 102.76 221.207 102.832 221.327 102.976C221.459 103.12 221.525 103.348 221.525 103.66V105.424C221.525 105.628 221.435 105.778 221.255 105.874C221.075 105.958 220.805 106 220.445 106H214.055C213.911 106 213.797 105.952 213.713 105.856C213.641 105.76 213.605 105.64 213.605 105.496C213.605 105.244 213.695 105.04 213.875 104.884L214.127 104.65C216.203 102.718 217.589 101.11 218.285 99.826C218.981 98.53 219.329 97.492 219.329 96.712C219.329 96.028 219.179 95.434 218.879 94.93C218.591 94.414 218.063 94.156 217.295 94.156C216.719 94.156 216.137 94.312 215.549 94.624V95.92C215.549 96.352 215.477 96.658 215.333 96.838C215.189 97.006 214.943 97.09 214.595 97.09ZM227.089 99.628C227.089 97.72 227.419 96.178 228.079 95.002C228.739 93.826 229.795 93.238 231.247 93.238C232.699 93.238 233.755 93.826 234.415 95.002C235.075 96.178 235.405 97.72 235.405 99.628C235.405 101.596 235.075 103.15 234.415 104.29C233.767 105.43 232.711 106 231.247 106C229.783 106 228.721 105.43 228.061 104.29C227.413 103.15 227.089 101.596 227.089 99.628ZM233.425 99.628C233.425 98.032 233.281 96.724 232.993 95.704C232.705 94.672 232.123 94.156 231.247 94.156C230.371 94.156 229.789 94.672 229.501 95.704C229.213 96.724 229.069 98.032 229.069 99.628C229.069 100.72 229.117 101.656 229.213 102.436C229.309 103.204 229.513 103.84 229.825 104.344C230.149 104.836 230.623 105.082 231.247 105.082C231.871 105.082 232.339 104.836 232.651 104.344C232.975 103.84 233.185 103.204 233.281 102.436C233.377 101.656 233.425 100.72 233.425 99.628ZM241.598 97.09C241.334 97.09 241.136 97.018 241.004 96.874C240.884 96.73 240.824 96.502 240.824 96.19V95.11C240.824 94.906 240.848 94.756 240.896 94.66C240.956 94.564 241.07 94.462 241.238 94.354C241.85 93.946 242.438 93.658 243.002 93.49C243.578 93.322 244.202 93.238 244.874 93.238C246.062 93.238 246.938 93.544 247.502 94.156C248.078 94.756 248.366 95.518 248.366 96.442C248.366 97.606 247.898 98.866 246.962 100.222C246.038 101.566 244.418 103.174 242.102 105.046H246.8V103.93C246.8 103.51 246.878 103.21 247.034 103.03C247.202 102.85 247.442 102.76 247.754 102.76C248.018 102.76 248.21 102.832 248.33 102.976C248.462 103.12 248.528 103.348 248.528 103.66V105.424C248.528 105.628 248.438 105.778 248.258 105.874C248.078 105.958 247.808 106 247.448 106H241.058C240.914 106 240.8 105.952 240.716 105.856C240.644 105.76 240.608 105.64 240.608 105.496C240.608 105.244 240.698 105.04 240.878 104.884L241.13 104.65C243.206 102.718 244.592 101.11 245.288 99.826C245.984 98.53 246.332 97.492 246.332 96.712C246.332 96.028 246.182 95.434 245.882 94.93C245.594 94.414 245.066 94.156 244.298 94.156C243.722 94.156 243.14 94.312 242.552 94.624V95.92C242.552 96.352 242.48 96.658 242.336 96.838C242.192 97.006 241.946 97.09 241.598 97.09ZM254.794 102.166C255.142 102.166 255.388 102.256 255.532 102.436C255.676 102.604 255.748 102.904 255.748 103.336V104.632C256.264 104.932 256.876 105.082 257.584 105.082C258.292 105.082 258.874 104.86 259.33 104.416C259.798 103.96 260.032 103.282 260.032 102.382C260.032 101.434 259.804 100.774 259.348 100.402C258.892 100.03 258.238 99.844 257.386 99.844H256.864C256.78 99.844 256.708 99.796 256.648 99.7C256.6 99.604 256.576 99.49 256.576 99.358C256.576 99.226 256.6 99.112 256.648 99.016C256.708 98.908 256.78 98.854 256.864 98.854H257.386C258.154 98.854 258.724 98.65 259.096 98.242C259.468 97.822 259.654 97.186 259.654 96.334C259.654 95.59 259.468 95.044 259.096 94.696C258.724 94.336 258.226 94.156 257.602 94.156C257.326 94.156 257.038 94.198 256.738 94.282C256.438 94.354 256.168 94.456 255.928 94.588V95.884C255.928 96.316 255.856 96.622 255.712 96.802C255.568 96.97 255.322 97.054 254.974 97.054C254.71 97.054 254.512 96.982 254.38 96.838C254.26 96.694 254.2 96.466 254.2 96.154V95.074C254.2 94.858 254.23 94.696 254.29 94.588C254.35 94.468 254.458 94.36 254.614 94.264C255.178 93.904 255.73 93.646 256.27 93.49C256.822 93.322 257.416 93.238 258.052 93.238C259.264 93.238 260.164 93.52 260.752 94.084C261.34 94.648 261.634 95.398 261.634 96.334C261.634 97.078 261.412 97.702 260.968 98.206C260.536 98.71 260.002 99.028 259.366 99.16V99.322C260.17 99.43 260.818 99.73 261.31 100.222C261.802 100.714 262.048 101.428 262.048 102.364C262.048 103.096 261.868 103.738 261.508 104.29C261.16 104.83 260.662 105.25 260.014 105.55C259.378 105.85 258.64 106 257.8 106C256.612 106 255.49 105.688 254.434 105.064C254.158 104.896 254.02 104.59 254.02 104.146V103.066C254.02 102.754 254.08 102.526 254.2 102.382C254.332 102.238 254.53 102.166 254.794 102.166Z" fill="#064E3B"/>
<path d="M223.75 48.06C223.51 48.16 223.27 48.21 223.03 48.21C222.79 48.21 222.6 48.12 222.46 47.94C222.32 47.76 222.25 47.56 222.25 47.34C222.25 47.04 222.46 46.82 222.88 46.68L227.11 45.03C227.65 44.83 228.19 44.73 228.73 44.73C229.27 44.73 229.66 44.85 229.9 45.09C230.14 45.33 230.26 45.71 230.26 46.23V64.41H232.84C233.3 64.41 233.61 64.49 233.77 64.65C233.95 64.81 234.04 65.02 234.04 65.28C234.04 65.5 233.98 65.68 233.86 65.82C233.74 65.94 233.5 66 233.14 66H224.2C223.84 66 223.6 65.94 223.48 65.82C223.36 65.68 223.3 65.5 223.3 65.28C223.3 65.02 223.38 64.81 223.54 64.65C223.72 64.49 224.04 64.41 224.5 64.41H227.08V46.8L223.75 48.06ZM239.148 60.84C239.728 60.84 240.138 60.98 240.378 61.26C240.618 61.54 240.738 62.02 240.738 62.7V64.17C241.218 64.37 241.868 64.47 242.688 64.47C243.428 64.47 244.128 64.22 244.788 63.72C245.468 63.22 246.018 62.4 246.438 61.26C246.878 60.1 247.098 58.61 247.098 56.79V55.53C246.658 56.45 246.028 57.12 245.208 57.54C244.408 57.96 243.548 58.17 242.628 58.17C240.868 58.17 239.508 57.57 238.548 56.37C237.588 55.17 237.108 53.59 237.108 51.63C237.108 50.21 237.388 48.98 237.948 47.94C238.508 46.9 239.288 46.11 240.288 45.57C241.288 45.01 242.418 44.73 243.678 44.73C245.458 44.73 246.838 45.14 247.818 45.96C248.798 46.78 249.458 47.86 249.798 49.2C250.138 50.52 250.308 52.11 250.308 53.97C250.308 61.99 247.778 66 242.718 66C242.018 66 241.388 65.95 240.828 65.85C240.268 65.73 239.688 65.56 239.088 65.34C238.708 65.2 238.408 65.02 238.188 64.8C237.968 64.58 237.858 64.25 237.858 63.81V62.28C237.858 61.32 238.288 60.84 239.148 60.84ZM243.498 56.25C244.438 56.25 245.228 55.83 245.868 54.99C246.528 54.13 246.858 52.96 246.858 51.48C246.858 50.08 246.638 48.86 246.198 47.82C245.758 46.78 244.948 46.26 243.768 46.26C242.728 46.26 241.898 46.7 241.278 47.58C240.678 48.46 240.378 49.82 240.378 51.66C240.378 54.72 241.418 56.25 243.498 56.25Z" fill="#064E3B"/>
<path d="M33.8375 50.456C33.8375 50.1787 33.8962 49.976 34.0135 49.848C34.1415 49.72 34.3282 49.656 34.5735 49.656H37.8535C40.2215 49.656 41.4055 50.6053 41.4055 52.504C41.4055 53.0373 41.2402 53.5387 40.9095 54.008C40.5895 54.4667 40.1522 54.7653 39.5975 54.904V54.984C40.4082 55.1227 41.0108 55.432 41.4055 55.912C41.8002 56.3813 41.9975 56.9467 41.9975 57.608C41.9975 58.8987 41.5762 59.7893 40.7335 60.28C39.9015 60.76 38.9682 61 37.9335 61H34.5735C34.3282 61 34.1415 60.936 34.0135 60.808C33.8962 60.68 33.8375 60.4773 33.8375 60.2V50.456ZM35.5655 54.632H37.4055C37.7468 54.632 38.0828 54.5627 38.4135 54.424C38.7548 54.2747 39.0375 54.04 39.2615 53.72C39.4855 53.3893 39.5975 52.968 39.5975 52.456C39.5975 51.7627 39.3575 51.2667 38.8775 50.968C38.3975 50.6587 37.8642 50.504 37.2775 50.504H35.5655V54.632ZM35.5655 60.152H37.7095C38.3388 60.152 38.9095 59.9707 39.4215 59.608C39.9335 59.2347 40.1895 58.6213 40.1895 57.768C40.1895 57.2347 40.0562 56.7973 39.7895 56.456C39.5228 56.1147 39.1868 55.8693 38.7815 55.72C38.3762 55.56 37.9655 55.48 37.5495 55.48H35.5655V60.152ZM56.2043 55.336C56.2043 56.136 56.0816 56.9573 55.8363 57.8C55.6016 58.6427 55.1216 59.3893 54.3963 60.04C53.6709 60.68 52.6416 61 51.3083 61C49.9749 61 48.9456 60.68 48.2203 60.04C47.5056 59.3893 47.0309 58.6427 46.7963 57.8C46.5616 56.9573 46.4443 56.136 46.4443 55.336C46.4443 54.536 46.5616 53.7147 46.7963 52.872C47.0309 52.0293 47.5056 51.2827 48.2203 50.632C48.9456 49.9813 49.9749 49.656 51.3083 49.656C52.6416 49.656 53.6709 49.9813 54.3963 50.632C55.1216 51.2827 55.6016 52.0347 55.8363 52.888C56.0816 53.7307 56.2043 54.5467 56.2043 55.336ZM54.3963 55.336C54.3963 54.0987 54.1883 52.9787 53.7723 51.976C53.3563 50.9733 52.5349 50.472 51.3083 50.472C50.1029 50.472 49.2923 50.9733 48.8763 51.976C48.4603 52.9787 48.2523 54.0987 48.2523 55.336C48.2523 56.5627 48.4603 57.6773 48.8763 58.68C49.2923 59.6827 50.1029 60.184 51.3083 60.184C52.5349 60.184 53.3563 59.688 53.7723 58.696C54.1883 57.6933 54.3963 56.5733 54.3963 55.336ZM67.7374 52.536C67.428 52.536 67.1934 52.456 67.0334 52.296C66.884 52.136 66.8094 51.8693 66.8094 51.496V50.6C66.4147 50.5147 66.0254 50.472 65.6414 50.472C64.628 50.472 63.8227 50.8987 63.2254 51.752C62.6387 52.5947 62.3454 53.832 62.3454 55.464C62.3454 57.2027 62.6334 58.424 63.2094 59.128C63.7854 59.8213 64.6334 60.168 65.7534 60.168C66.4147 60.168 67.1134 60.0133 67.8494 59.704L68.1534 59.576C68.2174 59.5547 68.26 59.544 68.2814 59.544C68.388 59.544 68.4787 59.5973 68.5534 59.704C68.628 59.8 68.6654 59.9067 68.6654 60.024C68.6654 60.1733 68.596 60.28 68.4574 60.344L68.1854 60.456C67.748 60.6373 67.3054 60.776 66.8574 60.872C66.42 60.9573 65.9027 61 65.3054 61C63.684 61 62.484 60.52 61.7054 59.56C60.9267 58.5893 60.5374 57.2133 60.5374 55.432C60.5374 54.1413 60.7454 53.064 61.1614 52.2C61.588 51.336 62.1694 50.696 62.9054 50.28C63.6414 49.864 64.484 49.656 65.4334 49.656C66.2867 49.656 67.0654 49.768 67.7694 49.992C68.0254 50.0773 68.196 50.1733 68.2814 50.28C68.3774 50.376 68.4254 50.5413 68.4254 50.776V51.736C68.4254 52.0133 68.3667 52.216 68.2494 52.344C68.1427 52.472 67.972 52.536 67.7374 52.536ZM75.2903 54.776L79.9943 49.976C80.1969 49.7627 80.4103 49.656 80.6343 49.656C80.7943 49.656 80.9276 49.7093 81.0343 49.816C81.1516 49.9227 81.2103 50.04 81.2103 50.168C81.2103 50.2427 81.1836 50.3067 81.1303 50.36L76.5703 54.872L81.1783 59.944C81.3276 60.1147 81.4023 60.2693 81.4023 60.408C81.4023 60.568 81.3383 60.7067 81.2103 60.824C81.0929 60.9413 80.9383 61 80.7463 61C80.5009 61 80.2663 60.9467 80.0423 60.84C79.8289 60.7333 79.5836 60.5253 79.3063 60.216L75.2903 55.656H74.9543V59.96C74.9543 60.3333 74.8743 60.6 74.7143 60.76C74.5543 60.92 74.3036 61 73.9623 61C73.7169 61 73.5303 60.936 73.4023 60.808C73.2849 60.68 73.2263 60.4773 73.2263 60.2V50.456C73.2263 50.168 73.2796 49.9653 73.3863 49.848C73.4929 49.72 73.6743 49.656 73.9303 49.656C74.2609 49.656 74.5116 49.7627 74.6823 49.976C74.8636 50.1787 74.9543 50.4827 74.9543 50.888V54.776H75.2903ZM87.2974 59.96C87.2974 60.3333 87.2174 60.6 87.0574 60.76C86.8974 60.92 86.6467 61 86.3054 61C86.06 61 85.8734 60.936 85.7454 60.808C85.628 60.68 85.5694 60.4773 85.5694 60.2V50.456C85.5694 50.168 85.6227 49.9653 85.7294 49.848C85.836 49.72 86.0174 49.656 86.2734 49.656H88.9454C89.6067 49.656 90.2414 49.72 90.8494 49.848C91.468 49.976 92.028 50.2853 92.5294 50.776C93.0307 51.256 93.2814 51.9867 93.2814 52.968C93.2814 53.6507 93.1214 54.2693 92.8014 54.824C92.4814 55.368 91.996 55.8 91.3454 56.12C90.7054 56.44 89.9107 56.6 88.9614 56.6H87.2974V59.96ZM87.2974 55.752H88.9454C89.7454 55.752 90.364 55.528 90.8014 55.08C91.2494 54.6213 91.4734 53.9173 91.4734 52.968C91.4734 52.1787 91.276 51.5707 90.8814 51.144C90.4974 50.7173 89.852 50.504 88.9454 50.504H87.2974V55.752ZM104.532 52.44C104.223 52.44 103.988 52.36 103.828 52.2C103.679 52.04 103.604 51.7733 103.604 51.4V50.504H99.8124V54.696H103.172C103.311 54.696 103.418 54.744 103.492 54.84C103.578 54.9253 103.62 55.0267 103.62 55.144C103.62 55.2507 103.572 55.352 103.476 55.448C103.38 55.5333 103.279 55.576 103.172 55.576H99.8124V60.152H103.844V59.256C103.844 58.8827 103.919 58.616 104.068 58.456C104.228 58.296 104.463 58.216 104.772 58.216C105.007 58.216 105.178 58.28 105.284 58.408C105.402 58.536 105.46 58.7387 105.46 59.016V60.408C105.46 60.632 105.38 60.7867 105.22 60.872C105.071 60.9573 104.831 61 104.5 61H98.8204C98.575 61 98.3884 60.936 98.2604 60.808C98.143 60.68 98.0844 60.4773 98.0844 60.2V50.456C98.0844 50.1787 98.143 49.976 98.2604 49.848C98.3884 49.72 98.575 49.656 98.8204 49.656H104.26C104.591 49.656 104.831 49.6987 104.98 49.784C105.14 49.8693 105.22 50.024 105.22 50.248V51.64C105.22 51.9173 105.162 52.12 105.044 52.248C104.938 52.376 104.767 52.44 104.532 52.44ZM116.782 52.536C116.472 52.536 116.238 52.456 116.078 52.296C115.928 52.136 115.854 51.8693 115.854 51.496V50.6C115.459 50.5147 115.07 50.472 114.686 50.472C113.672 50.472 112.867 50.8987 112.27 51.752C111.683 52.5947 111.39 53.832 111.39 55.464C111.39 57.2027 111.678 58.424 112.254 59.128C112.83 59.8213 113.678 60.168 114.798 60.168C115.459 60.168 116.158 60.0133 116.894 59.704L117.198 59.576C117.262 59.5547 117.304 59.544 117.326 59.544C117.432 59.544 117.523 59.5973 117.598 59.704C117.672 59.8 117.71 59.9067 117.71 60.024C117.71 60.1733 117.64 60.28 117.502 60.344L117.23 60.456C116.792 60.6373 116.35 60.776 115.902 60.872C115.464 60.9573 114.947 61 114.35 61C112.728 61 111.528 60.52 110.75 59.56C109.971 58.5893 109.582 57.2133 109.582 55.432C109.582 54.1413 109.79 53.064 110.206 52.2C110.632 51.336 111.214 50.696 111.95 50.28C112.686 49.864 113.528 49.656 114.478 49.656C115.331 49.656 116.11 49.768 116.814 49.992C117.07 50.0773 117.24 50.1733 117.326 50.28C117.422 50.376 117.47 50.5413 117.47 50.776V51.736C117.47 52.0133 117.411 52.216 117.294 52.344C117.187 52.472 117.016 52.536 116.782 52.536ZM128.719 52.44C128.409 52.44 128.175 52.36 128.015 52.2C127.865 52.04 127.791 51.7733 127.791 51.4V50.504H123.999V54.696H127.359C127.497 54.696 127.604 54.744 127.679 54.84C127.764 54.9253 127.807 55.0267 127.807 55.144C127.807 55.2507 127.759 55.352 127.663 55.448C127.567 55.5333 127.465 55.576 127.359 55.576H123.999V60.152H128.031V59.256C128.031 58.8827 128.105 58.616 128.255 58.456C128.415 58.296 128.649 58.216 128.959 58.216C129.193 58.216 129.364 58.28 129.471 58.408C129.588 58.536 129.647 58.7387 129.647 59.016V60.408C129.647 60.632 129.567 60.7867 129.407 60.872C129.257 60.9573 129.017 61 128.687 61H123.007C122.761 61 122.575 60.936 122.447 60.808C122.329 60.68 122.271 60.4773 122.271 60.2V50.456C122.271 50.1787 122.329 49.976 122.447 49.848C122.575 49.72 122.761 49.656 123.007 49.656H128.447C128.777 49.656 129.017 49.6987 129.167 49.784C129.327 49.8693 129.407 50.024 129.407 50.248V51.64C129.407 51.9173 129.348 52.12 129.231 52.248C129.124 52.376 128.953 52.44 128.719 52.44ZM142.456 49.656C142.701 49.656 142.883 49.72 143 49.848C143.128 49.976 143.192 50.1787 143.192 50.456V60.2C143.192 60.488 143.139 60.696 143.032 60.824C142.925 60.9413 142.744 61 142.488 61C142.157 61 141.901 60.8987 141.72 60.696C141.549 60.4827 141.464 60.1733 141.464 59.768V55.576H136.248V59.96C136.248 60.3333 136.168 60.6 136.008 60.76C135.848 60.92 135.597 61 135.256 61C135.011 61 134.824 60.936 134.696 60.808C134.579 60.68 134.52 60.4773 134.52 60.2V50.456C134.52 50.168 134.573 49.9653 134.68 49.848C134.787 49.72 134.968 49.656 135.224 49.656C135.555 49.656 135.805 49.7627 135.976 49.976C136.157 50.1787 136.248 50.4827 136.248 50.888V54.696H141.464V50.696C141.464 50.3227 141.544 50.056 141.704 49.896C141.864 49.736 142.115 49.656 142.456 49.656ZM152.683 54.168C153.963 54.168 154.939 54.424 155.611 54.936C156.294 55.4373 156.635 56.312 156.635 57.56C156.635 58.8613 156.219 59.7627 155.387 60.264C154.555 60.7547 153.643 61 152.651 61H149.771C149.526 61 149.339 60.936 149.211 60.808C149.094 60.68 149.035 60.4773 149.035 60.2V50.456C149.035 50.168 149.088 49.9653 149.195 49.848C149.302 49.72 149.483 49.656 149.739 49.656C150.07 49.656 150.32 49.7627 150.491 49.976C150.672 50.1787 150.763 50.4827 150.763 50.888V54.168H152.683ZM150.747 60.152H152.443C153.094 60.152 153.654 59.96 154.123 59.576C154.592 59.1813 154.827 58.5093 154.827 57.56C154.827 56.6213 154.614 55.9653 154.187 55.592C153.771 55.208 153.163 55.016 152.363 55.016H150.747V60.152ZM168.201 52.44C167.892 52.44 167.657 52.36 167.497 52.2C167.348 52.04 167.273 51.7733 167.273 51.4V50.504H163.481V54.696H166.841C166.98 54.696 167.086 54.744 167.161 54.84C167.246 54.9253 167.289 55.0267 167.289 55.144C167.289 55.2507 167.241 55.352 167.145 55.448C167.049 55.5333 166.948 55.576 166.841 55.576H163.481V60.152H167.513V59.256C167.513 58.8827 167.588 58.616 167.737 58.456C167.897 58.296 168.132 58.216 168.441 58.216C168.676 58.216 168.846 58.28 168.953 58.408C169.07 58.536 169.129 58.7387 169.129 59.016V60.408C169.129 60.632 169.049 60.7867 168.889 60.872C168.74 60.9573 168.5 61 168.169 61H162.489C162.244 61 162.057 60.936 161.929 60.808C161.812 60.68 161.753 60.4773 161.753 60.2V50.456C161.753 50.1787 161.812 49.976 161.929 49.848C162.057 49.72 162.244 49.656 162.489 49.656H167.929C168.26 49.656 168.5 49.6987 168.649 49.784C168.809 49.8693 168.889 50.024 168.889 50.248V51.64C168.889 51.9173 168.83 52.12 168.713 52.248C168.606 52.376 168.436 52.44 168.201 52.44Z" fill="#064E3B"/>
<line y1="36" x2="200" y2="36" stroke="#064E3B" stroke-width="2"/>
<line y1="72" x2="200" y2="72" stroke="#064E3B" stroke-width="2"/>
<path d="M351.048 51.432C350.92 51.4853 350.792 51.512 350.664 51.512C350.536 51.512 350.435 51.464 350.36 51.368C350.285 51.272 350.248 51.1653 350.248 51.048C350.248 50.888 350.36 50.7707 350.584 50.696L352.84 49.816C353.128 49.7093 353.416 49.656 353.704 49.656C353.992 49.656 354.2 49.72 354.328 49.848C354.456 49.976 354.52 50.1787 354.52 50.456V60.152H355.896C356.141 60.152 356.307 60.1947 356.392 60.28C356.488 60.3653 356.536 60.4773 356.536 60.616C356.536 60.7333 356.504 60.8293 356.44 60.904C356.376 60.968 356.248 61 356.056 61H351.288C351.096 61 350.968 60.968 350.904 60.904C350.84 60.8293 350.808 60.7333 350.808 60.616C350.808 60.4773 350.851 60.3653 350.936 60.28C351.032 60.1947 351.203 60.152 351.448 60.152H352.824V50.76L351.048 51.432ZM359.859 50.248C359.859 50.024 359.934 49.8693 360.083 49.784C360.243 49.6987 360.489 49.656 360.819 49.656H366.371C366.574 49.656 366.723 49.7093 366.819 49.816C366.915 49.9227 366.963 50.056 366.963 50.216C366.963 50.44 366.905 50.648 366.787 50.84C365.838 52.344 365.123 53.816 364.643 55.256C364.174 56.696 363.806 58.2533 363.539 59.928C363.529 60.0027 363.507 60.1573 363.475 60.392C363.443 60.616 363.353 60.776 363.203 60.872C363.065 60.9573 362.846 61 362.547 61C362.206 61 361.966 60.9627 361.827 60.888C361.689 60.8027 361.619 60.68 361.619 60.52C361.619 60.3173 361.689 59.9493 361.827 59.416C362.297 57.6667 362.862 56.0187 363.523 54.472C364.185 52.9147 364.899 51.592 365.667 50.504H361.395V51.416C361.395 51.8 361.331 52.072 361.203 52.232C361.075 52.3813 360.857 52.456 360.547 52.456C360.313 52.456 360.137 52.392 360.019 52.264C359.913 52.136 359.859 51.9333 359.859 51.656V50.248ZM371.304 54.344C371.304 53.9707 371.421 53.6667 371.656 53.432C371.89 53.1973 372.178 53.08 372.52 53.08C372.861 53.08 373.149 53.2027 373.384 53.448C373.618 53.6827 373.736 53.9813 373.736 54.344C373.736 54.696 373.618 54.9893 373.384 55.224C373.149 55.4587 372.861 55.576 372.52 55.576C372.178 55.576 371.89 55.4587 371.656 55.224C371.421 54.9893 371.304 54.696 371.304 54.344ZM371.304 59.768C371.304 59.3947 371.421 59.0907 371.656 58.856C371.89 58.6213 372.178 58.504 372.52 58.504C372.861 58.504 373.149 58.6267 373.384 58.872C373.618 59.1067 373.736 59.4053 373.736 59.768C373.736 60.12 373.618 60.4133 373.384 60.648C373.149 60.8827 372.861 61 372.52 61C372.178 61 371.89 60.8827 371.656 60.648C371.421 60.4133 371.304 60.12 371.304 59.768ZM377.887 55.336C377.887 53.64 378.18 52.2693 378.767 51.224C379.354 50.1787 380.292 49.656 381.583 49.656C382.874 49.656 383.812 50.1787 384.399 51.224C384.986 52.2693 385.279 53.64 385.279 55.336C385.279 57.0853 384.986 58.4667 384.399 59.48C383.823 60.4933 382.884 61 381.583 61C380.282 61 379.338 60.4933 378.751 59.48C378.175 58.4667 377.887 57.0853 377.887 55.336ZM383.519 55.336C383.519 53.9173 383.391 52.7547 383.135 51.848C382.879 50.9307 382.362 50.472 381.583 50.472C380.804 50.472 380.287 50.9307 380.031 51.848C379.775 52.7547 379.647 53.9173 379.647 55.336C379.647 56.3067 379.69 57.1387 379.775 57.832C379.86 58.5147 380.042 59.08 380.319 59.528C380.607 59.9653 381.028 60.184 381.583 60.184C382.138 60.184 382.554 59.9653 382.831 59.528C383.119 59.08 383.306 58.5147 383.391 57.832C383.476 57.1387 383.519 56.3067 383.519 55.336ZM389.011 55.336C389.011 53.64 389.305 52.2693 389.891 51.224C390.478 50.1787 391.417 49.656 392.707 49.656C393.998 49.656 394.937 50.1787 395.523 51.224C396.11 52.2693 396.403 53.64 396.403 55.336C396.403 57.0853 396.11 58.4667 395.523 59.48C394.947 60.4933 394.009 61 392.707 61C391.406 61 390.462 60.4933 389.875 59.48C389.299 58.4667 389.011 57.0853 389.011 55.336ZM394.643 55.336C394.643 53.9173 394.515 52.7547 394.259 51.848C394.003 50.9307 393.486 50.472 392.707 50.472C391.929 50.472 391.411 50.9307 391.155 51.848C390.899 52.7547 390.771 53.9173 390.771 55.336C390.771 56.3067 390.814 57.1387 390.899 57.832C390.985 58.5147 391.166 59.08 391.443 59.528C391.731 59.9653 392.153 60.184 392.707 60.184C393.262 60.184 393.678 59.9653 393.955 59.528C394.243 59.08 394.43 58.5147 394.515 57.832C394.601 57.1387 394.643 56.3067 394.643 55.336Z" fill="#064E3B"/>
<line x1="272" y1="36" x2="472" y2="36" stroke="#064E3B" stroke-width="2"/>
<line x1="272" y1="72" x2="472" y2="72" stroke="#064E3B" stroke-width="2"/>
<path d="M88.1072 140.44C87.7979 140.44 87.5632 140.36 87.4032 140.2C87.2539 140.04 87.1792 139.773 87.1792 139.4V138.504H83.2592V142.344H85.5792C86.8486 142.344 87.8246 142.6 88.5072 143.112C89.1899 143.624 89.5312 144.461 89.5312 145.624C89.5312 146.467 89.3126 147.144 88.8752 147.656C88.4379 148.157 87.9152 148.509 87.3072 148.712C86.6992 148.904 86.1126 149 85.5472 149H82.2672C82.0219 149 81.8352 148.936 81.7072 148.808C81.5899 148.68 81.5312 148.477 81.5312 148.2V138.456C81.5312 138.179 81.5899 137.976 81.7072 137.848C81.8352 137.72 82.0219 137.656 82.2672 137.656H87.8352C88.1659 137.656 88.4059 137.699 88.5552 137.784C88.7152 137.869 88.7952 138.024 88.7952 138.248V139.64C88.7952 139.917 88.7366 140.12 88.6192 140.248C88.5126 140.376 88.3419 140.44 88.1072 140.44ZM83.2592 148.152H85.3392C85.9686 148.152 86.5232 147.949 87.0032 147.544C87.4832 147.139 87.7232 146.499 87.7232 145.624C87.7232 144.003 86.9019 143.192 85.2592 143.192H83.2592V148.152ZM101.379 137.656C101.624 137.656 101.806 137.72 101.923 137.848C102.051 137.976 102.115 138.179 102.115 138.456V148.2C102.115 148.488 102.062 148.696 101.955 148.824C101.848 148.941 101.667 149 101.411 149C101.08 149 100.824 148.899 100.643 148.696C100.472 148.483 100.387 148.173 100.387 147.768V139.88L95.203 148.44C95.107 148.611 94.9897 148.749 94.851 148.856C94.7123 148.952 94.499 149 94.211 149C93.9657 149 93.779 148.936 93.651 148.808C93.5337 148.68 93.475 148.477 93.475 148.2V138.456C93.475 138.168 93.5283 137.965 93.635 137.848C93.7417 137.72 93.923 137.656 94.179 137.656C94.5097 137.656 94.7603 137.763 94.931 137.976C95.1123 138.179 95.203 138.483 95.203 138.888V146.776L100.387 138.216C100.504 138.024 100.627 137.885 100.755 137.8C100.883 137.704 101.091 137.656 101.379 137.656ZM107.655 149C107.409 149 107.223 148.936 107.095 148.808C106.977 148.68 106.919 148.477 106.919 148.2V138.456C106.919 138.168 106.972 137.965 107.079 137.848C107.185 137.72 107.367 137.656 107.623 137.656C107.953 137.656 108.204 137.763 108.375 137.976C108.556 138.179 108.647 138.483 108.647 138.888V148.152H112.503V138.616C112.503 138.253 112.577 138.003 112.727 137.864C112.887 137.725 113.143 137.656 113.495 137.656C113.74 137.656 113.921 137.72 114.039 137.848C114.167 137.976 114.231 138.179 114.231 138.456V148.152H118.087V138.696C118.087 138.323 118.167 138.056 118.327 137.896C118.487 137.736 118.737 137.656 119.079 137.656C119.324 137.656 119.505 137.72 119.623 137.848C119.751 137.976 119.815 138.179 119.815 138.456V148.2C119.815 148.477 119.751 148.68 119.623 148.808C119.505 148.936 119.324 149 119.079 149H107.655ZM126.676 142.776L131.38 137.976C131.583 137.763 131.796 137.656 132.02 137.656C132.18 137.656 132.314 137.709 132.42 137.816C132.538 137.923 132.596 138.04 132.596 138.168C132.596 138.243 132.57 138.307 132.516 138.36L127.956 142.872L132.564 147.944C132.714 148.115 132.788 148.269 132.788 148.408C132.788 148.568 132.724 148.707 132.596 148.824C132.479 148.941 132.324 149 132.132 149C131.887 149 131.652 148.947 131.428 148.84C131.215 148.733 130.97 148.525 130.692 148.216L126.676 143.656H126.34V147.96C126.34 148.333 126.26 148.6 126.1 148.76C125.94 148.92 125.69 149 125.348 149C125.103 149 124.916 148.936 124.788 148.808C124.671 148.68 124.612 148.477 124.612 148.2V138.456C124.612 138.168 124.666 137.965 124.772 137.848C124.879 137.72 125.06 137.656 125.316 137.656C125.647 137.656 125.898 137.763 126.068 137.976C126.25 138.179 126.34 138.483 126.34 138.888V142.776H126.676ZM142.364 140.44C142.054 140.44 141.82 140.36 141.66 140.2C141.51 140.04 141.436 139.773 141.436 139.4V138.504H137.644V142.696H141.004C141.142 142.696 141.249 142.744 141.324 142.84C141.409 142.925 141.452 143.027 141.452 143.144C141.452 143.251 141.404 143.352 141.308 143.448C141.212 143.533 141.11 143.576 141.004 143.576H137.644V148.152H141.676V147.256C141.676 146.883 141.75 146.616 141.9 146.456C142.06 146.296 142.294 146.216 142.604 146.216C142.838 146.216 143.009 146.28 143.116 146.408C143.233 146.536 143.292 146.739 143.292 147.016V148.408C143.292 148.632 143.212 148.787 143.052 148.872C142.902 148.957 142.662 149 142.332 149H136.652C136.406 149 136.22 148.936 136.092 148.808C135.974 148.68 135.916 148.477 135.916 148.2V138.456C135.916 138.179 135.974 137.976 136.092 137.848C136.22 137.72 136.406 137.656 136.652 137.656H142.092C142.422 137.656 142.662 137.699 142.812 137.784C142.972 137.869 143.052 138.024 143.052 138.248V139.64C143.052 139.917 142.993 140.12 142.876 140.248C142.769 140.376 142.598 140.44 142.364 140.44ZM149.189 142.776L153.893 137.976C154.096 137.763 154.309 137.656 154.533 137.656C154.693 137.656 154.826 137.709 154.933 137.816C155.05 137.923 155.109 138.04 155.109 138.168C155.109 138.243 155.082 138.307 155.029 138.36L150.469 142.872L155.077 147.944C155.226 148.115 155.301 148.269 155.301 148.408C155.301 148.568 155.237 148.707 155.109 148.824C154.992 148.941 154.837 149 154.645 149C154.4 149 154.165 148.947 153.941 148.84C153.728 148.733 153.482 148.525 153.205 148.216L149.189 143.656H148.853V147.96C148.853 148.333 148.773 148.6 148.613 148.76C148.453 148.92 148.202 149 147.861 149C147.616 149 147.429 148.936 147.301 148.808C147.184 148.68 147.125 148.477 147.125 148.2V138.456C147.125 138.168 147.178 137.965 147.285 137.848C147.392 137.72 147.573 137.656 147.829 137.656C148.16 137.656 148.41 137.763 148.581 137.976C148.762 138.179 148.853 138.483 148.853 138.888V142.776H149.189ZM165.561 149C165.316 149 165.129 148.936 165.001 148.808C164.884 148.68 164.825 148.477 164.825 148.2V138.456C164.825 138.168 164.878 137.965 164.985 137.848C165.092 137.72 165.273 137.656 165.529 137.656C165.86 137.656 166.11 137.763 166.281 137.976C166.462 138.179 166.553 138.483 166.553 138.888V148.152H170.409V138.616C170.409 138.253 170.484 138.003 170.633 137.864C170.793 137.725 171.049 137.656 171.401 137.656C171.646 137.656 171.828 137.72 171.945 137.848C172.073 137.976 172.137 138.179 172.137 138.456V148.152H175.993V138.696C175.993 138.323 176.073 138.056 176.233 137.896C176.393 137.736 176.644 137.656 176.985 137.656C177.23 137.656 177.412 137.72 177.529 137.848C177.657 137.976 177.721 138.179 177.721 138.456V148.2C177.721 148.477 177.657 148.68 177.529 148.808C177.412 148.936 177.23 149 176.985 149H165.561ZM182.999 148.152C182.871 148.493 182.721 148.723 182.551 148.84C182.391 148.947 182.215 149 182.023 149C181.873 149 181.761 148.963 181.687 148.888C181.623 148.803 181.591 148.696 181.591 148.568C181.591 148.44 181.617 148.307 181.671 148.168L185.431 138.04C185.473 137.923 185.575 137.832 185.735 137.768C185.905 137.693 186.097 137.656 186.311 137.656C186.545 137.656 186.753 137.693 186.935 137.768C187.127 137.843 187.244 137.949 187.287 138.088L190.951 148.232C190.972 148.339 190.983 148.419 190.983 148.472C190.983 148.621 190.929 148.749 190.823 148.856C190.727 148.952 190.572 149 190.359 149C190.135 149 189.905 148.941 189.671 148.824C189.447 148.707 189.276 148.483 189.159 148.152L188.311 145.96H183.815L182.999 148.152ZM186.135 139.544H186.039L184.071 145.128H188.071L186.135 139.544ZM195.396 148.152C195.268 148.493 195.118 148.723 194.948 148.84C194.788 148.947 194.612 149 194.42 149C194.27 149 194.158 148.963 194.084 148.888C194.02 148.803 193.988 148.696 193.988 148.568C193.988 148.44 194.014 148.307 194.068 148.168L197.828 138.04C197.87 137.923 197.972 137.832 198.132 137.768C198.302 137.693 198.494 137.656 198.708 137.656C198.942 137.656 199.15 137.693 199.332 137.768C199.524 137.843 199.641 137.949 199.684 138.088L203.348 148.232C203.369 148.339 203.38 148.419 203.38 148.472C203.38 148.621 203.326 148.749 203.22 148.856C203.124 148.952 202.969 149 202.756 149C202.532 149 202.302 148.941 202.068 148.824C201.844 148.707 201.673 148.483 201.556 148.152L200.708 145.96H196.212L195.396 148.152ZM198.532 139.544H198.436L196.468 145.128H200.468L198.532 139.544ZM209.04 147.96C209.04 148.333 208.96 148.6 208.8 148.76C208.64 148.92 208.39 149 208.048 149C207.803 149 207.616 148.936 207.488 148.808C207.371 148.68 207.312 148.477 207.312 148.2V138.456C207.312 138.168 207.366 137.965 207.472 137.848C207.579 137.72 207.76 137.656 208.016 137.656H210.688C211.35 137.656 211.984 137.72 212.592 137.848C213.211 137.976 213.771 138.285 214.272 138.776C214.774 139.256 215.024 139.987 215.024 140.968C215.024 141.651 214.864 142.269 214.544 142.824C214.224 143.368 213.739 143.8 213.088 144.12C212.448 144.44 211.654 144.6 210.704 144.6H209.04V147.96ZM209.04 143.752H210.688C211.488 143.752 212.107 143.528 212.544 143.08C212.992 142.621 213.216 141.917 213.216 140.968C213.216 140.179 213.019 139.571 212.624 139.144C212.24 138.717 211.595 138.504 210.688 138.504H209.04V143.752ZM221.956 142.648C223.236 142.648 224.212 142.888 224.884 143.368C225.566 143.837 225.908 144.648 225.908 145.8C225.908 147.016 225.492 147.853 224.66 148.312C223.828 148.771 222.916 149 221.924 149H219.524C219.278 149 219.092 148.936 218.964 148.808C218.846 148.68 218.788 148.477 218.788 148.2V138.456C218.788 138.168 218.841 137.965 218.948 137.848C219.054 137.72 219.236 137.656 219.492 137.656C219.822 137.656 220.073 137.763 220.244 137.976C220.425 138.179 220.516 138.483 220.516 138.888V142.648H221.956ZM228.42 137.656C228.665 137.656 228.846 137.72 228.964 137.848C229.092 137.976 229.156 138.179 229.156 138.456V148.2C229.156 148.488 229.102 148.696 228.996 148.824C228.889 148.941 228.708 149 228.452 149C228.121 149 227.865 148.899 227.684 148.696C227.513 148.483 227.428 148.173 227.428 147.768V138.696C227.428 138.323 227.508 138.056 227.668 137.896C227.828 137.736 228.078 137.656 228.42 137.656ZM220.5 148.152H221.716C222.366 148.152 222.926 147.976 223.396 147.624C223.865 147.272 224.1 146.664 224.1 145.8C224.1 144.957 223.886 144.365 223.46 144.024C223.044 143.672 222.436 143.496 221.636 143.496H220.5V148.152ZM253.656 138.504C253.869 137.939 254.179 137.656 254.584 137.656C254.733 137.656 254.851 137.709 254.936 137.816C255.032 137.912 255.08 138.035 255.08 138.184C255.08 138.312 255.053 138.429 255 138.536L252.024 145.528C251.619 146.477 251.107 147.293 250.488 147.976C249.88 148.659 249.187 149 248.408 149C248.163 149 247.965 148.931 247.816 148.792C247.677 148.643 247.608 148.419 247.608 148.12C247.608 147.907 247.683 147.757 247.832 147.672C247.981 147.587 248.264 147.517 248.68 147.464C249.16 147.421 249.549 147.272 249.848 147.016C250.147 146.76 250.397 146.381 250.6 145.88L246.648 138.616C246.584 138.499 246.552 138.365 246.552 138.216C246.552 138.056 246.605 137.923 246.712 137.816C246.819 137.709 246.957 137.656 247.128 137.656C247.405 137.656 247.635 137.715 247.816 137.832C248.008 137.949 248.189 138.168 248.36 138.488L251.368 144.12H251.464L253.656 138.504ZM266.428 137.656C266.673 137.656 266.854 137.72 266.972 137.848C267.1 137.976 267.164 138.179 267.164 138.456V148.2C267.164 148.488 267.11 148.696 267.004 148.824C266.897 148.941 266.716 149 266.46 149C266.129 149 265.873 148.899 265.692 148.696C265.521 148.483 265.436 148.173 265.436 147.768V138.504H261.676V140.12C261.676 141.528 261.628 142.723 261.532 143.704C261.436 144.675 261.27 145.523 261.036 146.248C260.908 146.643 260.705 147.053 260.428 147.48C260.161 147.907 259.836 148.269 259.452 148.568C259.078 148.856 258.678 149 258.252 149C258.06 149 257.894 148.915 257.756 148.744C257.628 148.563 257.564 148.36 257.564 148.136C257.564 147.944 257.617 147.805 257.724 147.72C257.83 147.624 258.065 147.517 258.428 147.4C259.132 147.155 259.638 146.584 259.948 145.688C260.161 145.08 260.289 144.381 260.332 143.592C260.385 142.792 260.412 141.651 260.412 140.168V138.456C260.412 138.168 260.465 137.965 260.572 137.848C260.678 137.72 260.86 137.656 261.116 137.656H266.428ZM271.319 147.768C271.319 147.395 271.437 147.091 271.671 146.856C271.906 146.621 272.194 146.504 272.535 146.504C272.877 146.504 273.165 146.627 273.399 146.872C273.634 147.107 273.751 147.405 273.751 147.768C273.751 148.12 273.634 148.413 273.399 148.648C273.165 148.883 272.877 149 272.535 149C272.194 149 271.906 148.883 271.671 148.648C271.437 148.413 271.319 148.12 271.319 147.768ZM284.796 148.152C284.668 148.493 284.518 148.723 284.348 148.84C284.188 148.947 284.012 149 283.82 149C283.67 149 283.558 148.963 283.484 148.888C283.42 148.803 283.388 148.696 283.388 148.568C283.388 148.44 283.414 148.307 283.468 148.168L287.228 138.04C287.27 137.923 287.372 137.832 287.532 137.768C287.702 137.693 287.894 137.656 288.108 137.656C288.342 137.656 288.55 137.693 288.732 137.768C288.924 137.843 289.041 137.949 289.084 138.088L292.748 148.232C292.769 148.339 292.78 148.419 292.78 148.472C292.78 148.621 292.726 148.749 292.62 148.856C292.524 148.952 292.369 149 292.156 149C291.932 149 291.702 148.941 291.468 148.824C291.244 148.707 291.073 148.483 290.956 148.152L290.108 145.96H285.612L284.796 148.152ZM287.932 139.544H287.836L285.868 145.128H289.868L287.932 139.544ZM302.328 138.504C302.541 137.939 302.851 137.656 303.256 137.656C303.405 137.656 303.523 137.709 303.608 137.816C303.704 137.912 303.752 138.035 303.752 138.184C303.752 138.312 303.725 138.429 303.672 138.536L300.696 145.528C300.291 146.477 299.779 147.293 299.16 147.976C298.552 148.659 297.859 149 297.08 149C296.835 149 296.637 148.931 296.488 148.792C296.349 148.643 296.28 148.419 296.28 148.12C296.28 147.907 296.355 147.757 296.504 147.672C296.653 147.587 296.936 147.517 297.352 147.464C297.832 147.421 298.221 147.272 298.52 147.016C298.819 146.76 299.069 146.381 299.272 145.88L295.32 138.616C295.256 138.499 295.224 138.365 295.224 138.216C295.224 138.056 295.277 137.923 295.384 137.816C295.491 137.709 295.629 137.656 295.8 137.656C296.077 137.656 296.307 137.715 296.488 137.832C296.68 137.949 296.861 138.168 297.032 138.488L300.04 144.12H300.136L302.328 138.504ZM308.172 147.864C308.449 147.992 308.71 148.077 308.956 148.12C309.212 148.163 309.516 148.184 309.868 148.184C310.838 148.184 311.606 147.795 312.172 147.016C312.748 146.227 313.057 145.08 313.1 143.576H308.62C308.545 143.576 308.486 143.533 308.444 143.448C308.401 143.363 308.38 143.261 308.38 143.144C308.38 143.027 308.401 142.925 308.444 142.84C308.486 142.744 308.545 142.696 308.62 142.696H313.068C312.982 141.192 312.646 140.115 312.06 139.464C311.484 138.813 310.753 138.483 309.868 138.472C309.356 138.472 308.833 138.531 308.3 138.648V139.544C308.3 139.917 308.22 140.184 308.06 140.344C307.91 140.504 307.681 140.584 307.372 140.584C307.137 140.584 306.961 140.52 306.844 140.392C306.737 140.264 306.684 140.061 306.684 139.784V138.872C306.684 138.637 306.726 138.472 306.812 138.376C306.908 138.269 307.084 138.173 307.34 138.088C308.3 137.8 309.18 137.656 309.98 137.656C313.265 137.656 314.908 139.464 314.908 143.08C314.908 144.851 314.492 146.28 313.66 147.368C312.828 148.456 311.569 149 309.884 149C309.361 149 308.886 148.963 308.46 148.888C308.033 148.813 307.606 148.68 307.18 148.488C306.934 148.381 306.769 148.285 306.684 148.2C306.598 148.104 306.556 147.944 306.556 147.72V146.76C306.556 146.248 306.785 145.992 307.244 145.992C307.553 145.992 307.782 146.072 307.932 146.232C308.092 146.381 308.172 146.637 308.172 147V147.864ZM319.772 147.864C320.113 147.981 320.412 148.067 320.668 148.12C320.934 148.163 321.265 148.184 321.66 148.184C322.257 148.184 322.748 148.061 323.132 147.816C323.526 147.571 323.814 147.261 323.996 146.888C324.188 146.504 324.284 146.104 324.284 145.688C324.284 145.059 324.097 144.552 323.724 144.168C323.35 143.773 322.689 143.576 321.74 143.576H320.252C320.177 143.576 320.118 143.533 320.076 143.448C320.033 143.363 320.012 143.261 320.012 143.144C320.012 143.027 320.033 142.925 320.076 142.84C320.118 142.744 320.177 142.696 320.252 142.696H321.756C323.228 142.696 323.964 141.955 323.964 140.472C323.964 139.875 323.761 139.395 323.356 139.032C322.95 138.659 322.396 138.472 321.692 138.472C321.084 138.472 320.518 138.531 319.996 138.648V139.544C319.996 139.917 319.916 140.184 319.756 140.344C319.606 140.504 319.377 140.584 319.068 140.584C318.833 140.584 318.657 140.52 318.54 140.392C318.433 140.264 318.38 140.061 318.38 139.784V138.872C318.38 138.637 318.422 138.472 318.508 138.376C318.604 138.269 318.78 138.173 319.036 138.088C319.985 137.8 320.977 137.656 322.012 137.656C323.292 137.656 324.23 137.923 324.828 138.456C325.425 138.979 325.724 139.651 325.724 140.472C325.724 141.176 325.537 141.736 325.164 142.152C324.801 142.557 324.326 142.851 323.74 143.032V143.128C325.308 143.373 326.092 144.227 326.092 145.688C326.092 146.243 325.942 146.771 325.644 147.272C325.345 147.773 324.87 148.189 324.22 148.52C323.569 148.84 322.742 149 321.74 149C321.206 149 320.678 148.957 320.156 148.872C319.633 148.776 319.174 148.648 318.78 148.488C318.534 148.381 318.369 148.285 318.284 148.2C318.198 148.104 318.156 147.944 318.156 147.72V146.76C318.156 146.248 318.385 145.992 318.844 145.992C319.153 145.992 319.382 146.072 319.532 146.232C319.692 146.381 319.772 146.637 319.772 147V147.864ZM339.255 143.336C339.255 144.136 339.132 144.957 338.887 145.8C338.652 146.643 338.172 147.389 337.447 148.04C336.722 148.68 335.692 149 334.359 149C333.026 149 331.996 148.68 331.271 148.04C330.556 147.389 330.082 146.643 329.847 145.8C329.612 144.957 329.495 144.136 329.495 143.336C329.495 142.536 329.612 141.715 329.847 140.872C330.082 140.029 330.556 139.283 331.271 138.632C331.996 137.981 333.026 137.656 334.359 137.656C335.692 137.656 336.722 137.981 337.447 138.632C338.172 139.283 338.652 140.035 338.887 140.888C339.132 141.731 339.255 142.547 339.255 143.336ZM337.447 143.336C337.447 142.099 337.239 140.979 336.823 139.976C336.407 138.973 335.586 138.472 334.359 138.472C333.154 138.472 332.343 138.973 331.927 139.976C331.511 140.979 331.303 142.099 331.303 143.336C331.303 144.563 331.511 145.677 331.927 146.68C332.343 147.683 333.154 148.184 334.359 148.184C335.586 148.184 336.407 147.688 336.823 146.696C337.239 145.693 337.447 144.573 337.447 143.336ZM343.3 138.456C343.3 138.179 343.359 137.976 343.476 137.848C343.604 137.72 343.791 137.656 344.036 137.656H347.316C349.684 137.656 350.868 138.605 350.868 140.504C350.868 141.037 350.703 141.539 350.372 142.008C350.052 142.467 349.615 142.765 349.06 142.904V142.984C349.871 143.123 350.473 143.432 350.868 143.912C351.263 144.381 351.46 144.947 351.46 145.608C351.46 146.899 351.039 147.789 350.196 148.28C349.364 148.76 348.431 149 347.396 149H344.036C343.791 149 343.604 148.936 343.476 148.808C343.359 148.68 343.3 148.477 343.3 148.2V138.456ZM345.028 142.632H346.868C347.209 142.632 347.545 142.563 347.876 142.424C348.217 142.275 348.5 142.04 348.724 141.72C348.948 141.389 349.06 140.968 349.06 140.456C349.06 139.763 348.82 139.267 348.34 138.968C347.86 138.659 347.327 138.504 346.74 138.504H345.028V142.632ZM345.028 148.152H347.172C347.801 148.152 348.372 147.971 348.884 147.608C349.396 147.235 349.652 146.621 349.652 145.768C349.652 145.235 349.519 144.797 349.252 144.456C348.985 144.115 348.649 143.869 348.244 143.72C347.839 143.56 347.428 143.48 347.012 143.48H345.028V148.152ZM355.786 148.152C355.658 148.493 355.509 148.723 355.338 148.84C355.178 148.947 355.002 149 354.81 149C354.661 149 354.549 148.963 354.474 148.888C354.41 148.803 354.378 148.696 354.378 148.568C354.378 148.44 354.405 148.307 354.458 148.168L358.218 138.04C358.261 137.923 358.362 137.832 358.522 137.768C358.693 137.693 358.885 137.656 359.098 137.656C359.333 137.656 359.541 137.693 359.722 137.768C359.914 137.843 360.032 137.949 360.074 138.088L363.738 148.232C363.76 148.339 363.77 148.419 363.77 148.472C363.77 148.621 363.717 148.749 363.61 148.856C363.514 148.952 363.36 149 363.146 149C362.922 149 362.693 148.941 362.458 148.824C362.234 148.707 362.064 148.483 361.946 148.152L361.098 145.96H356.602L355.786 148.152ZM358.922 139.544H358.826L356.858 145.128H360.858L358.922 139.544ZM373.94 141.08C373.705 141.08 373.529 141.016 373.412 140.888C373.305 140.76 373.252 140.557 373.252 140.28V139.32C373.252 139.139 373.273 139.005 373.316 138.92C373.369 138.835 373.471 138.744 373.62 138.648C374.164 138.285 374.687 138.029 375.188 137.88C375.7 137.731 376.255 137.656 376.852 137.656C377.908 137.656 378.687 137.928 379.188 138.472C379.7 139.005 379.956 139.683 379.956 140.504C379.956 141.539 379.54 142.659 378.708 143.864C377.887 145.059 376.447 146.488 374.388 148.152H378.564V147.16C378.564 146.787 378.633 146.52 378.772 146.36C378.921 146.2 379.135 146.12 379.412 146.12C379.647 146.12 379.817 146.184 379.924 146.312C380.041 146.44 380.1 146.643 380.1 146.92V148.488C380.1 148.669 380.02 148.803 379.86 148.888C379.7 148.963 379.46 149 379.14 149H373.46C373.332 149 373.231 148.957 373.156 148.872C373.092 148.787 373.06 148.68 373.06 148.552C373.06 148.328 373.14 148.147 373.3 148.008L373.524 147.8C375.369 146.083 376.601 144.653 377.22 143.512C377.839 142.36 378.148 141.437 378.148 140.744C378.148 140.136 378.015 139.608 377.748 139.16C377.492 138.701 377.023 138.472 376.34 138.472C375.828 138.472 375.311 138.611 374.788 138.888V140.04C374.788 140.424 374.724 140.696 374.596 140.856C374.468 141.005 374.249 141.08 373.94 141.08ZM387.576 146.232H382.92C382.622 146.232 382.472 146.104 382.472 145.848C382.472 145.741 382.51 145.613 382.584 145.464L387.336 138.248C387.592 137.853 387.966 137.656 388.456 137.656C388.744 137.656 388.952 137.72 389.08 137.848C389.208 137.976 389.272 138.179 389.272 138.456V145.384H390.264C390.51 145.384 390.675 145.427 390.76 145.512C390.856 145.597 390.904 145.709 390.904 145.848C390.904 145.965 390.872 146.061 390.808 146.136C390.744 146.2 390.616 146.232 390.424 146.232H389.272V148.152H390.184C390.43 148.152 390.595 148.195 390.68 148.28C390.776 148.365 390.824 148.477 390.824 148.616C390.824 148.733 390.792 148.829 390.728 148.904C390.664 148.968 390.536 149 390.344 149H386.184C385.992 149 385.864 148.968 385.8 148.904C385.736 148.829 385.704 148.733 385.704 148.616C385.704 148.477 385.747 148.365 385.832 148.28C385.928 148.195 386.099 148.152 386.344 148.152H387.576V146.232ZM387.576 139.752L383.816 145.384H387.576V139.752ZM124.676 161.592C124.676 161.432 124.761 161.315 124.932 161.24C125.102 161.155 125.332 161.112 125.62 161.112C125.897 161.112 126.126 161.155 126.308 161.24C126.489 161.325 126.58 161.443 126.58 161.592L126.052 164.76C126.041 164.835 125.993 164.893 125.908 164.936C125.822 164.968 125.726 164.984 125.62 164.984C125.513 164.984 125.417 164.963 125.332 164.92C125.246 164.877 125.198 164.824 125.188 164.76L124.676 161.592ZM127.476 161.592C127.476 161.432 127.561 161.315 127.732 161.24C127.913 161.155 128.142 161.112 128.42 161.112C128.697 161.112 128.926 161.155 129.108 161.24C129.289 161.325 129.38 161.443 129.38 161.592L128.852 164.76C128.841 164.835 128.793 164.893 128.708 164.936C128.622 164.968 128.526 164.984 128.42 164.984C128.313 164.984 128.217 164.963 128.132 164.92C128.046 164.877 127.998 164.824 127.988 164.76L127.476 161.592ZM135.269 171.96C135.269 172.333 135.189 172.6 135.029 172.76C134.869 172.92 134.618 173 134.277 173C134.031 173 133.845 172.936 133.717 172.808C133.599 172.68 133.541 172.477 133.541 172.2V162.456C133.541 162.168 133.594 161.965 133.701 161.848C133.807 161.72 133.989 161.656 134.245 161.656H136.917C137.578 161.656 138.213 161.72 138.821 161.848C139.439 161.976 139.999 162.285 140.501 162.776C141.002 163.256 141.253 163.987 141.253 164.968C141.253 165.651 141.093 166.269 140.773 166.824C140.453 167.368 139.967 167.8 139.317 168.12C138.677 168.44 137.882 168.6 136.933 168.6H135.269V171.96ZM135.269 167.752H136.917C137.717 167.752 138.335 167.528 138.773 167.08C139.221 166.621 139.445 165.917 139.445 164.968C139.445 164.179 139.247 163.571 138.853 163.144C138.469 162.717 137.823 162.504 136.917 162.504H135.269V167.752ZM145.016 162.456C145.016 162.168 145.069 161.965 145.176 161.848C145.282 161.72 145.464 161.656 145.72 161.656H148.744C149.97 161.656 150.952 161.885 151.688 162.344C152.424 162.792 152.792 163.592 152.792 164.744C152.792 165.267 152.653 165.747 152.376 166.184C152.109 166.621 151.757 166.979 151.32 167.256C150.893 167.533 150.45 167.709 149.992 167.784L152.648 172.056C152.744 172.195 152.792 172.333 152.792 172.472C152.792 172.632 152.722 172.76 152.584 172.856C152.445 172.952 152.242 173 151.976 173C151.762 173 151.56 172.952 151.368 172.856C151.176 172.76 151.016 172.605 150.888 172.392L148.2 167.896H146.744V171.96C146.744 172.333 146.664 172.6 146.504 172.76C146.344 172.92 146.093 173 145.752 173C145.506 173 145.32 172.936 145.192 172.808C145.074 172.68 145.016 172.477 145.016 172.2V162.456ZM146.744 167.048H148.456C149.117 167.048 149.704 166.856 150.216 166.472C150.728 166.077 150.984 165.469 150.984 164.648C150.984 163.773 150.749 163.197 150.28 162.92C149.81 162.643 149.245 162.504 148.584 162.504H146.744V167.048ZM163.345 164.44C163.036 164.44 162.801 164.36 162.641 164.2C162.492 164.04 162.417 163.773 162.417 163.4V162.504H158.625V166.696H161.985C162.124 166.696 162.23 166.744 162.305 166.84C162.39 166.925 162.433 167.027 162.433 167.144C162.433 167.251 162.385 167.352 162.289 167.448C162.193 167.533 162.092 167.576 161.985 167.576H158.625V172.152H162.657V171.256C162.657 170.883 162.732 170.616 162.881 170.456C163.041 170.296 163.276 170.216 163.585 170.216C163.82 170.216 163.99 170.28 164.097 170.408C164.214 170.536 164.273 170.739 164.273 171.016V172.408C164.273 172.632 164.193 172.787 164.033 172.872C163.884 172.957 163.644 173 163.313 173H157.633C157.388 173 157.201 172.936 157.073 172.808C156.956 172.68 156.897 172.477 156.897 172.2V162.456C156.897 162.179 156.956 161.976 157.073 161.848C157.201 161.72 157.388 161.656 157.633 161.656H163.073C163.404 161.656 163.644 161.699 163.793 161.784C163.953 161.869 164.033 162.024 164.033 162.248V163.64C164.033 163.917 163.974 164.12 163.857 164.248C163.75 164.376 163.58 164.44 163.345 164.44ZM174.218 164.568C173.909 164.568 173.674 164.493 173.514 164.344C173.365 164.184 173.29 163.928 173.29 163.576V162.76C173.248 162.749 173.157 162.723 173.018 162.68C172.528 162.541 171.989 162.472 171.402 162.472C170.933 162.472 170.538 162.573 170.218 162.776C169.898 162.968 169.658 163.219 169.498 163.528C169.349 163.827 169.274 164.136 169.274 164.456C169.274 164.819 169.338 165.117 169.466 165.352C169.605 165.587 169.824 165.789 170.122 165.96C170.421 166.131 170.858 166.323 171.434 166.536C172.576 166.941 173.413 167.272 173.946 167.528C174.48 167.784 174.896 168.099 175.194 168.472C175.493 168.835 175.642 169.309 175.642 169.896C175.642 170.493 175.466 171.027 175.114 171.496C174.773 171.965 174.261 172.333 173.578 172.6C172.906 172.867 172.101 173 171.162 173C170.682 173 170.154 172.952 169.578 172.856C169.013 172.749 168.538 172.621 168.154 172.472C167.909 172.365 167.744 172.269 167.658 172.184C167.573 172.088 167.53 171.928 167.53 171.704V170.744C167.53 170.232 167.76 169.976 168.218 169.976C168.528 169.976 168.757 170.056 168.906 170.216C169.066 170.365 169.146 170.621 169.146 170.984V171.848C169.818 172.072 170.469 172.184 171.098 172.184C171.674 172.184 172.17 172.083 172.586 171.88C173.002 171.677 173.317 171.416 173.53 171.096C173.744 170.776 173.85 170.435 173.85 170.072C173.85 169.72 173.754 169.421 173.562 169.176C173.381 168.931 173.104 168.712 172.73 168.52C172.357 168.328 171.834 168.109 171.162 167.864C170.256 167.523 169.557 167.235 169.066 167C168.586 166.755 168.202 166.44 167.914 166.056C167.626 165.661 167.482 165.16 167.482 164.552C167.482 163.677 167.818 162.979 168.49 162.456C169.162 161.923 170.096 161.656 171.29 161.656C171.845 161.656 172.352 161.699 172.81 161.784C173.269 161.859 173.749 161.971 174.25 162.12C174.506 162.205 174.677 162.296 174.762 162.392C174.858 162.488 174.906 162.648 174.906 162.872V163.8C174.906 164.312 174.677 164.568 174.218 164.568ZM179 173C178.808 173 178.68 172.968 178.616 172.904C178.552 172.829 178.52 172.733 178.52 172.616C178.52 172.477 178.563 172.365 178.648 172.28C178.744 172.195 178.915 172.152 179.16 172.152H180.6V162.504H179.16C178.915 162.504 178.744 162.461 178.648 162.376C178.563 162.291 178.52 162.179 178.52 162.04C178.52 161.923 178.552 161.832 178.616 161.768C178.68 161.693 178.808 161.656 179 161.656H183.928C184.12 161.656 184.248 161.693 184.312 161.768C184.376 161.832 184.408 161.923 184.408 162.04C184.408 162.179 184.36 162.291 184.264 162.376C184.179 162.461 184.013 162.504 183.768 162.504H182.328V172.152H183.768C184.013 172.152 184.179 172.195 184.264 172.28C184.36 172.365 184.408 172.477 184.408 172.616C184.408 172.733 184.376 172.829 184.312 172.904C184.248 172.968 184.12 173 183.928 173H179ZM187.931 162.456C187.931 162.179 187.99 161.976 188.107 161.848C188.235 161.72 188.422 161.656 188.667 161.656H190.955C194.699 161.656 196.571 163.528 196.571 167.272C196.571 168.669 196.278 169.8 195.691 170.664C195.115 171.517 194.406 172.12 193.563 172.472C192.731 172.824 191.889 173 191.035 173H188.667C188.422 173 188.235 172.936 188.107 172.808C187.99 172.68 187.931 172.477 187.931 172.2V162.456ZM189.659 172.152H190.011V172.136H190.763C191.947 172.136 192.907 171.736 193.643 170.936C194.39 170.136 194.763 168.915 194.763 167.272C194.763 165.608 194.395 164.397 193.659 163.64C192.934 162.883 191.969 162.504 190.763 162.504H189.659V172.152ZM207.073 164.44C206.764 164.44 206.529 164.36 206.369 164.2C206.22 164.04 206.145 163.773 206.145 163.4V162.504H202.353V166.696H205.713C205.852 166.696 205.958 166.744 206.033 166.84C206.118 166.925 206.161 167.027 206.161 167.144C206.161 167.251 206.113 167.352 206.017 167.448C205.921 167.533 205.82 167.576 205.713 167.576H202.353V172.152H206.385V171.256C206.385 170.883 206.46 170.616 206.609 170.456C206.769 170.296 207.004 170.216 207.313 170.216C207.548 170.216 207.718 170.28 207.825 170.408C207.942 170.536 208.001 170.739 208.001 171.016V172.408C208.001 172.632 207.921 172.787 207.761 172.872C207.612 172.957 207.372 173 207.041 173H201.361C201.116 173 200.929 172.936 200.801 172.808C200.684 172.68 200.625 172.477 200.625 172.2V162.456C200.625 162.179 200.684 161.976 200.801 161.848C200.929 161.72 201.116 161.656 201.361 161.656H206.801C207.132 161.656 207.372 161.699 207.521 161.784C207.681 161.869 207.761 162.024 207.761 162.248V163.64C207.761 163.917 207.702 164.12 207.585 164.248C207.478 164.376 207.308 164.44 207.073 164.44ZM212.442 173C212.272 173 212.128 172.941 212.01 172.824C211.893 172.707 211.834 172.525 211.834 172.28V162.52C211.834 162.253 211.925 162.045 212.106 161.896C212.298 161.736 212.528 161.656 212.794 161.656C213.029 161.656 213.237 161.704 213.418 161.8C213.61 161.896 213.786 162.072 213.946 162.328L219.178 170.632H219.258V162.552C219.258 162.243 219.322 162.019 219.45 161.88C219.589 161.731 219.744 161.656 219.914 161.656C220.085 161.656 220.229 161.715 220.346 161.832C220.464 161.949 220.522 162.131 220.522 162.376V172.072C220.522 172.371 220.432 172.6 220.25 172.76C220.08 172.92 219.861 173 219.594 173C219.093 173 218.704 172.787 218.426 172.36L213.194 164.024H213.098V172.104C213.098 172.413 213.029 172.643 212.89 172.792C212.762 172.931 212.613 173 212.442 173ZM229.789 172.04C229.789 172.403 229.709 172.653 229.549 172.792C229.4 172.931 229.149 173 228.797 173C228.552 173 228.365 172.936 228.237 172.808C228.12 172.68 228.061 172.477 228.061 172.2V162.504H225.661V163.64C225.661 164.013 225.581 164.28 225.421 164.44C225.272 164.6 225.042 164.68 224.733 164.68C224.498 164.68 224.322 164.616 224.205 164.488C224.098 164.36 224.045 164.157 224.045 163.88V162.248C224.045 162.024 224.12 161.869 224.269 161.784C224.429 161.699 224.674 161.656 225.005 161.656H232.845C233.176 161.656 233.416 161.699 233.565 161.784C233.725 161.869 233.805 162.024 233.805 162.248V163.88C233.805 164.157 233.746 164.36 233.629 164.488C233.522 164.616 233.352 164.68 233.117 164.68C232.808 164.68 232.573 164.6 232.413 164.44C232.264 164.28 232.189 164.013 232.189 163.64V162.504H229.789V172.04ZM250.176 164.536C249.867 164.536 249.632 164.456 249.472 164.296C249.323 164.136 249.248 163.869 249.248 163.496V162.6C248.853 162.515 248.464 162.472 248.08 162.472C247.067 162.472 246.261 162.899 245.664 163.752C245.077 164.595 244.784 165.832 244.784 167.464C244.784 169.203 245.072 170.424 245.648 171.128C246.224 171.821 247.072 172.168 248.192 172.168C248.853 172.168 249.552 172.013 250.288 171.704L250.592 171.576C250.656 171.555 250.699 171.544 250.72 171.544C250.827 171.544 250.917 171.597 250.992 171.704C251.067 171.8 251.104 171.907 251.104 172.024C251.104 172.173 251.035 172.28 250.896 172.344L250.624 172.456C250.187 172.637 249.744 172.776 249.296 172.872C248.859 172.957 248.341 173 247.744 173C246.123 173 244.923 172.52 244.144 171.56C243.365 170.589 242.976 169.213 242.976 167.432C242.976 166.141 243.184 165.064 243.6 164.2C244.027 163.336 244.608 162.696 245.344 162.28C246.08 161.864 246.923 161.656 247.872 161.656C248.725 161.656 249.504 161.768 250.208 161.992C250.464 162.077 250.635 162.173 250.72 162.28C250.816 162.376 250.864 162.541 250.864 162.776V163.736C250.864 164.013 250.805 164.216 250.688 164.344C250.581 164.472 250.411 164.536 250.176 164.536ZM253.825 173C253.633 173 253.505 172.968 253.441 172.904C253.377 172.829 253.345 172.733 253.345 172.616C253.345 172.477 253.388 172.365 253.473 172.28C253.569 172.195 253.74 172.152 253.985 172.152H255.425V162.504H253.985C253.74 162.504 253.569 162.461 253.473 162.376C253.388 162.291 253.345 162.179 253.345 162.04C253.345 161.923 253.377 161.832 253.441 161.768C253.505 161.693 253.633 161.656 253.825 161.656H258.753C258.945 161.656 259.073 161.693 259.137 161.768C259.201 161.832 259.233 161.923 259.233 162.04C259.233 162.179 259.185 162.291 259.089 162.376C259.004 162.461 258.838 162.504 258.593 162.504H257.153V172.152H258.593C258.838 172.152 259.004 172.195 259.089 172.28C259.185 172.365 259.233 172.477 259.233 172.616C259.233 172.733 259.201 172.829 259.137 172.904C259.073 172.968 258.945 173 258.753 173H253.825ZM267.22 172.04C267.22 172.403 267.14 172.653 266.98 172.792C266.831 172.931 266.58 173 266.228 173C265.983 173 265.796 172.936 265.668 172.808C265.551 172.68 265.492 172.477 265.492 172.2V162.504H263.092V163.64C263.092 164.013 263.012 164.28 262.852 164.44C262.703 164.6 262.474 164.68 262.164 164.68C261.93 164.68 261.754 164.616 261.636 164.488C261.53 164.36 261.476 164.157 261.476 163.88V162.248C261.476 162.024 261.551 161.869 261.7 161.784C261.86 161.699 262.106 161.656 262.436 161.656H270.276C270.607 161.656 270.847 161.699 270.996 161.784C271.156 161.869 271.236 162.024 271.236 162.248V163.88C271.236 164.157 271.178 164.36 271.06 164.488C270.954 164.616 270.783 164.68 270.548 164.68C270.239 164.68 270.004 164.6 269.844 164.44C269.695 164.28 269.62 164.013 269.62 163.64V162.504H267.22V172.04ZM277.607 173C277.105 173 276.855 172.733 276.855 172.2V168.712L273.703 162.616C273.639 162.467 273.607 162.333 273.607 162.216C273.607 162.056 273.66 161.923 273.767 161.816C273.873 161.709 274.012 161.656 274.183 161.656C274.46 161.656 274.695 161.715 274.887 161.832C275.079 161.949 275.255 162.168 275.415 162.488L277.959 167.512H278.023L280.423 162.504C280.689 161.939 281.015 161.656 281.399 161.656C281.548 161.656 281.66 161.709 281.735 161.816C281.809 161.912 281.847 162.035 281.847 162.184C281.847 162.312 281.82 162.429 281.767 162.536L278.583 168.712V172.04C278.583 172.413 278.503 172.669 278.343 172.808C278.193 172.936 277.948 173 277.607 173ZM299.602 161.656C299.847 161.656 300.028 161.72 300.146 161.848C300.274 161.976 300.338 162.179 300.338 162.456V172.2C300.338 172.488 300.284 172.696 300.178 172.824C300.071 172.941 299.89 173 299.634 173C299.303 173 299.047 172.899 298.866 172.696C298.695 172.483 298.61 172.173 298.61 171.768V167.576H293.394V171.96C293.394 172.333 293.314 172.6 293.154 172.76C292.994 172.92 292.743 173 292.402 173C292.156 173 291.97 172.936 291.842 172.808C291.724 172.68 291.666 172.477 291.666 172.2V162.456C291.666 162.168 291.719 161.965 291.826 161.848C291.932 161.72 292.114 161.656 292.37 161.656C292.7 161.656 292.951 161.763 293.122 161.976C293.303 162.179 293.394 162.483 293.394 162.888V166.696H298.61V162.696C298.61 162.323 298.69 162.056 298.85 161.896C299.01 161.736 299.26 161.656 299.602 161.656ZM305.189 172.152C305.061 172.493 304.911 172.723 304.741 172.84C304.581 172.947 304.405 173 304.213 173C304.063 173 303.951 172.963 303.877 172.888C303.813 172.803 303.781 172.696 303.781 172.568C303.781 172.44 303.807 172.307 303.861 172.168L307.621 162.04C307.663 161.923 307.765 161.832 307.925 161.768C308.095 161.693 308.287 161.656 308.501 161.656C308.735 161.656 308.943 161.693 309.125 161.768C309.317 161.843 309.434 161.949 309.477 162.088L313.141 172.232C313.162 172.339 313.173 172.419 313.173 172.472C313.173 172.621 313.119 172.749 313.013 172.856C312.917 172.952 312.762 173 312.549 173C312.325 173 312.095 172.941 311.861 172.824C311.637 172.707 311.466 172.483 311.349 172.152L310.501 169.96H306.005L305.189 172.152ZM308.325 163.544H308.229L306.261 169.128H310.261L308.325 163.544ZM322.904 170.008C323.138 170.008 323.309 170.072 323.416 170.2C323.533 170.328 323.592 170.531 323.592 170.808V172.488C323.592 172.669 323.512 172.803 323.352 172.888C323.192 172.963 322.952 173 322.632 173H317.352C317.106 173 316.92 172.936 316.792 172.808C316.674 172.68 316.616 172.477 316.616 172.2V162.456C316.616 162.168 316.669 161.965 316.776 161.848C316.882 161.72 317.064 161.656 317.32 161.656C317.65 161.656 317.901 161.763 318.072 161.976C318.253 162.179 318.344 162.483 318.344 162.888V172.152H321.976V171.048C321.976 170.675 322.05 170.408 322.2 170.248C322.36 170.088 322.594 170.008 322.904 170.008ZM333.644 170.008C333.879 170.008 334.05 170.072 334.156 170.2C334.274 170.328 334.332 170.531 334.332 170.808V172.488C334.332 172.669 334.252 172.803 334.092 172.888C333.932 172.963 333.692 173 333.372 173H328.092C327.847 173 327.66 172.936 327.532 172.808C327.415 172.68 327.356 172.477 327.356 172.2V162.456C327.356 162.168 327.41 161.965 327.516 161.848C327.623 161.72 327.804 161.656 328.06 161.656C328.391 161.656 328.642 161.763 328.812 161.976C328.994 162.179 329.084 162.483 329.084 162.888V172.152H332.716V171.048C332.716 170.675 332.791 170.408 332.94 170.248C333.1 170.088 333.335 170.008 333.644 170.008ZM335.223 161.592C335.223 161.432 335.308 161.315 335.479 161.24C335.649 161.155 335.879 161.112 336.167 161.112C336.444 161.112 336.673 161.155 336.855 161.24C337.036 161.325 337.127 161.443 337.127 161.592L336.599 164.76C336.588 164.835 336.54 164.893 336.455 164.936C336.369 164.968 336.273 164.984 336.167 164.984C336.06 164.984 335.964 164.963 335.879 164.92C335.793 164.877 335.745 164.824 335.735 164.76L335.223 161.592ZM338.023 161.592C338.023 161.432 338.108 161.315 338.279 161.24C338.46 161.155 338.689 161.112 338.967 161.112C339.244 161.112 339.473 161.155 339.655 161.24C339.836 161.325 339.927 161.443 339.927 161.592L339.399 164.76C339.388 164.835 339.34 164.893 339.255 164.936C339.169 164.968 339.073 164.984 338.967 164.984C338.86 164.984 338.764 164.963 338.679 164.92C338.593 164.877 338.545 164.824 338.535 164.76L338.023 161.592ZM184.358 195.96C184.358 196.333 184.278 196.6 184.118 196.76C183.958 196.92 183.707 197 183.366 197C183.12 197 182.934 196.936 182.806 196.808C182.688 196.68 182.63 196.477 182.63 196.2V186.456C182.63 186.168 182.683 185.965 182.79 185.848C182.896 185.72 183.078 185.656 183.334 185.656H186.006C186.667 185.656 187.302 185.72 187.91 185.848C188.528 185.976 189.088 186.285 189.59 186.776C190.091 187.256 190.342 187.987 190.342 188.968C190.342 189.651 190.182 190.269 189.862 190.824C189.542 191.368 189.056 191.8 188.406 192.12C187.766 192.44 186.971 192.6 186.022 192.6H184.358V195.96ZM184.358 191.752H186.006C186.806 191.752 187.424 191.528 187.862 191.08C188.31 190.621 188.534 189.917 188.534 188.968C188.534 188.179 188.336 187.571 187.942 187.144C187.558 186.717 186.912 186.504 186.006 186.504H184.358V191.752ZM200.553 188.44C200.243 188.44 200.009 188.36 199.849 188.2C199.699 188.04 199.625 187.773 199.625 187.4V186.504H195.833V190.696H199.193C199.331 190.696 199.438 190.744 199.513 190.84C199.598 190.925 199.641 191.027 199.641 191.144C199.641 191.251 199.593 191.352 199.497 191.448C199.401 191.533 199.299 191.576 199.193 191.576H195.833V196.152H199.865V195.256C199.865 194.883 199.939 194.616 200.089 194.456C200.249 194.296 200.483 194.216 200.793 194.216C201.027 194.216 201.198 194.28 201.305 194.408C201.422 194.536 201.481 194.739 201.481 195.016V196.408C201.481 196.632 201.401 196.787 201.241 196.872C201.091 196.957 200.851 197 200.521 197H194.841C194.595 197 194.409 196.936 194.281 196.808C194.163 196.68 194.105 196.477 194.105 196.2V186.456C194.105 186.179 194.163 185.976 194.281 185.848C194.409 185.72 194.595 185.656 194.841 185.656H200.281C200.611 185.656 200.851 185.699 201.001 185.784C201.161 185.869 201.241 186.024 201.241 186.248V187.64C201.241 187.917 201.182 188.12 201.065 188.248C200.958 188.376 200.787 188.44 200.553 188.44ZM211.762 188.536C211.453 188.536 211.218 188.456 211.058 188.296C210.909 188.136 210.834 187.869 210.834 187.496V186.6C210.439 186.515 210.05 186.472 209.666 186.472C208.653 186.472 207.847 186.899 207.25 187.752C206.663 188.595 206.37 189.832 206.37 191.464C206.37 193.203 206.658 194.424 207.234 195.128C207.81 195.821 208.658 196.168 209.778 196.168C210.439 196.168 211.138 196.013 211.874 195.704L212.178 195.576C212.242 195.555 212.285 195.544 212.306 195.544C212.413 195.544 212.503 195.597 212.578 195.704C212.653 195.8 212.69 195.907 212.69 196.024C212.69 196.173 212.621 196.28 212.482 196.344L212.21 196.456C211.773 196.637 211.33 196.776 210.882 196.872C210.445 196.957 209.927 197 209.33 197C207.709 197 206.509 196.52 205.73 195.56C204.951 194.589 204.562 193.213 204.562 191.432C204.562 190.141 204.77 189.064 205.186 188.2C205.613 187.336 206.194 186.696 206.93 186.28C207.666 185.864 208.509 185.656 209.458 185.656C210.311 185.656 211.09 185.768 211.794 185.992C212.05 186.077 212.221 186.173 212.306 186.28C212.402 186.376 212.45 186.541 212.45 186.776V187.736C212.45 188.013 212.391 188.216 212.274 188.344C212.167 188.472 211.997 188.536 211.762 188.536ZM220.675 196.04C220.675 196.403 220.595 196.653 220.435 196.792C220.286 196.931 220.035 197 219.683 197C219.438 197 219.251 196.936 219.123 196.808C219.006 196.68 218.947 196.477 218.947 196.2V186.504H216.547V187.64C216.547 188.013 216.467 188.28 216.307 188.44C216.158 188.6 215.928 188.68 215.619 188.68C215.384 188.68 215.208 188.616 215.091 188.488C214.984 188.36 214.931 188.157 214.931 187.88V186.248C214.931 186.024 215.006 185.869 215.155 185.784C215.315 185.699 215.56 185.656 215.891 185.656H223.731C224.062 185.656 224.302 185.699 224.451 185.784C224.611 185.869 224.691 186.024 224.691 186.248V187.88C224.691 188.157 224.632 188.36 224.515 188.488C224.408 188.616 224.238 188.68 224.003 188.68C223.694 188.68 223.459 188.6 223.299 188.44C223.15 188.28 223.075 188.013 223.075 187.64V186.504H220.675V196.04ZM236.913 191.336C236.913 192.136 236.79 192.957 236.545 193.8C236.31 194.643 235.83 195.389 235.105 196.04C234.379 196.68 233.35 197 232.017 197C230.683 197 229.654 196.68 228.929 196.04C228.214 195.389 227.739 194.643 227.505 193.8C227.27 192.957 227.153 192.136 227.153 191.336C227.153 190.536 227.27 189.715 227.505 188.872C227.739 188.029 228.214 187.283 228.929 186.632C229.654 185.981 230.683 185.656 232.017 185.656C233.35 185.656 234.379 185.981 235.105 186.632C235.83 187.283 236.31 188.035 236.545 188.888C236.79 189.731 236.913 190.547 236.913 191.336ZM235.105 191.336C235.105 190.099 234.897 188.979 234.481 187.976C234.065 186.973 233.243 186.472 232.017 186.472C230.811 186.472 230.001 186.973 229.585 187.976C229.169 188.979 228.961 190.099 228.961 191.336C228.961 192.563 229.169 193.677 229.585 194.68C230.001 195.683 230.811 196.184 232.017 196.184C233.243 196.184 234.065 195.688 234.481 194.696C234.897 193.693 235.105 192.573 235.105 191.336ZM242.686 195.96C242.686 196.333 242.606 196.6 242.446 196.76C242.286 196.92 242.035 197 241.694 197C241.448 197 241.262 196.936 241.134 196.808C241.016 196.68 240.958 196.477 240.958 196.2V186.456C240.958 186.168 241.011 185.965 241.118 185.848C241.224 185.72 241.406 185.656 241.662 185.656H244.334C244.995 185.656 245.63 185.72 246.238 185.848C246.856 185.976 247.416 186.285 247.918 186.776C248.419 187.256 248.67 187.987 248.67 188.968C248.67 189.651 248.51 190.269 248.19 190.824C247.87 191.368 247.384 191.8 246.734 192.12C246.094 192.44 245.299 192.6 244.35 192.6H242.686V195.96ZM242.686 191.752H244.334C245.134 191.752 245.752 191.528 246.19 191.08C246.638 190.621 246.862 189.917 246.862 188.968C246.862 188.179 246.664 187.571 246.27 187.144C245.886 186.717 245.24 186.504 244.334 186.504H242.686V191.752ZM251.96 196.152C251.832 196.493 251.682 196.723 251.512 196.84C251.352 196.947 251.176 197 250.984 197C250.834 197 250.722 196.963 250.648 196.888C250.584 196.803 250.552 196.696 250.552 196.568C250.552 196.44 250.578 196.307 250.632 196.168L254.392 186.04C254.434 185.923 254.536 185.832 254.696 185.768C254.866 185.693 255.058 185.656 255.272 185.656C255.506 185.656 255.714 185.693 255.896 185.768C256.088 185.843 256.205 185.949 256.248 186.088L259.912 196.232C259.933 196.339 259.944 196.419 259.944 196.472C259.944 196.621 259.89 196.749 259.784 196.856C259.688 196.952 259.533 197 259.32 197C259.096 197 258.866 196.941 258.632 196.824C258.408 196.707 258.237 196.483 258.12 196.152L257.272 193.96H252.776L251.96 196.152ZM255.096 187.544H255L253.032 193.128H257.032L255.096 187.544ZM271.813 185.656C272.058 185.656 272.239 185.72 272.357 185.848C272.485 185.976 272.549 186.179 272.549 186.456V196.2C272.549 196.488 272.495 196.696 272.389 196.824C272.282 196.941 272.101 197 271.845 197C271.514 197 271.258 196.899 271.077 196.696C270.906 196.483 270.821 196.173 270.821 195.768V191.576H265.605V195.96C265.605 196.333 265.525 196.6 265.365 196.76C265.205 196.92 264.954 197 264.613 197C264.367 197 264.181 196.936 264.053 196.808C263.935 196.68 263.877 196.477 263.877 196.2V186.456C263.877 186.168 263.93 185.965 264.037 185.848C264.143 185.72 264.325 185.656 264.581 185.656C264.911 185.656 265.162 185.763 265.333 185.976C265.514 186.179 265.605 186.483 265.605 186.888V190.696H270.821V186.696C270.821 186.323 270.901 186.056 271.061 185.896C271.221 185.736 271.471 185.656 271.813 185.656ZM280.52 190.648C281.8 190.648 282.776 190.888 283.448 191.368C284.13 191.837 284.472 192.648 284.472 193.8C284.472 195.016 284.056 195.853 283.224 196.312C282.392 196.771 281.48 197 280.488 197H278.088C277.842 197 277.656 196.936 277.528 196.808C277.41 196.68 277.352 196.477 277.352 196.2V186.456C277.352 186.168 277.405 185.965 277.512 185.848C277.618 185.72 277.8 185.656 278.056 185.656C278.386 185.656 278.637 185.763 278.808 185.976C278.989 186.179 279.08 186.483 279.08 186.888V190.648H280.52ZM286.984 185.656C287.229 185.656 287.41 185.72 287.528 185.848C287.656 185.976 287.72 186.179 287.72 186.456V196.2C287.72 196.488 287.666 196.696 287.56 196.824C287.453 196.941 287.272 197 287.016 197C286.685 197 286.429 196.899 286.248 196.696C286.077 196.483 285.992 196.173 285.992 195.768V186.696C285.992 186.323 286.072 186.056 286.232 185.896C286.392 185.736 286.642 185.656 286.984 185.656ZM279.064 196.152H280.28C280.93 196.152 281.49 195.976 281.96 195.624C282.429 195.272 282.664 194.664 282.664 193.8C282.664 192.957 282.45 192.365 282.024 192.024C281.608 191.672 281 191.496 280.2 191.496H279.064V196.152Z" fill="#064E3B"/>
</svg>
