<svg width="223" height="216" viewBox="0 0 223 216" fill="none" xmlns="http://www.w3.org/2000/svg">
<path d="M32.2 52.22C36.46 51.86 41.26 49.82 44.38 48.32C46.78 47.6 44.38 46.58 43 47C40.48 47.78 35.56 50.12 30.4 50.3C28.3 50.42 27.7 49.7 28.36 47.66C33.04 32.78 67.12 6.38 73.12 11.24C80.2 17 53.98 60.32 46.42 69.02C46 70.28 36.22 73.04 30.7 79.04C25 86.24 34.42 90.44 43.96 88.4C84.52 79.76 113.14 44.36 96.28 41.72C92.5 41.6 89.08 42.86 85.48 44.12C94.72 39.5 120.46 18.26 109.24 14.72C98.92 11.48 77.68 30.5 67.48 41.48C70.06 35.6 84.16 7.52 69.94 8.66C56.92 9.68 32.02 32.6 27.22 43.7C24.82 49.22 26.26 52.76 32.2 52.22ZM98.08 18.68C98.5 18.5 105.94 14.36 108.22 15.98C115 20.72 81.64 45.44 70.3 53.06C69.4 53.84 72.52 55.16 73.3 54.32C78.7 49.4 89.8 43.34 96.64 43.46C99.4 43.52 100.18 45.08 99.4 47.78C96.46 58.16 67.48 82.04 42.16 86.54C37.18 87.44 30.28 87.38 32.68 82.64C34.36 79.28 38.26 76.52 41.68 74.84C41.8 74.78 43 74.18 42.94 74.3C40.54 78.56 41.26 80.6 42.46 80.9C43.12 81.02 43.48 80.3 43.78 79.76C44.62 77.36 48.34 71.42 49.72 70.64C58.18 66.56 76.84 62.42 82.78 61.64C83.86 61.4 79.72 61.1 77.5 61.52C72.16 62.24 63.46 63.56 50.74 67.76C50.56 67.82 51.34 66.62 51.4 66.5C64.6 44.42 82.06 27.08 98.08 18.68ZM104.28 66.74C110.46 64.88 116.16 59.54 119.28 56.84C120.3 55.76 119.88 55.76 118.74 56.6C116.46 58.16 106.92 65.84 101.94 65.36C100.68 65.36 99.4197 64.1 100.38 61.52C100.56 61.1 100.74 61.64 102.06 61.7C104.52 61.94 107.94 60.44 110.16 58.22C111.3 57.02 110.58 55.1 109.02 54.44C106.5 53.3 102.12 55.28 100.26 57.62C98.6997 59.54 96.7797 62.48 98.0397 65.18C98.9397 67.1 101.1 67.58 104.28 66.74ZM107.58 55.34C108.18 55.22 108.78 55.16 109.14 55.46C109.74 55.88 109.02 56.84 108.54 57.32C106.5 59.42 103.44 60.68 101.16 59.9C102.42 58.04 104.82 55.88 107.58 55.34ZM127.67 68.9C133.55 68.66 142.07 61.7 148.91 56.3C149.51 55.82 148.67 55.34 148.07 55.88C141.29 61.52 132.35 67.76 127.43 67.22C125.45 67.34 123.83 65.78 124.97 62.54C130.13 61.76 134.57 59.72 137.57 56.6C138.47 55.7 136.55 54.5 135.71 54.56C130.91 55.04 124.55 58.52 117.71 65.42C119.27 61.34 120.47 58.88 121.31 57.38C129.71 53.18 156.65 39.92 161.03 27.5C162.77 22.7 160.43 20.18 157.25 20C138.47 18.38 108.53 67.28 116.09 68.06C116.75 68.12 120.53 65 123.05 62.84C121.91 66.86 124.85 69.02 127.67 68.9ZM135.35 55.88C133.79 57.68 128.81 60.8 127.31 60.26C127.19 60.26 127.13 60.32 127.01 60.32C129.29 57.8 135.29 55.94 135.35 55.88ZM156.23 21.08C159.17 20.72 160.79 21.56 160.01 25.46C157.79 37.76 130.61 50.42 122.33 55.34C130.31 41.06 146.51 22.4 156.23 21.08ZM142.462 34.76C142.462 34.94 142.582 35 142.762 35C149.362 33.56 157.042 32.42 164.602 31.64C150.142 46.7 137.722 69.98 144.682 73.76C145.342 74.12 146.602 74.12 147.202 74.06C153.682 73.04 170.122 59.78 174.502 55.34C174.862 55.1 174.322 54.5 173.962 54.8C171.082 57.38 150.922 73.7 146.002 72.08C141.442 70.52 154.342 46.22 168.442 31.28C186.022 29.78 202.042 30.32 201.802 33.8C201.802 34.28 201.442 34.34 201.322 34.7C201.022 35.54 202.342 35.96 202.642 35.06C202.582 35.12 202.882 34.34 202.882 33.86C203.242 28.16 185.842 28.4 169.582 30.08C175.042 24.56 180.622 20.54 185.362 19.88C185.482 19.88 185.602 19.88 185.722 19.82C184.882 18.44 183.862 18.86 182.782 19.1C177.562 20.36 171.502 24.74 165.742 30.5C153.142 32 142.282 34.16 142.462 34.76ZM182.297 66.26C185.777 68 198.498 55.1 198.258 54.74C197.838 54.02 185.057 66.2 183.257 64.94C181.937 64.04 183.677 59.24 188.597 53.72C189.077 53.24 186.737 52.82 185.357 53.48C184.218 54.14 182.117 57.2 181.877 57.44C179.777 59.66 173.837 66.44 171.437 65.78C169.277 65.12 173.117 57.14 176.537 54.32C177.197 53.24 174.437 53.54 173.657 54.02C168.617 57.5 167.057 64.34 169.397 66.2C171.917 68.78 177.917 64.16 180.917 60.14C179.357 63.86 180.497 65.42 182.297 66.26ZM204.949 59.9C201.409 63.32 198.829 65.96 200.449 68.78C200.929 69.62 202.129 69.92 203.269 69.68C208.969 67.88 215.689 61.28 220.489 56.3C221.329 55.4 219.589 55.82 219.409 56C214.489 61.1 205.009 69.26 202.669 68.3C200.329 67.22 208.549 60.98 210.829 56.18C211.189 55.46 210.769 54.86 210.169 54.56H210.109C208.069 54.38 197.329 61.82 195.769 60.32C195.409 60.08 194.989 59.96 195.649 58.52C196.249 58.22 197.089 57.74 198.229 57.08C199.969 55.82 202.129 54.02 201.769 53.6C201.769 53.6 201.109 52.76 200.809 52.82C198.949 53 195.349 55.7 194.149 57.74C192.109 61.22 194.629 61.64 195.529 61.7C203.029 61.58 207.289 56.18 204.949 59.9Z" fill="#064E3B"/>
<path d="M70.32 116.529C71.16 113.529 69.9 110.049 65.94 110.889C54.3 113.229 15.72 139.389 6.6 154.089C2.04 161.409 8.7 168.249 31.5 158.049C32.04 157.809 30.9 157.329 29.82 157.449C21.24 160.089 5.28 164.949 9.42 155.949C14.94 143.829 51.48 116.829 66 112.509C67.68 112.029 68.1 112.569 67.62 114.129C63.96 126.069 29.88 169.749 19.92 181.629C18.66 183.189 20.1 186.369 21.84 187.329C23.64 188.289 21.3 187.509 25.5 182.109C43.2 163.809 85.32 111.609 90.9 118.449C96.48 125.169 61.32 160.509 61.98 168.729C61.8 170.469 63.9 174.249 64.86 173.589C65.1 172.329 66.18 170.169 66.54 169.449C69.6 163.329 107.1 120.789 113.4 124.869C121.38 130.029 90.6 155.949 84.54 173.229C82.98 177.609 83.82 181.689 88.38 183.069C92.1 184.209 98.52 182.049 100.86 179.289C101.46 178.509 102.06 178.149 101.04 177.789C100.32 177.549 99.48 177.969 98.82 178.569C96.48 180.369 94.5 181.569 91.62 181.989C87.18 182.649 85.8 180.369 86.7 175.989C90.06 160.989 126.48 129.549 114.6 123.969C103.62 118.929 70.86 160.689 65.94 166.209C65.7 166.389 65.4 166.209 65.52 165.909C68.4 159.549 101.04 126.009 92.46 117.849C83.16 109.029 43.08 160.029 43.08 160.029C42.96 160.209 42.72 160.029 42.78 159.849C49.68 148.509 65.52 127.749 70.32 116.529ZM104.776 167.949C108.316 169.689 121.036 156.729 120.736 156.369C120.316 155.649 107.596 167.829 105.796 166.569C104.476 165.669 106.156 160.869 111.136 155.349C111.676 154.749 108.316 153.909 107.356 155.049C105.676 156.549 99.7364 165.429 104.776 167.949ZM109.756 151.989C109.576 152.649 112.336 152.109 112.336 152.109C112.336 152.109 116.056 151.389 114.916 150.969C113.776 150.549 111.436 151.029 111.436 151.029C111.436 151.029 109.876 151.569 109.756 151.989ZM162.279 127.389C164.019 122.589 161.679 120.069 158.499 119.889C140.379 118.329 106.179 169.089 116.799 174.849C117.459 175.209 118.719 175.209 119.319 175.089C125.799 174.129 142.239 160.869 146.619 156.429C146.979 156.129 146.439 155.589 146.079 155.889C143.199 158.409 122.979 174.789 118.119 173.109C114.999 172.089 121.119 159.969 122.619 157.029C126.759 155.769 157.719 141.129 162.279 127.389ZM157.479 120.969C160.419 120.549 162.099 121.449 161.259 125.289C159.039 137.589 127.779 153.489 123.639 155.049C131.619 140.829 147.759 122.289 157.479 120.969ZM140.197 167.229C142.537 169.629 147.997 165.069 150.997 161.109C149.437 164.769 150.577 166.329 152.377 167.229C155.857 168.969 168.577 156.069 168.337 155.649C167.917 154.929 155.197 167.109 153.337 165.909C152.017 164.949 153.757 160.149 158.677 154.689C159.217 154.089 155.917 153.189 154.897 154.329C153.697 155.409 153.157 156.069 153.157 156.069C153.037 154.509 149.137 153.909 147.217 154.869C140.857 157.989 137.617 165.129 140.197 167.229ZM152.257 156.309C152.617 157.029 151.957 158.169 151.537 158.589C149.977 160.269 147.577 163.029 145.657 164.709C143.857 166.269 141.937 167.109 141.517 166.689C139.537 164.829 149.797 152.769 152.257 156.309ZM161.511 166.509C162.171 166.929 162.891 167.469 163.671 166.869C164.331 166.389 164.931 165.849 165.471 165.309C166.551 164.229 176.391 154.809 177.471 155.109C177.831 155.529 174.891 159.189 173.751 162.549C173.331 163.809 173.151 164.769 174.591 165.849C175.611 166.749 177.231 166.389 178.251 165.729C181.371 163.749 188.031 158.049 190.011 155.889C190.191 155.589 190.611 154.629 189.231 155.769C186.291 157.869 177.531 166.209 176.211 164.769C175.011 163.509 179.871 157.749 179.991 156.069C180.291 155.049 178.491 152.409 176.511 153.549C172.731 155.589 167.571 161.349 164.331 163.869C164.511 163.029 165.771 160.869 169.671 154.389C168.831 154.029 168.531 154.389 168.231 154.689C165.471 157.749 163.071 161.109 161.151 164.709C160.791 165.429 160.851 166.029 161.511 166.509ZM183.732 167.229C186.072 169.629 191.532 165.069 194.532 161.109C192.972 164.769 194.112 166.329 195.912 167.229C199.392 168.969 212.112 156.069 211.872 155.649C211.452 154.929 198.732 167.109 196.872 165.909C195.552 164.949 197.292 160.149 202.212 154.689C202.752 154.089 199.452 153.189 198.432 154.329C197.232 155.409 196.692 156.069 196.692 156.069C196.572 154.509 192.672 153.909 190.752 154.869C184.392 157.989 181.152 165.129 183.732 167.229ZM195.792 156.309C196.152 157.029 195.492 158.169 195.072 158.589C193.512 160.269 191.112 163.029 189.192 164.709C187.392 166.269 185.472 167.109 185.052 166.689C183.072 164.829 193.332 152.769 195.792 156.309Z" fill="#064E3B"/>
<path d="M125.669 99.2779C126.467 99.4512 127.117 99.7979 127.619 100.318C128.122 100.821 128.46 101.401 128.633 102.06C128.807 102.701 128.789 103.377 128.581 104.088C128.391 104.799 127.992 105.457 127.385 106.064C126.796 106.653 125.981 107.139 124.941 107.52C123.919 107.884 122.653 108.057 121.145 108.04C119.637 108.023 118.381 107.806 117.375 107.39C116.37 106.957 115.599 106.428 115.061 105.804C114.524 105.163 114.203 104.478 114.099 103.75C114.013 103.005 114.117 102.303 114.411 101.644C114.706 100.968 115.183 100.387 115.841 99.9019C116.517 99.4166 117.349 99.1219 118.337 99.0179L118.545 99.0439C117.696 98.8532 117.003 98.5239 116.465 98.0559C115.928 97.5879 115.555 97.0592 115.347 96.4699C115.139 95.8632 115.087 95.2392 115.191 94.5979C115.295 93.9566 115.547 93.3672 115.945 92.8299C116.361 92.2926 116.925 91.8592 117.635 91.5299C118.346 91.1832 119.204 91.0186 120.209 91.0359C120.712 91.0359 121.223 91.1052 121.743 91.2439C122.263 91.3652 122.731 91.5646 123.147 91.8419C123.581 92.1192 123.936 92.4659 124.213 92.8819C124.491 93.2979 124.629 93.8006 124.629 94.3899C124.629 94.7366 124.543 94.9879 124.369 95.1439C124.213 95.2999 124.04 95.3779 123.849 95.3779C123.624 95.3779 123.433 95.2739 123.277 95.0659C123.121 94.8579 123.095 94.5546 123.199 94.1559C123.303 93.7399 123.303 93.3759 123.199 93.0639C123.095 92.7346 122.913 92.4659 122.653 92.2579C122.411 92.0326 122.107 91.8679 121.743 91.7639C121.379 91.6426 120.989 91.5819 120.573 91.5819C120.14 91.5819 119.698 91.6512 119.247 91.7899C118.797 91.9286 118.389 92.1452 118.025 92.4399C117.661 92.7346 117.367 93.1159 117.141 93.5839C116.916 94.0346 116.803 94.5719 116.803 95.1959C116.803 96.2359 117.072 97.0939 117.609 97.7699C118.147 98.4286 118.918 98.7666 119.923 98.7839C120.149 98.7839 120.244 98.8619 120.209 99.0179C120.192 99.1566 120.097 99.2259 119.923 99.2259C119.091 99.2086 118.381 99.3992 117.791 99.7979C117.219 100.179 116.786 100.665 116.491 101.254C116.197 101.843 116.049 102.485 116.049 103.178C116.067 103.871 116.257 104.521 116.621 105.128C116.985 105.717 117.531 106.211 118.259 106.61C119.005 107.009 119.958 107.217 121.119 107.234C121.813 107.234 122.489 107.165 123.147 107.026C123.823 106.87 124.421 106.636 124.941 106.324C125.479 106.012 125.921 105.613 126.267 105.128C126.631 104.643 126.848 104.071 126.917 103.412C126.987 102.788 126.961 102.259 126.839 101.826C126.735 101.393 126.571 101.037 126.345 100.76C126.137 100.465 125.877 100.257 125.565 100.136C125.253 99.9972 124.924 99.9279 124.577 99.9279C124.109 99.9279 123.633 100.049 123.147 100.292C123.13 100.292 123.113 100.301 123.095 100.318C122.679 100.491 122.307 100.699 121.977 100.942C121.787 101.15 121.709 101.341 121.743 101.514C121.778 101.687 121.847 101.869 121.951 102.06C122.073 102.233 122.194 102.415 122.315 102.606C122.454 102.779 122.523 102.979 122.523 103.204C122.523 103.533 122.437 103.785 122.263 103.958C122.107 104.131 121.908 104.218 121.665 104.218C121.249 104.218 120.955 104.079 120.781 103.802C120.625 103.525 120.556 103.195 120.573 102.814C120.608 102.433 120.721 102.043 120.911 101.644C121.102 101.228 121.336 100.89 121.613 100.63H121.639C121.674 100.595 121.7 100.569 121.717 100.552C121.735 100.517 121.761 100.491 121.795 100.474C122.159 100.145 122.593 99.8586 123.095 99.6159C123.615 99.3559 124.144 99.1132 124.681 98.8879C125.236 98.6452 125.773 98.4026 126.293 98.1599C126.813 97.9172 127.255 97.6486 127.619 97.3539C128.001 97.0592 128.261 96.7212 128.399 96.3399C128.555 95.9586 128.538 95.5166 128.347 95.0139C128.174 94.5632 128.183 94.2166 128.373 93.9739C128.564 93.7139 128.807 93.5839 129.101 93.5839C129.361 93.5839 129.604 93.7052 129.829 93.9479C130.055 94.1732 130.15 94.5459 130.115 95.0659C130.063 95.6552 129.899 96.1666 129.621 96.5999C129.361 97.0332 129.023 97.4146 128.607 97.7439C128.209 98.0732 127.749 98.3592 127.229 98.6019C126.727 98.8446 126.207 99.0699 125.669 99.2779Z" fill="#064E3B"/>
</svg>
